<?xml version="1.0" encoding="utf-8"?>
<!-- Generator: Adobe Illustrator 21.1.0, SVG Export Plug-In . SVG Version: 6.00 Build 0)  -->
<svg version="1.1" id="Icon_Set" xmlns="http://www.w3.org/2000/svg" xmlns:xlink="http://www.w3.org/1999/xlink" x="0px" y="0px"
	 viewBox="0 0 512 512" style="enable-background:new 0 0 512 512;" xml:space="preserve">
<style type="text/css">
	.st0{fill:#FFFFFF;}
	.st1{fill:#7DAC51;}
	.st2{fill:#5B7C31;}
	.st3{fill:#463218;}
	.st4{fill:#FEFE71;}
	.st5{fill:#D6CD1E;}
	.st6{fill:#E56823;}
	.st7{fill:#FE8E46;}
	.st8{fill:none;stroke:#FFFFFF;stroke-width:10;stroke-miterlimit:10;}
	.st9{fill:none;stroke:#463218;stroke-width:14;stroke-linecap:round;stroke-linejoin:round;stroke-miterlimit:10;}
	.st10{fill:#FE8D47;}
	.st11{fill:#E56724;}
</style>
<g id="DAISIES">
	<g>
		<g>
			<g>
				<g>
					<polygon class="st1" points="328.2,408.2 195.8,408.2 163.5,211.3 360.5,211.3 					"/>
				</g>
			</g>
		</g>
		<g>
			<g>
				<g>
					<polygon class="st2" points="163.5,211.3 195.8,408.2 237.5,408.2 205.3,211.3 					"/>
				</g>
			</g>
		</g>
		<g>
			<g>
				<g>
					<path class="st3" d="M328.2,415.2H195.8c-3.4,0-6.4-2.5-6.9-5.9l-32.2-196.9c-0.3-2,0.2-4.1,1.6-5.7s3.3-2.5,5.3-2.5h196.9
						c2.1,0,4,0.9,5.3,2.5s1.9,3.6,1.6,5.7l-32.2,196.9C334.6,412.7,331.7,415.2,328.2,415.2z M201.7,401.2h120.6l29.9-182.9H171.8
						L201.7,401.2z"/>
				</g>
			</g>
		</g>
	</g>
	<g>
		<g>
			<g>
				<g>
					<g>
						<path class="st6" d="M296.1,143.2c0,15.1,5.7,28.9,15,39.4c9.3-10.5,15-24.3,15-39.4c0-15.1-5.7-28.9-15-39.4
							C301.8,114.3,296.1,128.1,296.1,143.2z"/>
					</g>
				</g>
				<g>
					<g>
						<path class="st6" d="M296.1,239.5c0,15.1,5.7,28.9,15,39.4c9.3-10.5,15-24.3,15-39.4c0-15.1-5.7-28.9-15-39.4
							C301.8,210.5,296.1,224.4,296.1,239.5z"/>
					</g>
				</g>
			</g>
			<g>
				<g>
					<g>
						<path class="st6" d="M359.2,176.4c-15.1,0-28.9,5.7-39.4,15c10.5,9.3,24.3,15,39.4,15c15.1,0,28.9-5.7,39.4-15
							C388.2,182,374.3,176.4,359.2,176.4z"/>
					</g>
				</g>
				<g>
					<g>
						<path class="st6" d="M263,176.4c-15.1,0-28.9,5.7-39.4,15c10.5,9.3,24.3,15,39.4,15c15.1,0,28.9-5.7,39.4-15
							C291.9,182,278.1,176.4,263,176.4z"/>
					</g>
				</g>
			</g>
			<g>
				<g>
					<g>
						<path class="st6" d="M355.7,214.8c-10.7-10.7-24.5-16.5-38.5-17.3c0.8,14,6.6,27.8,17.3,38.5c10.7,10.7,24.5,16.5,38.5,17.3
							C372.2,239.3,366.4,225.5,355.7,214.8z"/>
					</g>
				</g>
				<g>
					<g>
						<path class="st6" d="M287.6,146.7c-10.7-10.7-24.5-16.5-38.5-17.3c0.8,14,6.6,27.8,17.3,38.5c10.7,10.7,24.5,16.5,38.5,17.3
							C304.1,171.2,298.4,157.4,287.6,146.7z"/>
					</g>
				</g>
			</g>
			<g>
				<g>
					<g>
						<path class="st6" d="M287.6,236c10.7-10.7,16.5-24.5,17.3-38.5c-14,0.8-27.8,6.6-38.5,17.3s-16.5,24.5-17.3,38.5
							C263.2,252.4,276.9,246.7,287.6,236z"/>
					</g>
				</g>
				<g>
					<g>
						<path class="st6" d="M355.7,167.9c10.7-10.7,16.5-24.5,17.3-38.5c-14,0.8-27.8,6.6-38.5,17.3c-10.7,10.7-16.5,24.5-17.3,38.5
							C331.2,184.4,345,178.6,355.7,167.9z"/>
					</g>
				</g>
			</g>
			<g>
				<g>
					<g>
						<path class="st3" d="M311.1,189.7c-2,0-3.9-0.9-5.2-2.4c-10.8-12.2-16.8-27.8-16.8-44.1s5.9-31.9,16.8-44.1
							c1.3-1.5,3.2-2.4,5.2-2.4l0,0c2,0,3.9,0.9,5.2,2.4c10.8,12.2,16.8,27.8,16.8,44.1s-5.9,31.9-16.8,44.1
							C315,188.8,313.1,189.7,311.1,189.7z M311.1,115.4c-5.2,8.3-8,17.9-8,27.8s2.8,19.5,8,27.8c5.2-8.3,8-17.9,8-27.8
							S316.3,123.7,311.1,115.4z"/>
					</g>
				</g>
				<g>
					<g>
						<path class="st3" d="M311.1,285.9c-2,0-3.9-0.9-5.2-2.4c-10.8-12.2-16.8-27.8-16.8-44.1s5.9-31.9,16.8-44.1
							c1.3-1.5,3.2-2.4,5.2-2.4l0,0c2,0,3.9,0.9,5.2,2.4c10.8,12.2,16.8,27.8,16.8,44.1s-5.9,31.9-16.8,44.1
							C315,285.1,313.1,285.9,311.1,285.9z M311.1,211.7c-5.2,8.3-8,17.9-8,27.8s2.8,19.5,8,27.8c5.2-8.3,8-17.9,8-27.8
							S316.3,220,311.1,211.7z"/>
					</g>
				</g>
			</g>
			<g>
				<g>
					<g>
						<path class="st3" d="M359.2,213.3c-16.3,0-31.9-5.9-44.1-16.8c-1.5-1.3-2.4-3.2-2.4-5.2s0.9-3.9,2.4-5.2
							c12.2-10.8,27.8-16.8,44.1-16.8s31.9,5.9,44.1,16.8c1.5,1.3,2.4,3.2,2.4,5.2s-0.9,3.9-2.4,5.2
							C391.1,207.4,375.5,213.3,359.2,213.3z M331.4,191.4c8.3,5.2,17.9,8,27.8,8c9.9,0,19.5-2.8,27.8-8c-8.3-5.2-17.9-8-27.8-8
							C349.3,183.4,339.7,186.2,331.4,191.4z"/>
					</g>
				</g>
				<g>
					<g>
						<path class="st3" d="M263,213.3c-16.3,0-31.9-5.9-44.1-16.8c-1.5-1.3-2.4-3.2-2.4-5.2s0.9-3.9,2.4-5.2
							c12.2-10.8,27.8-16.8,44.1-16.8s31.9,5.9,44.1,16.8c1.5,1.3,2.4,3.2,2.4,5.2s-0.9,3.9-2.4,5.2
							C294.9,207.4,279.2,213.3,263,213.3z M235.1,191.4c8.3,5.2,17.9,8,27.8,8s19.5-2.8,27.8-8c-8.3-5.2-17.9-8-27.8-8
							S243.4,186.2,235.1,191.4z"/>
					</g>
				</g>
			</g>
			<g>
				<g>
					<g>
						<path class="st3" d="M373,260.3c-0.1,0-0.3,0-0.4,0c-16.2-1-31.5-7.8-43-19.3c-11.5-11.5-18.4-26.8-19.3-43
							c-0.1-2,0.6-4,2-5.4c1.4-1.4,3.4-2.2,5.4-2c16.2,1,31.5,7.8,43,19.3c11.5,11.5,18.4,26.8,19.3,43c0.1,2-0.6,4-2,5.4
							C376.6,259.5,374.9,260.3,373,260.3z M325.5,205.7c2.2,9.5,7,18.3,14,25.3c7,7,15.8,11.8,25.3,14c-2.2-9.5-7-18.3-14-25.3
							C343.8,212.7,335,207.9,325.5,205.7z"/>
					</g>
				</g>
				<g>
					<g>
						<path class="st3" d="M304.9,192.2c-0.1,0-0.3,0-0.4,0c-16.2-1-31.5-7.8-43-19.3c-11.5-11.5-18.4-26.8-19.3-43
							c-0.1-2,0.6-4,2-5.4c1.4-1.4,3.4-2.2,5.4-2c16.2,1,31.5,7.8,43,19.3l0,0c11.5,11.5,18.4,26.8,19.3,43c0.1,2-0.6,4-2,5.4
							C308.6,191.5,306.8,192.2,304.9,192.2z M257.4,137.7c2.2,9.5,7,18.3,14,25.3s15.8,11.8,25.3,14c-2.2-9.5-7-18.3-14-25.3
							C275.7,144.7,266.9,139.9,257.4,137.7z"/>
					</g>
				</g>
			</g>
			<g>
				<g>
					<g>
						<path class="st3" d="M249.2,260.3c-1.9,0-3.6-0.7-4.9-2.1c-1.4-1.4-2.2-3.4-2-5.4c1-16.2,7.8-31.5,19.3-43
							c11.5-11.5,26.8-18.4,43-19.3c2-0.1,4,0.6,5.4,2c1.4,1.4,2.2,3.4,2,5.4c-1,16.2-7.8,31.5-19.3,43
							c-11.5,11.5-26.8,18.4-43,19.3C249.4,260.3,249.3,260.3,249.2,260.3z M296.7,205.7c-9.5,2.2-18.3,7-25.3,14
							c-7,7-11.8,15.8-14,25.3c9.5-2.2,18.3-7,25.3-14C289.7,224,294.5,215.3,296.7,205.7z"/>
					</g>
				</g>
				<g>
					<g>
						<path class="st3" d="M317.2,192.2c-1.9,0-3.6-0.7-4.9-2c-1.4-1.4-2.2-3.4-2-5.4c1-16.2,7.8-31.5,19.3-43
							c11.5-11.5,26.8-18.4,43-19.3c2-0.1,4,0.6,5.4,2c1.4,1.4,2.2,3.4,2,5.4c-1,16.2-7.8,31.5-19.3,43
							c-11.5,11.5-26.8,18.4-43,19.3C317.5,192.2,317.4,192.2,317.2,192.2z M364.8,137.7c-9.5,2.2-18.3,7-25.3,14
							s-11.8,15.8-14,25.3c9.5-2.2,18.3-7,25.3-14S362.6,147.2,364.8,137.7z"/>
					</g>
				</g>
			</g>
			<g>
				<g>
					<g>
						<circle class="st4" cx="311.1" cy="191.4" r="20.2"/>
					</g>
				</g>
				<g>
					<g>
						<path class="st3" d="M311.1,218.6c-15,0-27.2-12.2-27.2-27.2s12.2-27.2,27.2-27.2c15,0,27.2,12.2,27.2,27.2
							S326.1,218.6,311.1,218.6z M311.1,178.2c-7.3,0-13.2,5.9-13.2,13.2s5.9,13.2,13.2,13.2c7.3,0,13.2-5.9,13.2-13.2
							S318.4,178.2,311.1,178.2z"/>
					</g>
				</g>
			</g>
		</g>
		<g>
			<g>
				<g>
					<g>
						<path class="st6" d="M180.1,192.2c0,13.9,5.2,26.6,13.8,36.3c8.6-9.6,13.8-22.3,13.8-36.3c0-13.9-5.2-26.6-13.8-36.3
							C185.3,165.6,180.1,178.3,180.1,192.2z"/>
					</g>
				</g>
				<g>
					<g>
						<path class="st6" d="M180.1,280.7c0,13.9,5.2,26.6,13.8,36.3c8.6-9.6,13.8-22.3,13.8-36.3c0-13.9-5.2-26.6-13.8-36.3
							C185.3,254.1,180.1,266.8,180.1,280.7z"/>
					</g>
				</g>
			</g>
			<g>
				<g>
					<g>
						<path class="st6" d="M238.1,222.7c-13.9,0-26.6,5.2-36.3,13.8c9.6,8.6,22.3,13.8,36.3,13.8c13.9,0,26.6-5.2,36.3-13.8
							C264.7,227.9,252,222.7,238.1,222.7z"/>
					</g>
				</g>
				<g>
					<g>
						<path class="st6" d="M149.6,222.7c-13.9,0-26.6,5.2-36.3,13.8c9.6,8.6,22.3,13.8,36.3,13.8c13.9,0,26.6-5.2,36.3-13.8
							C176.2,227.9,163.5,222.7,149.6,222.7z"/>
					</g>
				</g>
			</g>
			<g>
				<g>
					<g>
						<path class="st6" d="M234.9,258c-9.8-9.8-22.5-15.1-35.4-15.9c0.8,12.9,6.1,25.5,15.9,35.4c9.8,9.8,22.5,15.1,35.4,15.9
							C250,280.5,244.7,267.8,234.9,258z"/>
					</g>
				</g>
				<g>
					<g>
						<path class="st6" d="M172.3,195.4c-9.8-9.8-22.5-15.1-35.4-15.9c0.8,12.9,6.1,25.5,15.9,35.4c9.8,9.8,22.5,15.1,35.4,15.9
							C187.4,217.9,182.2,205.2,172.3,195.4z"/>
					</g>
				</g>
			</g>
			<g>
				<g>
					<g>
						<path class="st6" d="M172.3,277.5c9.8-9.8,15.1-22.5,15.9-35.4c-12.9,0.8-25.5,6.1-35.4,15.9c-9.8,9.8-15.1,22.5-15.9,35.4
							C149.8,292.6,162.5,287.3,172.3,277.5z"/>
					</g>
				</g>
				<g>
					<g>
						<path class="st6" d="M234.9,214.9c9.8-9.8,15.1-22.5,15.9-35.4c-12.9,0.8-25.5,6.1-35.4,15.9c-9.8,9.8-15.1,22.5-15.9,35.4
							C212.4,230,225.1,224.7,234.9,214.9z"/>
					</g>
				</g>
			</g>
			<g>
				<g>
					<g>
						<path class="st3" d="M193.9,235.4L193.9,235.4c-2,0-3.9-0.9-5.2-2.4c-10-11.3-15.5-25.8-15.5-40.9c0-15.1,5.5-29.6,15.5-40.9
							c1.3-1.5,3.2-2.4,5.2-2.4s3.9,0.9,5.2,2.4c10,11.3,15.5,25.8,15.5,40.9c0,15.1-5.5,29.6-15.5,40.9
							C197.8,234.6,195.9,235.4,193.9,235.4z M193.9,167.7c-4.4,7.4-6.8,15.8-6.8,24.5s2.4,17.1,6.8,24.5c4.4-7.4,6.8-15.8,6.8-24.5
							C200.6,183.5,198.3,175.1,193.9,167.7z"/>
					</g>
				</g>
				<g>
					<g>
						<path class="st3" d="M193.9,323.9L193.9,323.9c-2,0-3.9-0.9-5.2-2.4c-10-11.3-15.5-25.8-15.5-40.9c0-15.1,5.5-29.6,15.5-40.9
							c1.3-1.5,3.2-2.4,5.2-2.4s3.9,0.9,5.2,2.4c10,11.3,15.5,25.8,15.5,40.9c0,15.1-5.5,29.6-15.5,40.9
							C197.8,323.1,195.9,323.9,193.9,323.9z M193.9,256.2c-4.4,7.4-6.8,15.8-6.8,24.5s2.4,17.1,6.8,24.5c4.4-7.4,6.8-15.8,6.8-24.5
							C200.6,272,198.3,263.5,193.9,256.2z"/>
					</g>
				</g>
			</g>
			<g>
				<g>
					<g>
						<path class="st3" d="M238.1,257.2c-15.1,0-29.6-5.5-40.9-15.5c-1.5-1.3-2.4-3.2-2.4-5.2s0.9-3.9,2.4-5.2
							c11.3-10,25.8-15.5,40.9-15.5s29.6,5.5,40.9,15.5c1.5,1.3,2.4,3.2,2.4,5.2s-0.9,3.9-2.4,5.2
							C267.7,251.7,253.2,257.2,238.1,257.2z M213.6,236.4c7.4,4.4,15.8,6.8,24.5,6.8s17.1-2.4,24.5-6.8c-7.4-4.4-15.8-6.8-24.5-6.8
							S221,232,213.6,236.4z"/>
					</g>
				</g>
				<g>
					<g>
						<path class="st3" d="M149.6,257.2c-15.1,0-29.6-5.5-40.9-15.5c-1.5-1.3-2.4-3.2-2.4-5.2s0.9-3.9,2.4-5.2
							c11.3-10,25.8-15.5,40.9-15.5s29.6,5.5,40.9,15.5c1.5,1.3,2.4,3.2,2.4,5.2s-0.9,3.9-2.4,5.2
							C179.2,251.7,164.7,257.2,149.6,257.2z M125.1,236.4c7.4,4.4,15.8,6.8,24.5,6.8c8.7,0,17.1-2.4,24.5-6.8
							c-7.4-4.4-15.8-6.8-24.5-6.8C140.9,229.7,132.5,232,125.1,236.4z"/>
					</g>
				</g>
			</g>
			<g>
				<g>
					<g>
						<path class="st3" d="M250.8,300.4c-0.1,0-0.3,0-0.4,0c-15.1-0.9-29.2-7.3-39.9-17.9c-10.7-10.7-17-24.8-17.9-39.9
							c-0.1-2,0.6-4,2-5.4c1.4-1.4,3.4-2.2,5.4-2c15.1,0.9,29.2,7.3,39.9,17.9v0v0c10.7,10.7,17,24.8,17.9,39.9c0.1,2-0.6,4-2,5.4
							C254.4,299.6,252.6,300.4,250.8,300.4z M207.8,250.4c2.1,8.3,6.4,16,12.5,22.1c6.1,6.1,13.8,10.4,22.1,12.5
							c-2.1-8.3-6.4-16-12.5-22.1v0C223.8,256.8,216.2,252.5,207.8,250.4z"/>
					</g>
				</g>
				<g>
					<g>
						<path class="st3" d="M188.2,237.8c-0.1,0-0.3,0-0.4,0c-15.1-0.9-29.2-7.3-39.9-17.9c-10.7-10.7-17-24.8-17.9-39.9
							c-0.1-2,0.6-4,2-5.4s3.4-2.2,5.4-2c15.1,0.9,29.2,7.3,39.9,17.9v0v0c10.7,10.7,17,24.8,17.9,39.9c0.1,2-0.6,4-2,5.4
							C191.8,237.1,190.1,237.8,188.2,237.8z M145.3,187.8c2.1,8.3,6.4,16,12.5,22.1c6.1,6.1,13.8,10.4,22.1,12.5
							c-2.1-8.3-6.4-16-12.5-22.1v0C161.2,194.2,153.6,189.9,145.3,187.8z"/>
					</g>
				</g>
			</g>
			<g>
				<g>
					<g>
						<path class="st3" d="M136.9,300.4c-1.9,0-3.6-0.7-4.9-2c-1.4-1.4-2.2-3.4-2-5.4c0.9-15.1,7.3-29.2,17.9-39.9
							c10.7-10.7,24.8-17,39.9-17.9c2-0.1,4,0.6,5.4,2c1.4,1.4,2.2,3.4,2,5.4c-0.9,15.1-7.3,29.2-17.9,39.9v0v0
							c-10.7,10.7-24.8,17-39.9,17.9C137.2,300.4,137.1,300.4,136.9,300.4z M179.9,250.4c-8.3,2.1-16,6.4-22.1,12.5
							c-6.1,6.1-10.4,13.8-12.5,22.1c8.3-2.1,16-6.4,22.1-12.5v0C173.5,266.4,177.8,258.7,179.9,250.4z"/>
					</g>
				</g>
				<g>
					<g>
						<path class="st3" d="M199.5,237.8c-1.9,0-3.6-0.7-4.9-2c-1.4-1.4-2.2-3.4-2-5.4c0.9-15.1,7.3-29.2,17.9-39.9
							c10.7-10.7,24.8-17,39.9-17.9c2-0.1,4,0.6,5.4,2c1.4,1.4,2.2,3.4,2,5.4c-0.9,15.1-7.3,29.2-17.9,39.9v0v0
							c-10.7,10.7-24.8,17-39.9,17.9C199.8,237.8,199.6,237.8,199.5,237.8z M242.5,187.8c-8.3,2.1-16,6.4-22.1,12.5
							c-6.1,6.1-10.4,13.8-12.5,22.1c8.3-2.1,16-6.4,22.1-12.5v0C236.1,203.8,240.4,196.1,242.5,187.8z"/>
					</g>
				</g>
			</g>
			<g>
				<g>
					<g>
						<circle class="st4" cx="193.9" cy="236.4" r="18.6"/>
					</g>
				</g>
				<g>
					<g>
						<path class="st3" d="M193.9,262c-14.1,0-25.6-11.5-25.6-25.6s11.5-25.6,25.6-25.6c14.1,0,25.6,11.5,25.6,25.6
							S208,262,193.9,262z M193.9,224.9c-6.4,0-11.6,5.2-11.6,11.6s5.2,11.6,11.6,11.6c6.4,0,11.6-5.2,11.6-11.6
							S200.2,224.9,193.9,224.9z"/>
					</g>
				</g>
			</g>
		</g>
	</g>
	<g>
		<g>
			
				<rect x="303.8" y="330.9" transform="matrix(0.1543 -0.988 0.988 0.1543 -67.6271 592.7007)" class="st0" width="17.2" height="10"/>
		</g>
	</g>
	<g>
		<g>
			
				<rect x="309" y="299.1" transform="matrix(0.1545 -0.988 0.988 0.1545 -32.0771 570.6617)" class="st0" width="16.8" height="10"/>
		</g>
	</g>
</g>
</svg>
