<?xml version="1.0" encoding="UTF-8"?>
<!DOCTYPE svg PUBLIC "-//W3C//DTD SVG 1.1//EN" "http://www.w3.org/Graphics/SVG/1.1/DTD/svg11.dtd">
<!-- Creator: CorelDRAW -->
<svg xmlns="http://www.w3.org/2000/svg" xml:space="preserve" width="6.82666in" height="6.82666in" style="shape-rendering:geometricPrecision; text-rendering:geometricPrecision; image-rendering:optimizeQuality; fill-rule:evenodd; clip-rule:evenodd"
viewBox="0 0 6.82666 6.82666"
 xmlns:xlink="http://www.w3.org/1999/xlink">
 <defs>
  <style type="text/css">
   <![CDATA[
    .fil3 {fill:none}
    .fil1 {fill:#E7E9EE}
    .fil2 {fill:#F39CC3}
    .fil0 {fill:#333333;fill-rule:nonzero}
   ]]>
  </style>
 </defs>
 <g id="Layer_x0020_1">
  <metadata id="CorelCorpID_0Corel-Layer"/>
  <g id="_627481120">
   <g>
    <path id="_627482224" class="fil0" d="M1.40631 1.40631c0.36865,-0.36865 0.851827,-0.55298 1.33499,-0.55298 0.483165,0 0.966343,0.184331 1.33499,0.55298 0.36865,0.36865 0.55298,0.851827 0.55298,1.33499 0,0.483165 -0.184331,0.966343 -0.55298,1.33499 -0.36865,0.36865 -0.851827,0.55298 -1.33499,0.55298 -0.483165,0 -0.966343,-0.184331 -1.33499,-0.55298 -0.36865,-0.36865 -0.55298,-0.851827 -0.55298,-1.33499 0,-0.483165 0.184331,-0.966343 0.55298,-1.33499zm1.33499 -0.39298c-0.442232,0 -0.884469,0.168709 -1.22187,0.506106 -0.337398,0.337398 -0.506106,0.779634 -0.506106,1.22187 0,0.442232 0.168709,0.884469 0.506106,1.22187 0.337398,0.337398 0.779634,0.506106 1.22187,0.506106 0.442232,0 0.884469,-0.168709 1.22187,-0.506106 0.337398,-0.337398 0.506106,-0.779634 0.506106,-1.22187 0,-0.442232 -0.168709,-0.884469 -0.506106,-1.22187 -0.337398,-0.337398 -0.779634,-0.506106 -1.22187,-0.506106z"/>
    <path id="_627482176" class="fil0" d="M1.54163 1.47538c0.00690157,-0.0434921 -0.0227598,-0.0843504 -0.066252,-0.091252 -0.0434921,-0.00690157 -0.0843504,0.0227598 -0.091252,0.066252 -0.0300512,0.185307 -0.0209134,0.365772 0.0206614,0.532079 0.0551614,0.220646 0.167508,0.416866 0.32137,0.567142 0.154571,0.150969 0.351091,0.255339 0.573819,0.291461 0.144559,0.0234449 0.29961,0.0180157 0.460701,-0.0222559 0.0427992,-0.0106969 0.0688228,-0.0540748 0.058126,-0.096874 -0.0106969,-0.0427992 -0.0540748,-0.0688228 -0.096874,-0.058126 -0.13976,0.034937 -0.273295,0.0398071 -0.396953,0.019752 -0.188681,-0.0305984 -0.355697,-0.119539 -0.487567,-0.248335 -0.132579,-0.129488 -0.22963,-0.299531 -0.277622,-0.491512 -0.0365827,-0.146335 -0.0446142,-0.305181 -0.0181575,-0.468331z"/>
    <path id="_627481624" class="fil0" d="M2.33524 1.04526c0.0277835,-0.0341693 0.0226063,-0.0844016 -0.011563,-0.112185 -0.0341693,-0.0277835 -0.0844016,-0.0226063 -0.112185,0.011563 -0.118772,0.145567 -0.201142,0.306492 -0.248295,0.471335 -0.0625394,0.218622 -0.0633661,0.444642 -0.0052874,0.651598 0.0583937,0.208098 0.176406,0.396768 0.351205,0.539394 0.113571,0.0926654 0.250646,0.165547 0.410315,0.21122 0.0424528,0.0120787 0.0866693,-0.0125472 0.098748,-0.055 0.0120787,-0.0424528 -0.0125472,-0.0866693 -0.055,-0.098748 -0.138472,-0.0396102 -0.256484,-0.10211 -0.353441,-0.18122 -0.148122,-0.120858 -0.248295,-0.281354 -0.298079,-0.458772 -0.0501063,-0.178555 -0.0491457,-0.374433 0.0052874,-0.564724 0.0414803,-0.145 0.113894,-0.286508 0.218295,-0.414461z"/>
    <path id="_627482152" class="fil0" d="M3.23737 1.06963c0.041248,-0.0155315 0.0620945,-0.0615669 0.046563,-0.102815 -0.0155315,-0.041248 -0.0615669,-0.0620945 -0.102815,-0.046563 -0.175551,0.0666417 -0.327335,0.164846 -0.450673,0.284102 -0.163843,0.158417 -0.277724,0.353803 -0.33085,0.561846 -0.0534449,0.209311 -0.0455984,0.431575 0.0344173,0.642358 0.0519882,0.136945 0.134272,0.268583 0.249795,0.388055 0.0305472,0.0317559 0.0810551,0.0327362 0.112811,0.00218898 0.0317559,-0.0305472 0.0327362,-0.0810551 0.00218898,-0.112811 -0.100035,-0.103457 -0.170969,-0.216602 -0.215417,-0.333685 -0.0679016,-0.17887 -0.0744094,-0.368079 -0.0287953,-0.546728 0.0459409,-0.179913 0.144547,-0.349 0.286472,-0.486224 0.108346,-0.10476 0.241815,-0.191079 0.396303,-0.249724z"/>
    <path id="_627481360" class="fil0" d="M4.00723 1.54163c0.0434921,0.00690157 0.0843504,-0.0227598 0.091252,-0.066252 0.00690157,-0.0434921 -0.0227598,-0.0843504 -0.066252,-0.091252 -0.185315,-0.0300512 -0.36578,-0.0209134 -0.532087,0.0206614 -0.220642,0.0551614 -0.416866,0.167512 -0.567138,0.321374 -0.150969,0.154571 -0.255339,0.351094 -0.291461,0.573815 -0.0234409,0.144555 -0.0180118,0.299614 0.0222598,0.460701 0.0106969,0.0427992 0.0540748,0.0688228 0.096874,0.058126 0.0427992,-0.0106969 0.0688228,-0.0540748 0.058126,-0.096874 -0.034937,-0.139756 -0.0398071,-0.273295 -0.0197559,-0.396953 0.0305984,-0.188677 0.119539,-0.355693 0.248335,-0.487563 0.129488,-0.132583 0.299531,-0.229634 0.491508,-0.277626 0.146343,-0.0365827 0.305185,-0.0446142 0.468339,-0.0181575z"/>
    <path id="_627481144" class="fil0" d="M4.43735 2.33524c0.0341693,0.0277835 0.0844016,0.0226063 0.112185,-0.011563 0.0277835,-0.0341693 0.0226063,-0.0844016 -0.011563,-0.112185 -0.145567,-0.118772 -0.306492,-0.201142 -0.471335,-0.248295 -0.218618,-0.0625354 -0.444638,-0.0633661 -0.651591,-0.00529134 -0.208094,0.0583976 -0.396768,0.176402 -0.539394,0.351205 -0.0926693,0.113575 -0.165547,0.250642 -0.211224,0.410319 -0.0120787,0.0424528 0.0125472,0.0866693 0.055,0.098748 0.0424528,0.0120787 0.0866693,-0.0125472 0.098748,-0.055 0.0396102,-0.138476 0.102114,-0.256484 0.181224,-0.353445 0.120858,-0.148122 0.281354,-0.248291 0.458772,-0.298079 0.178555,-0.0501024 0.374425,-0.0491417 0.564717,0.00529134 0.145,0.0414803 0.286508,0.113894 0.414461,0.218295z"/>
    <path id="_627481336" class="fil0" d="M4.41297 3.23737c0.0155315,0.041248 0.0615669,0.0620945 0.102815,0.046563 0.041248,-0.0155315 0.0620945,-0.0615669 0.046563,-0.102815 -0.0666417,-0.175547 -0.164846,-0.327339 -0.284102,-0.450673 -0.158413,-0.163839 -0.353799,-0.277724 -0.561843,-0.33085 -0.209307,-0.0534449 -0.431571,-0.0455984 -0.64235,0.0344173 -0.136949,0.0519843 -0.268587,0.134272 -0.388063,0.249795 -0.0317559,0.0305472 -0.0327362,0.0810551 -0.00218898,0.112811 0.0305472,0.0317559 0.0810551,0.0327362 0.112811,0.00218898 0.103461,-0.100035 0.21661,-0.170972 0.333693,-0.215417 0.178866,-0.0679016 0.368075,-0.0744094 0.54672,-0.0287953 0.179913,0.0459409 0.348996,0.144555 0.48622,0.286472 0.10476,0.108343 0.191079,0.241815 0.249724,0.396303z"/>
    <path id="_627481192" class="fil0" d="M3.94098 4.00723c-0.00690157,0.0434921 0.0227598,0.0843504 0.066252,0.091252 0.0434921,0.00690157 0.0843504,-0.0227598 0.091252,-0.066252 0.0300512,-0.185315 0.0209134,-0.36578 -0.0206614,-0.532087 -0.0551614,-0.220642 -0.167512,-0.416866 -0.321374,-0.567138 -0.154571,-0.150969 -0.351094,-0.255339 -0.573815,-0.291461 -0.144555,-0.0234409 -0.299614,-0.0180118 -0.460701,0.0222598 -0.0427992,0.0106969 -0.0688228,0.0540748 -0.058126,0.096874 0.0106969,0.0427992 0.0540748,0.0688228 0.096874,0.058126 0.139756,-0.034937 0.273295,-0.0398071 0.396953,-0.0197559 0.188677,0.0305984 0.355693,0.119539 0.487563,0.248335 0.132583,0.129488 0.229634,0.299531 0.277626,0.491508 0.0365827,0.146343 0.0446142,0.305185 0.0181575,0.468339z"/>
    <path id="_627481456" class="fil0" d="M3.14737 4.43735c-0.0277835,0.0341693 -0.0226063,0.0844016 0.011563,0.112185 0.0341693,0.0277835 0.0844016,0.0226063 0.112185,-0.011563 0.118772,-0.145567 0.201142,-0.306492 0.248295,-0.471335 0.0625354,-0.218618 0.0633661,-0.444638 0.00529134,-0.651591 -0.0583976,-0.208094 -0.176406,-0.396768 -0.351205,-0.539394 -0.113575,-0.0926693 -0.250642,-0.165547 -0.410319,-0.211224 -0.0424528,-0.0120787 -0.0866693,0.0125472 -0.098748,0.055 -0.0120787,0.0424528 0.0125472,0.0866693 0.055,0.098748 0.138476,0.0396102 0.256484,0.102114 0.353445,0.181224 0.148122,0.120858 0.248291,0.281354 0.298079,0.458772 0.0501024,0.178555 0.0491417,0.374425 -0.00529134,0.564717 -0.0414803,0.145 -0.113894,0.286508 -0.218295,0.414461z"/>
    <path id="_627480856" class="fil0" d="M2.24524 4.41298c-0.041248,0.0155315 -0.0620945,0.0615669 -0.046563,0.102815 0.0155315,0.041248 0.0615669,0.0620945 0.102815,0.046563 0.175547,-0.0666417 0.327335,-0.164846 0.450673,-0.284098 0.163839,-0.158413 0.277724,-0.353803 0.33085,-0.561846 0.0534449,-0.209311 0.0455984,-0.431575 -0.0344173,-0.642354 -0.0519882,-0.136949 -0.134272,-0.268583 -0.249795,-0.388059 -0.0305472,-0.0317559 -0.0810551,-0.0327362 -0.112811,-0.00218898 -0.0317559,0.0305472 -0.0327362,0.0810551 -0.00218898,0.112811 0.100035,0.103461 0.170972,0.216606 0.215417,0.333689 0.0679016,0.178866 0.0744094,0.368075 0.0287953,0.546724 -0.0459409,0.179913 -0.144555,0.349 -0.286472,0.486224 -0.108346,0.104756 -0.241819,0.191075 -0.396303,0.24972z"/>
    <path id="_627480976" class="fil0" d="M1.47538 3.94098c-0.0434921,-0.00690157 -0.0843504,0.0227598 -0.091252,0.066252 -0.00690157,0.0434921 0.0227598,0.0843504 0.066252,0.091252 0.185307,0.0300512 0.365772,0.0209134 0.532079,-0.0206614 0.220646,-0.0551614 0.416866,-0.167508 0.567142,-0.32137 0.150969,-0.154571 0.255339,-0.351091 0.291461,-0.573819 0.0234449,-0.144559 0.0180157,-0.29961 -0.0222559,-0.460701 -0.0106969,-0.0427992 -0.0540748,-0.0688228 -0.096874,-0.058126 -0.0427992,0.0106969 -0.0688228,0.0540748 -0.058126,0.096874 0.034937,0.13976 0.0398071,0.273295 0.019752,0.396953 -0.0305984,0.188681 -0.119539,0.355697 -0.248335,0.487567 -0.129488,0.132579 -0.299531,0.22963 -0.491512,0.277622 -0.146335,0.0365827 -0.305181,0.0446142 -0.468331,0.0181575z"/>
    <path id="_627480952" class="fil0" d="M1.04525 3.14737c-0.0341693,-0.0277835 -0.0844016,-0.0226063 -0.112185,0.011563 -0.0277835,0.0341693 -0.0226063,0.0844016 0.011563,0.112185 0.145567,0.118772 0.306492,0.201142 0.471335,0.248295 0.218622,0.0625394 0.444642,0.0633661 0.651598,0.0052874 0.208098,-0.0583937 0.396768,-0.176406 0.539394,-0.351205 0.0926654,-0.113571 0.165547,-0.250646 0.21122,-0.410315 0.0120787,-0.0424528 -0.0125472,-0.0866693 -0.055,-0.098748 -0.0424528,-0.0120787 -0.0866693,0.0125472 -0.098748,0.055 -0.0396102,0.138472 -0.10211,0.256484 -0.18122,0.353441 -0.120858,0.148122 -0.281354,0.248295 -0.458772,0.298079 -0.178555,0.0501063 -0.374433,0.0491457 -0.564724,-0.0052874 -0.145,-0.0414803 -0.286508,-0.113894 -0.414461,-0.218295z"/>
    <path id="_627481384" class="fil0" d="M1.06963 2.24524c-0.0155315,-0.041248 -0.0615669,-0.0620945 -0.102815,-0.046563 -0.041248,0.0155315 -0.0620945,0.0615669 -0.046563,0.102815 0.0666417,0.175551 0.164846,0.327335 0.284098,0.450669 0.158421,0.163843 0.353803,0.277728 0.56185,0.330854 0.209315,0.0534449 0.431583,0.0455984 0.642358,-0.0344213 0.136949,-0.0519843 0.268579,-0.134272 0.388055,-0.249791 0.0317559,-0.0305472 0.0327362,-0.0810551 0.00218898,-0.112811 -0.0305472,-0.0317559 -0.0810551,-0.0327362 -0.112811,-0.00218898 -0.103457,0.100035 -0.216602,0.170969 -0.333685,0.215413 -0.17887,0.0679055 -0.368075,0.0744134 -0.546728,0.0287992 -0.179913,-0.0459409 -0.349,-0.144551 -0.486228,-0.286476 -0.104756,-0.108343 -0.191075,-0.241815 -0.24972,-0.396299z"/>
   </g>
   <path id="_627481432" class="fil0" d="M4.07373 3.96061c-0.0312362,-0.0312362 -0.0818898,-0.0312362 -0.113126,0 -0.0312362,0.0312362 -0.0312362,0.0818898 0,0.113126l1.87616 1.87616c0.0312362,0.0312362 0.0818898,0.0312362 0.113126,0 0.0312362,-0.0312362 0.0312362,-0.0818898 0,-0.113126l-1.87616 -1.87616z"/>
  </g>
  <path class="fil1" d="M2.39959 1.7662c0.053126,-0.208043 0.167008,-0.403429 0.33085,-0.561846 0.0683583,-0.0660945 0.145449,-0.12572 0.230484,-0.177094 -0.0728898,-0.0092874 -0.146256,-0.0139291 -0.219622,-0.0139291 -0.141878,0 -0.283756,0.0173661 -0.422169,0.0520945 -0.0957795,0.122583 -0.162878,0.256866 -0.202189,0.394287 -0.0544331,0.190291 -0.0553937,0.386169 -0.0052874,0.564724 0.0497835,0.177417 0.149957,0.337913 0.298079,0.458772 0.0277205,0.0226181 0.0571654,0.043878 0.088315,0.0636378 -0.0249646,-0.0452913 -0.0462756,-0.0914803 -0.0640433,-0.138287 -0.0800157,-0.210783 -0.0878622,-0.433047 -0.0344173,-0.642358z"/>
  <path class="fil2" d="M2.84106 1.31936c-0.141925,0.137224 -0.240531,0.306311 -0.286472,0.486224 -0.0456142,0.17865 -0.0391063,0.367858 0.0287953,0.546728 0.0126614,0.0333465 0.0274685,0.066378 0.0444882,0.0989528 0.00104331,-0.0515315 0.0056811,-0.102016 0.0136693,-0.151283 0.036122,-0.22272 0.140492,-0.419244 0.291461,-0.573815 0.150272,-0.153862 0.346496,-0.266213 0.567138,-0.321374 0.0923543,-0.0230866 0.189071,-0.0361732 0.288563,-0.0380984 -0.175575,-0.134126 -0.370972,-0.230071 -0.574913,-0.287831 -0.14452,0.0583071 -0.269933,0.141102 -0.372728,0.240496z"/>
  <path class="fil1" d="M3.53889 1.55979c-0.191976,0.0479921 -0.36202,0.145043 -0.491508,0.277626 -0.128795,0.13187 -0.217736,0.298886 -0.248335,0.487563 -0.00573622,0.0353661 -0.00942913,0.0715394 -0.0109685,0.108433 0.0266969,-0.0441378 0.0559843,-0.0855827 0.0875748,-0.124299 0.142626,-0.174803 0.331299,-0.292807 0.539394,-0.351205 0.206953,-0.0580748 0.432972,-0.0572441 0.651591,0.00529134 0.0916654,0.0262205 0.182118,0.0633307 0.26939,0.111535 -0.081189,-0.194449 -0.19948,-0.377067 -0.35487,-0.537043 -0.153992,-0.0215787 -0.303732,-0.0125315 -0.442268,0.0220984z"/>
  <path class="fil2" d="M4.02289 2.11695c-0.190291,-0.0544331 -0.386161,-0.0553937 -0.564717,-0.00529134 -0.177417,0.0497874 -0.337913,0.149957 -0.458772,0.298079 -0.0226181,0.0277244 -0.0438819,0.0571654 -0.0636378,0.0883189 0.0452953,-0.0249685 0.0914843,-0.0462756 0.138291,-0.0640433 0.21078,-0.0800157 0.433043,-0.0878622 0.64235,-0.0344173 0.208043,0.053126 0.403429,0.167012 0.561843,0.33085 0.0660945,0.0683543 0.125724,0.145453 0.177098,0.230488 0.0092874,-0.0728898 0.0139291,-0.14626 0.0139291,-0.219626 0,-0.141874 -0.0173622,-0.283752 -0.0520906,-0.422165 -0.122583,-0.0957835 -0.25687,-0.162878 -0.394295,-0.202193z"/>
  <path class="fil1" d="M4.16325 2.84107c-0.137224,-0.141917 -0.306307,-0.240531 -0.48622,-0.286472 -0.178646,-0.0456142 -0.367854,-0.0391063 -0.54672,0.0287953 -0.0333504,0.0126614 -0.0663819,0.0274685 -0.0989567,0.0444882 0.0515276,0.00104331 0.102016,0.0056811 0.15128,0.0136693 0.22272,0.036122 0.419244,0.140492 0.573815,0.291461 0.153862,0.150272 0.266213,0.346496 0.321374,0.567138 0.0230866,0.0923543 0.0361732,0.189071 0.0380984,0.288563 0.134126,-0.175571 0.230067,-0.370969 0.287831,-0.574906 -0.058311,-0.144524 -0.141106,-0.269941 -0.2405,-0.372736z"/>
  <path class="fil2" d="M3.92282 3.53889c-0.0479921,-0.191976 -0.145043,-0.36202 -0.277626,-0.491508 -0.13187,-0.128795 -0.298886,-0.217736 -0.487563,-0.248335 -0.0353661,-0.00573622 -0.0715394,-0.00942913 -0.108433,-0.0109685 0.0441378,0.0266969 0.0855827,0.0559843 0.124299,0.0875748 0.174799,0.142626 0.292807,0.331299 0.351205,0.539394 0.0580748,0.206953 0.0572441,0.432972 -0.00529134,0.651591 -0.0262205,0.0916654 -0.0633307,0.182118 -0.111535,0.26939 0.194449,-0.081189 0.377067,-0.19948 0.537043,-0.35487 0.0215787,-0.153992 0.0125315,-0.303732 -0.0220984,-0.442268z"/>
  <path class="fil1" d="M3.37095 3.45818c-0.0497874,-0.177417 -0.149957,-0.337913 -0.298079,-0.458772 -0.0277244,-0.0226181 -0.0571654,-0.0438819 -0.0883189,-0.0636378 0.0249646,0.0452913 0.0462756,0.0914803 0.0640433,0.138287 0.0800157,0.21078 0.0878622,0.433043 0.0344173,0.642354 -0.053126,0.208043 -0.167012,0.403433 -0.33085,0.561846 -0.0683583,0.0660945 -0.145453,0.12572 -0.230492,0.177094 0.0728898,0.00928346 0.14626,0.0139291 0.21963,0.0139291 0.141874,0 0.283752,-0.0173622 0.422165,-0.0520906 0.0957835,-0.122583 0.162878,-0.25687 0.202193,-0.394295 0.0544331,-0.190291 0.0553937,-0.386161 0.00529134,-0.564717z"/>
  <path class="fil2" d="M2.92802 3.67703c0.0456142,-0.17865 0.0391063,-0.367858 -0.0287953,-0.546724 -0.0126614,-0.0333504 -0.0274685,-0.0663819 -0.0444882,-0.0989606 -0.00104724,0.0515315 -0.0056811,0.10202 -0.0136732,0.151287 -0.036122,0.222728 -0.140492,0.419248 -0.291461,0.573819 -0.150276,0.153862 -0.346496,0.266209 -0.567142,0.32137 -0.0923504,0.0230866 -0.189067,0.0361693 -0.288555,0.0380984 0.175571,0.134126 0.370969,0.230067 0.574906,0.287831 0.14452,-0.058311 0.269937,-0.141106 0.372736,-0.240496 0.141917,-0.137224 0.240531,-0.306311 0.286472,-0.486224z"/>
  <path class="fil1" d="M2.43522 3.6452c0.128795,-0.13187 0.217736,-0.298886 0.248335,-0.487567 0.00573622,-0.0353661 0.00943307,-0.0715354 0.0109685,-0.108429 -0.0266929,0.0441378 -0.0559803,0.0855787 -0.0875669,0.124291 -0.142626,0.174799 -0.331295,0.292811 -0.539394,0.351205 -0.206957,0.0580787 -0.432976,0.057252 -0.651598,-0.0052874 -0.0916614,-0.0262205 -0.182114,-0.0633307 -0.269386,-0.111531 0.081189,0.194449 0.19948,0.377063 0.35487,0.537039 0.153988,0.0215787 0.303732,0.0125315 0.44226,-0.0220984 0.19198,-0.0479921 0.362024,-0.145043 0.491512,-0.277622z"/>
  <path class="fil2" d="M2.02444 3.37095c0.177417,-0.0497835 0.337913,-0.149957 0.458772,-0.298079 0.0226181,-0.0277205 0.0438819,-0.0571654 0.0636378,-0.088315 -0.0452913,0.0249646 -0.0914803,0.0462717 -0.138287,0.0640394 -0.210776,0.0800197 -0.433043,0.0878661 -0.642358,0.0344213 -0.208047,-0.053126 -0.403429,-0.167012 -0.56185,-0.330854 -0.0660906,-0.0683543 -0.125717,-0.145445 -0.177091,-0.23048 -0.0092874,0.0728898 -0.0139291,0.146256 -0.0139291,0.219622 0,0.141878 0.0173661,0.283756 0.0520945,0.422169 0.122583,0.0957795 0.256866,0.162878 0.394287,0.202189 0.190291,0.0544331 0.386169,0.0553937 0.564724,0.0052874z"/>
  <path class="fil1" d="M1.31935 2.64154c0.137228,0.141925 0.306315,0.240535 0.486228,0.286476 0.178654,0.0456142 0.367858,0.0391063 0.546728,-0.0287992 0.0333465,-0.0126575 0.066378,-0.0274685 0.0989528,-0.0444843 -0.0515276,-0.00104724 -0.102016,-0.0056811 -0.151283,-0.0136732 -0.222728,-0.036122 -0.419248,-0.140492 -0.573819,-0.291461 -0.153862,-0.150276 -0.266209,-0.346496 -0.32137,-0.567142 -0.0230866,-0.0923504 -0.0361693,-0.189067 -0.0380984,-0.288555 -0.134126,0.175575 -0.230071,0.370972 -0.287831,0.574913 0.058311,0.14452 0.141102,0.269933 0.240492,0.372724z"/>
  <path class="fil2" d="M1.55979 1.94371c0.0479921,0.19198 0.145043,0.362024 0.277622,0.491512 0.13187,0.128795 0.298886,0.217736 0.487567,0.248335 0.0353661,0.00573622 0.0715354,0.00943307 0.108429,0.0109685 -0.0441378,-0.0266929 -0.0855787,-0.0559803 -0.124291,-0.0875669 -0.174799,-0.142626 -0.292811,-0.331295 -0.351205,-0.539394 -0.0580787,-0.206957 -0.057252,-0.432976 0.0052874,-0.651598 0.0262205,-0.0916614 0.0633307,-0.182114 0.111531,-0.269386 -0.194449,0.081189 -0.377063,0.19948 -0.537039,0.35487 -0.0215787,0.153988 -0.0125315,0.303732 0.0220984,0.44226z"/>
 </g>
 <rect class="fil3" width="6.82666" height="6.82666"/>
</svg>
