<svg xmlns="http://www.w3.org/2000/svg" width="128" height="128" viewBox="0 0 128 128">
  <title>CANDIES</title>
  <g>
    <path d="M18.783,76.119a12.819,12.819,0,0,1,10.739-6.2l0,0s2.913-6.735,1.241-13.669c0,0-2.672-2.092-6.351.6-3.815,2.791-4.961.476-8.23,2.364s-1.838,4.037-6.162,5.945c-4.171,1.841-3.695,5.2-3.695,5.2,5.169,4.915,12.458,5.759,12.458,5.759Z" fill="#f07281"/>
    <path d="M59.953,106.808c-5.169-4.914-12.458-5.759-12.458-5.759l0,0a12.815,12.815,0,0,1-10.739,6.2l0,0s-2.913,6.735-1.241,13.669c0,0,2.672,2.093,6.351-.6,3.816-2.791,4.962-.476,8.231-2.363s1.837-4.038,6.162-5.946C60.429,110.169,59.953,106.808,59.953,106.808Z" fill="#f07281"/>
    <g>
      <path d="M91.246,107.246a12.815,12.815,0,0,1-10.739-6.2l0,0s-7.289.845-12.458,5.759c0,0-.476,3.361,3.694,5.2,4.325,1.908,2.893,4.058,6.162,5.946s4.415-.428,8.231,2.363c3.678,2.692,6.351.6,6.351.6,1.672-6.934-1.241-13.669-1.241-13.669Z" fill="#f07281"/>
      <path d="M117.982,65.155c-4.324-1.908-2.893-4.058-6.162-5.945s-4.415.427-8.23-2.364c-3.679-2.691-6.352-.6-6.352-.6-1.671,6.934,1.242,13.669,1.242,13.669l0,0a12.819,12.819,0,0,1,10.739,6.2l0,0s7.288-.844,12.457-5.759C121.676,70.357,122.153,67,117.982,65.155Z" fill="#f07281"/>
    </g>
    <path d="M57.8,22.249v0a12.812,12.812,0,0,1,12.4,0v0s5.89-4.376,7.909-11.217c0,0-1.268-3.148-5.8-2.657-4.7.51-4.534-2.068-8.309-2.068s-3.61,2.578-8.309,2.068c-4.532-.491-5.8,2.657-5.8,2.657C51.91,17.873,57.8,22.249,57.8,22.249Z" fill="#f07281"/>
    <path d="M70.2,58.2v0a12.813,12.813,0,0,1-12.4,0v0s-5.89,4.376-7.909,11.216c0,0,1.268,3.149,5.8,2.658,4.7-.51,4.534,2.068,8.309,2.068s3.61-2.578,8.309-2.068c4.532.491,5.8-2.658,5.8-2.658C76.09,62.575,70.2,58.2,70.2,58.2Z" fill="#f07281"/>
    <path d="M64,59.8h0A12.831,12.831,0,0,1,51.169,46.964V33.484A12.831,12.831,0,0,1,64,20.653h0A12.831,12.831,0,0,1,76.831,33.484v13.48A12.831,12.831,0,0,1,64,59.8Z" fill="#fcd1e8"/>
    <path d="M76.83,33.48v9.01L51.68,50.55a12.87,12.87,0,0,1-.51-3.59v-9l25.15-8.07A12.87,12.87,0,0,1,76.83,33.48Z" fill="#f07281"/>
    <path d="M85.076,105.531h0A12.83,12.83,0,0,1,80.38,88L87.119,76.33a12.831,12.831,0,0,1,17.528-4.7h0a12.831,12.831,0,0,1,4.7,17.527l-6.74,11.674A12.831,12.831,0,0,1,85.076,105.531Z" fill="#fcd1e8"/>
    <path d="M110.69,85.8a12.857,12.857,0,0,1-1.35,3.36l-4.5,7.8L79.03,91.37A12.582,12.582,0,0,1,80.38,88l4.5-7.8Z" fill="#f07281"/>
    <path d="M42.924,105.531h0a12.83,12.83,0,0,1-17.528-4.7l-6.74-11.674a12.831,12.831,0,0,1,4.7-17.527h0a12.83,12.83,0,0,1,17.527,4.7L47.62,88A12.83,12.83,0,0,1,42.924,105.531Z" fill="#fcd1e8"/>
    <path d="M45.38,84.12v.01L27.64,103.69a12.659,12.659,0,0,1-2.24-2.86l-4.5-7.8L38.64,73.48h.01a12.849,12.849,0,0,1,2.23,2.85Z" fill="#f07281"/>
    <g>
      <path d="M72.121,73.814c5.77.615,7.54-3.567,7.611-3.745a1.75,1.75,0,0,0,.056-1.149A24.912,24.912,0,0,0,73.06,58.368a14.554,14.554,0,0,0,5.521-11.4V33.484a14.487,14.487,0,0,0-.565-3.974c-.011-.05-.016-.1-.032-.15,0-.013-.011-.024-.016-.037A14.61,14.61,0,0,0,73.06,22.08a24.919,24.919,0,0,0,6.728-10.553,1.75,1.75,0,0,0-.056-1.149c-.071-.179-1.829-4.366-7.611-3.743a4.942,4.942,0,0,1-3.727-.785,8.114,8.114,0,0,0-8.789,0,4.937,4.937,0,0,1-3.726.785c-5.768-.616-7.54,3.565-7.611,3.743a1.75,1.75,0,0,0-.056,1.149A24.909,24.909,0,0,0,54.94,22.08a14.554,14.554,0,0,0-5.521,11.4v13.48a14.5,14.5,0,0,0,.565,3.975c.011.049.016.1.032.149,0,.009.01.016.013.026a14.606,14.606,0,0,0,4.911,7.254A24.912,24.912,0,0,0,48.212,68.92a1.75,1.75,0,0,0,.056,1.149c.071.179,1.828,4.366,7.611,3.745a4.951,4.951,0,0,1,3.726.785,8.12,8.12,0,0,0,8.789,0A4.934,4.934,0,0,1,72.121,73.814ZM64,58.045a11.084,11.084,0,0,1-10.024-6.389l21.105-6.767v2.075A11.094,11.094,0,0,1,64,58.045ZM52.919,46.964v-7.73l22.075-7.077a11.173,11.173,0,0,1,.087,1.327v7.73L53.006,48.292A11.2,11.2,0,0,1,52.919,46.964ZM51.8,11.249c.451-.543,1.508-1.378,3.7-1.134a8.344,8.344,0,0,0,5.866-1.242,4.653,4.653,0,0,1,5.264,0A8.351,8.351,0,0,0,72.5,10.115a3.974,3.974,0,0,1,3.7,1.14,22.533,22.533,0,0,1-6.254,8.929,14.44,14.44,0,0,0-11.892,0A22.544,22.544,0,0,1,51.8,11.249ZM64,22.4a11.084,11.084,0,0,1,10.024,6.39L52.919,35.56V33.484A11.094,11.094,0,0,1,64,22.4Zm0,49.988a4.432,4.432,0,0,1-2.632-.817A8.343,8.343,0,0,0,55.5,70.333a3.959,3.959,0,0,1-3.7-1.141,22.528,22.528,0,0,1,6.254-8.928,14.44,14.44,0,0,0,11.892,0A22.539,22.539,0,0,1,76.2,69.2c-.451.544-1.512,1.378-3.7,1.135a8.352,8.352,0,0,0-5.866,1.241A4.432,4.432,0,0,1,64,72.391Z"/>
      <path d="M105.4,59.767a8.609,8.609,0,0,0,2.856.349,4.493,4.493,0,0,1,2.687.61,1.75,1.75,0,0,0,1.75-3.032,7.9,7.9,0,0,0-4.452-1.078,5.234,5.234,0,0,1-1.79-.187,1.75,1.75,0,0,0-1.051,3.338Z"/>
      <path d="M119.526,63.969a1.75,1.75,0,1,0-1.691,3.064,3.7,3.7,0,0,1,2.076,2.562,22.544,22.544,0,0,1-9.879,4.606,14.444,14.444,0,0,0-10.3-5.947,21.945,21.945,0,0,1-.79-11.6,1.75,1.75,0,0,0-3.4-.82,24.923,24.923,0,0,0,.55,12.5A14.558,14.558,0,0,0,85.6,75.455L78.864,87.129a14.556,14.556,0,0,0-1.5,3.731c-.014.047-.034.09-.045.139,0,.013,0,.026,0,.039a14.612,14.612,0,0,0,.628,8.727,24.937,24.937,0,0,0-11.1,5.775,1.753,1.753,0,0,0-.527,1.024c-.027.19-.6,4.7,4.721,7.047a4.945,4.945,0,0,1,2.834,2.543,7.848,7.848,0,0,0,3.159,3.317,7.936,7.936,0,0,0,4.452,1.078,4.985,4.985,0,0,1,3.621,1.182,7.993,7.993,0,0,0,4.765,1.72,6.341,6.341,0,0,0,3.7-1.155,1.743,1.743,0,0,0,.622-.968,24.913,24.913,0,0,0-.549-12.5,14.56,14.56,0,0,0,10.483-7.119l6.739-11.674a14.5,14.5,0,0,0,1.525-3.82c0-.018.016-.032.02-.05s0-.026.005-.039a14.616,14.616,0,0,0-.629-8.728,24.92,24.92,0,0,0,11.1-5.774,1.749,1.749,0,0,0,.526-1.023C123.434,70.432,123.949,66.408,119.526,63.969ZM88.635,77.205a11.072,11.072,0,0,1,20.624,6.49L87.6,79Zm2.307,42.571c-.661.247-2,.433-3.775-.869a8.326,8.326,0,0,0-5.7-1.858,4.651,4.651,0,0,1-4.56-2.632,8.312,8.312,0,0,0-4.459-4.008,3.966,3.966,0,0,1-2.637-2.839,22.547,22.547,0,0,1,9.881-4.606A14.46,14.46,0,0,0,90,108.915,22.387,22.387,0,0,1,90.942,119.776ZM101.089,99.96a11.073,11.073,0,0,1-20.63-6.491l21.667,4.694Zm2.874-4.979L81.307,90.073a11.384,11.384,0,0,1,.588-1.194l3.865-6.7,22.656,4.909a10.985,10.985,0,0,1-.588,1.193Z"/>
      <path d="M61.159,105.54a24.934,24.934,0,0,0-11.1-5.775,14.553,14.553,0,0,0-.92-12.636L42.4,75.455A14.552,14.552,0,0,0,31.913,68.34a24.926,24.926,0,0,0,.55-12.5,1.754,1.754,0,0,0-.622-.968c-.152-.119-3.771-2.87-8.464.565a4.992,4.992,0,0,1-3.62,1.182,7.97,7.97,0,0,0-4.452,1.078,7.857,7.857,0,0,0-3.16,3.317A4.949,4.949,0,0,1,9.31,63.555C3.99,65.9,4.563,70.411,4.591,70.6a1.743,1.743,0,0,0,.526,1.023A24.92,24.92,0,0,0,16.22,77.4a14.555,14.555,0,0,0,.921,12.637l2.236,3.874a1.75,1.75,0,0,0,2.811.3L38.631,76.093a10.962,10.962,0,0,1,.734,1.112L43.23,83.9,27.651,101.066a10.92,10.92,0,0,1-.74-1.106,1.75,1.75,0,1,0-3.031,1.75,14.5,14.5,0,0,0,2.553,3.245c.01.009.016.02.026.028s.02.014.029.022a14.626,14.626,0,0,0,7.875,3.824,24.923,24.923,0,0,0-.55,12.5,1.754,1.754,0,0,0,.622.968,6.35,6.35,0,0,0,3.7,1.155,8,8,0,0,0,4.765-1.72,4.968,4.968,0,0,1,3.62-1.182,8.115,8.115,0,0,0,7.612-4.4,4.949,4.949,0,0,1,2.835-2.544c5.32-2.348,4.747-6.856,4.719-7.046A1.746,1.746,0,0,0,61.159,105.54ZM8.092,69.6a3.948,3.948,0,0,1,2.632-2.841,8.319,8.319,0,0,0,4.46-4.009,4.416,4.416,0,0,1,1.871-2.022,4.486,4.486,0,0,1,2.688-.61,8.366,8.366,0,0,0,5.7-1.858A3.96,3.96,0,0,1,29.22,57.4a22.534,22.534,0,0,1-.952,10.859,14.44,14.44,0,0,0-10.3,5.947A22.541,22.541,0,0,1,8.092,69.6ZM21.209,90.083l-1.037-1.8A11.081,11.081,0,0,1,36.111,73.661Zm24.9-1.2A11.072,11.072,0,0,1,30.173,103.5L45.067,87.082Zm9.449,21.529a8.315,8.315,0,0,0-4.46,4.009,4.651,4.651,0,0,1-4.56,2.632,8.311,8.311,0,0,0-5.7,1.858,3.96,3.96,0,0,1-3.776.864,22.537,22.537,0,0,1,.949-10.856,14.462,14.462,0,0,0,10.3-5.951,22.549,22.549,0,0,1,9.877,4.6A3.953,3.953,0,0,1,55.553,110.408Z"/>
    </g>
  </g>
</svg>
