<?xml version="1.0" encoding="UTF-8"?>
<!DOCTYPE svg PUBLIC "-//W3C//DTD SVG 1.1//EN" "http://www.w3.org/Graphics/SVG/1.1/DTD/svg11.dtd">
<!-- Creator: CorelDRAW -->
<svg xmlns="http://www.w3.org/2000/svg" xml:space="preserve" width="2048px" height="2048px" style="shape-rendering:geometricPrecision; text-rendering:geometricPrecision; image-rendering:optimizeQuality; fill-rule:evenodd; clip-rule:evenodd"
viewBox="0 0 2048 2048"
 xmlns:xlink="http://www.w3.org/1999/xlink">
 <defs>
  <style type="text/css">
   <![CDATA[
    .fil3 {fill:none}
    .fil2 {fill:#EBE5DF}
    .fil1 {fill:#FECA5F}
    .fil0 {fill:#333333;fill-rule:nonzero}
   ]]>
  </style>
 </defs>
 <g id="Layer_x0020_1">
  <metadata id="CorelCorpID_0Corel-Layer"/>
  <path class="fil0" d="M1241.41 582.401c-12.8917,-3.00236 -25.7788,5.01378 -28.7811,17.9055 -3.00236,12.8917 5.01378,25.7788 17.9055,28.7811 151.103,35.7579 281.283,109.619 372.821,207.495 88.3418,94.4576 140.641,211.449 140.641,338.019 0,156.197 -79.8012,297.945 -208.819,400.846 -130.569,104.14 -311.281,168.553 -511.181,168.553 -199.901,0 -380.613,-64.4126 -511.181,-168.553 -126.934,-101.239 -206.228,-240.082 -208.755,-393.291l-0.0106299 -14.2819c1.81772,-123.986 53.8122,-238.512 140.587,-331.295 91.5367,-97.8768 221.716,-171.74 372.816,-207.5 12.8917,-3.00236 20.9079,-15.8894 17.9055,-28.7811 -3.00236,-12.8917 -15.8894,-20.9079 -28.7811,-17.9055 -160.271,37.93 -298.845,116.806 -396.816,221.562 -94.7599,101.321 -151.58,226.699 -153.693,362.772 -0.137008,8.90788 -0.120473,12.8563 0.158268,22.6465 4.82599,165.64 90.5599,314.932 226.777,423.573 138.703,110.627 329.996,179.053 540.995,179.053 210.999,0 402.292,-68.426 540.995,-179.053 140.255,-111.863 227.006,-266.819 227.006,-438.346 0,-139.109 -57.1796,-267.37 -153.765,-370.643 -97.9725,-104.754 -236.547,-183.63 -396.821,-221.557z"/>
  <path class="fil0" d="M1024 680c171.05,0 326.065,61.8756 438.413,161.913 113.101,100.708 183.057,240.03 183.057,394.088 0,154.058 -69.9556,293.379 -183.057,394.087 -112.348,100.037 -267.363,161.913 -438.413,161.913 -171.05,0 -326.065,-61.8756 -438.413,-161.913 -113.101,-100.708 -183.057,-240.029 -183.057,-394.087 0,-154.058 69.9556,-293.38 183.057,-394.088 112.348,-100.037 267.363,-161.913 438.413,-161.913zm406.537 197.726c-103.892,-92.5076 -247.614,-149.726 -406.537,-149.726 -158.923,0 -302.645,57.2185 -406.537,149.726 -103.137,91.8355 -166.932,218.518 -166.932,358.275 0,139.755 63.7937,266.437 166.932,358.274 103.892,92.5076 247.614,149.726 406.537,149.726 158.923,0 302.645,-57.2185 406.537,-149.726 103.139,-91.8367 166.932,-218.518 166.932,-358.274 0,-139.756 -63.7949,-266.439 -166.932,-358.275z"/>
  <path class="fil0" d="M651.909 433.787l158.145 -170.093 -0.0389764 -0.0366142c4.72678,-5.08347 11.1425,-7.65591 17.5772,-7.65709l0 -0.0011811 392.816 0c7.513,0 14.2205,3.45473 18.6213,8.85946l158.126 170.073 -17.5311 16.3122 17.5772 -16.3417c8.9882,9.66851 8.4756,24.7701 -1.11969,33.8079l-242.627 260.954 0.0389764 0.0366142c-6.07914,6.53859 -14.9563,8.92324 -23.0693,7.02402 -16.8992,-2.80748 -34.3051,-4.98071 -52.1882,-6.47481 -17.7626,-1.48465 -35.8524,-2.25 -54.2351,-2.25 -18.3851,0 -36.476,0.765355 -54.241,2.25 -18.4134,1.53898 -36.3213,3.79607 -53.6918,6.72638l0.00826772 0.0484252c-8.84764,1.49291 -17.3799,-2.06103 -22.6536,-8.56654l-242.579 -260.902 17.5311 -16.3122 -17.576 16.3417c-8.98583,-9.66379 -8.4756,-24.7606 1.10906,-33.7985zm186.066 -129.788l-136.902 147.245 219.846 236.452c14.9528,-2.24646 29.9303,-4.00866 44.9032,-5.25945 19.239,-1.60866 38.6457,-2.43662 58.1788,-2.43662 19.5307,0 38.9363,0.827953 58.1729,2.43662 14.974,1.25079 29.9528,3.01418 44.9067,5.25945l219.846 -236.452 -136.902 -147.245 -372.05 0z"/>
  <path class="fil0" d="M846.832 441.185l69.1347 -170.185 22.2189 9.00001 -22.2355 -9.03308c3.84685,-9.47127 13.0559,-15.1524 22.702,-14.9669l171.162 0c10.4976,0 19.4197,6.74174 22.6784,16.1303l69.0969 170.092 0.0259843 -0.0106299c2.60079,6.40394 2.23701,13.2756 -0.447638,19.0925l-103.068 253.715 -22.2189 -9.00001 22.2355 9.03308c-4.18701,10.3075 -14.7213,16.1244 -25.2603,14.7791 -8.6504,-0.650788 -16.5768,-1.12559 -23.7106,-1.40551 -7.09016,-0.27874 -15.4417,-0.425197 -25.1445,-0.425197 -9.71103,0 -18.0591,0.145276 -25.1469,0.424016 -7.45867,0.294095 -15.7843,0.798426 -24.9036,1.49764l0.00236221 0.0271654c-11.1095,0.850394 -21.0319,-6.00591 -24.5138,-16.0642l-103.029 -253.618 -0.0259843 0.0106299c-2.60079,-6.40394 -2.23701,-13.2756 0.447638,-19.0925zm107.479 -137.185l-59.8158 147.245 93.3426 229.774c2.94921,-0.147638 5.99646,-0.283465 9.14056,-0.407481 10.2071,-0.400394 19.2508,-0.61063 27.0225,-0.61063 7.77757,0 16.8177,0.210236 27.0201,0.611811 3.1441,0.122835 6.19016,0.258662 9.14056,0.4063l93.3426 -229.774 -59.8158 -147.245 -139.377 0z"/>
  <path class="fil0" d="M1048 279.999c0,-13.2543 -10.7457,-24 -24,-24 -13.2543,0 -24,10.7457 -24,24l0 424.001c0,13.2543 10.7457,24 24,24 13.2543,0 24,-10.7457 24,-24l0 -424.001z"/>
  <path class="fil1" d="M1603.36 836.583c-88.8249,-94.9749 -214.035,-167.338 -359.44,-204.215l-61.2874 65.9162c107.392,25.2933 203.438,75.6508 279.782,143.629 113.101,100.708 183.057,240.03 183.057,394.088 0,147.978 -64.5426,282.359 -169.87,381.984 20.8429,-13.3016 40.7339,-27.5055 59.5808,-42.5374 129.018,-102.901 208.819,-244.649 208.819,-400.846 0,-126.569 -52.2993,-243.561 -140.641,-338.019z"/>
  <path class="fil1" d="M585.589 841.913c76.343,-67.9784 172.389,-118.335 279.78,-143.629l-61.2945 -65.9233c-145.403,36.8799 -270.611,109.245 -359.435,204.22 -86.7745,92.7827 -138.769,207.308 -140.587,331.295l0.0106299 14.2819c2.52756,153.209 81.8209,292.051 208.755,393.291 18.848,15.0331 38.7425,29.2394 59.5878,42.5422 -105.33,-99.6249 -169.875,-234.008 -169.875,-381.989 0,-154.058 69.9556,-293.38 183.057,-394.088z"/>
  <g id="_488813112">
   <path id="_488813136" class="fil2" d="M1201.62 442.211c2.60079,6.40394 2.23701,13.2756 -0.447638,19.0925l-90.9969 224.001c5.68347,0.7063 11.3421,1.47992 16.9748,2.32205l90.5304 -97.369c0.475985,-0.561024 0.975591,-1.09843 1.49291,-1.60512l127.758 -137.408 -136.902 -147.245 -64.5863 0 56.1508 138.222 0.0259843 -0.0106299z"/>
   <path id="_488813016" class="fil2" d="M1153.5 451.244l-59.8158 -147.245 -45.6886 0 0 376.408c4.07599,0.138189 8.14253,0.311811 12.1984,0.520867l93.306 -229.684z"/>
   <path id="_488812680" class="fil2" d="M1000 680.408l0 -376.408 -45.6886 0 -59.8158 147.245 93.306 229.684c4.05591,-0.209055 8.12245,-0.382677 12.1984,-0.520867z"/>
   <path id="_488812824" class="fil2" d="M846.385 460.277c-2.60079,-6.40394 -2.23701,-13.2756 0.447638,-19.0925l55.7292 -137.185 -64.5863 0 -136.902 147.245 127.743 137.393c0.526772,0.516142 1.02992,1.05709 1.50827,1.62165l90.5292 97.3678c5.63268,-0.842127 11.2913,-1.61575 16.9748,-2.32205l-91.4186 -225.038 -0.0259843 0.0106299z"/>
  </g>
 </g>
 <rect class="fil3" width="2048" height="2048"/>
</svg>
