<svg xmlns="http://www.w3.org/2000/svg" viewBox="0 0 186.63 184.29"><defs><style>.cls-1{fill:#9faed0;}.cls-1,.cls-2,.cls-4{stroke:#212683;}.cls-1,.cls-2,.cls-3,.cls-4{stroke-miterlimit:10;stroke-width:6px;}.cls-2{fill:#9dcc96;}.cls-3{fill:#f2a7c5;stroke:#1f2687;}.cls-4{fill:none;}.cls-5{fill:#212683;}</style></defs><title>Candle</title><g id="Layer_2" data-name="Layer 2"><g id="Layer_1-2" data-name="Layer 1"><path class="cls-1" d="M90.3,181.11h65.9A19.09,19.09,0,0,0,175.3,162H29.3a19.1,19.1,0,0,0,19.1,19.1H58.8"/><path class="cls-2" d="M76.56,35.63H128a9.76,9.76,0,0,1,9.76,9.76V162a0,0,0,0,1,0,0h-71a0,0,0,0,1,0,0V45.39A9.76,9.76,0,0,1,76.56,35.63Z"/><path class="cls-3" d="M102.3,9.63h13a0,0,0,0,1,0,0v13a13,13,0,0,1-13,13h0a13,13,0,0,1-13-13v0a13,13,0,0,1,13-13Z" transform="translate(13.96 78.97) rotate(-45)"/><path class="cls-4" d="M82.05,35.63V71.19a5.87,5.87,0,0,0,5.87,5.87h1.25a5.87,5.87,0,0,0,5.87-5.87v-13a5.87,5.87,0,0,1,5.87-5.87h0a5.87,5.87,0,0,1,5.87,5.87V92.94a5.87,5.87,0,0,0,5.87,5.87h2a5.87,5.87,0,0,0,5.87-5.87V65.19a5.87,5.87,0,0,1,5.87-5.87H137.8"/><path class="cls-5" d="M59.63,9.21H56.35a1.42,1.42,0,0,1-1.42-1.42V4.51A1.69,1.69,0,0,0,53.56,2.8a1.61,1.61,0,0,0-1.84,1.59v3.4a1.42,1.42,0,0,1-1.42,1.42H47a1.69,1.69,0,0,0-1.71,1.37,1.61,1.61,0,0,0,1.59,1.84h3.4a1.42,1.42,0,0,1,1.42,1.42v3.28a1.69,1.69,0,0,0,1.37,1.71,1.61,1.61,0,0,0,1.84-1.59v-3.4a1.42,1.42,0,0,1,1.42-1.42h3.4a1.61,1.61,0,0,0,1.59-1.84A1.69,1.69,0,0,0,59.63,9.21Z"/><path class="cls-5" d="M14.33,116.71H11.05a1.42,1.42,0,0,1-1.42-1.42V112a1.69,1.69,0,0,0-1.37-1.71,1.61,1.61,0,0,0-1.84,1.59v3.4A1.42,1.42,0,0,1,5,116.71H1.73A1.69,1.69,0,0,0,0,118.09a1.61,1.61,0,0,0,1.59,1.84H5a1.42,1.42,0,0,1,1.42,1.42v3.28a1.69,1.69,0,0,0,1.37,1.71,1.61,1.61,0,0,0,1.84-1.59v-3.4a1.42,1.42,0,0,1,1.42-1.42h3.4A1.61,1.61,0,0,0,16,118.09,1.69,1.69,0,0,0,14.33,116.71Z"/><path class="cls-5" d="M185.41,89.13H183.1a1,1,0,0,1-1-1V85.82a1.19,1.19,0,0,0-1-1.21,1.13,1.13,0,0,0-1.3,1.12v2.4a1,1,0,0,1-1,1h-2.31a1.19,1.19,0,0,0-1.21,1,1.13,1.13,0,0,0,1.12,1.3h2.4a1,1,0,0,1,1,1v2.31a1.19,1.19,0,0,0,1,1.21,1.13,1.13,0,0,0,1.3-1.12V92.4a1,1,0,0,1,1-1h2.4a1.13,1.13,0,0,0,1.12-1.3A1.19,1.19,0,0,0,185.41,89.13Z"/><circle class="cls-5" cx="74.66" cy="181.11" r="3.18"/><line class="cls-4" x1="77.84" y1="162.01" x2="77.84" y2="118.32"/><line class="cls-4" x1="77.84" y1="106.99" x2="77.84" y2="113.32"/></g></g></svg>