<svg xmlns="http://www.w3.org/2000/svg" viewBox="0 0 512 512"><defs><style>.cls-1{fill:#f6ea49;}.cls-2{fill:#f4eb81;}.cls-3{fill:#ac3030;}.cls-4{fill:#df9fc2;}.cls-5{fill:#b7177d;}.cls-6{fill:#415ca5;}.cls-7{fill:#cd458f;}.cls-8{fill:#e9c4d9;}.cls-9{fill:#ae7733;}.cls-10{fill:#c38634;}.cls-11{fill:#cf4849;}.cls-12{fill:#992e2f;}.cls-13{fill:#ae4247;}.cls-14{fill:#c38cad;}.cls-15{fill:#dd9ec1;}.cls-16{fill:#ce6fa4;}.cls-17{fill:#cb468e;}.cls-18{fill:#3e6e66;}.cls-19{fill:#477d73;}.cls-20{fill:#5272b4;}.cls-21{fill:#e5be3d;}.cls-22{fill:#e7cb75;}</style></defs><title>Gifts</title><g id="BULINE"><circle class="cls-1" cx="256" cy="256" r="256"/></g><g id="Icons"><path class="cls-2" d="M512,256a255,255,0,0,1-60.55,165.33l-.08.1c-.68.81-1.37,1.61-2.07,2.41q-7.44,8.57-15.62,16.46a219.82,219.82,0,0,1-112.92-77.91q-3.76-4.93-7.23-10.08a218.4,218.4,0,0,1-36.62-103.26q-.84-9.62-.85-19.45v-.27q0-10,.9-19.75c.07-.72.13-1.45.21-2.17.1-1,.2-2,.31-3q1.14-9.93,3.14-19.59.63-3.06,1.35-6.09c.56-2.35,1.15-4.69,1.79-7a5.26,5.26,0,0,1,.15-.53q2.29-8.4,5.25-16.53c.32-.89.65-1.77,1-2.65q2.57-6.8,5.57-13.38a1.51,1.51,0,0,1,.09-.18.11.11,0,0,1,0-.07q1.68-3.69,3.5-7.31,1.5-3,3.08-5.91a216.8,216.8,0,0,1,11.83-19.37,1.27,1.27,0,0,1,.13-.19,218.35,218.35,0,0,1,18.92-23.89c.35-.39.7-.78,1.07-1.17a220.48,220.48,0,0,1,55-43.17A256.52,256.52,0,0,1,424,62.85a257,257,0,0,1,31-14.54A4.73,4.73,0,0,1,460.88,55c-2.22,4-5.12,8.83-8.69,14.29-2.54,3.88-5.41,8.06-8.64,12.42A255.13,255.13,0,0,1,512,256Z"/><path class="cls-3" d="M421.61,186c-18.31,41.51-87.06,185.21-165.86,197.7C177,371.22,108.21,227.52,89.89,186a17.65,17.65,0,0,1,3.67-19.59L241.42,18.56a20.29,20.29,0,0,1,28.67,0L418,166.42A17.63,17.63,0,0,1,421.61,186Z"/><path class="cls-4" d="M268.09,121.18c-5.22,9-19.07,49.67-10.07,54.89s37.43-27,42.65-36a18.83,18.83,0,0,0-32.58-18.9Z"/><path class="cls-5" d="M244.94,236.14c5.22-9,19.07-49.68,10.08-54.9s-37.44,27-42.66,36a18.84,18.84,0,0,0,32.58,18.91Z"/><path class="cls-4" d="M199.73,166.89c9,5.22,49.68,19.08,54.9,10.08s-27-37.44-36-42.66a18.84,18.84,0,0,0-18.91,32.58Z"/><path class="cls-6" d="M314.69,190.05C305.7,184.83,265,171,259.8,180s27,37.44,36,42.66a18.83,18.83,0,1,0,18.9-32.58Z"/><path class="cls-7" d="M222.93,130.39c2.67,10.05,21.64,48.61,31.69,45.94s7.39-45.56,4.72-55.61a18.84,18.84,0,0,0-36.41,9.67Z"/><path class="cls-7" d="M287.56,227c-2.67-10.05-21.64-48.61-31.69-45.94s-7.38,45.56-4.71,55.61a18.83,18.83,0,1,0,36.4-9.67Z"/><path class="cls-8" d="M206.92,211.05c10.06-2.67,48.61-21.63,45.94-31.69s-45.55-7.38-55.61-4.71a18.83,18.83,0,0,0,9.67,36.4Z"/><path class="cls-7" d="M304.58,146.14c-10.05,2.67-48.61,21.63-45.94,31.69s45.56,7.38,55.61,4.71a18.83,18.83,0,1,0-9.67-36.4Z"/><path class="cls-9" d="M273.57,174.88A18.83,18.83,0,0,1,266,195.24a18.51,18.51,0,0,1-5.85,2.69,18.85,18.85,0,0,1-9.68-36.44,18.55,18.55,0,0,1,6.42-.56A18.84,18.84,0,0,1,273.57,174.88Z"/><path class="cls-10" d="M273.57,174.88A18.83,18.83,0,0,1,266,195.24a18.84,18.84,0,0,1-9.11-34.31A18.84,18.84,0,0,1,273.57,174.88Z"/><path class="cls-11" d="M421.61,186c-18.31,41.51-87.06,185.21-165.86,197.7C177,371.22,108.21,227.52,89.89,186a17.65,17.65,0,0,1,3.67-19.59s149.26,143.64,324.39,0A17.63,17.63,0,0,1,421.61,186Z"/><path class="cls-12" d="M180.83,186a17.65,17.65,0,0,1,3.67-19.59L301.22,49.7,270.09,18.56a20.29,20.29,0,0,0-28.67,0L93.56,166.42s40.75,39.21,104.64,56.17C190.51,207.43,184.6,194.55,180.83,186Z"/><path class="cls-13" d="M306.91,414.63l-19-19a16.66,16.66,0,0,1,3-25.9c3.48-2.19,6.93-4.59,10.34-7.17-43.59-33-80.77-96.07-103-140-63.89-17-104.64-56.17-104.64-56.17A17.65,17.65,0,0,0,89.89,186c15.55,35.23,67.4,144,130.9,183.8a16.6,16.6,0,0,1,2.83,25.8l-19,19c-3.57,3.57-1,30.92,4,30.92H302.9C308,445.55,310.48,418.2,306.91,414.63Z"/><path class="cls-14" d="M257.21,374.24c0-33.76-27.88-43.77-41.21-46.63a22.59,22.59,0,0,0-25.61,34.23,16.68,16.68,0,0,1-.09,18.65,22.53,22.53,0,0,0-3.84,12.65c0,12.64,10.92,22.67,23.56,22.54C258.76,415.15,257.21,374.24,257.21,374.24Z"/><path class="cls-15" d="M254.28,373.42c0-25-20.62-32.37-30.48-34.49A16.71,16.71,0,0,0,202,353.54a16.69,16.69,0,0,0,2.85,10.71,12.33,12.33,0,0,1-.07,13.8A16.66,16.66,0,0,0,202,387.4c0,9.35,8.08,16.77,17.42,16.67C255.43,403.68,254.28,373.42,254.28,373.42Z"/><path class="cls-14" d="M254.29,374.24c0-33.76,27.88-43.77,41.21-46.63a22.6,22.6,0,0,1,25.62,34.23,16.68,16.68,0,0,0,.09,18.65A22.53,22.53,0,0,1,325,393.14c0,12.64-10.92,22.67-23.55,22.54C252.74,415.15,254.29,374.24,254.29,374.24Z"/><path class="cls-15" d="M257.22,373.42c0-25,20.63-32.37,30.49-34.49a16.72,16.72,0,0,1,21.8,14.61,16.64,16.64,0,0,1-2.86,10.71,12.37,12.37,0,0,0,.07,13.8,16.67,16.67,0,0,1,2.84,9.35c0,9.35-8.08,16.77-17.43,16.67C256.08,403.68,257.22,373.42,257.22,373.42Z"/><path class="cls-16" d="M257.22,373.42l-42.49,117a1.61,1.61,0,0,0,2.33,1.94l10.19-6a9.79,9.79,0,0,1,13.12,3l1.16,1.72a1.6,1.6,0,0,0,2.93-.72Z"/><path class="cls-16" d="M254.76,373.42l42.5,117a1.62,1.62,0,0,1-2.34,1.94l-10.18-6a9.8,9.8,0,0,0-13.13,3L270.46,491a1.61,1.61,0,0,1-2.94-.72Z"/><path class="cls-17" d="M276.06,374.24a18.81,18.81,0,1,1-1.12-6.42A18.84,18.84,0,0,1,276.06,374.24Z"/><path class="cls-16" d="M274.94,367.82a18.84,18.84,0,0,1-35.44,0,18.85,18.85,0,0,1,35.44,0Z"/><path class="cls-18" d="M350.91,90.84C339,123,325,149.77,314.08,162.83c-5.37,6.42-10,9.53-13.27,8.32-9.9-3.66-3.52-45.57,14.24-93.58,12.2-33,31.27-58.53,42-71.3a4.73,4.73,0,0,1,8.36,3.09c0,4.54-.24,10.2-.74,16.7C363.34,43.45,359.79,66.83,350.91,90.84Z"/><path class="cls-19" d="M350.91,90.84C339,123,325,149.77,314.08,162.83c.21-17,7-46.45,18.9-78.63,8.88-24,21.4-44.06,31.7-58.14C363.34,43.45,359.79,66.83,350.91,90.84Z"/><path class="cls-18" d="M408.94,174.58C383,197.05,357.88,213.77,342,220c-7.8,3-13.36,3.54-15.64.91-6.92-8,18.84-41.64,57.52-75.18,26.55-23,55.58-36.25,71.14-42.28a4.73,4.73,0,0,1,5.84,6.73c-2.22,4-5.12,8.82-8.69,14.28A242.37,242.37,0,0,1,408.94,174.58Z"/><path class="cls-19" d="M408.94,174.58C383,197.05,357.88,213.77,342,220c8.37-14.82,28.48-37.35,54.4-59.82,19.34-16.77,40-28.33,55.77-35.72A242.37,242.37,0,0,1,408.94,174.58Z"/><path class="cls-18" d="M460.88,55c-2.22,4-5.12,8.83-8.69,14.29-2.54,3.88-5.41,8.06-8.64,12.42a234.21,234.21,0,0,1-34.61,37.73c-7.08,6.14-14.11,11.86-20.9,17-3.59,2.75-7.12,5.35-10.55,7.77A231.19,231.19,0,0,1,352,160.22a100,100,0,0,1-10,4.65c-1.11.43-2.18.82-3.2,1.15a31.42,31.42,0,0,1-5.83,1.35,11.64,11.64,0,0,1-3.87-.09,5.5,5.5,0,0,1-1-.33,4.24,4.24,0,0,1-1.7-1.17c-1.09-1.25-1.37-3.13-.91-5.55q0-.28.12-.6a21.38,21.38,0,0,1,1-3.11,52.71,52.71,0,0,1,4.52-8.77c6-9.74,16.46-22.28,29.87-35.76l1.28-1.29c6.59-6.56,13.87-13.33,21.67-20.1A233.88,233.88,0,0,1,424,62.85a257,257,0,0,1,31-14.54A4.73,4.73,0,0,1,460.88,55Z"/><path class="cls-19" d="M452.19,69.33c-2.54,3.88-5.41,8.06-8.64,12.42a234.21,234.21,0,0,1-34.61,37.73c-7.08,6.14-14.11,11.86-20.9,17-3.59,2.75-7.12,5.35-10.55,7.77A231.19,231.19,0,0,1,352,160.22a100,100,0,0,1-10,4.65c1.26-2.23,2.78-4.63,4.55-7.18,6-8.69,14.91-19.11,25.84-30.2q1.63-1.65,3.31-3.3c6.33-6.27,13.28-12.71,20.7-19.15a235.33,235.33,0,0,1,41.92-28.73C443.23,73.66,447.89,71.34,452.19,69.33Z"/><path class="cls-18" d="M173.36,90.84c11.9,32.17,25.9,58.93,36.82,72,5.38,6.42,10,9.53,13.27,8.32,9.9-3.66,3.53-45.57-14.24-93.58-12.19-33-31.27-58.53-42-71.3a4.73,4.73,0,0,0-8.35,3.09c0,4.54.23,10.2.73,16.7C160.92,43.45,164.48,66.83,173.36,90.84Z"/><path class="cls-19" d="M173.36,90.84c11.9,32.17,25.9,58.93,36.82,72-.2-17-7-46.45-18.9-78.63-8.88-24-21.39-44.06-31.7-58.14C160.92,43.45,164.48,66.83,173.36,90.84Z"/><path class="cls-18" d="M115.32,174.58c25.92,22.47,51.07,39.19,66.92,45.38,7.81,3,13.36,3.54,15.64.91,6.92-8-18.84-41.64-57.52-75.18-26.55-23-55.57-36.25-71.14-42.28a4.73,4.73,0,0,0-5.83,6.73c2.21,4,5.11,8.82,8.68,14.28A242.37,242.37,0,0,0,115.32,174.58Z"/><path class="cls-19" d="M115.32,174.58c25.92,22.47,51.07,39.19,66.92,45.38-8.37-14.82-28.48-37.35-54.4-59.82-19.33-16.77-40-28.33-55.77-35.72A242.37,242.37,0,0,0,115.32,174.58Z"/><path class="cls-18" d="M115.32,119.48c25.92,22.48,51.07,39.2,66.92,45.39,7.81,3,13.36,3.54,15.64.91,6.92-8-18.84-41.64-57.52-75.18-26.55-23-55.57-36.26-71.14-42.29A4.73,4.73,0,0,0,63.39,55c2.21,4,5.11,8.83,8.68,14.29C81.61,83.93,96,102.72,115.32,119.48Z"/><path class="cls-19" d="M115.32,119.48c25.92,22.48,51.07,39.2,66.92,45.39-8.37-14.82-28.48-37.35-54.4-59.83-19.33-16.76-40-28.33-55.77-35.71C81.61,83.93,96,102.72,115.32,119.48Z"/><path class="cls-4" d="M268.09,37C262.87,46,249,86.63,258,91.85s37.43-27,42.65-36A18.83,18.83,0,0,0,268.09,37Z"/><path class="cls-4" d="M244.94,151.92c5.22-9,19.07-49.67,10.08-54.89s-37.44,27-42.66,36a18.83,18.83,0,1,0,32.58,18.9Z"/><path class="cls-4" d="M199.73,82.68c9,5.22,49.68,19.07,54.9,10.07s-27-37.43-36-42.65a18.84,18.84,0,0,0-18.91,32.58Z"/><path class="cls-6" d="M314.69,105.83c-9-5.22-49.67-19.07-54.89-10.07s27,37.43,36,42.65a18.83,18.83,0,0,0,18.9-32.58Z"/><path class="cls-8" d="M222.93,46.17c2.67,10.06,21.64,48.61,31.69,45.94S262,46.56,259.34,36.5a18.84,18.84,0,0,0-36.41,9.67Z"/><path class="cls-8" d="M287.56,142.75c-2.67-10.06-21.64-48.61-31.69-45.94s-7.38,45.55-4.71,55.61a18.83,18.83,0,0,0,36.4-9.67Z"/><path class="cls-8" d="M206.92,126.84c10.06-2.67,48.61-21.64,45.94-31.69s-45.55-7.39-55.61-4.72a18.84,18.84,0,0,0,9.67,36.41Z"/><path class="cls-8" d="M304.58,61.92C294.53,64.59,256,83.56,258.64,93.61s45.56,7.39,55.61,4.72a18.84,18.84,0,1,0-9.67-36.41Z"/><path class="cls-9" d="M273.57,90.66A18.82,18.82,0,0,1,266,111a18.51,18.51,0,0,1-5.85,2.69,18.85,18.85,0,0,1-9.68-36.43,18.56,18.56,0,0,1,6.42-.57A18.84,18.84,0,0,1,273.57,90.66Z"/><path class="cls-10" d="M273.57,90.66A18.82,18.82,0,0,1,266,111a18.84,18.84,0,0,1-9.11-34.31A18.84,18.84,0,0,1,273.57,90.66Z"/><path class="cls-6" d="M337.39,119.92c-5.22,9-19.07,49.67-10.07,54.89s37.43-27,42.65-36a18.83,18.83,0,1,0-32.58-18.9Z"/><path class="cls-6" d="M314.24,234.88c5.22-9,19.07-49.68,10.08-54.9s-37.44,27-42.66,36a18.84,18.84,0,0,0,32.58,18.91Z"/><path class="cls-6" d="M269,165.63c9,5.22,49.67,19.08,54.89,10.08s-27-37.44-36-42.66A18.83,18.83,0,1,0,269,165.63Z"/><path class="cls-6" d="M384,188.79c-9-5.22-49.68-19.08-54.9-10.08s27,37.44,36,42.66A18.84,18.84,0,0,0,384,188.79Z"/><path class="cls-20" d="M292.23,129.13c2.67,10.05,21.64,48.61,31.69,45.94s7.39-45.56,4.72-55.61a18.84,18.84,0,0,0-36.41,9.67Z"/><path class="cls-20" d="M356.86,225.7c-2.67-10-21.64-48.61-31.69-45.94s-7.38,45.56-4.71,55.61a18.83,18.83,0,1,0,36.4-9.67Z"/><path class="cls-20" d="M276.23,209.79c10-2.67,48.61-21.63,45.93-31.69s-45.55-7.38-55.61-4.71a18.83,18.83,0,0,0,9.68,36.4Z"/><path class="cls-20" d="M373.88,144.88c-10.05,2.67-48.61,21.63-45.94,31.69s45.56,7.38,55.62,4.71a18.83,18.83,0,1,0-9.68-36.4Z"/><path class="cls-9" d="M342.87,173.62A18.83,18.83,0,0,1,335.34,194a18.56,18.56,0,0,1-5.84,2.69,18.85,18.85,0,1,1-9.68-36.44,18.47,18.47,0,0,1,6.41-.56A18.84,18.84,0,0,1,342.87,173.62Z"/><path class="cls-10" d="M342.87,173.62A18.83,18.83,0,0,1,335.34,194a18.84,18.84,0,0,1-9.11-34.31A18.84,18.84,0,0,1,342.87,173.62Z"/><path class="cls-21" d="M216.71,129.55c-7.35,7.35-31.18,43.11-23.83,50.46s43.11-16.47,50.47-23.83a18.83,18.83,0,0,0-26.64-26.63Z"/><path class="cls-21" d="M164.82,234.71c7.36-7.36,31.19-43.11,23.83-50.47s-43.11,16.48-50.46,23.83a18.83,18.83,0,0,0,26.63,26.64Z"/><path class="cls-21" d="M138.91,156.18c7.35,7.36,43.11,31.19,50.46,23.83s-16.47-43.11-23.83-50.46a18.83,18.83,0,0,0-26.63,26.63Z"/><path class="cls-21" d="M244.07,208.07c-7.36-7.35-43.11-31.18-50.47-23.83s16.48,43.11,23.83,50.47a18.84,18.84,0,0,0,26.64-26.64Z"/><path class="cls-22" d="M170.7,126.86c0,10.4,8.43,52.53,18.83,52.53s18.84-42.13,18.84-52.53a18.84,18.84,0,1,0-37.67,0Z"/><path class="cls-22" d="M208.37,236.79c0-10.41-8.44-52.54-18.84-52.54s-18.83,42.13-18.83,52.54a18.84,18.84,0,0,0,37.67,0Z"/><path class="cls-22" d="M134.52,200.71c10.4,0,52.53-8.43,52.53-18.84S144.92,163,134.52,163a18.84,18.84,0,1,0,0,37.67Z"/><path class="cls-22" d="M245.57,163c-10.4,0-52.54,8.43-52.54,18.83s42.14,18.84,52.54,18.84a18.84,18.84,0,0,0,0-37.67Z"/><path class="cls-9" d="M208.22,182.86a18.84,18.84,0,0,1-12.51,17.74,18.49,18.49,0,0,1-6.34,1.1,18.85,18.85,0,0,1,0-37.7,18.49,18.49,0,0,1,6.34,1.1A18.84,18.84,0,0,1,208.22,182.86Z"/><path class="cls-10" d="M208.22,182.86a18.84,18.84,0,0,1-12.51,17.74,18.85,18.85,0,0,1,0-35.5A18.84,18.84,0,0,1,208.22,182.86Z"/></g></svg>