<svg xmlns="http://www.w3.org/2000/svg" viewBox="0 0 64 64"><title>29-Candle</title><g id="_29-Candle" data-name="29-Candle"><path d="M36,9a4,4,0,0,1-8,0c0-2.21,4-8,4-8S36,6.79,36,9Z" style="fill:#fad17f"/><path d="M32,5a42.708,42.708,0,0,1,3.448,6A3.961,3.961,0,0,0,36,9c0-2.21-4-8-4-8s-4,5.79-4,8a3.961,3.961,0,0,0,.552,2A42.708,42.708,0,0,1,32,5Z" style="fill:#ffe89c"/><path d="M31.12,38.88A2.994,2.994,0,1,1,29,38,2.993,2.993,0,0,1,31.12,38.88Z" style="fill:#cc9f56"/><path d="M42,33.82A2.772,2.772,0,0,1,41,34a3,3,0,0,1-3-3V25a3,3,0,0,1-6,0v6a3,3,0,0,1-6,0V24H20V19a2.006,2.006,0,0,1,2-2H42a2.006,2.006,0,0,1,2,2V31a2.993,2.993,0,0,1-.88,2.12A2.838,2.838,0,0,1,42,33.82Z" style="fill:#cc9f56"/><path d="M42,17H22a2.006,2.006,0,0,0-2,2v4a2.006,2.006,0,0,1,2-2H42a2.006,2.006,0,0,1,2,2V19A2.006,2.006,0,0,0,42,17Z" style="fill:#edc472"/><path d="M42,33.82V51H22V24h4v7a3,3,0,0,0,6,0V25a3,3,0,0,0,6,0v6a3,3,0,0,0,3,3A2.772,2.772,0,0,0,42,33.82ZM32,41a3,3,0,1,0-.88,2.12A2.993,2.993,0,0,0,32,41Z" style="fill:#fad17f"/><rect x="17" y="59" width="30" height="4" style="fill:#ff73a5"/><path d="M51,51v4a4,4,0,0,1-4,4H17a4,4,0,0,1-4-4V51H51Z" style="fill:#ffb9d5"/><path d="M51,50H43V34.448A3.92,3.92,0,0,0,45,31V19a3,3,0,0,0-3-3H33V13.9A5.009,5.009,0,0,0,37,9c0-2.4-3.479-7.559-4.177-8.568a1.038,1.038,0,0,0-1.646,0C30.479,1.441,27,6.6,27,9a5.009,5.009,0,0,0,4,4.9V16H22a3,3,0,0,0-3,3v5a1,1,0,0,0,1,1h1V50H13a1,1,0,0,0-1,1v4a5.009,5.009,0,0,0,4,4.9V63a1,1,0,0,0,1,1H47a1,1,0,0,0,1-1V59.9A5.009,5.009,0,0,0,52,55V51A1,1,0,0,0,51,50ZM29,9c0-1.093,1.561-3.943,3-6.192,1.439,2.248,3,5.1,3,6.192a3,3,0,0,1-6,0ZM21,19a1,1,0,0,1,1-1H42a1,1,0,0,1,1,1V31a1.985,1.985,0,0,1-.586,1.412,1.947,1.947,0,0,1-.775.476A1.8,1.8,0,0,1,41,33a2,2,0,0,1-2-2V25a1,1,0,0,0-2,0,2,2,0,0,1-4,0,1,1,0,0,0-2,0v6a2,2,0,0,1-4,0V24a1,1,0,0,0-1-1H21Zm2,6h2v6a4,4,0,0,0,8,0V28.463a4.118,4.118,0,0,0,4,0V31a4,4,0,0,0,4,4V50H23ZM46,62H18V60H46Zm4-7a3,3,0,0,1-3,3H17a3,3,0,0,1-3-3V52H50Z"/><path d="M26.173,38.173a4,4,0,1,0,5.654,0A4.087,4.087,0,0,0,26.173,38.173Zm4.24,4.24A1.994,1.994,0,1,1,31,41,1.986,1.986,0,0,1,30.413,42.413Z"/></g></svg>