<svg xmlns="http://www.w3.org/2000/svg" viewBox="0 0 64 64"><defs><style>.cls-1{isolation:isolate;}.cls-2{fill:#f7130d;}.cls-3{fill:#f2f2f2;}.cls-4,.cls-5{fill:none;stroke-width:2px;}.cls-4{stroke:#f2f2f2;stroke-linecap:round;stroke-linejoin:round;}.cls-5{stroke:#000;stroke-miterlimit:10;}.cls-6{mix-blend-mode:multiply;}.cls-7{opacity:0.25;}</style></defs><title>Icon Color</title><g class="cls-1"><g id="Layer_1" data-name="Layer 1"><g id="Vector"><path class="cls-2" d="M55.8,22.31v2.16a4.72,4.72,0,0,0-2.23,1.38,2.29,2.29,0,0,1-3.7,0,4.24,4.24,0,0,0-6.47,0,2.28,2.28,0,0,1-3.69,0,4.72,4.72,0,0,0-2.23-1.38l0-2.16Z"/><path class="cls-3" d="M55.81,30.54a4.7,4.7,0,0,0-2.24,1.38,2.29,2.29,0,0,1-3.7,0,4.24,4.24,0,0,0-6.47,0,2.28,2.28,0,0,1-3.69,0,4.67,4.67,0,0,0-2.27-1.39V28.19l0-1.6a5.05,5.05,0,0,1,.85.7,4.24,4.24,0,0,0,6.47,0,2.28,2.28,0,0,1,3.69,0,4.25,4.25,0,0,0,6.48,0,4.19,4.19,0,0,1,.84-.69Z"/><path class="cls-3" d="M17.08,51.16a9.69,9.69,0,0,1-6.57-.26,9,9,0,0,1-5-5,9.38,9.38,0,0,1,4.64-11.68Z"/><path class="cls-3" d="M32,62a9.37,9.37,0,0,1-11.57-5.27A8.82,8.82,0,0,1,20,51.65a9,9,0,0,1,.71-2.1c.05-.12.12-.23.18-.35s.21-.37.32-.55a8.22,8.22,0,0,1,.61-.88c.11-.14.21-.28.33-.41s.42-.46.65-.68l.35-.3c.17-.14.33-.28.51-.41s.24-.18.36-.26.41-.27.62-.39.22-.13.33-.18l.09,0Z"/><path class="cls-3" d="M55.82,45.72c0,.06-.08,6.19-4.65,8.39-1.15.54-2.68,1.22-4.38,2a9.21,9.21,0,0,1,9-14.84Z"/><path class="cls-3" d="M35.43,30.87l0,3.94a5.53,5.53,0,0,1-3.31,5l-2.2,1a9.22,9.22,0,0,1,5.54-9.91Z"/><path class="cls-2" d="M35.49,23.79l0,5a10.89,10.89,0,0,0-4,2.26A11.15,11.15,0,0,0,28,41.6l-2.76,1.21a11.56,11.56,0,0,0-1.18.55c-.14.07-.26.15-.39.23s-.48.28-.71.43l-.44.32a6.26,6.26,0,0,0-.57.45,5.08,5.08,0,0,0-.43.38c-.17.15-.33.32-.49.48s-.27.27-.39.42-.48.58-.7.88c-.1.14-.18.28-.27.42a7.92,7.92,0,0,0-.42.69c-.08.13-.14.27-.21.41s-.25.52-.36.79l-.12.26L12,33.4l6-2.61A7.56,7.56,0,0,0,22.47,24V21.77a4.34,4.34,0,0,1,.91.72,4.23,4.23,0,0,0,6.46,0,2.29,2.29,0,0,1,3.7,0A4.93,4.93,0,0,0,35.49,23.79Z"/><path class="cls-3" d="M32.3,19.59a5.66,5.66,0,0,0-.6,0,4.27,4.27,0,0,0-3.23,1.5,2.41,2.41,0,0,1-1.85.94,2.38,2.38,0,0,1-1.85-.94,4.69,4.69,0,0,0-2.27-1.39l0-3.94a4.69,4.69,0,0,1,.85.7,4.24,4.24,0,0,0,6.47,0,2.41,2.41,0,0,1,1.85-.94c.12,0,.23,0,.34,0v2.66A4.16,4.16,0,0,0,32.3,19.59Z"/><path class="cls-2" d="M33.46,11.44a4.11,4.11,0,0,0-1.29,2.09,3.39,3.39,0,0,0-.47,0A4.27,4.27,0,0,0,28.47,15a2.41,2.41,0,0,1-1.85.94A2.38,2.38,0,0,1,24.77,15a4.68,4.68,0,0,0-2.22-1.38l0-2.16Z"/><path class="cls-3" d="M44.15,3.66V7.31A2.13,2.13,0,0,1,42,9.44H21.24A2.14,2.14,0,0,1,19.1,7.31V3.66a2.14,2.14,0,0,1,2.14-2.13H42A2.13,2.13,0,0,1,44.15,3.66Z"/><path class="cls-3" d="M59.09,14.53v3.64A2.14,2.14,0,0,1,57,20.31H36.17A2.13,2.13,0,0,1,34,18.17V14.53a2.13,2.13,0,0,1,2.13-2.13H57A2.14,2.14,0,0,1,59.09,14.53Z"/><path class="cls-2" d="M55.81,32.67v6.51A11.22,11.22,0,0,0,44.88,56.87c-4.3,1.8-9,3.69-11,4.46l-7-17.07,1.61-.7,4.36-1.91a6.89,6.89,0,0,0,1-.51,7.52,7.52,0,0,0,3.54-6.32l0-2.18a4.3,4.3,0,0,1,.9.72,4.24,4.24,0,0,0,6.47,0,2.28,2.28,0,0,1,3.69,0,4.25,4.25,0,0,0,6.48,0A4.22,4.22,0,0,1,55.81,32.67Z"/><path class="cls-4" d="M35.41,42.53a6.51,6.51,0,0,0,3.91-5.92"/><line class="cls-4" x1="29.71" y1="45.59" x2="32.71" y2="44.27"/><path class="cls-4" d="M20,31.94A6.53,6.53,0,0,0,23.91,26"/><line class="cls-4" x1="14.3" y1="35" x2="17.3" y2="33.68"/></g><g id="Line"><line class="cls-5" x1="10.7" y1="32.86" x2="18.42" y2="51.75"/><rect class="cls-5" x="18.11" y="0.52" width="27.05" height="9.91" rx="3.13"/><path class="cls-5" d="M21.55,14.48c2.54,0,2.54,2.44,5.08,2.44s2.54-2.44,5.08-2.44a2.92,2.92,0,0,1,1.34.29"/><path class="cls-5" d="M21.55,20.55c2.54,0,2.54,2.44,5.08,2.44s2.54-2.44,5.08-2.44,2.54,2.23,4.78,2.42"/><path class="cls-5" d="M56.81,20.4l0,25.32s0,6.78-5.22,9.28-18.26,7.62-18.26,7.62l-.2.08a10.21,10.21,0,1,1-7.52-19l6.87-3a6.51,6.51,0,0,0,3.91-5.92l.12-14.42"/><path class="cls-5" d="M46.34,57.07A10.23,10.23,0,0,1,56.83,40.42"/><line class="cls-5" x1="25.63" y1="43.73" x2="33.35" y2="62.62"/><path class="cls-5" d="M53,11.39h4a3.14,3.14,0,0,1,3.13,3.14v3.64A3.14,3.14,0,0,1,57,21.3H36.18a3.14,3.14,0,0,1-3.13-3.13V14.53a3.14,3.14,0,0,1,3.13-3.14H49"/><path class="cls-5" d="M36.49,25.35c2.54,0,2.54,2.44,5.07,2.44s2.55-2.44,5.09-2.44,2.54,2.44,5.08,2.44,2.54-2.44,5.09-2.44"/><path class="cls-5" d="M36.49,31.42c2.54,0,2.54,2.44,5.07,2.44s2.55-2.44,5.09-2.44,2.54,2.44,5.08,2.44,2.54-2.44,5.09-2.44"/><path class="cls-5" d="M16,30.55l-5.3,2.31a10.42,10.42,0,0,0-6.11,13.4,10.42,10.42,0,0,0,13.62,5.57l.21-.08.63-.25a10.7,10.7,0,0,1,6.58-7.77l6.87-3a6.51,6.51,0,0,0,3.91-5.92l.12-14.42"/><path class="cls-5" d="M21.59,9.52l-.11,14.42A6.54,6.54,0,0,1,20,28"/><path class="cls-5" d="M32.5,40.73a6.51,6.51,0,0,0,3.91-5.92l.05-5.33a10.18,10.18,0,0,0-7.27,12.7Z"/></g><g id="Shadow" class="cls-6"><g class="cls-7"><path d="M17.08,51.16l-3.81-9.33a15.6,15.6,0,0,0-5.82,1.68,7.39,7.39,0,0,0-2.09,1.93c0,.15.09.3.15.45a9,9,0,0,0,5,5A9.69,9.69,0,0,0,17.08,51.16Z"/><path d="M30.33,11.44a7.58,7.58,0,0,0-1.07,1.19,6.26,6.26,0,0,0-1,2.56l.22-.21a4.27,4.27,0,0,1,3.23-1.5,3.39,3.39,0,0,1,.47,0,4.11,4.11,0,0,1,1.29-2.09Z"/><path d="M15.28,41.47l3.29,8.05.12-.26c.11-.27.23-.53.36-.79s.13-.28.21-.41a7.92,7.92,0,0,1,.42-.69c.09-.14.17-.28.27-.42.22-.3.45-.6.7-.88s.26-.28.39-.42.32-.33.49-.48a5.08,5.08,0,0,1,.43-.38,6.26,6.26,0,0,1,.57-.45L23,44c.23-.15.46-.29.71-.43s.25-.16.39-.23a11.56,11.56,0,0,1,1.18-.55L28,41.6a11.17,11.17,0,0,1,.44-6A33.09,33.09,0,0,1,15.28,41.47Z"/><path d="M32.3,19.59A4.16,4.16,0,0,1,32,18.17V15.51c-.11,0-.22,0-.34,0a2.41,2.41,0,0,0-1.85.94,5.57,5.57,0,0,1-1.66,1.21,13.66,13.66,0,0,0,.48,2.47c.06.2.13.39.19.59a4,4,0,0,1,2.84-1.14A5.66,5.66,0,0,1,32.3,19.59Z"/><path d="M44.15,7.31V3.66A2.13,2.13,0,0,0,42,1.53H34.19a6.44,6.44,0,0,1,.07,6.25,7.4,7.4,0,0,1-1.5,1.66H42A2.13,2.13,0,0,0,44.15,7.31Z"/><path d="M35.4,34.81l0-3.94a9.22,9.22,0,0,0-5.54,9.91l2.2-1A5.53,5.53,0,0,0,35.4,34.81Z"/><path d="M31.7,21.55a2.41,2.41,0,0,0-1.85.94l-.24.23a33,33,0,0,1,1.62,4.7,10.17,10.17,0,0,1,.15,3.73L31.5,31a10.89,10.89,0,0,1,4-2.26l0-5a4.93,4.93,0,0,1-1.94-1.3A2.41,2.41,0,0,0,31.7,21.55Z"/></g><g class="cls-7"><path d="M22.38,59a5.11,5.11,0,0,0-.22.48A9.54,9.54,0,0,0,32,62l-2.54-6.22a16.54,16.54,0,0,0-3,.39A6.3,6.3,0,0,0,22.38,59Z"/><path d="M42.9,52.24a25.53,25.53,0,0,1-11.32,3.44l2.31,5.65c2-.77,6.69-2.66,11-4.46A11.17,11.17,0,0,1,42.9,52.24Z"/><path d="M55.81,39.18V32.67a4.22,4.22,0,0,0-.85.69,4.31,4.31,0,0,1-3.24,1.5h-.19a22.62,22.62,0,0,1,0,4.43A11.34,11.34,0,0,1,55.81,39.18Z"/><path d="M55.82,45.72v-4.5a9.21,9.21,0,0,0-4.61.23A17.79,17.79,0,0,1,44.75,51a9.18,9.18,0,0,0,2,5.09c1.7-.73,3.23-1.41,4.38-2C55.74,51.91,55.82,45.78,55.82,45.72Z"/><path d="M55.8,26.6a4.19,4.19,0,0,0-.84.69,4.31,4.31,0,0,1-3.24,1.5,4.22,4.22,0,0,1-.91-.1c.11,1.37.31,2.74.48,4.12a2,2,0,0,0,.43,0,2.38,2.38,0,0,0,1.85-.94,4.7,4.7,0,0,1,2.24-1.38Z"/><path d="M57,12.4H53.81a8.06,8.06,0,0,1-.51,5.13c-.36.94-.8,1.86-1.21,2.78H57a2.14,2.14,0,0,0,2.13-2.14V14.53A2.14,2.14,0,0,0,57,12.4Z"/><path d="M51.25,22.51a14.15,14.15,0,0,0-.53,4,2,2,0,0,0,1,.24,2.38,2.38,0,0,0,1.85-.94,4.72,4.72,0,0,1,2.23-1.38V22.31H51.32C51.3,22.38,51.27,22.44,51.25,22.51Z"/></g></g></g></g></svg>