<?xml version="1.0" encoding="utf-8"?>
<!-- Generator: Adobe Illustrator 23.0.6, SVG Export Plug-In . SVG Version: 6.00 Build 0)  -->
<svg version="1.1" id="Layer_1" xmlns="http://www.w3.org/2000/svg" xmlns:xlink="http://www.w3.org/1999/xlink" x="0px" y="0px"
	 viewBox="0 0 64 64" style="enable-background:new 0 0 64 64;" xml:space="preserve">
<style type="text/css">
	.st0{fill:#EC4C98;}
	.st1{fill:none;}
	.st2{fill:#CE307B;}
	.st3{fill:#A88967;}
	.st4{fill:#E88793;}
	.st5{fill:#F7C0CD;}
	.st6{fill:#FFD067;}
	.st7{fill:#EC635F;}
	.st8{fill:#CC4948;}
	.st9{fill:#EA3B4F;}
	.st10{fill:#FDE373;}
	.st11{fill:#9ECAE0;}
	.st12{fill:#010101;}
	.st13{fill:#F8B2B3;}
	.st14{fill:#CCCCCC;}
	.st15{fill:#683D17;}
	.st16{fill:#971D21;}
	.st17{fill:#D32C39;}
	.st18{fill:#EB9E2D;}
	.st19{fill:#F9BF73;}
	.st20{fill:#D46360;}
	.st21{fill:#EAEEF1;}
	.st22{fill:#ED6F6E;}
	.st23{fill:#FAC2C3;}
	.st24{fill:#FDF5A3;}
	.st25{fill:#F49DC3;}
	.st26{fill:#D85DA0;}
	.st27{fill:#F7A4A6;}
	.st28{fill:#FFE09C;}
	.st29{fill:#D25252;}
	.st30{fill:none;stroke:#010101;stroke-width:2;stroke-miterlimit:10;}
	.st31{fill:#DFE568;}
	.st32{fill:#D0202B;}
	.st33{fill:#66A9B2;}
	.st34{fill:#8BCEDB;}
	.st35{fill:#ACDFE6;}
	.st36{fill:#F58D95;}
	.st37{fill:#F26C76;}
	.st38{fill:#F7A6AE;}
	.st39{fill:#FDE588;}
	.st40{fill:#853223;}
	.st41{fill:#C6877E;}
	.st42{fill:#C32026;}
	.st43{fill:#969595;}
	.st44{fill:#F9B4AB;}
	.st45{fill:#FBCFC8;}
	.st46{fill:#DC326F;}
	.st47{fill:#F7FAFC;}
	.st48{fill:#F6EFE8;}
	.st49{fill:#7DC8C7;}
	.st50{fill:#E27F86;}
	.st51{fill:#FFFFFF;}
	.st52{fill:#BEDDF4;}
	.st53{fill:#FBB03B;}
	.st54{fill:#F47D4E;}
	.st55{fill:#F176A8;}
	.st56{fill:#ED227C;}
	.st57{fill:#ED99C1;}
	.st58{fill:#FDF053;}
	.st59{fill:#F9B9A2;}
	.st60{fill:#F09B78;}
	.st61{fill:none;stroke:#000000;stroke-width:2;stroke-miterlimit:10;}
	.st62{fill:none;stroke:#010101;stroke-width:2.5936;stroke-miterlimit:10;}
	.st63{fill:none;stroke:#010101;stroke-width:2.6898;stroke-miterlimit:10;}
	.st64{fill:none;stroke:#010101;stroke-width:1.8138;stroke-miterlimit:10;}
	.st65{fill:none;stroke:#010101;stroke-width:1.9508;stroke-miterlimit:10;}
	.st66{fill:none;stroke:#010101;stroke-width:1.9031;stroke-miterlimit:10;}
	.st67{fill:none;stroke:#010101;stroke-width:1.5453;stroke-miterlimit:10;}
	.st68{fill:none;stroke:#010101;stroke-width:1.7277;stroke-miterlimit:10;}
	.st69{opacity:0.3;}
	.st70{opacity:0.3;fill:#FFFFFF;}
</style>
<g id="Vector">
	<g id="earrings">
		<circle class="st27" cx="21.38" cy="43.82" r="9.27"/>
		<circle class="st27" cx="45.56" cy="53.09" r="9.27"/>
		<polygon class="st28" points="27.71,27.77 21.3,34.19 14.89,27.77 		"/>
		<circle class="st29" cx="21.38" cy="22.63" r="4.79"/>
		<polygon class="st28" points="51.97,36.35 45.56,42.76 39.15,36.35 		"/>
		<circle class="st29" cx="45.64" cy="31.2" r="4.79"/>
		<g>
			<path class="st30" d="M25.04,1.64c0,0-0.81,3.06-3.36,2.04c0,0-6.01-4.28-6.93,1.12c0,0-0.2,3.87,4.38,3.77
				c0,0,1.94,1.02,2.24,2.85v6.42"/>
			<line class="st30" x1="21.37" y1="11.42" x2="21.37" y2="17.84"/>
		</g>
		<g>
			<path class="st30" d="M49.44,11.02c0,0-0.81,3.06-3.36,2.04c0,0-6.01-4.28-6.93,1.12c0,0-0.2,3.87,4.38,3.77
				c0,0,1.94,1.02,2.24,2.85v6.42"/>
			<line class="st30" x1="45.77" y1="20.8" x2="45.77" y2="27.22"/>
		</g>
	</g>
</g>
<g id="Line">
	<g id="earrings_1_">
		<circle class="st30" cx="21.38" cy="43.82" r="9.27"/>
		<circle class="st30" cx="45.56" cy="53.09" r="9.27"/>
		<polygon class="st30" points="27.71,27.77 21.3,34.19 14.89,27.77 		"/>
		<circle class="st30" cx="21.38" cy="22.63" r="4.79"/>
		<polygon class="st30" points="51.97,36.35 45.56,42.76 39.15,36.35 		"/>
		<circle class="st30" cx="45.64" cy="31.2" r="4.79"/>
		<g>
			<path class="st30" d="M25.04,1.64c0,0-0.81,3.06-3.36,2.04c0,0-6.01-4.28-6.93,1.12c0,0-0.2,3.87,4.38,3.77
				c0,0,1.94,1.02,2.24,2.85v6.42"/>
			<line class="st30" x1="21.37" y1="11.42" x2="21.37" y2="17.84"/>
		</g>
		<g>
			<path class="st30" d="M49.44,11.02c0,0-0.81,3.06-3.36,2.04c0,0-6.01-4.28-6.93,1.12c0,0-0.2,3.87,4.38,3.77
				c0,0,1.94,1.02,2.24,2.85v6.42"/>
			<line class="st30" x1="45.77" y1="20.8" x2="45.77" y2="27.22"/>
		</g>
	</g>
</g>
<g id="shadow">
	<path class="st69" d="M39.48,13.07c0.62-0.31,1.02-0.91,1.25-1.38C40.22,11.92,39.78,12.36,39.48,13.07z"/>
	<polygon class="st69" points="51.97,37.5 44.83,37.5 42.97,39.29 46.55,42.76 	"/>
	<path class="st69" d="M15.08,3.68c0.62-0.31,1.02-0.91,1.25-1.38C15.82,2.54,15.38,2.97,15.08,3.68z"/>
	<polygon class="st69" points="19.21,30.5 22.59,34.19 27.71,28.59 20.96,28.59 	"/>
	<path class="st69" d="M23.26,34.55c-0.91,0-1.76,0.27-1.76,0.27c-0.29,0.09-0.53,0.19-0.7,0.27c0.6,0.89,1.37,2.18,2,3.84
		c0.17,0.44,1.04,2.8,1.12,4.9c0.18,4.82-3.81,8.61-4.7,9.43c0.96,0.14,2.39,0.22,4.04-0.16c2.99-0.69,4.87-2.47,5.64-3.29
		c0.3-0.99,0.73-1.9,1.27-2.7c0.31-1.02,0.49-2.13,0.49-3.29C30.65,38.7,27.34,34.55,23.26,34.55z"/>
	<path class="st69" d="M45.56,43.82c-1.52,0-2.95,0.37-4.22,1.02c2.99,1.54,5.05,4.65,5.05,8.25c0,3.6-2.05,6.71-5.05,8.25
		c1.27,0.65,2.7,1.02,4.22,1.02c5.12,0,9.27-4.15,9.27-9.27C54.83,47.97,50.68,43.82,45.56,43.82z"/>
	<path class="st69" d="M50,27.86c-0.14-0.15-1.36-1.39-3.18-1.3c-0.71,0.03-1.26,0.25-1.59,0.41c0.42,0.77,0.87,1.83,1.08,3.15
		c0.14,0.88,0.26,1.63,0,2.52c-0.44,1.46-1.63,2.27-2.13,2.57c0.45,0.25,1.23,0.58,2.2,0.55c2.39-0.07,4.7-2.31,4.79-4.79
		C51.17,30.66,51.18,29.11,50,27.86z"/>
	<path class="st69" d="M25.04,19.33c-0.14-0.15-1.36-1.39-3.18-1.3c-0.71,0.03-1.26,0.25-1.59,0.41c0.42,0.77,0.87,1.83,1.08,3.15
		c0.14,0.88,0.26,1.63,0,2.52c-0.44,1.46-1.63,2.27-2.13,2.57c0.45,0.25,1.23,0.58,2.2,0.55c2.39-0.07,4.7-2.31,4.79-4.79
		C26.21,22.12,26.23,20.57,25.04,19.33z"/>
</g>
<g id="Highligth">
	<g id="dress_3_">
	</g>
	<g id="heels_3_">
	</g>
	<g id="sneakers_3_">
	</g>
	<g id="brush_3_">
	</g>
	<g id="lipstick_3_">
	</g>
	<g id="powder_3_">
	</g>
	<g id="eye_shadow_3_">
	</g>
	<g id="hat_3_">
	</g>
	<g id="boots_3_">
	</g>
	<g id="earring_1_">
	</g>
	<g id="hair_straightener_3_">
	</g>
	<g id="hair_dyer">
	</g>
	<g id="cream_3_">
	</g>
	<g id="long_shirt_3_">
	</g>
	<g id="hot_pents_1_">
	</g>
	<g id="dress_party_3_">
	</g>
	<g id="kutex_3_">
	</g>
	<g id="mirror_3_">
	</g>
	<g id="parfume_3_">
	</g>
	<path class="st70" d="M44.9,12.36c-1.8-0.94-5.09-2.06-5.75,1.82c0,0-0.2,3.87,4.38,3.77c0,0,1.94,1.02,2.24,2.85v5.62
		c-0.05,0-0.09-0.01-0.13-0.01c-2.64,0-4.79,2.14-4.79,4.79s2.14,4.79,4.79,4.79c0.92,0,1.77-0.27,2.5-0.72
		c-1.37-0.84-2.29-2.34-2.29-4.06c0-1.72,0.91-3.21,2.27-4.05c-0.64-0.39-1.37-0.65-2.17-0.7l1.93-8.51
		c-3.9-0.27-3.72-3.75-3.72-3.75C44.29,13.36,44.56,12.78,44.9,12.36z"/>
	<path class="st70" d="M24.63,2.57c0.06,0.02,0.12,0.05,0.18,0.07l0.23-1.01C25.04,1.64,24.92,2.08,24.63,2.57z"/>
	<path class="st70" d="M23.88,18.56c-0.73-0.45-1.58-0.72-2.5-0.72c-2.64,0-4.79,2.14-4.79,4.79c0,2.64,2.14,4.79,4.79,4.79
		c0.92,0,1.77-0.27,2.5-0.72c-1.37-0.84-2.29-2.34-2.29-4.06S22.51,19.4,23.88,18.56z"/>
	<path class="st70" d="M14.75,4.8c0,0-0.2,3.87,4.38,3.77c0,0,1.94,1.02,2.24,2.85v6.42l2.1-9.29c-3.9-0.27-3.72-3.75-3.72-3.75
		c0.14-0.82,0.41-1.4,0.75-1.82C18.7,2.04,15.41,0.91,14.75,4.8z"/>
	<polygon class="st70" points="23.8,31.69 19.89,27.77 14.89,27.77 21.3,34.19 	"/>
	<path class="st70" d="M49.21,12.03l0.23-1.01c0,0-0.12,0.44-0.4,0.93C49.09,11.98,49.15,12.01,49.21,12.03z"/>
	<path class="st70" d="M48.06,44.17c-0.8-0.22-1.63-0.35-2.5-0.35c-5.12,0-9.27,4.15-9.27,9.27c0,5.12,4.15,9.27,9.27,9.27
		c0.87,0,1.7-0.13,2.5-0.35c-3.9-1.09-6.77-4.67-6.77-8.92C41.29,48.84,44.16,45.26,48.06,44.17z"/>
	<polygon class="st70" points="44.15,36.35 39.15,36.35 45.56,42.76 48.06,40.26 	"/>
	<path class="st70" d="M21.38,53.09c0.87,0,1.7-0.13,2.5-0.35c-3.9-1.09-6.77-4.67-6.77-8.92s2.87-7.83,6.77-8.92
		c-0.8-0.22-1.63-0.35-2.5-0.35c-5.12,0-9.27,4.15-9.27,9.27S16.26,53.09,21.38,53.09z"/>
</g>
</svg>
