<?xml version="1.0" encoding="UTF-8"?>
<!DOCTYPE svg PUBLIC "-//W3C//DTD SVG 1.1//EN" "http://www.w3.org/Graphics/SVG/1.1/DTD/svg11.dtd">
<!-- Creator: CorelDRAW -->
<svg xmlns="http://www.w3.org/2000/svg" xml:space="preserve" width="2048px" height="2048px" style="shape-rendering:geometricPrecision; text-rendering:geometricPrecision; image-rendering:optimizeQuality; fill-rule:evenodd; clip-rule:evenodd"
viewBox="0 0 2048 2048"
 xmlns:xlink="http://www.w3.org/1999/xlink">
 <defs>
  <style type="text/css">
   <![CDATA[
    .fil2 {fill:none}
    .fil1 {fill:#26A69A}
    .fil0 {fill:#4DB6AC}
    .fil4 {fill:#B71C1C}
    .fil3 {fill:#E53935}
    .fil6 {fill:#F57F17}
    .fil5 {fill:#FBC02D}
   ]]>
  </style>
   <clipPath id="id0">
    <path d="M1024 0c565.539,0 1024,458.461 1024,1024 0,565.539 -458.461,1024 -1024,1024 -565.539,0 -1024,-458.461 -1024,-1024 0,-565.539 458.461,-1024 1024,-1024z"/>
   </clipPath>
 </defs>
 <g id="Layer_x0020_1">
  <metadata id="CorelCorpID_0Corel-Layer"/>
  <path class="fil0" d="M1024 0c565.539,0 1024,458.461 1024,1024 0,565.539 -458.461,1024 -1024,1024 -565.539,0 -1024,-458.461 -1024,-1024 0,-565.539 458.461,-1024 1024,-1024z"/>
  <g style="clip-path:url(#id0)">
   <g id="_474094712">
    <g>
     <polygon id="_3362392401" class="fil1" points="864.354,512.159 2000.24,1648.04 2001.81,1649.77 2003.36,1651.55 2004.88,1653.4 2006.37,1655.3 2007.84,1657.26 2009.27,1659.27 2010.68,1661.35 2012.06,1663.47 876.174,527.589 874.798,525.463 873.392,523.392 871.957,521.376 870.492,519.416 868.999,517.513 867.479,515.67 865.929,513.885 "/>
     <polygon id="_336239024" class="fil1" points="876.174,527.589 2012.06,1663.47 2012.76,1664.59 2013.45,1665.73 2014.13,1666.88 2014.81,1668.05 2015.48,1669.24 2016.14,1670.44 2016.79,1671.65 2017.44,1672.88 2018.07,1674.13 2018.7,1675.38 2019.32,1676.66 2019.93,1677.94 2020.54,1679.25 2021.13,1680.56 2021.72,1681.89 2022.29,1683.24 2022.86,1684.59 2023.42,1685.96 2023.97,1687.35 2024.51,1688.74 2025.04,1690.15 2025.56,1691.57 2026.08,1693.01 2026.58,1694.46 2027.08,1695.91 2027.56,1697.39 2028.03,1698.87 2028.5,1700.36 2028.95,1701.87 2029.4,1703.39 2029.83,1704.91 2030.26,1706.45 894.376,570.572 893.951,569.032 893.516,567.504 893.072,565.986 892.618,564.48 892.152,562.986 891.679,561.504 891.194,560.032 890.701,558.573 890.196,557.126 889.684,555.691 889.162,554.271 888.63,552.86 888.089,551.464 887.54,550.081 886.981,548.711 886.413,547.354 885.837,546.01 885.251,544.681 884.657,543.364 884.053,542.063 883.442,540.775 882.822,539.501 882.193,538.243 881.557,536.998 880.912,535.769 880.259,534.553 879.598,533.354 878.929,532.17 878.252,531.002 877.567,529.848 876.875,528.71 "/>
     <polygon id="_336239936" class="fil1" points="1005.19,568.718 2141.07,1704.6 2142.47,1706.16 2143.79,1707.77 2145.05,1709.41 2146.23,1711.1 2147.35,1712.83 2148.41,1714.6 2149.39,1716.41 2150.31,1718.25 2151.17,1720.13 2151.96,1722.05 2152.68,1724.01 2153.33,1725.99 2153.92,1728.02 2154.45,1730.07 2154.91,1732.16 2155.31,1734.27 2155.65,1736.42 2155.92,1738.6 2156.12,1740.8 2156.27,1743.03 2156.35,1745.29 2156.37,1747.57 2156.32,1749.88 2156.22,1752.22 2156.05,1754.57 2155.82,1756.95 2155.53,1759.35 2155.19,1761.76 2154.78,1764.2 2154.31,1766.66 2153.78,1769.13 1017.89,633.251 1018.43,630.776 1018.89,628.32 1019.3,625.882 1019.65,623.464 1019.94,621.065 1020.17,618.688 1020.34,616.333 1020.44,614.001 1020.49,611.692 1020.47,609.409 1020.39,607.151 1020.24,604.92 1020.04,602.715 1019.76,600.539 1019.43,598.392 1019.03,596.275 1018.57,594.189 1018.04,592.134 1017.45,590.112 1016.8,588.124 1016.07,586.171 1015.29,584.252 1014.43,582.37 1013.51,580.524 1012.53,578.717 1011.47,576.948 1010.35,575.219 1009.17,573.531 1007.91,571.883 1006.59,570.279 "/>
     <polygon id="_336239648" class="fil1" points="1017.89,633.251 2153.78,1769.13 2153.48,1770.42 2153.16,1771.72 2152.83,1773.02 2152.48,1774.33 2152.12,1775.64 2151.74,1776.96 2151.34,1778.28 2150.93,1779.61 2150.5,1780.94 2150.05,1782.27 2149.59,1783.61 2149.11,1784.96 2148.61,1786.31 2148.1,1787.66 2147.58,1789.02 2147.03,1790.38 2146.48,1791.74 2145.9,1793.1 2145.31,1794.47 2144.71,1795.84 2144.09,1797.22 2143.45,1798.59 2142.8,1799.97 2142.13,1801.35 2141.45,1802.73 2140.75,1804.12 2140.04,1805.5 2139.31,1806.89 2138.56,1808.27 2137.81,1809.66 2137.03,1811.05 2136.24,1812.44 1000.36,676.557 1001.15,675.168 1001.92,673.779 1002.68,672.39 1003.43,671.004 1004.16,669.617 1004.87,668.233 1005.57,666.849 1006.25,665.467 1006.92,664.087 1007.57,662.709 1008.21,661.334 1008.83,659.96 1009.43,658.589 1010.02,657.221 1010.59,655.855 1011.15,654.493 1011.7,653.134 1012.22,651.778 1012.73,650.425 1013.23,649.078 1013.71,647.732 1014.17,646.392 1014.61,645.056 1015.04,643.725 1015.46,642.397 1015.86,641.075 1016.24,639.758 1016.6,638.445 1016.95,637.138 1017.28,635.836 1017.6,634.541 "/>
     <polygon id="_336239888" class="fil1" points="1062.04,709.811 2197.92,1845.69 2199.46,1847.35 2200.94,1849.03 2202.36,1850.74 2203.7,1852.47 2204.99,1854.22 2206.21,1856 2207.36,1857.8 2208.44,1859.63 2209.45,1861.48 2210.39,1863.35 2211.27,1865.24 2212.07,1867.16 2212.79,1869.09 2213.45,1871.05 2214.03,1873.02 2214.54,1875.02 2214.97,1877.03 2215.32,1879.07 2215.6,1881.12 2215.8,1883.19 2215.92,1885.28 2215.96,1887.39 1080.08,751.504 1080.04,749.398 1079.92,747.309 1079.72,745.238 1079.44,743.186 1079.09,741.151 1078.66,739.136 1078.15,737.14 1077.57,735.164 1076.91,733.208 1076.18,731.273 1075.38,729.358 1074.51,727.465 1073.57,725.595 1072.56,723.747 1071.47,721.921 1070.33,720.117 1069.11,718.339 1067.82,716.584 1066.47,714.853 1065.06,713.147 1063.58,711.466 "/>
     <polygon id="_336239744" class="fil1" points="1080.08,751.504 2215.96,1887.39 2215.92,1889.49 2215.8,1891.58 2215.6,1893.65 2215.32,1895.71 2214.97,1897.74 2214.54,1899.76 2214.03,1901.75 2213.45,1903.73 2212.79,1905.68 2212.07,1907.62 2211.27,1909.53 2210.39,1911.43 2209.45,1913.3 2208.44,1915.14 2207.36,1916.97 2206.21,1918.77 2204.99,1920.55 2203.7,1922.31 2202.36,1924.04 2200.94,1925.74 2199.46,1927.42 2197.92,1929.08 2196.32,1930.71 2194.66,1932.31 2192.93,1933.89 2191.14,1935.44 2189.3,1936.96 2187.4,1938.45 2185.44,1939.91 2183.42,1941.35 2181.35,1942.76 2179.23,1944.13 1043.34,808.25 1045.47,806.874 1047.54,805.468 1049.56,804.033 1051.52,802.568 1053.42,801.075 1055.26,799.555 1057.05,798.005 1058.77,796.43 1060.44,794.827 1062.04,793.198 1063.58,791.542 1065.06,789.862 1066.47,788.156 1067.82,786.425 1069.11,784.67 1070.33,782.891 1071.47,781.088 1072.56,779.262 1073.57,777.414 1074.51,775.543 1075.38,773.65 1076.18,771.736 1076.91,769.801 1077.57,767.845 1078.15,765.869 1078.66,763.873 1079.09,761.858 1079.44,759.823 1079.72,757.77 1079.92,755.699 1080.04,753.61 "/>
     <polygon id="_336239696" class="fil1" points="1043.34,808.25 2179.23,1944.13 2178.1,1944.83 2176.97,1945.53 2175.81,1946.21 2174.64,1946.89 2173.46,1947.56 2172.26,1948.22 2171.05,1948.87 2169.82,1949.51 2168.57,1950.15 2167.31,1950.78 2166.04,1951.4 2164.75,1952.01 2163.45,1952.62 2162.13,1953.21 2160.8,1953.8 2159.46,1954.37 2158.1,1954.94 2156.73,1955.5 2155.35,1956.05 2153.95,1956.59 2152.54,1957.12 2151.12,1957.64 2149.69,1958.15 2148.24,1958.66 2146.78,1959.15 2145.31,1959.64 2143.83,1960.11 2142.33,1960.58 2140.83,1961.03 2139.31,1961.47 2137.78,1961.91 2136.24,1962.33 1000.36,826.452 1001.9,826.027 1003.43,825.592 1004.95,825.148 1006.45,824.694 1007.95,824.228 1009.43,823.755 1010.9,823.27 1012.36,822.777 1013.81,822.272 1015.24,821.76 1016.66,821.238 1018.07,820.706 1019.47,820.165 1020.85,819.616 1022.22,819.057 1023.58,818.489 1024.92,817.913 1026.25,817.327 1027.57,816.733 1028.87,816.129 1030.16,815.518 1031.43,814.897 1032.69,814.269 1033.94,813.633 1035.16,812.988 1036.38,812.334 1037.58,811.674 1038.76,811.005 1039.93,810.328 1041.08,809.643 1042.22,808.951 "/>
     <polygon id="_336239960" class="fil1" points="1000.36,826.452 2136.24,1962.33 2137.03,1963.72 2137.81,1965.11 2138.56,1966.5 2139.31,1967.89 2140.04,1969.27 2140.75,1970.66 2141.45,1972.04 2142.13,1973.43 2142.8,1974.8 2143.45,1976.18 2144.09,1977.56 2144.71,1978.93 2145.31,1980.3 2145.9,1981.67 2146.48,1983.04 2147.03,1984.4 2147.58,1985.76 2148.1,1987.11 2148.61,1988.47 2149.11,1989.81 2149.59,1991.16 2150.05,1992.5 2150.5,1993.84 2150.93,1995.17 2151.34,1996.49 2151.74,1997.82 2152.12,1999.13 2152.48,2000.45 2152.83,2001.75 2153.16,2003.06 2153.48,2004.35 2153.78,2005.64 1017.89,869.759 1017.6,868.469 1017.28,867.173 1016.95,865.872 1016.6,864.564 1016.24,863.252 1015.86,861.935 1015.46,860.612 1015.04,859.286 1014.61,857.953 1014.17,856.618 1013.71,855.277 1013.23,853.932 1012.73,852.584 1012.22,851.232 1011.7,849.876 1011.15,848.516 1010.59,847.155 1010.02,845.789 1009.43,844.42 1008.83,843.05 1008.2,841.677 1007.57,840.301 1006.92,838.922 1006.25,837.543 1005.57,836.161 1004.87,834.778 1004.16,833.392 1003.43,832.007 1002.68,830.619 1001.92,829.231 1001.15,827.842 "/>
     <polygon id="_336240128" class="fil1" points="1017.89,869.759 2153.78,2005.64 2154.31,2008.12 2154.78,2010.57 2155.19,2013.01 2155.53,2015.43 2155.82,2017.83 2156.05,2020.2 2156.22,2022.56 2156.32,2024.89 2156.37,2027.2 2156.35,2029.48 2156.27,2031.74 2156.12,2033.97 2155.92,2036.18 2155.65,2038.35 2155.31,2040.5 2154.91,2042.62 2154.45,2044.7 2153.92,2046.76 2153.33,2048.78 2152.68,2050.77 2151.96,2052.72 2151.17,2054.64 2150.31,2056.52 2149.39,2058.37 2148.41,2060.17 2147.35,2061.94 2146.23,2063.67 2145.05,2065.36 2143.79,2067.01 2142.47,2068.61 2141.07,2070.17 2139.61,2071.69 1003.73,935.808 1005.19,934.29 1006.59,932.729 1007.91,931.125 1009.17,929.477 1010.35,927.79 1011.47,926.061 1012.53,924.291 1013.51,922.484 1014.43,920.638 1015.29,918.757 1016.07,916.837 1016.8,914.884 1017.45,912.896 1018.04,910.874 1018.57,908.819 1019.03,906.733 1019.43,904.616 1019.76,902.469 1020.04,900.294 1020.24,898.09 1020.39,895.857 1020.47,893.599 1020.49,891.316 1020.44,889.008 1020.34,886.675 1020.17,884.32 1019.94,881.944 1019.65,879.545 1019.3,877.126 1018.89,874.688 1018.43,872.233 "/>
     <polygon id="_336240320" class="fil1" points="1003.73,935.808 2139.61,2071.69 2138.1,2073.15 2136.53,2074.54 2134.93,2075.87 2133.28,2077.12 2131.59,2078.31 2129.87,2079.43 2128.1,2080.49 2126.29,2081.47 2124.44,2082.39 2122.56,2083.24 2120.64,2084.03 2118.69,2084.75 2116.7,2085.41 2114.68,2086 2112.62,2086.53 2110.54,2086.99 2108.42,2087.39 2106.27,2087.72 2104.1,2087.99 2101.89,2088.2 2099.66,2088.34 2097.4,2088.43 2095.12,2088.44 2092.81,2088.4 2090.48,2088.3 2088.13,2088.13 2085.75,2087.9 2083.35,2087.61 2080.93,2087.26 2078.49,2086.85 2076.04,2086.38 2073.56,2085.85 937.683,949.971 940.157,950.5 942.613,950.97 945.05,951.38 947.469,951.729 949.868,952.019 952.244,952.247 954.6,952.413 956.932,952.518 959.24,952.562 961.523,952.543 963.781,952.462 966.014,952.318 968.218,952.111 970.393,951.84 972.541,951.506 974.657,951.108 976.743,950.646 978.798,950.12 980.82,949.528 982.808,948.871 984.761,948.15 986.681,947.362 988.562,946.509 990.408,945.589 992.215,944.603 993.985,943.549 995.714,942.428 997.402,941.24 999.049,939.985 1000.65,938.661 1002.21,937.269 "/>
     <polygon id="_336239720" class="fil1" points="937.683,949.971 2073.56,2085.85 2072.27,2085.55 2070.98,2085.24 2069.68,2084.91 2068.37,2084.56 2067.06,2084.19 2065.74,2083.81 2064.42,2083.42 2063.09,2083 2061.76,2082.57 2060.42,2082.13 2059.08,2081.66 2057.74,2081.19 2056.39,2080.69 2055.04,2080.18 2053.68,2079.65 2052.32,2079.11 2050.96,2078.55 2049.59,2077.98 2048.23,2077.39 2046.86,2076.78 2045.48,2076.16 2044.11,2075.53 2042.73,2074.87 2041.35,2074.21 2039.97,2073.52 2038.58,2072.83 2037.2,2072.11 2035.81,2071.38 2034.42,2070.64 2033.04,2069.88 2031.65,2069.11 2030.26,2068.32 894.376,932.437 895.766,933.226 897.155,934 898.543,934.758 899.931,935.502 901.316,936.231 902.702,936.944 904.085,937.642 905.467,938.325 906.846,938.992 908.225,939.644 909.601,940.281 910.974,940.902 912.344,941.507 913.713,942.096 915.079,942.67 916.44,943.229 917.8,943.771 919.156,944.298 920.508,944.808 921.856,945.303 923.201,945.781 924.542,946.244 925.877,946.691 927.21,947.121 928.536,947.534 929.859,947.932 931.176,948.313 932.488,948.678 933.796,949.026 935.097,949.358 936.393,949.672 "/>
     <polygon id="_336240464" class="fil1" points="894.376,932.437 2030.26,2068.32 2029.83,2069.86 2029.4,2071.39 2028.95,2072.9 2028.5,2074.41 2028.03,2075.91 2027.56,2077.39 2027.08,2078.86 2026.58,2080.32 2026.08,2081.77 2025.56,2083.2 2025.04,2084.62 2024.51,2086.03 2023.97,2087.43 2023.42,2088.81 2022.86,2090.18 2022.29,2091.54 2021.72,2092.88 2021.13,2094.21 2020.54,2095.53 2019.93,2096.83 2019.32,2098.12 2018.7,2099.39 2018.07,2100.65 2017.44,2101.89 2016.79,2103.12 2016.14,2104.34 2015.48,2105.54 2014.81,2106.72 2014.13,2107.89 2013.45,2109.04 2012.76,2110.18 2012.06,2111.3 876.174,975.42 876.875,974.298 877.567,973.161 878.252,972.008 878.929,970.839 879.598,969.655 880.259,968.455 880.912,967.241 881.557,966.011 882.193,964.766 882.822,963.507 883.442,962.234 884.053,960.946 884.657,959.644 885.251,958.328 885.837,956.998 886.413,955.655 886.981,954.298 887.54,952.928 888.089,951.545 888.63,950.148 889.162,948.739 889.684,947.317 890.196,945.883 890.701,944.436 891.194,942.977 891.679,941.506 892.152,940.024 892.618,938.529 893.072,937.022 893.516,935.506 893.951,933.977 "/>
     <polygon id="_336240368" class="fil1" points="638.496,826.452 1774.38,1962.33 1772.84,1961.91 1771.31,1961.47 1769.79,1961.03 1768.29,1960.58 1766.79,1960.11 1765.31,1959.64 1763.84,1959.15 1762.38,1958.66 1760.93,1958.15 1759.5,1957.64 1758.07,1957.12 1756.67,1956.59 1755.27,1956.05 1753.89,1955.5 1752.52,1954.94 1751.16,1954.37 1749.82,1953.8 1748.49,1953.21 1747.17,1952.62 1745.87,1952.01 1744.58,1951.4 1743.31,1950.78 1742.05,1950.15 1740.8,1949.51 1739.57,1948.87 1738.36,1948.22 1737.16,1947.56 1735.97,1946.89 1734.81,1946.21 1733.65,1945.53 1732.52,1944.83 1731.39,1944.13 595.513,808.25 596.634,808.951 597.772,809.643 598.926,810.328 600.094,811.005 601.278,811.674 602.477,812.334 603.693,812.988 604.922,813.633 606.166,814.269 607.425,814.897 608.698,815.518 609.987,816.129 611.288,816.733 612.604,817.327 613.934,817.913 615.277,818.489 616.634,819.057 618.004,819.616 619.388,820.165 620.784,820.706 622.193,821.238 623.615,821.76 625.05,822.272 626.496,822.777 627.956,823.27 629.426,823.755 630.91,824.228 632.404,824.694 633.91,825.148 635.428,825.592 636.956,826.027 "/>
     <polygon id="_336240344" class="fil1" points="595.513,808.25 1731.39,1944.13 1729.27,1942.76 1727.2,1941.35 1725.18,1939.91 1723.22,1938.45 1721.32,1936.96 1719.47,1935.44 1717.69,1933.89 1715.96,1932.31 1714.3,1930.71 578.418,794.827 580.084,796.43 581.809,798.005 583.594,799.555 585.437,801.075 587.34,802.568 589.3,804.033 591.316,805.468 593.387,806.874 "/>
     <polygon id="_336240416" class="fil1" points="744.481,932.437 1880.36,2068.32 1878.97,2069.11 1877.58,2069.88 1876.2,2070.64 1874.81,2071.38 1873.42,2072.11 1872.04,2072.83 1870.65,2073.52 1869.27,2074.21 1867.89,2074.87 1866.51,2075.53 1865.14,2076.16 1863.77,2076.78 1862.39,2077.39 1861.03,2077.98 1859.66,2078.55 1858.3,2079.11 1856.94,2079.65 1855.58,2080.18 1854.23,2080.69 1852.88,2081.19 1851.54,2081.66 1850.2,2082.13 1848.86,2082.57 1847.53,2083 1846.2,2083.42 1844.88,2083.81 1843.56,2084.19 1842.25,2084.56 1840.94,2084.91 1839.64,2085.24 1838.35,2085.55 1837.06,2085.85 701.175,949.971 702.465,949.672 703.76,949.358 705.062,949.026 706.369,948.678 707.682,948.313 708.999,947.932 710.321,947.534 711.649,947.121 712.98,946.691 714.316,946.244 715.656,945.781 717.002,945.303 718.349,944.808 719.702,944.298 721.058,943.771 722.417,943.229 723.779,942.67 725.145,942.096 726.513,941.507 727.884,940.901 729.258,940.28 730.633,939.644 732.011,938.992 733.391,938.325 734.773,937.641 736.157,936.943 737.541,936.231 738.928,935.502 740.314,934.758 741.703,934 743.092,933.226 "/>
     <polygon id="_336208568" class="fil1" points="701.175,949.971 1837.06,2085.85 1834.58,2086.38 1832.13,2086.85 1829.69,2087.26 1827.27,2087.61 1824.87,2087.9 1822.49,2088.13 1820.14,2088.3 1817.81,2088.4 1815.5,2088.44 1813.21,2088.43 1810.96,2088.34 1808.73,2088.2 1806.52,2087.99 1804.34,2087.72 1802.2,2087.39 1800.08,2086.99 1797.99,2086.53 1795.94,2086 1793.92,2085.41 1791.93,2084.75 1789.98,2084.03 1788.06,2083.24 1786.18,2082.39 1784.33,2081.47 1782.52,2080.49 1780.75,2079.43 1779.02,2078.31 1777.34,2077.12 1775.69,2075.87 1774.08,2074.54 1772.52,2073.15 636.642,937.269 638.203,938.661 639.807,939.985 641.455,941.24 643.143,942.428 644.872,943.549 646.641,944.603 648.448,945.589 650.294,946.509 652.176,947.362 654.095,948.15 656.049,948.871 658.036,949.528 660.058,950.12 662.114,950.646 664.199,951.108 666.316,951.506 668.463,951.84 670.639,952.111 672.844,952.318 675.075,952.462 677.333,952.543 679.616,952.562 681.925,952.518 684.257,952.413 686.612,952.247 688.99,952.019 691.388,951.729 693.806,951.38 696.244,950.97 698.701,950.5 "/>
     <polygon id="_336208088" class="fil1" points="819.429,1012.15 1955.31,2148.04 1953.2,2148 1951.12,2147.88 1949.04,2147.68 1946.99,2147.4 1944.96,2147.04 1942.94,2146.61 1940.95,2146.11 1938.97,2145.53 1937.01,2144.87 1935.08,2144.14 1933.16,2143.34 1931.27,2142.47 1929.4,2141.53 1927.55,2140.51 1925.73,2139.43 1923.92,2138.28 1922.14,2137.07 1920.39,2135.78 1918.66,2134.43 1916.95,2133.02 1915.27,2131.54 1913.62,2130 777.735,994.118 779.39,995.659 781.071,997.137 782.777,998.551 784.508,999.9 786.263,1001.18 788.042,1002.4 789.845,1003.55 791.671,1004.63 793.52,1005.64 795.39,1006.59 797.283,1007.46 799.197,1008.26 801.132,1008.99 803.088,1009.64 805.065,1010.23 807.06,1010.73 809.076,1011.16 811.11,1011.52 813.164,1011.79 815.234,1011.99 817.323,1012.11 "/>
     <polygon id="_336208184" class="fil1" points="876.174,975.42 2012.06,2111.3 2010.68,2113.43 2009.27,2115.5 2007.84,2117.52 2006.37,2119.48 2004.88,2121.38 2003.36,2123.22 2001.81,2125.01 2000.24,2126.73 1998.63,2128.4 1997,2130 1995.35,2131.54 1993.67,2133.02 1991.96,2134.43 1990.23,2135.78 1988.47,2137.07 1986.7,2138.28 1984.89,2139.43 1983.07,2140.51 1981.22,2141.53 1979.35,2142.47 1977.46,2143.34 1975.54,2144.14 1973.61,2144.87 1971.65,2145.53 1969.68,2146.11 1967.68,2146.61 1965.66,2147.04 1963.63,2147.4 1961.58,2147.68 1959.51,2147.88 1957.42,2148 1955.31,2148.04 819.429,1012.15 821.535,1012.11 823.625,1011.99 825.695,1011.79 827.748,1011.52 829.782,1011.16 831.798,1010.73 833.794,1010.23 835.77,1009.64 837.726,1008.99 839.66,1008.26 841.575,1007.46 843.467,1006.59 845.338,1005.64 847.186,1004.63 849.012,1003.55 850.815,1002.4 852.594,1001.18 854.349,999.9 856.08,998.551 857.786,997.137 859.466,995.659 861.122,994.118 862.751,992.515 864.354,990.85 865.929,989.124 867.479,987.34 868.999,985.496 870.492,983.593 871.957,981.634 873.392,979.618 874.798,977.546 "/>
     <polygon id="_336208160" class="fil1" points="1357.52,846.944 2493.4,1982.83 2495.04,1984.72 2496.65,1986.67 2498.23,1988.68 2499.78,1990.75 2501.3,1992.88 2502.78,1995.07 2504.24,1997.32 1368.36,861.439 1366.9,859.19 1365.41,856.999 1363.9,854.867 1362.35,852.794 1360.77,850.783 1359.16,848.833 "/>
     <polygon id="_336208592" class="fil1" points="1368.36,861.439 2504.24,1997.32 2504.98,1998.51 2505.71,1999.71 2506.43,2000.93 2507.15,2002.17 2507.86,2003.42 2508.56,2004.69 2509.25,2005.97 2509.93,2007.27 2510.6,2008.59 2511.27,2009.92 2511.92,2011.27 2512.57,2012.63 2513.21,2014 2513.84,2015.4 2514.46,2016.8 2515.07,2018.22 2515.67,2019.66 2516.26,2021.11 2516.84,2022.57 2517.41,2024.05 2517.97,2025.54 2518.53,2027.04 2519.07,2028.56 2519.6,2030.09 2520.12,2031.63 2520.63,2033.19 2521.14,2034.76 2521.63,2036.34 2522.11,2037.93 2522.58,2039.53 2523.04,2041.15 2523.49,2042.78 1387.61,906.896 1387.16,905.267 1386.7,903.651 1386.23,902.046 1385.75,900.453 1385.25,898.873 1384.75,897.304 1384.24,895.749 1383.72,894.206 1383.19,892.675 1382.64,891.159 1382.09,889.655 1381.53,888.165 1380.96,886.688 1380.38,885.225 1379.78,883.776 1379.18,882.341 1378.57,880.92 1377.96,879.513 1377.33,878.122 1376.69,876.745 1376.04,875.383 1375.39,874.036 1374.72,872.705 1374.05,871.388 1373.37,870.088 1372.68,868.804 1371.98,867.536 1371.27,866.284 1370.55,865.047 1369.83,863.828 1369.1,862.625 "/>
     <polygon id="_336208808" class="fil1" points="1506.28,906.587 2642.16,2042.47 2643.56,2044.17 2644.89,2045.91 2646.14,2047.69 2647.33,2049.52 2648.44,2051.39 2649.49,2053.3 2650.46,2055.26 2651.36,2057.25 2652.19,2059.28 2652.96,2061.34 2653.65,2063.45 2654.28,2065.58 2654.83,2067.76 2655.32,2069.96 2655.74,2072.2 2656.1,2074.47 2656.38,2076.77 2656.6,2079.1 2656.75,2081.46 2656.84,2083.85 2656.86,2086.27 2656.81,2088.71 2656.7,2091.18 2656.53,2093.67 2656.28,2096.18 2655.98,2098.72 2655.61,2101.27 2655.18,2103.85 2654.68,2106.45 2654.12,2109.07 1518.24,973.184 1518.8,970.568 1519.29,967.97 1519.73,965.391 1520.1,962.833 1520.4,960.297 1520.64,957.784 1520.82,955.293 1520.93,952.827 1520.98,950.385 1520.96,947.97 1520.87,945.582 1520.72,943.222 1520.5,940.89 1520.21,938.589 1519.86,936.318 1519.44,934.079 1518.95,931.874 1518.4,929.701 1517.77,927.563 1517.08,925.459 1516.31,923.394 1515.48,921.364 1514.58,919.373 1513.6,917.422 1512.56,915.51 1511.45,913.64 1510.26,911.812 1509,910.026 1507.68,908.284 "/>
     <polygon id="_336208232" class="fil1" points="1518.24,973.184 2654.12,2109.07 2653.8,2110.43 2653.47,2111.8 2653.12,2113.18 2652.75,2114.56 2652.37,2115.95 2651.96,2117.34 2651.54,2118.74 2651.1,2120.14 2650.65,2121.55 2650.18,2122.96 2649.69,2124.38 2649.18,2125.8 2648.66,2127.23 2648.12,2128.66 2647.56,2130.09 2646.99,2131.53 2646.4,2132.97 2645.79,2134.42 2645.17,2135.86 2644.53,2137.31 2643.87,2138.77 2643.2,2140.22 2642.51,2141.68 2641.8,2143.14 2641.08,2144.6 2640.34,2146.06 2639.59,2147.53 2638.82,2148.99 2638.03,2150.46 2637.23,2151.93 2636.41,2153.4 2635.58,2154.87 1499.7,1018.98 1500.53,1017.51 1501.35,1016.05 1502.15,1014.58 1502.94,1013.11 1503.71,1011.64 1504.46,1010.18 1505.2,1008.72 1505.92,1007.26 1506.63,1005.8 1507.32,1004.34 1507.99,1002.88 1508.65,1001.43 1509.29,999.981 1509.91,998.534 1510.52,997.09 1511.11,995.649 1511.68,994.211 1512.24,992.778 1512.78,991.347 1513.3,989.922 1513.81,988.5 1514.3,987.082 1514.77,985.668 1515.22,984.261 1515.66,982.857 1516.08,981.459 1516.48,980.065 1516.87,978.678 1517.24,977.296 1517.59,975.918 1517.92,974.548 "/>
     <polygon id="_336208688" class="fil1" points="1566.56,1055.9 2702.44,2191.79 2704,2193.56 2705.5,2195.37 2706.92,2197.2 2708.28,2199.05 2709.57,2200.94 2710.78,2202.84 2711.93,2204.77 2713,2206.73 2713.99,2208.71 2714.92,2210.71 2715.76,2212.73 2716.53,2214.78 2717.23,2216.85 2717.84,2218.94 2718.38,2221.05 2718.83,2223.18 2719.21,2225.33 2719.5,2227.5 2719.71,2229.69 2719.84,2231.9 2719.88,2234.13 1584,1098.25 1583.96,1096.02 1583.83,1093.81 1583.62,1091.62 1583.33,1089.45 1582.95,1087.3 1582.5,1085.17 1581.96,1083.06 1581.35,1080.97 1580.65,1078.9 1579.88,1076.85 1579.04,1074.83 1578.11,1072.82 1577.12,1070.85 1576.05,1068.89 1574.9,1066.96 1573.69,1065.05 1572.4,1063.17 1571.04,1061.32 1569.61,1059.49 1568.12,1057.68 "/>
     <polygon id="_336208424" class="fil1" points="1584,1098.25 2719.88,2234.13 2719.84,2236.36 2719.71,2238.57 2719.5,2240.76 2719.21,2242.93 2718.83,2245.08 2718.38,2247.21 2717.84,2249.32 2717.23,2251.41 2716.53,2253.48 2715.76,2255.53 2714.92,2257.55 2713.99,2259.55 2713,2261.53 2711.93,2263.49 2710.78,2265.42 2709.57,2267.32 2708.28,2269.2 2706.92,2271.06 2705.5,2272.89 2704,2274.7 2702.44,2276.47 2700.81,2278.22 2699.11,2279.95 2697.35,2281.64 2695.53,2283.31 2693.64,2284.95 2691.69,2286.55 2689.68,2288.13 2687.6,2289.68 2685.47,2291.2 2683.28,2292.69 2681.03,2294.14 1545.15,1158.26 1547.4,1156.81 1549.59,1155.32 1551.72,1153.8 1553.8,1152.25 1555.81,1150.67 1557.76,1149.06 1559.65,1147.43 1561.47,1145.76 1563.23,1144.06 1564.93,1142.34 1566.56,1140.59 1568.12,1138.81 1569.61,1137.01 1571.04,1135.18 1572.4,1133.32 1573.69,1131.44 1574.9,1129.53 1576.05,1127.6 1577.12,1125.65 1578.11,1123.67 1579.04,1121.67 1579.88,1119.64 1580.65,1117.6 1581.35,1115.53 1581.96,1113.44 1582.5,1111.33 1582.95,1109.2 1583.33,1107.04 1583.62,1104.87 1583.83,1102.68 1583.96,1100.47 "/>
     <polygon id="_336208496" class="fil1" points="1545.15,1158.26 2681.03,2294.14 2679.85,2294.88 2678.64,2295.62 2677.42,2296.34 2676.19,2297.06 2674.94,2297.76 2673.67,2298.46 2672.38,2299.15 2671.08,2299.83 2669.77,2300.51 2668.43,2301.17 2667.09,2301.83 2665.73,2302.48 2664.35,2303.11 2662.96,2303.74 2661.55,2304.36 2660.13,2304.97 2658.7,2305.57 2657.25,2306.16 2655.78,2306.74 2654.31,2307.32 2652.82,2307.88 2651.31,2308.43 2649.8,2308.97 2648.27,2309.5 2646.72,2310.03 2645.17,2310.54 2643.6,2311.04 2642.02,2311.53 2640.42,2312.01 2638.82,2312.48 2637.2,2312.94 2635.58,2313.39 1499.69,1177.51 1501.32,1177.06 1502.94,1176.6 1504.54,1176.13 1506.14,1175.65 1507.72,1175.16 1509.29,1174.66 1510.84,1174.15 1512.38,1173.62 1513.91,1173.09 1515.43,1172.55 1516.93,1172 1518.43,1171.43 1519.9,1170.86 1521.36,1170.28 1522.81,1169.69 1524.25,1169.09 1525.67,1168.48 1527.08,1167.86 1528.47,1167.23 1529.84,1166.59 1531.21,1165.95 1532.55,1165.29 1533.88,1164.63 1535.2,1163.95 1536.5,1163.27 1537.79,1162.58 1539.05,1161.88 1540.31,1161.17 1541.54,1160.46 1542.76,1159.73 1543.97,1159 "/>
     <polygon id="_336208856" class="fil1" points="1499.69,1177.51 2635.58,2313.39 2636.41,2314.86 2637.23,2316.33 2638.03,2317.8 2638.82,2319.27 2639.59,2320.73 2640.34,2322.2 2641.08,2323.66 2641.8,2325.12 2642.51,2326.58 2643.2,2328.04 2643.87,2329.49 2644.53,2330.95 2645.17,2332.4 2645.79,2333.84 2646.4,2335.29 2646.99,2336.73 2647.56,2338.17 2648.12,2339.6 2648.66,2341.03 2649.18,2342.45 2649.69,2343.88 2650.18,2345.29 2650.65,2346.71 2651.1,2348.12 2651.54,2349.52 2651.96,2350.92 2652.36,2352.31 2652.75,2353.7 2653.12,2355.08 2653.47,2356.46 2653.8,2357.83 2654.12,2359.19 1518.24,1223.31 1517.92,1221.95 1517.59,1220.58 1517.24,1219.2 1516.87,1217.82 1516.48,1216.43 1516.08,1215.04 1515.66,1213.64 1515.22,1212.23 1514.77,1210.82 1514.3,1209.41 1513.81,1207.99 1513.3,1206.57 1512.78,1205.15 1512.24,1203.72 1511.68,1202.28 1511.11,1200.85 1510.52,1199.4 1509.91,1197.96 1509.29,1196.51 1508.65,1195.06 1507.99,1193.61 1507.32,1192.16 1506.63,1190.7 1505.92,1189.24 1505.2,1187.78 1504.46,1186.32 1503.71,1184.85 1502.94,1183.38 1502.15,1181.92 1501.35,1180.45 1500.53,1178.98 "/>
     <polygon id="_336209120" class="fil1" points="1518.24,1223.31 2654.12,2359.19 2654.68,2361.81 2655.18,2364.41 2655.61,2366.99 2655.98,2369.54 2656.28,2372.08 2656.53,2374.59 2656.7,2377.08 2656.81,2379.55 2656.86,2381.99 2656.84,2384.41 2656.75,2386.79 2656.6,2389.15 2656.38,2391.49 2656.1,2393.79 2655.74,2396.06 2655.32,2398.3 2654.83,2400.5 2654.28,2402.68 2653.65,2404.81 2652.96,2406.92 2652.19,2408.98 2651.36,2411.01 2650.46,2413 2649.49,2414.95 2648.44,2416.87 2647.33,2418.74 2646.14,2420.56 2644.89,2422.35 2643.56,2424.09 2642.16,2425.79 2640.69,2427.44 2639.14,2429.05 1503.26,1293.16 1504.8,1291.56 1506.28,1289.91 1507.68,1288.21 1509,1286.47 1510.26,1284.68 1511.45,1282.85 1512.56,1280.98 1513.6,1279.07 1514.58,1277.12 1515.48,1275.13 1516.31,1273.1 1517.08,1271.03 1517.77,1268.93 1518.39,1266.79 1518.95,1264.62 1519.44,1262.41 1519.86,1260.18 1520.21,1257.9 1520.5,1255.6 1520.72,1253.27 1520.87,1250.91 1520.96,1248.52 1520.98,1246.11 1520.93,1243.67 1520.82,1241.2 1520.64,1238.71 1520.4,1236.2 1520.1,1233.66 1519.73,1231.1 1519.29,1228.52 1518.8,1225.93 "/>
     <polygon id="_336209264" class="fil1" points="1503.26,1293.16 2639.14,2429.05 2637.54,2430.59 2635.88,2432.06 2634.19,2433.46 2632.45,2434.79 2630.66,2436.05 2628.83,2437.23 2626.96,2438.35 2625.05,2439.39 2623.1,2440.36 2621.11,2441.26 2619.08,2442.1 2617.01,2442.86 2614.91,2443.56 2612.77,2444.18 2610.6,2444.74 2608.39,2445.23 2606.15,2445.65 2603.88,2446 2601.58,2446.29 2599.25,2446.51 2596.89,2446.66 2594.5,2446.74 2592.09,2446.76 2589.64,2446.72 2587.18,2446.61 2584.69,2446.43 2582.17,2446.19 2579.64,2445.88 2577.08,2445.51 2574.5,2445.08 2571.9,2444.58 2569.29,2444.02 1433.41,1308.14 1436.02,1308.7 1438.62,1309.2 1441.2,1309.63 1443.76,1310 1446.29,1310.31 1448.81,1310.55 1451.3,1310.72 1453.76,1310.84 1456.2,1310.88 1458.62,1310.86 1461.01,1310.78 1463.37,1310.62 1465.7,1310.4 1468,1310.12 1470.27,1309.77 1472.51,1309.35 1474.72,1308.86 1476.89,1308.3 1479.03,1307.67 1481.13,1306.98 1483.2,1306.22 1485.23,1305.38 1487.22,1304.48 1489.17,1303.51 1491.08,1302.46 1492.95,1301.35 1494.78,1300.17 1496.56,1298.91 1498.31,1297.58 1500,1296.18 1501.65,1294.71 "/>
     <polygon id="_336208952" class="fil1" points="1433.41,1308.14 2569.29,2444.02 2567.92,2443.71 2566.55,2443.38 2565.18,2443.02 2563.79,2442.66 2562.41,2442.27 2561.01,2441.87 2559.61,2441.45 2558.21,2441.01 2556.8,2440.55 2555.39,2440.08 2553.97,2439.59 2552.55,2439.09 2551.12,2438.56 2549.69,2438.02 2548.26,2437.47 2546.82,2436.89 2545.38,2436.3 2543.94,2435.7 2542.49,2435.07 2541.04,2434.43 2539.59,2433.78 2538.13,2433.1 2536.68,2432.41 2535.22,2431.71 2533.75,2430.98 2532.29,2430.25 2530.83,2429.49 2529.36,2428.72 2527.89,2427.94 2526.43,2427.13 2524.96,2426.31 2523.49,2425.48 1387.61,1289.6 1389.08,1290.43 1390.54,1291.25 1392.01,1292.05 1393.48,1292.84 1394.95,1293.61 1396.41,1294.36 1397.87,1295.1 1399.34,1295.83 1400.79,1296.53 1402.25,1297.22 1403.71,1297.89 1405.16,1298.55 1406.61,1299.19 1408.06,1299.81 1409.5,1300.42 1410.94,1301.01 1412.38,1301.58 1413.81,1302.14 1415.24,1302.68 1416.67,1303.2 1418.09,1303.71 1419.51,1304.2 1420.92,1304.67 1422.33,1305.13 1423.73,1305.56 1425.13,1305.98 1426.52,1306.39 1427.91,1306.77 1429.29,1307.14 1430.67,1307.49 1432.04,1307.83 "/>
     <polygon id="_336209192" class="fil1" points="1387.61,1289.6 2523.49,2425.48 2523.04,2427.11 2522.58,2428.73 2522.11,2430.33 2521.63,2431.92 2521.14,2433.5 2520.63,2435.07 2520.12,2436.63 2519.6,2438.17 2519.07,2439.7 2518.53,2441.22 2517.97,2442.72 2517.41,2444.21 2516.84,2445.69 2516.26,2447.15 2515.67,2448.6 2515.07,2450.04 2514.46,2451.46 2513.84,2452.86 2513.21,2454.25 2512.57,2455.63 2511.92,2456.99 2511.27,2458.34 2510.6,2459.67 2509.93,2460.99 2509.25,2462.29 2508.56,2463.57 2507.86,2464.84 2507.15,2466.09 2506.43,2467.33 2505.71,2468.55 2504.98,2469.75 2504.24,2470.94 1368.36,1335.06 1369.1,1333.87 1369.83,1332.67 1370.55,1331.45 1371.27,1330.21 1371.98,1328.96 1372.68,1327.69 1373.37,1326.4 1374.05,1325.1 1374.72,1323.79 1375.39,1322.46 1376.04,1321.11 1376.69,1319.75 1377.33,1318.37 1377.96,1316.98 1378.57,1315.57 1379.18,1314.15 1379.78,1312.72 1380.38,1311.27 1380.96,1309.81 1381.53,1308.33 1382.09,1306.84 1382.64,1305.34 1383.19,1303.82 1383.72,1302.29 1384.24,1300.75 1384.75,1299.19 1385.25,1297.62 1385.75,1296.04 1386.23,1294.45 1386.7,1292.84 1387.16,1291.23 "/>
     <polygon id="_336209048" class="fil1" points="1116.99,1177.51 2252.87,2313.39 2251.24,2312.94 2249.63,2312.48 2248.02,2312.01 2246.43,2311.53 2244.85,2311.04 2243.28,2310.54 2241.73,2310.03 2240.18,2309.5 2238.65,2308.97 2237.14,2308.43 2235.63,2307.88 2234.14,2307.32 2232.67,2306.74 2231.2,2306.16 2229.75,2305.57 2228.32,2304.97 2226.9,2304.36 2225.49,2303.74 2224.1,2303.11 2222.72,2302.48 2221.36,2301.83 2220.01,2301.17 2218.68,2300.51 2217.37,2299.83 2216.07,2299.15 2214.78,2298.46 2213.51,2297.76 2212.26,2297.06 2211.02,2296.34 2209.81,2295.62 2208.6,2294.88 2207.42,2294.14 1071.53,1158.26 1072.72,1159 1073.92,1159.73 1075.14,1160.46 1076.38,1161.17 1077.63,1161.88 1078.9,1162.58 1080.18,1163.27 1081.48,1163.95 1082.8,1164.63 1084.13,1165.29 1085.48,1165.95 1086.84,1166.59 1088.22,1167.23 1089.61,1167.86 1091.02,1168.48 1092.44,1169.09 1093.87,1169.69 1095.32,1170.28 1096.78,1170.86 1098.26,1171.43 1099.75,1172 1101.25,1172.55 1102.77,1173.09 1104.3,1173.62 1105.84,1174.15 1107.4,1174.66 1108.97,1175.16 1110.55,1175.65 1112.14,1176.13 1113.75,1176.6 1115.36,1177.06 "/>
     <polygon id="_336209408" class="fil1" points="1071.53,1158.26 2207.42,2294.14 2205.17,2292.69 2202.98,2291.2 2200.84,2289.68 2198.77,2288.13 2196.76,2286.55 2194.81,2284.95 2192.92,2283.31 2191.1,2281.64 2189.34,2279.95 1053.45,1144.06 1055.22,1145.76 1057.04,1147.43 1058.93,1149.06 1060.88,1150.67 1062.89,1152.25 1064.96,1153.8 1067.09,1155.32 1069.29,1156.81 "/>
     <polygon id="_336209432" class="fil1" points="1229.08,1289.6 2364.96,2425.48 2363.49,2426.31 2362.02,2427.13 2360.55,2427.93 2359.09,2428.72 2357.62,2429.49 2356.16,2430.25 2354.69,2430.98 2353.23,2431.71 2351.77,2432.41 2350.32,2433.1 2348.86,2433.78 2347.41,2434.43 2345.96,2435.07 2344.51,2435.7 2343.07,2436.3 2341.63,2436.89 2340.19,2437.47 2338.75,2438.02 2337.32,2438.56 2335.9,2439.09 2334.48,2439.59 2333.06,2440.08 2331.65,2440.55 2330.24,2441.01 2328.83,2441.45 2327.44,2441.87 2326.04,2442.27 2324.65,2442.66 2323.27,2443.02 2321.9,2443.38 2320.53,2443.71 2319.16,2444.02 1183.28,1308.14 1184.64,1307.83 1186.01,1307.49 1187.39,1307.14 1188.77,1306.77 1190.16,1306.39 1191.55,1305.98 1192.95,1305.56 1194.36,1305.13 1195.76,1304.67 1197.18,1304.2 1198.6,1303.71 1200.02,1303.2 1201.44,1302.68 1202.87,1302.14 1204.31,1301.58 1205.74,1301.01 1207.19,1300.42 1208.63,1299.81 1210.08,1299.19 1211.53,1298.55 1212.98,1297.89 1214.43,1297.22 1215.89,1296.53 1217.35,1295.82 1218.81,1295.1 1220.28,1294.36 1221.74,1293.61 1223.21,1292.84 1224.67,1292.05 1226.14,1291.25 1227.61,1290.43 "/>
     <polygon id="_336209480" class="fil1" points="1183.28,1308.14 2319.16,2444.02 2316.55,2444.58 2313.95,2445.08 2311.37,2445.51 2308.81,2445.88 2306.27,2446.19 2303.76,2446.43 2301.27,2446.61 2298.8,2446.72 2296.36,2446.76 2293.95,2446.74 2291.56,2446.66 2289.2,2446.51 2286.87,2446.29 2284.57,2446 2282.3,2445.65 2280.06,2445.23 2277.85,2444.74 2275.68,2444.18 2273.54,2443.56 2271.44,2442.86 2269.37,2442.1 2267.34,2441.26 2265.35,2440.36 2263.4,2439.39 2261.49,2438.35 2259.62,2437.23 2257.79,2436.05 2256,2434.79 2254.26,2433.46 2252.56,2432.06 2250.91,2430.59 2249.31,2429.05 1113.43,1293.16 1115.03,1294.71 1116.68,1296.18 1118.38,1297.58 1120.12,1298.91 1121.91,1300.17 1123.74,1301.35 1125.61,1302.46 1127.52,1303.51 1129.47,1304.48 1131.46,1305.38 1133.49,1306.22 1135.56,1306.98 1137.66,1307.67 1139.8,1308.3 1141.97,1308.86 1144.18,1309.35 1146.41,1309.77 1148.68,1310.12 1150.99,1310.4 1153.32,1310.62 1155.68,1310.78 1158.07,1310.86 1160.48,1310.88 1162.92,1310.84 1165.39,1310.72 1167.88,1310.55 1170.39,1310.31 1172.93,1310 1175.49,1309.63 1178.07,1309.2 1180.66,1308.7 "/>
     <polygon id="_336209552" class="fil1" points="1308.34,1373.9 2444.22,2509.79 2442,2509.74 2439.79,2509.62 2437.6,2509.41 2435.43,2509.11 2433.27,2508.74 2431.14,2508.28 2429.03,2507.75 2426.94,2507.13 2424.87,2506.44 2422.83,2505.67 2420.8,2504.82 2418.8,2503.9 2416.82,2502.9 2414.87,2501.83 2412.94,2500.69 2411.03,2499.47 2409.15,2498.18 2407.29,2496.83 2405.46,2495.4 2403.66,2493.91 2401.88,2492.34 2400.13,2490.71 1264.25,1354.83 1266,1356.46 1267.78,1358.02 1269.58,1359.52 1271.41,1360.95 1273.27,1362.3 1275.15,1363.59 1277.06,1364.8 1278.99,1365.95 1280.94,1367.02 1282.92,1368.02 1284.92,1368.94 1286.95,1369.79 1288.99,1370.56 1291.06,1371.25 1293.15,1371.87 1295.26,1372.4 1297.39,1372.86 1299.54,1373.23 1301.72,1373.52 1303.91,1373.74 1306.11,1373.86 "/>
     <polygon id="_336209768" class="fil1" points="1368.36,1335.06 2504.24,2470.94 2502.78,2473.19 2501.3,2475.38 2499.78,2477.51 2498.23,2479.58 2496.65,2481.59 2495.04,2483.54 2493.4,2485.43 2491.74,2487.26 2490.04,2489.02 2488.32,2490.71 2486.57,2492.34 2484.79,2493.91 2482.99,2495.4 2481.16,2496.83 2479.3,2498.18 2477.42,2499.47 2475.51,2500.69 2473.58,2501.83 2471.63,2502.9 2469.65,2503.9 2467.64,2504.82 2465.62,2505.67 2463.57,2506.44 2461.51,2507.13 2459.42,2507.75 2457.3,2508.28 2455.17,2508.74 2453.02,2509.11 2450.85,2509.41 2448.66,2509.62 2446.45,2509.74 2444.22,2509.79 1308.34,1373.9 1310.57,1373.86 1312.78,1373.74 1314.97,1373.52 1317.14,1373.23 1319.29,1372.86 1321.42,1372.4 1323.53,1371.87 1325.62,1371.25 1327.69,1370.56 1329.74,1369.79 1331.76,1368.94 1333.77,1368.02 1335.74,1367.02 1337.7,1365.95 1339.63,1364.8 1341.54,1363.59 1343.42,1362.3 1345.27,1360.95 1347.1,1359.52 1348.91,1358.02 1350.69,1356.46 1352.44,1354.83 1354.16,1353.13 1355.86,1351.37 1357.52,1349.55 1359.16,1347.66 1360.77,1345.71 1362.35,1343.7 1363.9,1341.63 1365.41,1339.5 1366.9,1337.3 "/>
     <polygon id="_336210296" class="fil1" points="738.856,1099.63 1874.74,2235.52 1876.22,2236.97 1877.68,2238.49 1879.11,2240.05 1880.52,2241.68 1881.9,2243.35 1883.25,2245.08 1884.59,2246.86 1885.89,2248.7 1887.17,2250.58 1888.42,2252.51 752.54,1116.63 751.289,1114.7 750.01,1112.82 748.705,1110.98 747.374,1109.2 746.017,1107.47 744.635,1105.79 743.227,1104.17 741.794,1102.6 740.337,1101.09 "/>
     <polygon id="_336209984" class="fil1" points="752.54,1116.63 1888.42,2252.51 1889.06,2253.53 1889.69,2254.57 1890.31,2255.62 1890.93,2256.68 1891.53,2257.75 1892.13,2258.84 1892.73,2259.95 1893.31,2261.07 1893.89,2262.2 1894.46,2263.34 1895.03,2264.5 1895.58,2265.67 1896.13,2266.85 1896.67,2268.05 1897.21,2269.26 1897.73,2270.48 1898.25,2271.71 1898.75,2272.96 1899.25,2274.22 1899.75,2275.49 1900.23,2276.77 1900.7,2278.06 1901.17,2279.37 1901.63,2280.68 1902.08,2282.01 1902.52,2283.34 1902.95,2284.69 1903.37,2286.05 1903.78,2287.42 1904.19,2288.8 1904.58,2290.19 1904.97,2291.59 769.087,1155.71 768.701,1154.31 768.306,1152.92 767.901,1151.54 767.488,1150.17 767.066,1148.81 766.635,1147.46 766.195,1146.12 765.746,1144.8 765.288,1143.48 764.822,1142.18 764.347,1140.89 763.864,1139.61 763.373,1138.34 762.872,1137.08 762.364,1135.83 761.848,1134.6 761.324,1133.38 760.791,1132.17 760.251,1130.97 759.703,1129.79 759.147,1128.62 758.584,1127.46 758.012,1126.32 757.433,1125.19 756.847,1124.07 756.253,1122.96 755.652,1121.87 755.044,1120.8 754.429,1119.73 753.806,1118.69 753.177,1117.65 "/>
     <polygon id="_336209864" class="fil1" points="867.122,1151.31 2003,2287.2 2004.38,2288.52 868.502,1152.64 "/>
     <polygon id="_336210032" class="fil1" points="868.502,1152.64 2004.38,2288.52 2005.71,2289.9 2006.98,2291.32 2008.18,2292.78 2009.32,2294.28 2010.4,2295.81 2011.42,2297.39 2012.38,2298.99 2013.27,2300.64 2014.11,2302.31 2014.89,2304.03 2015.6,2305.77 2016.26,2307.55 2016.86,2309.35 2017.39,2311.19 2017.87,2313.06 2018.29,2314.96 2018.65,2316.88 2018.96,2318.83 2019.2,2320.81 2019.39,2322.81 2019.52,2324.84 2019.6,2326.9 2019.61,2328.97 2019.57,2331.07 2019.48,2333.19 2019.33,2335.33 2019.12,2337.49 2018.86,2339.67 2018.54,2341.87 2018.17,2344.09 2017.74,2346.32 2017.26,2348.57 881.377,1212.69 881.859,1210.44 882.287,1208.2 882.659,1205.99 882.976,1203.79 883.238,1201.61 883.446,1199.45 883.598,1197.31 883.693,1195.19 883.732,1193.09 883.716,1191.01 883.641,1188.96 883.511,1186.93 883.322,1184.93 883.077,1182.95 882.773,1181 882.412,1179.07 881.991,1177.18 881.513,1175.31 880.975,1173.47 880.378,1171.66 879.722,1169.89 879.005,1168.14 878.229,1166.43 877.393,1164.75 876.497,1163.11 875.539,1161.5 874.521,1159.93 873.44,1158.4 872.299,1156.9 871.096,1155.44 869.829,1154.02 "/>
     <polygon id="_336210056" class="fil1" points="881.377,1212.69 2017.26,2348.57 2016.99,2349.74 2016.7,2350.92 2016.4,2352.1 2016.08,2353.29 2015.75,2354.48 2015.41,2355.68 2015.04,2356.88 2014.67,2358.09 2014.28,2359.3 2013.87,2360.52 2013.45,2361.73 2013.01,2362.96 2012.57,2364.18 2012.1,2365.41 2011.62,2366.64 2011.13,2367.88 2010.62,2369.12 2010.1,2370.36 2009.56,2371.6 2009.01,2372.85 2008.45,2374.1 2007.87,2375.35 2007.28,2376.6 2006.67,2377.86 2006.05,2379.11 2005.42,2380.37 2004.77,2381.63 2004.11,2382.89 2003.43,2384.15 2002.74,2385.41 2002.04,2386.67 2001.32,2387.94 865.438,1252.06 866.155,1250.79 866.859,1249.53 867.549,1248.27 868.224,1247.01 868.887,1245.75 869.535,1244.49 870.17,1243.23 870.791,1241.97 871.397,1240.72 871.99,1239.47 872.568,1238.22 873.133,1236.97 873.683,1235.72 874.22,1234.48 874.74,1233.24 875.248,1232 875.741,1230.76 876.22,1229.53 876.685,1228.3 877.133,1227.07 877.569,1225.85 877.99,1224.63 878.395,1223.42 878.786,1222.21 879.162,1221 879.524,1219.8 879.87,1218.6 880.202,1217.41 880.518,1216.22 880.82,1215.04 881.105,1213.86 "/>
     <polygon id="_336210368" class="fil1" points="918.539,1279.35 2054.42,2415.23 2055.93,2416.69 2057.39,2418.17 2058.79,2419.67 2060.14,2421.2 2061.42,2422.75 2062.65,2424.33 2063.81,2425.92 2064.92,2427.54 2065.97,2429.18 2066.95,2430.84 2067.87,2432.52 2068.73,2434.22 2069.52,2435.94 2070.25,2437.68 2070.91,2439.44 2071.51,2441.22 2072.03,2443.01 2072.49,2444.83 2072.89,2446.66 2073.21,2448.51 2073.46,2450.38 2073.64,2452.26 2073.75,2454.16 2073.79,2456.07 937.906,1320.19 937.869,1318.28 937.761,1316.38 937.58,1314.49 937.327,1312.63 937.006,1310.78 936.614,1308.95 936.153,1307.13 935.625,1305.34 935.029,1303.56 934.367,1301.8 933.639,1300.06 932.846,1298.34 931.989,1296.64 931.068,1294.96 930.085,1293.3 929.039,1291.66 927.934,1290.04 926.767,1288.44 925.541,1286.87 924.255,1285.32 922.912,1283.79 921.511,1282.29 920.053,1280.81 "/>
     <polygon id="_336209912" class="fil1" points="937.906,1320.19 2073.79,2456.07 2073.75,2457.99 2073.64,2459.89 2073.46,2461.77 2073.21,2463.63 2072.89,2465.48 2072.49,2467.32 2072.03,2469.13 2071.51,2470.93 2070.91,2472.71 2070.25,2474.47 2069.52,2476.21 2068.73,2477.93 2067.87,2479.63 2066.95,2481.31 2065.97,2482.97 2064.92,2484.61 2063.81,2486.22 2062.65,2487.82 2061.42,2489.39 2060.14,2490.94 2058.79,2492.47 2057.39,2493.98 2055.93,2495.46 2054.42,2496.91 2052.85,2498.35 2051.23,2499.76 2049.55,2501.14 2047.82,2502.49 2046.04,2503.83 2044.21,2505.13 2042.33,2506.41 2040.39,2507.66 904.513,1371.78 906.446,1370.53 908.329,1369.25 910.162,1367.94 911.943,1366.61 913.672,1365.25 915.348,1363.87 916.971,1362.47 918.539,1361.03 920.053,1359.58 921.511,1358.09 922.912,1356.59 924.255,1355.06 925.541,1353.51 926.767,1351.94 927.934,1350.34 929.039,1348.72 930.085,1347.08 931.068,1345.43 931.989,1343.74 932.846,1342.04 933.639,1340.32 934.367,1338.58 935.029,1336.82 935.625,1335.05 936.153,1333.25 936.614,1331.43 937.006,1329.6 937.327,1327.75 937.58,1325.89 937.761,1324 937.869,1322.1 "/>
     <polygon id="_336209672" class="fil1" points="904.513,1371.78 2040.39,2507.66 2039.37,2508.3 2038.34,2508.93 2037.29,2509.55 2036.23,2510.16 2035.15,2510.77 2034.06,2511.37 2032.96,2511.97 2031.84,2512.55 2030.71,2513.13 2029.56,2513.7 2028.41,2514.27 2027.24,2514.82 2026.05,2515.37 2024.86,2515.91 2023.65,2516.44 2022.43,2516.97 2021.19,2517.49 2019.95,2517.99 2018.69,2518.49 2017.42,2518.98 2016.14,2519.47 2014.85,2519.94 2013.54,2520.41 2012.23,2520.87 2010.9,2521.32 2009.56,2521.75 2008.21,2522.19 2006.86,2522.61 2005.49,2523.02 2004.11,2523.43 2002.72,2523.82 2001.32,2524.21 865.437,1388.33 866.836,1387.94 868.227,1387.54 869.606,1387.14 870.975,1386.73 872.333,1386.3 873.682,1385.87 875.019,1385.43 876.346,1384.98 877.66,1384.53 878.965,1384.06 880.257,1383.59 881.539,1383.1 882.807,1382.61 884.065,1382.11 885.311,1381.6 886.544,1381.09 887.766,1380.56 888.975,1380.03 890.172,1379.49 891.355,1378.94 892.525,1378.39 893.683,1377.82 894.827,1377.25 895.959,1376.67 897.077,1376.08 898.182,1375.49 899.272,1374.89 900.348,1374.28 901.411,1373.67 902.459,1373.04 903.493,1372.41 "/>
     <polygon id="_336209744" class="fil1" points="865.437,1388.33 2001.32,2524.21 2002.04,2525.47 2002.74,2526.73 2003.43,2528 2004.1,2529.26 2004.77,2530.52 2005.42,2531.78 2006.05,2533.03 2006.67,2534.29 2007.28,2535.54 2007.87,2536.8 2008.45,2538.05 2009.01,2539.3 2009.56,2540.54 2010.1,2541.79 2010.62,2543.03 2011.13,2544.27 2011.62,2545.5 2012.1,2546.73 2012.56,2547.96 2013.01,2549.19 2013.45,2550.41 2013.87,2551.63 2014.28,2552.84 2014.67,2554.06 2015.04,2555.26 2015.41,2556.46 2015.75,2557.66 2016.08,2558.85 2016.4,2560.04 2016.7,2561.23 2016.99,2562.4 2017.26,2563.58 881.377,1427.69 881.105,1426.52 880.82,1425.34 880.518,1424.16 880.202,1422.97 879.87,1421.78 879.524,1420.58 879.162,1419.38 878.786,1418.17 878.395,1416.96 877.988,1415.75 877.568,1414.53 877.133,1413.31 876.683,1412.08 876.219,1410.85 875.741,1409.62 875.247,1408.38 874.74,1407.15 874.218,1405.9 873.682,1404.66 873.132,1403.41 872.567,1402.17 871.988,1400.91 871.396,1399.66 870.79,1398.41 870.168,1397.15 869.534,1395.89 868.886,1394.63 868.223,1393.37 867.548,1392.11 866.858,1390.85 866.154,1389.59 "/>
     <polygon id="_336210800" class="fil1" points="881.377,1427.69 2017.26,2563.58 2017.74,2565.83 2018.17,2568.06 2018.54,2570.28 2018.86,2572.47 2019.12,2574.65 2019.33,2576.82 2019.48,2578.96 2019.57,2581.08 2019.61,2583.17 2019.6,2585.25 2019.52,2587.3 2019.39,2589.33 2019.2,2591.34 2018.96,2593.31 2018.65,2595.27 2018.29,2597.19 2017.87,2599.09 2017.39,2600.95 2016.86,2602.79 2016.26,2604.6 2015.6,2606.38 2014.89,2608.12 2014.11,2609.83 2013.27,2611.51 2012.38,2613.15 2011.42,2614.76 2010.4,2616.33 2009.32,2617.87 2008.18,2619.36 2006.98,2620.82 2005.71,2622.24 2004.38,2623.62 868.502,1487.74 869.829,1486.36 871.096,1484.94 872.299,1483.48 873.44,1481.98 874.521,1480.45 875.539,1478.88 876.497,1477.27 877.393,1475.63 878.229,1473.95 879.005,1472.24 879.721,1470.49 880.378,1468.72 880.974,1466.91 881.512,1465.07 881.991,1463.21 882.411,1461.31 882.773,1459.38 883.077,1457.43 883.322,1455.45 883.51,1453.45 883.641,1451.42 883.716,1449.37 883.732,1447.29 883.693,1445.19 883.598,1443.07 883.446,1440.93 883.238,1438.77 882.976,1436.59 882.659,1434.39 882.285,1432.18 881.859,1429.94 "/>
     <polygon id="_336210944" class="fil1" points="868.502,1487.74 2004.38,2623.62 2003,2624.95 2001.58,2626.22 2000.13,2627.42 1998.63,2628.56 1997.09,2629.64 1995.52,2630.66 1993.91,2631.62 1992.27,2632.51 1990.59,2633.35 1988.88,2634.13 1987.14,2634.84 1985.36,2635.5 1983.55,2636.09 1981.72,2636.63 1979.85,2637.11 1977.95,2637.53 1976.03,2637.89 1974.08,2638.2 1972.1,2638.44 1970.09,2638.63 1968.06,2638.76 1966.01,2638.84 1963.94,2638.85 1961.84,2638.81 1959.72,2638.72 1957.58,2638.57 1955.42,2638.36 1953.24,2638.1 1951.04,2637.78 1948.82,2637.41 1946.59,2636.98 1944.34,2636.5 808.457,1500.62 810.706,1501.1 812.939,1501.52 815.155,1501.9 817.354,1502.21 819.534,1502.48 821.695,1502.68 823.836,1502.84 825.956,1502.93 828.055,1502.97 830.13,1502.95 832.183,1502.88 834.212,1502.75 836.216,1502.56 838.195,1502.31 840.146,1502.01 842.07,1501.65 843.967,1501.23 845.834,1500.75 847.673,1500.21 849.48,1499.62 851.257,1498.96 853,1498.24 854.711,1497.47 856.39,1496.63 858.033,1495.74 859.64,1494.78 861.212,1493.76 862.748,1492.68 864.244,1491.54 865.703,1490.33 867.122,1489.07 "/>
     <polygon id="_336211136" class="fil1" points="808.457,1500.62 1944.34,2636.5 1943.17,2636.23 1941.99,2635.94 1940.8,2635.64 1939.62,2635.32 1938.42,2634.99 1937.23,2634.64 1936.02,2634.28 1934.82,2633.91 1933.61,2633.52 1932.39,2633.11 1931.17,2632.69 1929.95,2632.25 1928.72,2631.8 1927.5,2631.34 1926.26,2630.86 1925.03,2630.37 1923.79,2629.86 1922.55,2629.34 1921.3,2628.8 1920.06,2628.25 1918.81,2627.69 1917.56,2627.11 1916.3,2626.52 1915.05,2625.91 1913.79,2625.29 1912.54,2624.65 1911.28,2624.01 1910.02,2623.34 1908.76,2622.67 1907.49,2621.98 1906.23,2621.27 1904.97,2620.56 769.087,1484.68 770.351,1485.39 771.614,1486.1 772.875,1486.79 774.136,1487.46 775.397,1488.12 776.656,1488.77 777.914,1489.41 779.169,1490.03 780.423,1490.63 781.677,1491.23 782.927,1491.81 784.176,1492.37 785.422,1492.92 786.666,1493.46 787.907,1493.98 789.146,1494.49 790.381,1494.98 791.614,1495.46 792.843,1495.92 794.069,1496.37 795.291,1496.81 796.51,1497.23 797.724,1497.63 798.935,1498.02 800.142,1498.4 801.344,1498.76 802.542,1499.11 803.735,1499.44 804.923,1499.76 806.107,1500.06 807.284,1500.34 "/>
     <polygon id="_336210560" class="fil1" points="769.087,1484.68 1904.97,2620.56 1904.58,2621.96 1904.19,2623.35 1903.78,2624.73 1903.37,2626.1 1902.95,2627.45 1902.52,2628.8 1902.08,2630.14 1901.63,2631.47 1901.17,2632.78 1900.7,2634.08 1900.23,2635.38 1899.75,2636.66 1899.25,2637.93 1898.75,2639.18 1898.25,2640.43 1897.73,2641.67 1897.21,2642.89 1896.67,2644.09 1896.13,2645.29 1895.58,2646.47 1895.03,2647.64 1894.46,2648.8 1893.89,2649.95 1893.31,2651.08 1892.73,2652.2 1892.13,2653.3 1891.53,2654.39 1890.93,2655.47 1890.31,2656.53 1889.69,2657.58 1889.06,2658.61 1888.42,2659.63 752.54,1523.75 753.177,1522.73 753.806,1521.7 754.429,1520.65 755.044,1519.59 755.652,1518.51 756.253,1517.42 756.847,1516.31 757.433,1515.2 758.012,1514.06 758.584,1512.92 759.147,1511.76 759.703,1510.59 760.251,1509.41 760.791,1508.21 761.324,1507 761.848,1505.78 762.364,1504.55 762.872,1503.3 763.373,1502.05 763.864,1500.78 764.347,1499.49 764.822,1498.2 765.288,1496.9 765.746,1495.58 766.195,1494.26 766.635,1492.92 767.066,1491.57 767.488,1490.21 767.901,1488.84 768.306,1487.46 768.701,1486.07 "/>
     <polygon id="_336211040" class="fil1" points="536.469,1388.33 1672.35,2524.21 1670.95,2523.82 1669.56,2523.43 1668.18,2523.02 1666.81,2522.61 1665.45,2522.19 1664.1,2521.75 1662.77,2521.32 1661.44,2520.87 1660.13,2520.41 1658.82,2519.94 1657.53,2519.47 1656.25,2518.98 1654.98,2518.49 1653.72,2517.99 1652.48,2517.49 1651.24,2516.97 1650.02,2516.44 1648.81,2515.91 1647.62,2515.37 1646.43,2514.82 1645.26,2514.27 1644.1,2513.7 1642.96,2513.13 1641.83,2512.55 1640.71,2511.97 1639.61,2511.37 1638.52,2510.77 1637.44,2510.16 1636.38,2509.55 1635.33,2508.93 1634.29,2508.3 1633.27,2507.66 497.393,1371.78 498.413,1372.41 499.447,1373.04 500.495,1373.67 501.558,1374.28 502.634,1374.89 503.724,1375.49 504.828,1376.08 505.947,1376.67 507.078,1377.25 508.223,1377.82 509.38,1378.39 510.551,1378.94 511.734,1379.49 512.931,1380.03 514.14,1380.56 515.361,1381.09 516.594,1381.6 517.841,1382.11 519.098,1382.61 520.367,1383.1 521.648,1383.59 522.941,1384.06 524.246,1384.53 525.56,1384.98 526.887,1385.43 528.224,1385.87 529.572,1386.3 530.931,1386.73 532.3,1387.14 533.679,1387.54 535.069,1387.94 "/>
     <polygon id="_336210488" class="fil1" points="497.393,1371.78 1633.27,2507.66 1631.34,2506.41 1629.46,2505.13 1627.63,2503.83 1625.84,2502.49 1624.12,2501.14 1622.44,2499.76 486.557,1363.87 488.234,1365.25 489.963,1366.61 491.744,1367.94 493.577,1369.25 495.46,1370.53 "/>
     <polygon id="_336210704" class="fil1" points="632.819,1484.68 1768.7,2620.56 1767.44,2621.27 1766.17,2621.98 1764.91,2622.67 1763.65,2623.34 1762.39,2624.01 1761.13,2624.65 1759.87,2625.29 1758.62,2625.91 1757.36,2626.52 1756.11,2627.11 1754.86,2627.69 1753.61,2628.25 1752.37,2628.8 1751.12,2629.34 1749.88,2629.86 1748.64,2630.37 1747.41,2630.86 1746.17,2631.34 1744.94,2631.8 1743.72,2632.25 1742.5,2632.69 1741.28,2633.11 1740.06,2633.52 1738.85,2633.91 1737.65,2634.28 1736.44,2634.64 1735.25,2634.99 1734.05,2635.32 1732.86,2635.64 1731.68,2635.94 1730.5,2636.23 1729.33,2636.5 593.449,1500.62 594.622,1500.34 595.799,1500.06 596.983,1499.76 598.171,1499.44 599.364,1499.11 600.561,1498.76 601.764,1498.4 602.971,1498.02 604.182,1497.63 605.396,1497.23 606.615,1496.81 607.837,1496.37 609.063,1495.92 610.293,1495.46 611.524,1494.98 612.76,1494.49 613.999,1493.98 615.24,1493.46 616.484,1492.92 617.73,1492.37 618.978,1491.81 620.229,1491.23 621.482,1490.63 622.737,1490.03 623.993,1489.41 625.25,1488.77 626.509,1488.12 627.769,1487.46 629.031,1486.79 630.292,1486.1 631.555,1485.39 "/>
     <polygon id="_336210920" class="fil1" points="593.449,1500.62 1729.33,2636.5 1727.08,2636.98 1724.85,2637.41 1722.63,2637.78 1720.43,2638.1 1718.25,2638.36 1716.09,2638.57 1713.95,2638.72 1711.83,2638.81 1709.73,2638.85 1707.66,2638.84 1705.6,2638.76 1703.57,2638.63 1701.57,2638.44 1699.59,2638.2 1697.64,2637.89 1695.72,2637.53 1693.82,2637.11 1691.95,2636.63 1690.11,2636.09 1688.31,2635.5 1686.53,2634.84 1684.79,2634.13 1683.07,2633.35 1681.4,2632.51 1679.75,2631.62 1678.15,2630.66 1676.57,2629.64 1675.04,2628.56 1673.54,2627.42 1672.08,2626.22 536.202,1490.33 537.661,1491.54 539.158,1492.68 540.693,1493.76 542.265,1494.78 543.873,1495.74 545.516,1496.63 547.193,1497.47 548.905,1498.24 550.649,1498.96 552.426,1499.62 554.233,1500.21 556.071,1500.75 557.939,1501.23 559.835,1501.65 561.76,1502.01 563.711,1502.31 565.689,1502.56 567.694,1502.75 569.723,1502.88 571.776,1502.95 573.851,1502.97 575.95,1502.93 578.07,1502.84 580.211,1502.68 582.371,1502.48 584.552,1502.21 586.751,1501.9 588.967,1501.52 591.2,1501.1 "/>
     <polygon id="_336210776" class="fil1" points="700.953,1557.14 1836.83,2693.03 1834.92,2692.99 1833.02,2692.88 1831.14,2692.7 1829.27,2692.45 1827.42,2692.13 1825.59,2691.73 1823.78,2691.27 1821.98,2690.75 1820.2,2690.15 1818.44,2689.49 1816.7,2688.76 1814.98,2687.97 1813.28,2687.11 1811.6,2686.19 1809.94,2685.21 1808.3,2684.16 1806.68,2683.05 1805.09,2681.89 1803.51,2680.66 1801.96,2679.38 666.082,1543.49 667.633,1544.78 669.206,1546.01 670.802,1547.17 672.42,1548.28 674.058,1549.32 675.717,1550.31 677.398,1551.23 679.099,1552.08 680.82,1552.88 682.56,1553.61 684.319,1554.27 686.097,1554.86 687.895,1555.39 689.709,1555.85 691.541,1556.24 693.39,1556.57 695.256,1556.82 697.139,1557 699.038,1557.11 "/>
     <polygon id="_336211424" class="fil1" points="752.54,1523.75 1888.42,2659.63 1887.17,2661.57 1885.89,2663.45 1884.59,2665.28 1883.25,2667.06 1881.9,2668.79 1880.52,2670.47 1879.11,2672.09 1877.68,2673.66 1876.22,2675.17 1874.74,2676.63 1873.23,2678.03 1871.7,2679.38 1870.15,2680.66 1868.58,2681.89 1866.98,2683.05 1865.37,2684.16 1863.73,2685.21 1862.07,2686.19 1860.39,2687.11 1858.69,2687.97 1856.97,2688.76 1855.23,2689.49 1853.47,2690.15 1851.69,2690.75 1849.89,2691.27 1848.08,2691.73 1846.25,2692.13 1844.4,2692.45 1842.53,2692.7 1840.65,2692.88 1838.75,2692.99 1836.83,2693.03 700.953,1557.14 702.867,1557.11 704.767,1557 706.649,1556.82 708.516,1556.57 710.365,1556.24 712.197,1555.85 714.011,1555.39 715.808,1554.86 717.585,1554.27 719.345,1553.61 721.085,1552.88 722.806,1552.08 724.506,1551.23 726.187,1550.31 727.847,1549.32 729.485,1548.28 731.103,1547.17 732.699,1546.01 734.272,1544.78 735.823,1543.49 737.351,1542.15 738.856,1540.75 740.337,1539.29 741.794,1537.78 743.227,1536.21 744.635,1534.59 746.017,1532.91 747.374,1531.18 748.705,1529.4 750.01,1527.57 751.289,1525.68 "/>
    </g>
    <path id="_474094568" class="fil1" d="M819.429 490.856c22.5555,0 42.2244,13.7634 56.7449,36.7335 7.50945,11.876 13.7268,26.5016 18.202,42.9827 14.8252,-8.49331 29.5784,-14.4402 43.3063,-17.5347 26.4803,-5.96693 50.1024,-1.78583 66.0497,14.1626 15.9496,15.9473 20.1307,39.5693 14.1626,66.0508 -3.09331,13.728 -9.04016,28.4823 -17.5335,43.3063 16.4823,4.47284 31.1055,10.6925 42.9827,18.202 22.9701,14.5205 36.7335,34.1882 36.7335,56.7449 0,22.5567 -13.7634,42.2256 -36.7335,56.7461 -11.8772,7.50945 -26.5016,13.7268 -42.9827,18.202 8.49213,14.8252 14.4402,29.5784 17.5335,43.3063 5.96811,26.4803 1.78701,50.1024 -14.1626,66.0497 -15.9473,15.9484 -39.5693,20.1307 -66.0497,14.1626 -13.728,-3.09331 -28.4811,-9.04016 -43.3063,-17.5335 -4.4752,16.4811 -10.6925,31.1055 -18.202,42.9827 -14.5205,22.9701 -34.1894,36.7335 -56.7449,36.7335 -22.5579,0 -42.2256,-13.7634 -56.7473,-36.7335 -7.50827,-11.8772 -13.728,-26.5016 -18.2008,-42.9827 -14.824,8.49213 -29.5784,14.4402 -43.3063,17.5335 -26.4815,5.96811 -50.1036,1.78583 -66.0508,-14.1626 -15.9496,-15.9473 -20.1307,-39.5693 -14.1626,-66.0497 3.09449,-13.728 9.04016,-28.4811 17.5347,-43.3063 -16.4823,-4.4752 -31.1067,-10.6925 -42.9827,-18.202 -22.9701,-14.5205 -36.7335,-34.1894 -36.7335,-56.7461 0,-22.5567 13.7634,-42.2244 36.7335,-56.7449 11.876,-7.50945 26.5016,-13.7291 42.9827,-18.202 -8.49449,-14.824 -14.4402,-29.5784 -17.5347,-43.3063 -5.96693,-26.4815 -1.78583,-50.1036 14.1626,-66.0508 15.9473,-15.9484 39.5693,-20.1307 66.0508,-14.1626 13.728,3.09449 28.4811,9.04016 43.3063,17.5347 4.47402,-16.4811 10.6925,-31.1067 18.2008,-42.9827 14.5217,-22.9701 34.1894,-36.7335 56.7473,-36.7335zm488.913 331.734c23.8559,0 44.6575,14.5547 60.0142,38.8488 7.94056,12.5599 14.5169,28.0264 19.2496,45.4571 15.6791,-8.98111 31.2803,-15.2717 45.7996,-18.5445 28.0051,-6.30945 52.9878,-1.88858 69.854,14.9788 16.8673,16.8662 21.2894,41.8477 14.9776,69.854 -3.27166,14.5181 -9.55985,30.1217 -18.5421,45.7996 17.4307,4.7315 32.8949,11.3091 45.4559,19.2496 24.2929,15.3567 38.8488,36.1583 38.8488,60.013 0,23.8559 -14.5559,44.6563 -38.8488,60.0142 -12.561,7.94056 -28.0264,14.5169 -45.4571,19.2496 8.98111,15.6791 15.2717,31.2803 18.5433,45.7996 6.31063,28.0051 1.88977,52.9878 -14.9776,69.854 -16.8662,16.8662 -41.8489,21.2894 -69.854,14.9776 -14.5193,-3.27284 -30.1205,-9.56103 -45.7996,-18.5433 -4.73268,17.4307 -11.3091,32.8961 -19.2496,45.4571 -15.3567,24.2929 -36.1583,38.8488 -60.0142,38.8488 -23.8547,0 -44.6563,-14.5559 -60.013,-38.8488 -7.94056,-12.561 -14.5181,-28.0264 -19.2496,-45.4571 -15.678,8.98111 -31.2815,15.2705 -45.7996,18.5433 -28.0063,6.31182 -52.9878,1.88858 -69.854,-14.9776 -16.8673,-16.8673 -21.2906,-41.8489 -14.9788,-69.854 3.27284,-14.5193 9.56221,-30.1205 18.5445,-45.7996 -17.4307,-4.73268 -32.8973,-11.3091 -45.4571,-19.2496 -24.2941,-15.3579 -38.8488,-36.1583 -38.8488,-60.0142 0,-23.8547 14.5547,-44.6563 38.8488,-60.013 12.5599,-7.94056 28.0276,-14.5181 45.4571,-19.2496 -8.98229,-15.678 -15.2717,-31.2803 -18.5445,-45.7996 -6.31063,-28.0063 -1.88858,-52.9878 14.9788,-69.854 16.8662,-16.8673 41.8477,-21.2906 69.854,-14.9788 14.5193,3.27284 30.1205,9.56221 45.7996,18.5445 4.7315,-17.4307 11.3091,-32.8973 19.2496,-45.4571 15.3567,-24.2941 36.1583,-38.8488 60.013,-38.8488zm-607.389 260.647c20.5051,0 38.3859,12.5114 51.587,33.3945 6.82678,10.7965 12.4795,24.091 16.5473,39.0744 13.4776,-7.72087 26.889,-13.1268 39.3697,-15.9402 24.0732,-5.42481 45.5481,-1.62402 60.0449,12.8752 14.4992,14.498 18.3012,35.9717 12.8752,60.0461 -2.81221,12.4795 -8.21812,25.8921 -15.939,39.3685 14.9835,4.06772 28.278,9.72166 39.0744,16.5473 20.8819,13.2012 33.3933,31.0819 33.3933,51.587 0,20.5063 -12.5114,38.387 -33.3933,51.5882 -10.7965,6.8256 -24.0921,12.4795 -39.0756,16.5473 7.72087,13.4764 13.128,26.889 15.9402,39.3685 5.42481,24.0744 1.62402,45.5481 -12.8752,60.0461 -14.4969,14.4992 -35.9717,18.3 -60.0449,12.8752 -12.4807,-2.81339 -25.8921,-8.2193 -39.3697,-15.9402 -4.06772,14.9823 -9.72048,28.278 -16.5473,39.0744 -13.2012,20.8831 -31.0819,33.3945 -51.587,33.3945 -20.5063,0 -38.387,-12.5114 -51.5882,-33.3945 -6.8256,-10.7965 -12.4795,-24.0921 -16.5461,-39.0744 -13.4764,7.72087 -26.889,13.1268 -39.3697,15.9402 -24.0732,5.42481 -45.5481,1.62402 -60.0461,-12.8752 -14.4992,-14.4992 -18.3,-35.9717 -12.874,-60.0461 2.81221,-12.4795 8.21812,-25.8921 15.9402,-39.3685 -14.9835,-4.06772 -28.2792,-9.72166 -39.0756,-16.5473 -20.8831,-13.2012 -33.3945,-31.0819 -33.3945,-51.5882 0,-20.5051 12.5114,-38.3859 33.3945,-51.587 10.7965,-6.8256 24.0921,-12.4795 39.0756,-16.5473 -7.72205,-13.4764 -13.128,-26.889 -15.9402,-39.3685 -5.42599,-24.0744 -1.62402,-45.5481 12.874,-60.0461 14.498,-14.4992 35.9729,-18.3012 60.0461,-12.8752 12.4807,2.81339 25.8921,8.2193 39.3697,15.9402 4.06772,-14.9835 9.72048,-28.278 16.5461,-39.0744 13.2012,-20.8831 31.0819,-33.3945 51.5882,-33.3945z"/>
   </g>
  </g>
  <path class="fil2" d="M1024 0c565.539,0 1024,458.461 1024,1024 0,565.539 -458.461,1024 -1024,1024 -565.539,0 -1024,-458.461 -1024,-1024 0,-565.539 458.461,-1024 1024,-1024z"/>
  <path class="fil3" d="M700.953 1083.24c20.5051,0 38.3859,12.5114 51.587,33.3945 6.82678,10.7965 12.4795,24.091 16.5473,39.0744 13.4776,-7.72087 26.889,-13.1268 39.3697,-15.9402 24.0732,-5.42481 45.5481,-1.62402 60.0449,12.8752 14.4992,14.498 18.3012,35.9717 12.8752,60.0461 -2.81221,12.4795 -8.21812,25.8921 -15.939,39.3685 14.9835,4.06772 28.278,9.72166 39.0744,16.5473 20.8819,13.2012 33.3933,31.0819 33.3933,51.587 0,20.5063 -12.5114,38.387 -33.3933,51.5882 -10.7965,6.8256 -24.0921,12.4795 -39.0756,16.5473 7.72087,13.4764 13.128,26.889 15.9402,39.3685 5.42481,24.0744 1.62402,45.5481 -12.8752,60.0461 -14.4969,14.4992 -35.9717,18.3 -60.0449,12.8752 -12.4807,-2.81339 -25.8921,-8.2193 -39.3697,-15.9402 -4.06772,14.9823 -9.72048,28.278 -16.5473,39.0744 -13.2012,20.8831 -31.0819,33.3945 -51.587,33.3945 -20.5063,0 -38.387,-12.5114 -51.5882,-33.3945 -6.8256,-10.7965 -12.4795,-24.0921 -16.5461,-39.0744 -13.4764,7.72087 -26.889,13.1268 -39.3697,15.9402 -24.0732,5.42481 -45.5481,1.62402 -60.0461,-12.8752 -14.4992,-14.4992 -18.3,-35.9717 -12.874,-60.0461 2.81221,-12.4795 8.21812,-25.8921 15.9402,-39.3685 -14.9835,-4.06772 -28.2792,-9.72166 -39.0756,-16.5473 -20.8831,-13.2012 -33.3945,-31.0819 -33.3945,-51.5882 0,-20.5051 12.5114,-38.3859 33.3945,-51.587 10.7965,-6.8256 24.0921,-12.4795 39.0756,-16.5473 -7.72205,-13.4764 -13.128,-26.889 -15.9402,-39.3685 -5.42599,-24.0744 -1.62402,-45.5481 12.874,-60.0461 14.498,-14.4992 35.9729,-18.3012 60.0461,-12.8752 12.4807,2.81339 25.8921,8.2193 39.3697,15.9402 4.06772,-14.9835 9.72048,-28.278 16.5461,-39.0744 13.2012,-20.8831 31.0819,-33.3945 51.5882,-33.3945z"/>
  <path class="fil4" d="M700.953 1245.45c20.6362,0 39.3225,8.36575 52.8473,21.8929 13.526,13.526 21.8941,32.2122 21.8941,52.8473 0,20.6362 -8.36812,39.3225 -21.8941,52.8485 -13.5248,13.5248 -32.211,21.8929 -52.8473,21.8929 -20.6362,0 -39.3225,-8.36812 -52.8485,-21.8929 -13.5272,-13.526 -21.8929,-32.211 -21.8929,-52.8485 0,-20.6362 8.36575,-39.3213 21.8929,-52.8473 13.526,-13.5272 32.211,-21.8929 52.8485,-21.8929z"/>
  <path class="fil5" d="M1308.34 822.59c23.8559,0 44.6575,14.5547 60.0142,38.8488 7.94056,12.5599 14.5169,28.0264 19.2496,45.4571 15.6791,-8.98111 31.2803,-15.2717 45.7996,-18.5445 28.0051,-6.30945 52.9878,-1.88858 69.854,14.9788 16.8673,16.8662 21.2894,41.8477 14.9776,69.854 -3.27166,14.5181 -9.55985,30.1217 -18.5421,45.7996 17.4307,4.7315 32.8949,11.3091 45.4559,19.2496 24.2929,15.3567 38.8488,36.1583 38.8488,60.013 0,23.8559 -14.5559,44.6563 -38.8488,60.0142 -12.561,7.94056 -28.0264,14.5169 -45.4571,19.2496 8.98111,15.6791 15.2717,31.2803 18.5433,45.7996 6.31063,28.0051 1.88977,52.9878 -14.9776,69.854 -16.8662,16.8662 -41.8489,21.2894 -69.854,14.9776 -14.5193,-3.27284 -30.1205,-9.56103 -45.7996,-18.5433 -4.73268,17.4307 -11.3091,32.8961 -19.2496,45.4571 -15.3567,24.2929 -36.1583,38.8488 -60.0142,38.8488 -23.8547,0 -44.6563,-14.5559 -60.013,-38.8488 -7.94056,-12.561 -14.5181,-28.0264 -19.2496,-45.4571 -15.678,8.98111 -31.2815,15.2705 -45.7996,18.5433 -28.0063,6.31182 -52.9878,1.88858 -69.854,-14.9776 -16.8673,-16.8673 -21.2906,-41.8489 -14.9788,-69.854 3.27284,-14.5193 9.56221,-30.1205 18.5445,-45.7996 -17.4307,-4.73268 -32.8973,-11.3091 -45.4571,-19.2496 -24.2941,-15.3579 -38.8488,-36.1583 -38.8488,-60.0142 0,-23.8547 14.5547,-44.6563 38.8488,-60.013 12.5599,-7.94056 28.0276,-14.5181 45.4571,-19.2496 -8.98229,-15.678 -15.2717,-31.2803 -18.5445,-45.7996 -6.31063,-28.0063 -1.88858,-52.9878 14.9788,-69.854 16.8662,-16.8673 41.8477,-21.2906 69.854,-14.9788 14.5193,3.27284 30.1205,9.56221 45.7996,18.5445 4.7315,-17.4307 11.3091,-32.8973 19.2496,-45.4571 15.3567,-24.2941 36.1583,-38.8488 60.013,-38.8488z"/>
  <path class="fil6" d="M1308.34 1011.3c24.0083,0 45.7453,9.73347 61.48,25.4693 15.7347,15.7347 25.4693,37.474 25.4693,61.48 0,24.0071 -9.73465,45.7453 -25.4693,61.48 -15.7347,15.7347 -37.4729,25.4693 -61.48,25.4693 -24.0059,0 -45.7453,-9.73465 -61.48,-25.4693 -15.7358,-15.7347 -25.4693,-37.4717 -25.4693,-61.48 0,-24.0071 9.73347,-45.7453 25.4693,-61.48 15.7347,-15.7358 37.4729,-25.4693 61.48,-25.4693z"/>
  <path class="fil3" d="M819.429 490.856c22.5555,0 42.2244,13.7634 56.7449,36.7335 7.50945,11.876 13.728,26.5016 18.202,42.9827 14.8252,-8.49331 29.5784,-14.4402 43.3063,-17.5347 26.4803,-5.96693 50.1024,-1.78583 66.0508,14.1626 15.9484,15.9473 20.1295,39.5693 14.1614,66.0508 -3.09331,13.728 -9.04016,28.4823 -17.5335,43.3052 16.4823,4.47402 31.1055,10.6937 42.9827,18.202 22.9701,14.5217 36.7335,34.1906 36.7335,56.7461 0,22.5567 -13.7634,42.2256 -36.7335,56.7461 -11.8772,7.50945 -26.5016,13.728 -42.9827,18.202 8.49213,14.8252 14.4402,29.5784 17.5335,43.3063 5.96811,26.4803 1.78701,50.1024 -14.1614,66.0497 -15.9484,15.9496 -39.5705,20.1307 -66.0508,14.1626 -13.728,-3.09331 -28.4811,-9.04016 -43.3063,-17.5335 -4.47402,16.4811 -10.6925,31.1055 -18.202,42.9827 -14.5205,22.9701 -34.1894,36.7335 -56.7449,36.7335 -22.5579,0 -42.2256,-13.7634 -56.7473,-36.7335 -7.50827,-11.8772 -13.728,-26.5016 -18.202,-42.9827 -14.824,8.49213 -29.5772,14.4402 -43.3052,17.5335 -26.4815,5.96811 -50.1036,1.78701 -66.0508,-14.1626 -15.9496,-15.9484 -20.1307,-39.5693 -14.1626,-66.0497 3.09449,-13.728 9.04016,-28.4811 17.5347,-43.3063 -16.4823,-4.47402 -31.1067,-10.6925 -42.9827,-18.202 -22.9713,-14.5205 -36.7335,-34.1894 -36.7335,-56.7461 0,-22.5555 13.7622,-42.2244 36.7335,-56.7461 11.876,-7.50827 26.5016,-13.728 42.9827,-18.202 -8.49449,-14.8228 -14.4402,-29.5772 -17.5347,-43.3052 -5.96693,-26.4815 -1.78583,-50.1036 14.1626,-66.0508 15.9473,-15.9484 39.5693,-20.1307 66.0508,-14.1626 13.728,3.09449 28.4811,9.04135 43.3052,17.5347 4.4752,-16.4811 10.6937,-31.1067 18.202,-42.9827 14.5217,-22.9701 34.1894,-36.7335 56.7473,-36.7335z"/>
  <path class="fil4" d="M819.429 669.29c22.6996,0 43.2532,9.20198 58.1315,24.0827 14.8784,14.8772 24.0827,35.4319 24.0827,58.1315 0,22.6996 -9.20434,43.2544 -24.0827,58.1327 -14.8784,14.8784 -35.4331,24.0827 -58.1315,24.0827 -22.7008,0 -43.2555,-9.20434 -58.1339,-24.0827 -14.8795,-14.8784 -24.0827,-35.4319 -24.0827,-58.1327 0,-22.7008 9.20316,-43.2544 24.0827,-58.1315 14.8784,-14.8807 35.4319,-24.0827 58.1339,-24.0827z"/>
 </g>
</svg>
