<?xml version="1.0" encoding="utf-8"?>
<!-- Generator: Adobe Illustrator 21.1.0, SVG Export Plug-In . SVG Version: 6.00 Build 0)  -->
<svg version="1.1" id="Icon_Set" xmlns="http://www.w3.org/2000/svg" xmlns:xlink="http://www.w3.org/1999/xlink" x="0px" y="0px"
	 viewBox="0 0 512 512" style="enable-background:new 0 0 512 512;" xml:space="preserve">
<style type="text/css">
	.st0{fill:#FFFFFF;}
	.st1{fill:#7DAC51;}
	.st2{fill:#5B7C31;}
	.st3{fill:#463218;}
	.st4{fill:#FEFE71;}
	.st5{fill:#D6CD1E;}
	.st6{fill:#E56823;}
	.st7{fill:#FE8E46;}
	.st8{fill:none;stroke:#FFFFFF;stroke-width:10;stroke-miterlimit:10;}
	.st9{fill:none;stroke:#463218;stroke-width:14;stroke-linecap:round;stroke-linejoin:round;stroke-miterlimit:10;}
	.st10{fill:#FE8D47;}
	.st11{fill:#E56724;}
</style>
<g id="ROSEBUSH">
	<g>
		<g>
			<path class="st1" d="M224.2,361.7c14-14,20.4-32.6,19.2-50.9c-18.3-1.1-36.9,5.3-50.9,19.2c-14,14-20.4,32.6-19.2,50.9
				C191.6,382.1,210.3,375.7,224.2,361.7z"/>
		</g>
	</g>
	<g>
		<g>
			<path class="st1" d="M261.4,361.7c-14-14-20.4-32.6-19.2-50.9c18.3-1.1,36.9,5.3,50.9,19.2c14,14,20.4,32.6,19.2,50.9
				C294.1,382.1,275.4,375.7,261.4,361.7z"/>
		</g>
	</g>
	<g>
		<g>
			<path class="st4" d="M277.3,248h-67.4V136.3c0-12.3,13.6-19.7,23.9-13l0,0c4.9,3.2,11.2,3.3,16.2,0.4l4-2.3
				c10.3-6,23.3,1.4,23.3,13.4V248z"/>
		</g>
	</g>
	<g>
		<g>
			<path class="st3" d="M277.3,255h-67.4c-3.9,0-7-3.1-7-7V136.3c0-8.4,4.4-15.8,11.8-19.8c7.4-4,16-3.7,23,0.9
				c2.7,1.8,6.1,1.8,8.9,0.2l4-2.3c7-4.1,15.5-4.1,22.5-0.1c7.1,4.1,11.3,11.4,11.3,19.5V248C284.3,251.9,281.1,255,277.3,255z
				 M216.9,241h53.4V134.7c0-4.4-3-6.6-4.3-7.4c-1.3-0.7-4.7-2.2-8.5,0l-4,2.3c-7.4,4.3-16.4,4.1-23.6-0.6c-2.7-1.7-5.9-1.8-8.7-0.3
				c-2.8,1.5-4.4,4.3-4.4,7.5V241z"/>
		</g>
	</g>
	<g>
		<g>
			<path class="st7" d="M241.8,310.7v-46.1c0-34-16-66.1-43.2-86.5L161,149.8v80.1C161,274.5,197.2,310.7,241.8,310.7L241.8,310.7"
				/>
		</g>
	</g>
	<g>
		<g>
			<path class="st6" d="M189.5,209.7v-38.5L161,149.8v80.1c0,44.6,36.2,80.8,80.8,80.8v-25.4C211.2,273.8,189.5,244.3,189.5,209.7z"
				/>
		</g>
	</g>
	<g>
		<g>
			<path class="st7" d="M242.7,310.7v-46.1c0-34,16-66.1,43.2-86.5l37.6-28.3v80.1C323.5,274.5,287.4,310.7,242.7,310.7L242.7,310.7
				"/>
		</g>
	</g>
	<g>
		<g>
			<path class="st6" d="M293.8,172.1v39.9c0,34.1-21.2,63.3-51.1,75.1v23.5c44.6,0,80.8-36.2,80.8-80.8v-80.1L293.8,172.1z"/>
		</g>
	</g>
	<g>
		<g>
			<path class="st0" d="M292.6,244.2l-9.3-3.7c3.6-9,5.5-18.5,5.5-28.3h10C298.8,223.2,296.7,234,292.6,244.2z"/>
		</g>
	</g>
	<g>
		<g>
			<path class="st0" d="M273.9,272.5l-7.1-7c4.4-4.5,8.3-9.5,11.5-14.9l8.6,5.1C283.3,261.8,278.9,267.5,273.9,272.5z"/>
		</g>
	</g>
	<g>
		<g>
			<path class="st3" d="M241.8,317.7c-48.4,0-87.8-39.4-87.8-87.8v-80.1c0-2.7,1.5-5.1,3.9-6.3c2.4-1.2,5.2-0.9,7.3,0.7l37.6,28.3
				c28.8,21.6,46,56.1,46,92.1v46.1C248.8,314.6,245.6,317.7,241.8,317.7z M168,163.8v66.1c0,38.3,29.4,69.9,66.8,73.5v-38.8
				c0-31.7-15.1-61.9-40.4-80.9L168,163.8z"/>
		</g>
	</g>
	<g>
		<g>
			<path class="st3" d="M242.7,317.7c-3.9,0-7-3.1-7-7v-46.1c0-36,17.2-70.5,46-92.1l37.6-28.3c2.1-1.6,5-1.9,7.3-0.7
				c2.4,1.2,3.9,3.6,3.9,6.3v80.1C330.5,278.3,291.1,317.7,242.7,317.7z M316.5,163.8l-26.4,19.8c-25.3,19-40.4,49.3-40.4,80.9v38.8
				c37.4-3.5,66.8-35.1,66.8-73.5V163.8z"/>
		</g>
	</g>
	<g>
		<g>
			<path class="st3" d="M241.8,317.7c-48.4,0-87.8-39.4-87.8-87.8v-80.1c0-2.7,1.5-5.1,3.9-6.3c2.4-1.2,5.2-0.9,7.3,0.7l37.6,28.3
				c28.8,21.6,46,56.1,46,92.1v46.1C248.8,314.6,245.6,317.7,241.8,317.7z M168,163.8v66.1c0,38.3,29.4,69.9,66.8,73.5v-38.8
				c0-31.7-15.1-61.9-40.4-80.9L168,163.8z"/>
		</g>
	</g>
	<g>
		<g>
			<path class="st3" d="M242.7,317.7c-3.9,0-7-3.1-7-7v-46.1c0-36,17.2-70.5,46-92.1l37.6-28.3c2.1-1.6,5-1.9,7.3-0.7
				c2.4,1.2,3.9,3.6,3.9,6.3v80.1C330.5,278.3,291.1,317.7,242.7,317.7z M316.5,163.8l-26.4,19.8c-25.3,19-40.4,49.3-40.4,80.9v38.8
				c37.4-3.5,66.8-35.1,66.8-73.5V163.8z"/>
		</g>
	</g>
	<g>
		<g>
			<path class="st3" d="M177.5,388.1c-1.5,0-3,0-4.6-0.1c-3.5-0.2-6.3-3-6.6-6.6c-1.3-21,6.4-41.5,21.3-56.3
				c14.8-14.8,35.3-22.6,56.3-21.3c3.5,0.2,6.3,3,6.6,6.6c1.3,21-6.4,41.5-21.3,56.3C215.5,380.4,196.8,388.1,177.5,388.1z
				 M236.5,317.7c-14.6,0.7-28.6,6.8-39,17.2c-10.4,10.4-16.5,24.4-17.2,39c14.6-0.7,28.6-6.8,39-17.2h0
				C229.7,346.3,235.8,332.4,236.5,317.7z"/>
		</g>
	</g>
	<g>
		<g>
			<path class="st3" d="M308.2,388.1c-19.3,0-38-7.7-51.7-21.4h0c-14.8-14.8-22.6-35.3-21.3-56.3c0.2-3.5,3-6.3,6.6-6.6
				c21-1.3,41.5,6.4,56.3,21.3c14.8,14.8,22.6,35.3,21.3,56.3c-0.2,3.5-3,6.3-6.6,6.6C311.2,388,309.7,388.1,308.2,388.1z
				 M249.1,317.7c0.7,14.6,6.8,28.6,17.2,39h0c10.4,10.4,24.4,16.5,39,17.2c-0.7-14.6-6.8-28.6-17.2-39
				C277.7,324.5,263.8,318.4,249.1,317.7z"/>
		</g>
	</g>
	<g>
		<g>
			<path class="st3" d="M242.2,425.9c-3.9,0-7-3.1-7-7V310.8c0-3.9,3.1-7,7-7s7,3.1,7,7v108.1C249.2,422.8,246.1,425.9,242.2,425.9z
				"/>
		</g>
	</g>
</g>
</svg>
