<?xml version="1.0" encoding="utf-8"?>
<!-- Generator: Adobe Illustrator 24.3.0, SVG Export Plug-In . SVG Version: 6.00 Build 0)  -->
<svg version="1.1" id="Layer_1" xmlns="http://www.w3.org/2000/svg" xmlns:xlink="http://www.w3.org/1999/xlink" x="0px" y="0px"
	 viewBox="0 0 180 180" enable-background="new 0 0 180 180" xml:space="preserve">
<g>
	<path fill="#8E4291" d="M93.44,126.224c0,0,20.469,15.248,8.041,23.011c-12.429,7.763-11.951-19.539-11.951-19.539
		s11.272,23.244-0.001,23.244c-11.276,0-3.514-24.969-3.514-24.969s1.691,27.677-8.436,21.264
		c-10.128-6.413,8.099-26.466,8.099-26.466L93.44,126.224z"/>
	<path fill="#9D559C" d="M90.001,124.693l-4.323-1.924c0,0-18.227,20.054-8.099,26.466c2.995,1.897,4.957,0.81,6.235-1.659
		c0.683,3.126,2.346,5.364,5.716,5.364c0.166,0,0.314-0.022,0.472-0.032V124.693z"/>
	<path fill="#8E4291" d="M93.44,53.776c0,0,20.469-15.249,8.041-23.011c-12.429-7.763-11.951,19.54-11.951,19.54
		s11.272-23.244-0.001-23.244c-11.276,0-3.514,24.969-3.514,24.969s1.691-27.677-8.436-21.264
		c-10.128,6.414,8.099,26.466,8.099,26.466L93.44,53.776z"/>
	<path fill="#9D559C" d="M90.001,27.091c-0.158-0.01-0.306-0.031-0.472-0.031c-3.37,0-5.033,2.238-5.716,5.364
		c-1.278-2.471-3.24-3.557-6.235-1.66c-10.128,6.414,8.099,26.466,8.099,26.466l4.323-1.924V27.091z"/>
	<path fill="#542B4C" d="M81.554,132.43c-4.824,0-8.735-3.91-8.735-8.733V57.022c0-4.824,3.91-8.735,8.735-8.735h16.892
		c4.826,0,8.735,3.911,8.735,8.735v66.675c0,4.824-3.909,8.733-8.735,8.733H81.554z"/>
	<path fill="#63335A" d="M90.001,48.287h-8.447c-4.824,0-8.735,3.911-8.735,8.735v66.675c0,4.824,3.91,8.733,8.735,8.733h8.447
		V48.287z"/>
	<polygon fill="#FFCF00" points="81.408,61.301 83.117,64.762 86.937,65.317 84.172,68.011 84.826,71.815 81.408,70.019 
		77.993,71.815 78.647,68.011 75.883,65.317 79.702,64.762 	"/>
	<polygon fill="#FFCF00" points="85.683,90.359 87.39,93.82 91.209,94.375 88.445,97.069 89.099,100.873 85.683,99.077 
		82.264,100.873 82.919,97.069 80.154,94.375 83.974,93.82 	"/>
	<polygon fill="#F6A700" points="96.746,73.504 98.453,76.965 102.272,77.52 99.508,80.214 100.162,84.018 96.746,82.223 
		93.328,84.018 93.982,80.214 91.218,77.52 95.038,76.965 	"/>
	<polygon fill="#F6A700" points="96.746,107.948 98.453,111.409 102.272,111.964 99.508,114.659 100.162,118.462 96.746,116.666 
		93.328,118.462 93.982,114.659 91.218,111.964 95.038,111.409 	"/>
</g>
</svg>
