<?xml version="1.0" encoding="utf-8"?>
<!-- Generator: Adobe Illustrator 21.1.0, SVG Export Plug-In . SVG Version: 6.00 Build 0)  -->
<svg version="1.1" id="Icon_Set" xmlns="http://www.w3.org/2000/svg" xmlns:xlink="http://www.w3.org/1999/xlink" x="0px" y="0px"
	 viewBox="0 0 512 512" style="enable-background:new 0 0 512 512;" xml:space="preserve">
<style type="text/css">
	.st0{fill:#FFFFFF;}
	.st1{fill:#7DAC51;}
	.st2{fill:#5B7C31;}
	.st3{fill:#463218;}
	.st4{fill:#FEFE71;}
	.st5{fill:#D6CD1E;}
	.st6{fill:#E56823;}
	.st7{fill:#FE8E46;}
	.st8{fill:none;stroke:#FFFFFF;stroke-width:10;stroke-miterlimit:10;}
	.st9{fill:none;stroke:#463218;stroke-width:14;stroke-linecap:round;stroke-linejoin:round;stroke-miterlimit:10;}
	.st10{fill:#FE8D47;}
	.st11{fill:#E56724;}
</style>
<g id="SUNFLOWER">
	<g>
		<g>
			<g>
				<g>
					<g>
						<path class="st4" d="M234.8,177.2c0,21.4,8,40.9,21.2,55.8c13.2-14.8,21.2-34.4,21.2-55.8s-8-40.9-21.2-55.8
							C242.8,136.2,234.8,155.8,234.8,177.2z"/>
					</g>
				</g>
				<g>
					<g>
						<path class="st5" d="M234.8,177.2c0,21.4,8,40.9,21.2,55.8V121.4C242.8,136.2,234.8,155.8,234.8,177.2z"/>
					</g>
				</g>
			</g>
			<g>
				<g>
					<g>
						<path class="st3" d="M256,239.9c-2,0-3.9-0.9-5.2-2.4c-14.8-16.7-23-38.1-23-60.4s8.2-43.7,23-60.4c1.3-1.5,3.2-2.4,5.2-2.4
							s3.9,0.9,5.2,2.4c14.8,16.7,23,38.1,23,60.4s-8.2,43.7-23,60.4C259.9,239.1,258,239.9,256,239.9z M256,132.6
							c-9.2,13-14.2,28.5-14.2,44.5s5,31.6,14.2,44.5c9.2-13,14.2-28.5,14.2-44.5S265.2,145.6,256,132.6z"/>
					</g>
				</g>
			</g>
		</g>
		<g>
			<g>
				<g>
					<g>
						<path class="st4" d="M234.8,334.8c0,21.4,8,40.9,21.2,55.8c13.2-14.8,21.2-34.4,21.2-55.8c0-21.4-8-40.9-21.2-55.8
							C242.8,293.9,234.8,313.4,234.8,334.8z"/>
					</g>
				</g>
				<g>
					<g>
						<path class="st5" d="M234.8,334.8c0,21.4,8,40.9,21.2,55.8V279.1C242.8,293.9,234.8,313.4,234.8,334.8z"/>
					</g>
				</g>
			</g>
			<g>
				<g>
					<g>
						<path class="st3" d="M256,397.6c-2,0-3.9-0.9-5.2-2.4c-14.8-16.7-23-38.1-23-60.4s8.2-43.7,23-60.4c1.3-1.5,3.2-2.4,5.2-2.4
							s3.9,0.9,5.2,2.4c14.8,16.7,23,38.1,23,60.4s-8.2,43.7-23,60.4C259.9,396.8,258,397.6,256,397.6z M256,290.3
							c-9.2,13-14.2,28.5-14.2,44.5s5,31.6,14.2,44.5c9.2-13,14.2-28.5,14.2-44.5S265.2,303.3,256,290.3z"/>
					</g>
				</g>
			</g>
		</g>
	</g>
	<g>
		<g>
			<g>
				<g>
					<g>
						<path class="st4" d="M334.8,234.8c-21.4,0-40.9,8-55.8,21.2c14.8,13.2,34.4,21.2,55.8,21.2c21.4,0,40.9-8,55.8-21.2
							C375.8,242.8,356.2,234.8,334.8,234.8z"/>
					</g>
				</g>
				<g>
					<g>
						<path class="st5" d="M334.8,234.8c-21.4,0-40.9,8-55.8,21.2h111.6C375.8,242.8,356.2,234.8,334.8,234.8z"/>
					</g>
				</g>
			</g>
			<g>
				<g>
					<g>
						<path class="st3" d="M334.8,284.2c-22.3,0-43.7-8.2-60.4-23c-1.5-1.3-2.4-3.2-2.4-5.2s0.9-3.9,2.4-5.2
							c16.7-14.8,38.1-23,60.4-23c22.3,0,43.7,8.2,60.4,23c1.5,1.3,2.4,3.2,2.4,5.2s-0.9,3.9-2.4,5.2
							C378.6,276,357.1,284.2,334.8,284.2z M290.3,256c13,9.2,28.5,14.2,44.5,14.2s31.6-5,44.5-14.2c-13-9.2-28.5-14.2-44.5-14.2
							S303.3,246.8,290.3,256z"/>
					</g>
				</g>
			</g>
		</g>
		<g>
			<g>
				<g>
					<g>
						<path class="st4" d="M177.2,234.8c-21.4,0-40.9,8-55.8,21.2c14.8,13.2,34.4,21.2,55.8,21.2s40.9-8,55.8-21.2
							C218.1,242.8,198.6,234.8,177.2,234.8z"/>
					</g>
				</g>
				<g>
					<g>
						<path class="st5" d="M177.2,234.8c-21.4,0-40.9,8-55.8,21.2h111.6C218.1,242.8,198.6,234.8,177.2,234.8z"/>
					</g>
				</g>
			</g>
			<g>
				<g>
					<g>
						<path class="st3" d="M177.2,284.2c-22.3,0-43.7-8.2-60.4-23c-1.5-1.3-2.4-3.2-2.4-5.2s0.9-3.9,2.4-5.2
							c16.7-14.8,38.1-23,60.4-23c22.3,0,43.7,8.2,60.4,23c1.5,1.3,2.4,3.2,2.4,5.2s-0.9,3.9-2.4,5.2
							C220.9,276,199.4,284.2,177.2,284.2z M132.6,256c13,9.2,28.5,14.2,44.5,14.2s31.6-5,44.5-14.2c-13-9.2-28.5-14.2-44.5-14.2
							S145.6,246.8,132.6,256z"/>
					</g>
				</g>
			</g>
		</g>
	</g>
	<g>
		<g>
			<g>
				<g>
					<g>
						<path class="st4" d="M326.7,296.8c-15.1-15.1-34.6-23.3-54.4-24.5c1.2,19.8,9.3,39.3,24.5,54.4c15.1,15.1,34.6,23.3,54.4,24.5
							C350,331.4,341.9,311.9,326.7,296.8z"/>
					</g>
				</g>
				<g>
					<g>
						<path class="st5" d="M326.7,296.8c-15.1-15.1-34.6-23.3-54.4-24.5l78.9,78.9C350,331.4,341.9,311.9,326.7,296.8z"/>
					</g>
				</g>
			</g>
			<g>
				<g>
					<g>
						<path class="st3" d="M351.2,358.2c-0.1,0-0.3,0-0.4,0c-22.3-1.3-43.2-10.7-59-26.5c-15.8-15.8-25.2-36.7-26.5-59
							c-0.1-2,0.6-4,2-5.4s3.4-2.2,5.4-2c22.3,1.3,43.2,10.7,59,26.5c15.8,15.8,25.2,36.7,26.5,59c0.1,2-0.6,4-2,5.4
							C354.8,357.5,353,358.2,351.2,358.2z M280.3,280.3c2.7,15.7,10.1,30.2,21.5,41.5c11.3,11.3,25.9,18.8,41.5,21.5
							c-2.7-15.7-10.1-30.2-21.5-41.5C310.4,290.4,295.9,282.9,280.3,280.3z"/>
					</g>
				</g>
			</g>
		</g>
		<g>
			<g>
				<g>
					<g>
						<path class="st4" d="M215.2,185.3c-15.1-15.1-34.6-23.3-54.4-24.5c1.2,19.8,9.3,39.3,24.5,54.4c15.1,15.1,34.6,23.3,54.4,24.5
							C238.5,219.9,230.4,200.4,215.2,185.3z"/>
					</g>
				</g>
				<g>
					<g>
						<path class="st5" d="M215.2,185.3c-15.1-15.1-34.6-23.3-54.4-24.5l78.9,78.9C238.5,219.9,230.4,200.4,215.2,185.3z"/>
					</g>
				</g>
			</g>
			<g>
				<g>
					<g>
						<path class="st3" d="M239.7,246.7c-0.1,0-0.3,0-0.4,0c-22.3-1.3-43.2-10.7-59-26.5c-15.8-15.8-25.2-36.7-26.5-59
							c-0.1-2,0.6-4,2-5.4c1.4-1.4,3.4-2.2,5.4-2c22.3,1.3,43.2,10.7,59,26.5l0,0c15.8,15.8,25.2,36.7,26.5,59c0.1,2-0.6,4-2,5.4
							C243.3,246,241.5,246.7,239.7,246.7z M168.8,168.8c2.7,15.7,10.1,30.2,21.5,41.5c11.3,11.3,25.9,18.8,41.5,21.5
							c-2.7-15.7-10.1-30.2-21.5-41.5C198.9,178.9,184.4,171.4,168.8,168.8z"/>
					</g>
				</g>
			</g>
		</g>
	</g>
	<g>
		<g>
			<g>
				<g>
					<g>
						<path class="st4" d="M215.2,326.7c15.1-15.1,23.3-34.6,24.5-54.4c-19.8,1.2-39.3,9.3-54.4,24.5
							c-15.1,15.1-23.3,34.6-24.5,54.4C180.6,350,200.1,341.9,215.2,326.7z"/>
					</g>
				</g>
				<g>
					<g>
						<path class="st5" d="M215.2,326.7c15.1-15.1,23.3-34.6,24.5-54.4l-78.9,78.9C180.6,350,200.1,341.9,215.2,326.7z"/>
					</g>
				</g>
			</g>
			<g>
				<g>
					<g>
						<path class="st3" d="M160.8,358.2c-1.9,0-3.6-0.7-4.9-2.1c-1.4-1.4-2.2-3.4-2-5.4c1.3-22.3,10.7-43.2,26.5-59
							c15.8-15.8,36.7-25.2,59-26.5c2-0.1,4,0.6,5.4,2c1.4,1.4,2.2,3.4,2,5.4c-1.3,22.3-10.7,43.2-26.5,59l0,0
							c-15.8,15.8-36.7,25.2-59,26.5C161.1,358.2,160.9,358.2,160.8,358.2z M231.7,280.3c-15.7,2.7-30.2,10.1-41.5,21.5
							c-11.3,11.3-18.8,25.9-21.5,41.5c15.7-2.7,30.2-10.1,41.5-21.5C221.6,310.4,229.1,295.9,231.7,280.3z M215.2,326.7
							L215.2,326.7L215.2,326.7z"/>
					</g>
				</g>
			</g>
		</g>
		<g>
			<g>
				<g>
					<g>
						<path class="st4" d="M326.7,215.2c15.1-15.1,23.3-34.6,24.5-54.4c-19.8,1.2-39.3,9.3-54.4,24.5
							c-15.1,15.1-23.3,34.6-24.5,54.4C292.1,238.5,311.6,230.4,326.7,215.2z"/>
					</g>
				</g>
				<g>
					<g>
						<path class="st5" d="M326.7,215.2c15.1-15.1,23.3-34.6,24.5-54.4l-78.9,78.9C292.1,238.5,311.6,230.4,326.7,215.2z"/>
					</g>
				</g>
			</g>
			<g>
				<g>
					<g>
						<path class="st3" d="M272.3,246.7c-1.9,0-3.6-0.7-4.9-2.1c-1.4-1.4-2.2-3.4-2-5.4c1.3-22.3,10.7-43.2,26.5-59
							c15.8-15.8,36.7-25.2,59-26.5c2-0.1,4,0.6,5.4,2c1.4,1.4,2.2,3.4,2,5.4c-1.3,22.3-10.7,43.2-26.5,59
							c-15.8,15.8-36.7,25.2-59,26.5C272.6,246.7,272.4,246.7,272.3,246.7z M343.2,168.8c-15.7,2.7-30.2,10.1-41.5,21.5
							c-11.3,11.3-18.8,25.9-21.5,41.5c15.7-2.7,30.2-10.1,41.5-21.5C333.1,198.9,340.6,184.4,343.2,168.8z"/>
					</g>
				</g>
			</g>
		</g>
	</g>
	<g>
		<g>
			<g>
				<circle class="st7" cx="256" cy="256" r="47.3"/>
			</g>
		</g>
		<g>
			<g>
				<circle class="st6" cx="268" cy="244" r="35.3"/>
			</g>
		</g>
		<g>
			<g>
				<path class="st3" d="M256,310.3c-30,0-54.3-24.4-54.3-54.3s24.4-54.3,54.3-54.3s54.3,24.4,54.3,54.3S286,310.3,256,310.3z
					 M256,215.7c-22.2,0-40.3,18.1-40.3,40.3s18.1,40.3,40.3,40.3s40.3-18.1,40.3-40.3S278.2,215.7,256,215.7z"/>
			</g>
		</g>
		<g>
			<g>
				<path class="st0" d="M267,237.1c-3.3-1.9-7.1-3-11-3v-10c5.6,0,11.2,1.5,16,4.3L267,237.1z"/>
			</g>
		</g>
		<g>
			<g>
				<path class="st0" d="M287.8,256h-10c0-5.8-2.3-11.3-6.4-15.4l7.1-7.1C284.5,239.5,287.8,247.5,287.8,256z"/>
			</g>
		</g>
	</g>
</g>
</svg>
