<svg xmlns="http://www.w3.org/2000/svg" viewBox="0 0 512 512"><defs><style>.cls-1{fill:#77bba8;}.cls-2{fill:#8fc6b8;}.cls-3{fill:#d0d0cf;}.cls-4{fill:#fff;}.cls-5{fill:#cd458f;}.cls-6{fill:#b7177d;}.cls-7{fill:#b53e83;}.cls-8{fill:#9e2376;}.cls-9{fill:#ac3030;}.cls-10{fill:#cf4849;}.cls-11{fill:#b74248;}</style></defs><title>Gifts</title><g id="BULINE"><circle class="cls-1" cx="256" cy="256" r="256"/></g><g id="Icons"><path class="cls-2" d="M512,256a256.56,256.56,0,0,1-7.36,61.19,278.79,278.79,0,0,1-150.6.73q-11.27-3.09-22.13-7.13a275.24,275.24,0,0,1-48.39-23.49l-2.25-1.39c-1.58-1-3.15-2-4.71-3q-8.16-5.32-15.9-11.21-2-1.51-4-3.06L255,267.25l-1.82-1.47-1.57-1.28q-9.47-7.83-18.21-16.47-7.5-7.38-14.42-15.34c-.51-.58-1-1.16-1.51-1.75q-5.62-6.57-10.84-13.48s0,0,0,0q-8.28-11-15.46-22.76a275.6,275.6,0,0,1-35.85-94.43q-1.67-9.17-2.7-18.53a0,0,0,0,1,0,0,280,280,0,0,1-.23-59.83A256.54,256.54,0,0,1,366.45,25c2.34,1.11,4.67,2.27,7,3.46h0a254.39,254.39,0,0,1,27.12,16.23q9.24,6.31,17.88,13.43a257.77,257.77,0,0,1,37.3,37.72q5,6.22,9.6,12.75A254.85,254.85,0,0,1,512,256Z"/><path class="cls-3" d="M276.56,202.59V483.4A21.61,21.61,0,0,1,255,505h0a21.59,21.59,0,0,1-21.58-21.6V202.59A21.6,21.6,0,0,1,254.94,181h0a21.61,21.61,0,0,1,21.6,21.61Z"/><path class="cls-4" d="M276.56,202.59V483.4a21.59,21.59,0,0,1-10.8,18.7A21.57,21.57,0,0,1,255,483.4V202.59a21.57,21.57,0,0,1,10.8-18.71A21.59,21.59,0,0,1,276.56,202.59Z"/><circle class="cls-5" cx="254.95" cy="119.59" r="109.14"/><rect class="cls-6" x="126.77" y="100.26" width="256.37" height="52.3" rx="23"/><path class="cls-7" d="M203,100.26A109.29,109.29,0,0,1,282.69,14a109.25,109.25,0,0,0-135.27,86.84,26.16,26.16,0,0,1,5.49-.59Z"/><path class="cls-7" d="M206.37,152.56H152.91c-.69,0-1.38,0-2.06-.09a109.28,109.28,0,0,0,131.84,72.7A109.33,109.33,0,0,1,206.37,152.56Z"/><path class="cls-8" d="M201.29,119.59A110,110,0,0,1,203,100.26H152.91a26.18,26.18,0,0,0-26.14,26.15h0a26.14,26.14,0,0,0,24.08,26.06c.68.06,1.37.09,2.06.09h53.46A109.16,109.16,0,0,1,201.29,119.59Z"/><path class="cls-9" d="M257.05,292.45c0-48.3-39.89-62.62-59-66.7a32.33,32.33,0,0,0-36.65,49,23.83,23.83,0,0,1-.13,26.67,32.21,32.21,0,0,0-5.48,18.1c0,18.08,15.62,32.43,33.7,32.23C259.26,351,257.05,292.45,257.05,292.45Z"/><path class="cls-10" d="M252.85,291.28c0-35.72-29.5-46.31-43.6-49.34a23.91,23.91,0,0,0-27.11,36.22,17.63,17.63,0,0,1-.09,19.73A23.85,23.85,0,0,0,178,311.28c0,13.37,11.55,24,24.93,23.84C254.49,334.56,252.85,291.28,252.85,291.28Z"/><path class="cls-9" d="M252.86,292.45c0-48.3,39.89-62.62,59-66.7a32.32,32.32,0,0,1,36.64,49,23.83,23.83,0,0,0,.13,26.67,32.13,32.13,0,0,1,5.48,18.1c0,18.08-15.62,32.43-33.69,32.23C250.65,351,252.86,292.45,252.86,292.45Z"/><path class="cls-10" d="M257.06,291.28c0-35.72,29.5-46.31,43.61-49.34a23.91,23.91,0,0,1,27.1,36.22,17.67,17.67,0,0,0,.09,19.73,23.77,23.77,0,0,1,4.06,13.39c0,13.37-11.55,24-24.92,23.84C255.42,334.56,257.06,291.28,257.06,291.28Z"/><path class="cls-9" d="M257.06,291.28,196.27,458.7a2.31,2.31,0,0,0,3.34,2.77l14.57-8.65A14,14,0,0,1,233,457.06l1.66,2.46a2.3,2.3,0,0,0,4.2-1Z"/><path class="cls-9" d="M253.54,291.28,314.33,458.7a2.31,2.31,0,0,1-3.34,2.77l-14.57-8.65a14,14,0,0,0-18.77,4.24L276,459.52a2.3,2.3,0,0,1-4.2-1Z"/><path class="cls-9" d="M284,292.45a27,27,0,1,1-1.61-9.18A27,27,0,0,1,284,292.45Z"/><path class="cls-11" d="M282.4,283.27a27,27,0,0,1-50.7,0,27,27,0,0,1,50.7,0Z"/></g></svg>