<?xml version="1.0" encoding="UTF-8"?>
<!DOCTYPE svg PUBLIC "-//W3C//DTD SVG 1.1//EN" "http://www.w3.org/Graphics/SVG/1.1/DTD/svg11.dtd">
<!-- Creator: CorelDRAW -->
<svg xmlns="http://www.w3.org/2000/svg" xml:space="preserve" width="6.82666in" height="6.82666in" style="shape-rendering:geometricPrecision; text-rendering:geometricPrecision; image-rendering:optimizeQuality; fill-rule:evenodd; clip-rule:evenodd"
viewBox="0 0 6.82666 6.82666"
 xmlns:xlink="http://www.w3.org/1999/xlink">
 <defs>
  <style type="text/css">
   <![CDATA[
    .fil2 {fill:none}
    .fil1 {fill:#26C6DA}
    .fil9 {fill:#391F0B}
    .fil0 {fill:#4DD0E1}
    .fil4 {fill:#558B2F}
    .fil3 {fill:#689F38}
    .fil8 {fill:#AA4340}
    .fil7 {fill:#C54B4D}
    .fil6 {fill:#DE555E}
    .fil5 {fill:#73AB3E;fill-rule:nonzero}
   ]]>
  </style>
   <clipPath id="id0">
    <path d="M3.41333 -3.93701e-006c1.88513,0 3.41333,1.5282 3.41333,3.41333 0,1.88513 -1.5282,3.41333 -3.41333,3.41333 -1.88513,0 -3.41333,-1.5282 -3.41333,-3.41333 0,-1.88513 1.5282,-3.41333 3.41333,-3.41333z"/>
   </clipPath>
 </defs>
 <g id="Layer_x0020_1">
  <metadata id="CorelCorpID_0Corel-Layer"/>
  <path class="fil0" d="M3.41333 -3.93701e-006c1.88513,0 3.41333,1.5282 3.41333,3.41333 0,1.88513 -1.5282,3.41333 -3.41333,3.41333 -1.88513,0 -3.41333,-1.5282 -3.41333,-3.41333 0,-1.88513 1.5282,-3.41333 3.41333,-3.41333z"/>
  <g style="clip-path:url(#id0)">
   <g id="_457192616">
    <g>
     <polygon id="_4607543921" class="fil1" points="4.20599,3.19051 7.99226,6.97678 7.99669,6.99678 8.00007,7.01678 8.00243,7.03673 8.00378,7.05662 8.00415,7.0764 8.00354,7.09606 8.00198,7.11556 7.99948,7.13487 7.99606,7.15396 7.99174,7.1728 7.98653,7.19135 7.98046,7.2096 7.97353,7.22751 7.96578,7.24505 7.95721,7.26219 7.94784,7.2789 7.9377,7.29515 7.92679,7.31091 7.91514,7.32615 7.90276,7.34083 7.88967,7.35494 7.87589,7.36844 7.86143,7.38129 7.84632,7.39348 7.83057,7.40496 7.81419,7.41571 7.79722,7.4257 7.77965,7.4349 7.76152,7.44328 7.74283,7.4508 7.72361,7.45745 7.70387,7.46318 3.9176,3.67691 3.93734,3.67118 3.95656,3.66453 3.97525,3.657 3.99338,3.64863 4.01095,3.63943 4.02793,3.62944 4.0443,3.61869 4.06005,3.6072 4.07517,3.59502 4.08962,3.58217 4.1034,3.56867 4.11649,3.55456 4.12887,3.53987 4.14052,3.52464 4.15143,3.50888 4.16157,3.49263 4.17094,3.47592 4.17951,3.45878 4.18726,3.44124 4.19419,3.42333 4.20026,3.40508 4.20547,3.38652 4.20979,3.36769 4.21321,3.34859 4.21571,3.32929 4.21727,3.30979 4.21788,3.29013 4.21752,3.27035 4.21616,3.25046 4.2138,3.2305 4.21042,3.21051 "/>
     <polygon id="_460754728" class="fil1" points="2.86126,3.64958 6.64752,7.43585 6.67302,7.46348 6.69507,7.49213 6.71379,7.52162 6.72925,7.55178 6.74156,7.58242 6.75081,7.61336 6.75709,7.64443 6.76049,7.67544 6.76111,7.70621 6.75904,7.73657 6.75438,7.76633 6.74722,7.79531 6.73765,7.82334 6.72576,7.85023 6.71166,7.8758 6.69543,7.89987 2.90916,4.1136 2.92539,4.08953 2.9395,4.06396 2.95138,4.03707 2.96095,4.00904 2.96811,3.98006 2.97278,3.9503 2.97484,3.91994 2.97422,3.88917 2.97082,3.85816 2.96454,3.82709 2.95529,3.79615 2.94298,3.7655 2.92752,3.73535 2.90881,3.70585 2.88675,3.6772 "/>
     <polygon id="_460755208" class="fil1" points="2.90916,4.1136 6.69543,7.89987 6.6981,7.90396 6.70077,7.90804 6.70344,7.91213 6.7061,7.91622 6.70876,7.92031 6.71142,7.92441 6.71407,7.92851 6.71672,7.93261 6.71937,7.93671 6.72202,7.94081 6.72467,7.94491 6.72731,7.94902 6.72996,7.95313 6.7326,7.95723 6.73524,7.96134 6.73789,7.96544 6.74053,7.96956 6.74317,7.97366 6.74582,7.97777 6.74846,7.98188 6.75111,7.98599 6.75376,7.99009 6.75641,7.9942 6.75907,7.99831 6.76173,8.00241 6.76439,8.00652 6.76705,8.01062 6.76972,8.01472 6.77239,8.01882 6.77507,8.02292 6.77775,8.02701 6.78044,8.03111 2.99417,4.24483 2.99148,4.24074 2.9888,4.23665 2.98613,4.23255 2.98345,4.22845 2.98078,4.22435 2.97812,4.22024 2.97546,4.21614 2.9728,4.21204 2.97015,4.20793 2.9675,4.20382 2.96485,4.19972 2.9622,4.19561 2.95955,4.1915 2.95691,4.18739 2.95426,4.18328 2.95162,4.17917 2.94898,4.17507 2.94633,4.17096 2.94369,4.16685 2.94105,4.16275 2.9384,4.15864 2.93576,4.15454 2.93311,4.15044 2.93046,4.14633 2.92781,4.14224 2.92515,4.13814 2.9225,4.13404 2.91983,4.12995 2.91717,4.12586 2.9145,4.12177 2.91183,4.11769 "/>
     <polygon id="_460755256" class="fil1" points="3.30232,3.47759 7.08859,7.26386 7.07475,7.26931 7.06077,7.27423 7.04664,7.27862 7.0324,7.28248 7.01805,7.2858 7.00361,7.2886 6.9891,7.29087 6.97453,7.29261 6.95991,7.29382 6.94527,7.2945 6.93062,7.29465 6.91597,7.29427 6.90134,7.29336 6.88675,7.29192 6.8722,7.28995 6.85772,7.28745 6.84333,7.28443 6.82903,7.28087 6.81484,7.27678 6.80079,7.27216 6.78687,7.26702 6.77312,7.26134 6.75954,7.25514 6.74616,7.24841 6.73298,7.24114 6.72002,7.23335 6.7073,7.22503 6.69483,7.21618 6.68263,7.2068 6.67072,7.1969 6.6591,7.18646 6.6478,7.1755 2.86154,3.38922 2.87283,3.40019 2.88445,3.41063 2.89636,3.42053 2.90856,3.42991 2.92103,3.43876 2.93375,3.44708 2.94671,3.45487 2.95989,3.46213 2.97328,3.46887 2.98685,3.47507 3.00061,3.48074 3.01452,3.48589 3.02857,3.49051 3.04276,3.49459 3.05706,3.49815 3.07146,3.50118 3.08593,3.50368 3.10048,3.50565 3.11507,3.50709 3.1297,3.508 3.14435,3.50838 3.159,3.50823 3.17365,3.50755 3.18826,3.50634 3.20283,3.5046 3.21734,3.50233 3.23178,3.49953 3.24613,3.4962 3.26037,3.49235 3.2745,3.48796 3.28848,3.48304 "/>
     <polygon id="_460756432" class="fil1" points="1.92595,3.50823 5.71222,7.2945 5.69607,7.2801 1.9098,3.49383 "/>
     <polygon id="_460756216" class="fil1" points="2.88383,4.14361 6.6701,7.92989 6.65808,7.94176 6.64543,7.95293 6.63215,7.96337 6.61828,7.97303 6.60382,7.98189 6.58881,7.98991 6.57325,7.99706 6.55717,8.00328 6.54058,8.00855 6.52351,8.01284 6.50597,8.0161 6.48798,8.0183 6.46957,8.01941 6.45074,8.01937 6.43152,8.01818 6.41193,8.01577 6.39198,8.01213 6.3717,8.0072 6.3511,8.00096 6.33021,7.99337 6.30903,7.98439 6.2876,7.97399 6.26592,7.96213 6.24402,7.94878 6.22193,7.93389 6.19964,7.91743 6.17719,7.89936 6.15459,7.87966 2.36832,4.09339 2.39092,4.11309 2.41337,4.13116 2.43566,4.14761 2.45776,4.1625 2.47965,4.17586 2.50133,4.18772 2.52276,4.19812 2.54394,4.2071 2.56483,4.21469 2.58543,4.22093 2.60572,4.22585 2.62566,4.2295 2.64525,4.23191 2.66447,4.2331 2.6833,4.23313 2.70172,4.23203 2.7197,4.22983 2.73724,4.22657 2.75431,4.22228 2.7709,4.21701 2.78698,4.21078 2.80254,4.20364 2.81756,4.19562 2.83201,4.18676 2.84589,4.17709 2.85916,4.16665 2.87181,4.15548 "/>
     <polygon id="_460756120" class="fil1" points="2.33505,5.2607 6.12131,9.04697 6.11468,9.05204 6.1077,9.05632 6.10043,9.05984 6.09294,9.06258 6.08528,9.06457 6.07751,9.06579 6.06969,9.06626 6.06187,9.06598 6.05411,9.06496 6.04647,9.0632 6.03901,9.06071 6.03178,9.05748 6.02485,9.05354 6.01827,9.04887 2.232,5.2626 2.23858,5.26727 2.24552,5.27121 2.25274,5.27444 2.2602,5.27693 2.26784,5.27869 2.2756,5.27971 2.28342,5.27999 2.29124,5.27952 2.29902,5.2783 2.30668,5.27631 2.31417,5.27357 2.32143,5.27005 2.32841,5.26576 "/>
     <polygon id="_460756360" class="fil1" points="3.1291,4.33696 6.91537,8.12323 6.91231,8.12842 6.90925,8.13361 6.90618,8.13879 6.90309,8.14397 6.9,8.14915 6.89689,8.15431 6.89378,8.15948 6.89065,8.16464 6.88751,8.1698 6.88436,8.17495 6.8812,8.1801 6.87803,8.18525 6.87485,8.19039 6.87166,8.19552 6.86845,8.20066 6.86524,8.20578 3.07897,4.41951 3.08219,4.41439 3.08539,4.40925 3.08858,4.40412 3.09176,4.39898 3.09493,4.39383 3.09809,4.38868 3.10124,4.38353 3.10438,4.37837 3.10751,4.37321 3.11063,4.36804 3.11373,4.36287 3.11683,4.3577 3.11991,4.35252 3.12298,4.34733 3.12605,4.34215 "/>
     <polygon id="_460756576" class="fil1" points="3.07897,4.41951 6.86524,8.20578 6.84719,8.23417 6.8288,8.26243 6.81008,8.29054 6.79102,8.31852 6.77163,8.34637 6.7519,8.37408 6.73183,8.40165 6.71144,8.42909 6.6907,8.45639 6.66963,8.48356 6.64822,8.51059 6.62648,8.53749 6.60441,8.56425 6.582,8.59087 6.55925,8.61737 6.53617,8.64372 6.51275,8.66994 6.489,8.69602 6.46491,8.72197 6.44049,8.74778 6.41573,8.77346 6.39064,8.799 6.36521,8.82441 6.33945,8.84968 6.31335,8.87481 6.28692,8.89981 6.26016,8.92468 6.23306,8.94941 6.20562,8.974 6.17785,8.99846 6.14975,9.02278 6.12131,9.04697 2.33505,5.2607 2.36348,5.23651 2.39159,5.21219 2.41935,5.18773 2.44679,5.16314 2.47389,5.13841 2.50065,5.11354 2.52709,5.08854 2.55318,5.06341 2.57894,5.03813 2.60437,5.01273 2.62946,4.98719 2.65422,4.96151 2.67864,4.9357 2.70273,4.90975 2.72648,4.88367 2.7499,4.85745 2.77298,4.83109 2.79573,4.8046 2.81814,4.77798 2.84022,4.75122 2.86196,4.72432 2.88336,4.69729 2.90443,4.67012 2.92517,4.64282 2.94557,4.61538 2.96563,4.58781 2.98536,4.56009 3.00476,4.53225 3.02381,4.50427 3.04253,4.47615 3.06092,4.4479 "/>
     <polygon id="_460756000" class="fil1" points="2.8597,2.82375 6.64597,6.61002 6.62644,6.60385 6.60743,6.59679 6.58896,6.58885 6.57107,6.58008 6.55375,6.5705 6.53703,6.56015 6.52093,6.54905 6.50545,6.53723 6.49063,6.52472 6.47647,6.51156 2.6902,2.72529 2.70436,2.73845 2.71919,2.75096 2.73466,2.76278 2.75076,2.77388 2.76748,2.78423 2.7848,2.79381 2.8027,2.80258 2.82116,2.81052 2.84017,2.81758 "/>
     <polygon id="_460756672" class="fil1" points="3.46695,3.49043 7.25322,7.2767 7.24707,7.3026 7.24071,7.32841 7.23413,7.35414 7.22734,7.37979 7.22033,7.40535 7.21311,7.43083 7.20567,7.45622 7.19801,7.48152 7.19013,7.50675 7.18204,7.53189 7.17374,7.55694 7.16522,7.58191 7.15648,7.60679 7.14752,7.63159 7.13835,7.65631 7.12897,7.68094 7.11937,7.70549 7.10955,7.72995 7.09952,7.75433 7.08927,7.77862 7.0788,7.80283 7.06813,7.82696 7.05723,7.851 7.04612,7.87495 7.03479,7.89883 7.02325,7.92261 7.01149,7.94631 6.99952,7.96994 6.98733,7.99347 6.97493,8.01692 6.9623,8.04029 6.94947,8.06357 3.1632,4.2773 3.17604,4.25402 3.18866,4.23065 3.20106,4.2072 3.21325,4.18367 3.22522,4.16004 3.23698,4.13634 3.24852,4.11256 3.25985,4.08868 3.27096,4.06472 3.28186,4.04069 3.29254,4.01656 3.303,3.99235 3.31325,3.96806 3.32328,3.94368 3.3331,3.91922 3.3427,3.89467 3.35209,3.87004 3.36126,3.84532 3.37021,3.82052 3.37895,3.79564 3.38747,3.77067 3.39578,3.74561 3.40387,3.72048 3.41174,3.69525 3.4194,3.66994 3.42684,3.64456 3.43406,3.61908 3.44107,3.59352 3.44787,3.56787 3.45444,3.54214 3.4608,3.51633 "/>
     <polygon id="_460756168" class="fil1" points="3.9176,3.67691 7.70387,7.46318 7.68707,7.46723 7.67027,7.47054 7.65348,7.47312 7.63673,7.47498 7.62003,7.47613 7.6034,7.47657 7.58685,7.47633 7.57041,7.47541 7.55409,7.47382 7.53791,7.47157 7.52188,7.46868 7.50603,7.46515 7.49037,7.46099 7.47493,7.45621 7.45971,7.45083 7.44474,7.44485 7.43003,7.43829 7.4156,7.43115 7.40148,7.42345 7.38767,7.4152 7.37419,7.4064 7.36107,7.39706 7.34833,7.38721 7.33596,7.37684 7.32401,7.36597 7.31248,7.35461 3.52622,3.56834 3.53774,3.5797 3.5497,3.59057 3.56206,3.60094 3.57481,3.61079 3.58793,3.62013 3.6014,3.62893 3.61521,3.63718 3.62933,3.64488 3.64376,3.65202 3.65847,3.65858 3.67344,3.66456 3.68866,3.66994 3.7041,3.67472 3.71976,3.67887 3.73561,3.68241 3.75164,3.6853 3.76782,3.68755 3.78414,3.68914 3.80058,3.69006 3.81713,3.6903 3.83376,3.68985 3.85046,3.6887 3.86722,3.68685 3.884,3.68427 3.9008,3.68096 "/>
     <polygon id="_460756336" class="fil1" points="3.35868,4.31219 7.14495,8.09846 7.1379,8.09926 7.13084,8.10006 7.12378,8.10086 7.11671,8.10166 7.10963,8.10247 7.10256,8.10328 7.09546,8.10409 7.08837,8.10491 7.08127,8.10572 7.07416,8.10653 7.06704,8.10735 7.05992,8.10816 7.05278,8.10897 7.04564,8.10978 7.03849,8.11058 7.03133,8.11138 7.02417,8.11218 7.01698,8.11297 7.0098,8.11376 7.0026,8.11454 6.99539,8.11531 6.98817,8.11608 6.98094,8.11684 6.9737,8.11759 6.96646,8.11833 6.95919,8.11907 6.95192,8.11979 6.94463,8.1205 6.93733,8.1212 6.93002,8.12189 6.9227,8.12257 6.91537,8.12323 3.1291,4.33696 3.13643,4.3363 3.14376,4.33562 3.15107,4.33493 3.15837,4.33423 3.16565,4.33352 3.17293,4.3328 3.18019,4.33206 3.18744,4.33132 3.19468,4.33057 3.20191,4.32981 3.20913,4.32904 3.21633,4.32827 3.22353,4.32749 3.23072,4.3267 3.2379,4.32591 3.24506,4.32511 3.25222,4.32431 3.25937,4.3235 3.26652,4.3227 3.27365,4.32189 3.28078,4.32107 3.28789,4.32026 3.295,4.31945 3.3021,4.31863 3.3092,4.31782 3.31629,4.31701 3.32337,4.3162 3.33044,4.31539 3.33751,4.31459 3.34457,4.31378 3.35163,4.31298 "/>
     <polygon id="_460756288" class="fil1" points="3.76645,1.68516 7.55272,5.47143 7.5651,5.48635 7.57679,5.50193 7.58776,5.51812 7.59798,5.53493 7.60741,5.55233 7.61603,5.5703 7.62381,5.58883 7.63072,5.60789 7.63673,5.62748 3.85046,1.84121 3.84445,1.82162 3.83755,1.80256 3.82976,1.78402 3.82114,1.76606 3.81171,1.74866 3.80149,1.73185 3.79052,1.71565 3.77883,1.70008 "/>
     <polygon id="_460756024" class="fil1" points="4.43,1.8627 8.21626,5.64898 8.22946,5.66445 8.24174,5.68041 8.25312,5.69683 8.26359,5.71367 8.27316,5.73089 8.28181,5.74846 8.28956,5.76634 8.29641,5.78451 8.30234,5.80292 8.30737,5.82154 8.3115,5.84033 8.31472,5.85927 8.31703,5.87831 8.31844,5.89743 8.31894,5.91658 8.31854,5.93573 8.31723,5.95485 8.31502,5.9739 8.3119,5.99284 8.30788,6.01165 8.30295,6.03029 8.29713,6.04872 8.29039,6.06691 8.28275,6.08481 8.27421,6.10241 8.26477,6.11966 8.25442,6.13653 8.24317,6.15298 8.23102,6.16898 8.21796,6.1845 8.204,6.1995 4.41773,2.41322 4.43169,2.39823 4.44475,2.38271 4.4569,2.36671 4.46815,2.35026 4.4785,2.33339 4.48794,2.31614 4.49648,2.29854 4.50412,2.28063 4.51086,2.26244 4.51669,2.24402 4.52161,2.22538 4.52563,2.20657 4.52875,2.18763 4.53096,2.16857 4.53227,2.14946 4.53267,2.13031 4.53217,2.11116 4.53076,2.09204 4.52845,2.073 4.52523,2.05406 4.52111,2.03527 4.51607,2.01665 4.51014,1.99824 4.5033,1.98007 4.49555,1.96219 4.48689,1.94462 4.47732,1.9274 4.46685,1.91056 4.45548,1.89414 4.44319,1.87818 "/>
     <polygon id="_460757152" class="fil1" points="4.60069,2.52547 8.38696,6.31174 8.39973,6.32613 8.41178,6.34107 8.42309,6.35656 8.43365,6.37255 8.44343,6.38902 8.45243,6.40593 8.46063,6.42325 8.468,6.44096 8.47453,6.45903 8.4802,6.47742 8.485,6.4961 8.4889,6.51504 8.4919,6.53422 8.49397,6.55361 8.49509,6.57316 8.49526,6.59286 8.49444,6.61267 8.49263,6.63257 8.48981,6.65252 8.48595,6.67248 8.48105,6.69244 4.69478,2.90617 4.69968,2.88621 4.70354,2.86624 4.70636,2.8463 4.70817,2.8264 4.70899,2.80659 4.70883,2.78689 4.7077,2.76733 4.70563,2.74795 4.70263,2.72877 4.69873,2.70983 4.69393,2.69115 4.68826,2.67276 4.68173,2.65469 4.67436,2.63698 4.66617,2.61966 4.65717,2.60274 4.64738,2.58628 4.63682,2.57029 4.62551,2.5548 4.61346,2.53985 "/>
     <polygon id="_460756912" class="fil1" points="4.69478,2.90617 8.48105,6.69244 8.47515,6.71213 8.46835,6.7313 8.46067,6.74991 8.45214,6.76798 8.44279,6.78546 8.43266,6.80235 8.42177,6.81864 8.41016,6.83429 8.39785,6.8493 8.38487,6.86365 8.37126,6.87731 8.35705,6.89028 8.34226,6.90254 8.32693,6.91406 8.31107,6.92484 8.29474,6.93485 8.27796,6.94408 8.26074,6.9525 8.24314,6.96011 8.22517,6.96689 8.20687,6.97281 8.18827,6.97786 8.1694,6.98203 8.15028,6.98529 8.13095,6.98763 8.11144,6.98904 8.09178,6.98948 8.072,6.98896 8.05213,6.98744 8.03219,6.98492 8.01222,6.98137 7.99226,6.97678 4.20599,3.19051 4.22596,3.1951 4.24592,3.19865 4.26586,3.20117 4.28573,3.20269 4.30551,3.20321 4.32517,3.20276 4.34469,3.20136 4.36401,3.19902 4.38313,3.19576 4.402,3.19159 4.42061,3.18654 4.43891,3.18062 4.45687,3.17384 4.47448,3.16623 4.49169,3.15781 4.50847,3.14858 4.52481,3.13857 4.54066,3.12779 4.55599,3.11627 4.57078,3.10401 4.585,3.09104 4.59861,3.07737 4.61158,3.06303 4.62389,3.04802 4.6355,3.03237 4.64639,3.01608 4.65652,2.99919 4.66587,2.9817 4.6744,2.96364 4.68208,2.94502 4.68888,2.92586 "/>
     <polygon id="_460757176" class="fil1" points="4.52257,4.26506 8.30883,8.05133 8.37385,8.12394 8.43931,8.20432 8.50508,8.29274 8.57105,8.38945 8.63711,8.49471 8.70313,8.60878 4.91686,4.82251 4.85084,4.70844 4.78478,4.60318 4.71881,4.50647 4.65304,4.41805 4.58759,4.33767 "/>
     <polygon id="_460757272" class="fil1" points="4.91686,4.82251 8.70313,8.60878 8.67331,8.60346 8.6435,8.59904 8.6137,8.59546 8.58396,8.5927 8.55426,8.59068 8.52464,8.58937 8.49511,8.58871 8.46568,8.58866 8.43637,8.58917 8.40719,8.59017 8.37816,8.59164 8.3493,8.59351 8.32062,8.59574 8.29213,8.59828 8.26387,8.60107 8.23582,8.60408 8.20803,8.60724 8.18049,8.61052 8.15323,8.61386 8.12626,8.61721 8.09959,8.62052 8.07326,8.62374 8.04726,8.62683 8.02161,8.62974 7.99633,8.63241 7.97144,8.63479 7.94695,8.63683 7.92288,8.6385 7.89924,8.63974 7.87606,8.64048 7.85333,8.6407 7.83108,8.64034 4.04481,4.85407 4.06706,4.85443 4.08979,4.85421 4.11298,4.85346 4.13661,4.85223 4.16069,4.85056 4.18518,4.84852 4.21007,4.84613 4.23534,4.84346 4.26099,4.84056 4.28699,4.83747 4.31333,4.83425 4.33999,4.83094 4.36696,4.82759 4.39422,4.82425 4.42176,4.82097 4.44956,4.81781 4.4776,4.8148 4.50587,4.812 4.53435,4.80946 4.56303,4.80724 4.59189,4.80537 4.62092,4.8039 4.6501,4.80289 4.67941,4.80239 4.70884,4.80244 4.73837,4.8031 4.768,4.80441 4.79769,4.80643 4.82744,4.80919 4.85723,4.81276 4.88704,4.81719 "/>
     <polygon id="_460756792" class="fil1" points="4.04481,4.85407 7.83108,8.64034 7.78186,8.63806 7.73467,8.63432 7.68948,8.62916 7.64627,8.62263 7.60502,8.6148 7.56571,8.60571 7.5283,8.59541 7.49279,8.58396 7.45913,8.5714 7.42732,8.5578 7.39732,8.5432 7.36912,8.52765 7.34269,8.5112 7.31799,8.49393 7.29502,8.47585 7.27375,8.45704 3.48748,4.67077 3.50876,4.68958 3.53172,4.70765 3.55642,4.72493 3.58285,4.74138 3.61106,4.75693 3.64106,4.77153 3.67287,4.78513 3.70652,4.79769 3.74204,4.80914 3.77944,4.81944 3.81876,4.82853 3.86,4.83636 3.90321,4.84289 3.9484,4.84805 3.99559,4.85179 "/>
    </g>
    <path id="_457192904" class="fil1" d="M3.36982 4.25835c0.113894,-0.417484 0.843409,-0.700492 1.54704,0.564161 -0.318091,-0.0617559 -0.637378,0.0386969 -0.872047,0.031563 -0.535953,-0.0162913 -0.721555,-0.291878 -0.686134,-0.541878 -0.075185,0.00842913 -0.151264,0.0177638 -0.229583,0.0247638 -0.0162441,0.0277008 -0.0329528,0.0552205 -0.0501299,0.0825551 -0.19074,0.303531 -0.438807,0.583902 -0.743921,0.841189 -0.0343819,0.0290906 -0.0858346,0.0248031 -0.114925,-0.00957874 -0.0290906,-0.034378 -0.0248031,-0.0858346 0.0095748,-0.114925 0.292528,-0.246673 0.52974,-0.514484 0.711362,-0.803512 0.010252,-0.016311 0.0203268,-0.0326929 0.0302244,-0.0491457 -0.0306496,-0.0470945 -0.0589882,-0.0939606 -0.0874488,-0.139925 -0.124748,0.130193 -0.361382,0.147567 -0.606996,-0.146189 -0.107547,-0.128626 -0.192016,-0.352228 -0.367035,-0.503594 1.02057,-0.162878 1.18352,0.371618 0.999354,0.619772 0.0285669,0.0435354 0.0563228,0.0875787 0.0850157,0.131232 0.140039,-0.240984 0.242803,-0.496717 0.308146,-0.767248 -0.146701,0.0609567 -0.322004,0.0314134 -0.440783,-0.0883622 -0.155291,-0.156551 -0.155575,-0.408433 -0.00183071,-0.565476 -0.211146,-0.0608937 -0.335039,-0.280181 -0.277067,-0.492929 0.0579528,-0.212768 0.275933,-0.338941 0.488807,-0.284343 -0.0528425,-0.213303 0.0751496,-0.430236 0.288354,-0.486406 0.21326,-0.0562008 0.431512,0.0694764 0.490661,0.281138 0.158299,-0.152413 0.410161,-0.150028 0.565433,0.00654724 0.15526,0.156555 0.155543,0.408425 0.00183858,0.565469 0.211142,0.0608937 0.335,0.280181 0.277047,0.492949 -0.0579528,0.212728 -0.275933,0.338909 -0.488787,0.284335 0.0528346,0.213303 -0.0751496,0.43022 -0.288394,0.486402 -0.179083,0.0471969 -0.361717,-0.0339094 -0.45065,-0.18648 -0.0643898,0.276705 -0.165689,0.53898 -0.303748,0.786866 0.0690433,-0.00598031 0.137764,-0.013063 0.206618,-0.0189488z"/>
   </g>
  </g>
  <path class="fil2" d="M3.41333 -3.93701e-006c1.88513,0 3.41333,1.5282 3.41333,3.41333 0,1.88513 -1.5282,3.41333 -3.41333,3.41333 -1.88513,0 -3.41333,-1.5282 -3.41333,-3.41333 0,-1.88513 1.5282,-3.41333 3.41333,-3.41333z"/>
  <path class="fil3" d="M4.91686 4.82251c-0.318091,-0.0617559 -0.637378,0.0386969 -0.872047,0.031563 -1.48884,-0.045252 -0.274067,-2.09149 0.872047,-0.031563z"/>
  <path class="fil4" d="M3.11051 4.2816c0.342051,-0.0260394 0.673362,-0.0932874 1.04905,0.0758386 0.152232,0.0685315 0.192472,0.0742559 0.331303,0.177512l-0.00151575 -0.0011063c0.0523307,0.0474961 0.0664921,0.0737835 0.105756,0.128492 -0.0409094,-0.0364213 -0.0131457,-0.00917717 -0.0569016,-0.0584449 -0.105366,-0.118638 -0.248445,-0.159303 -0.390469,-0.218472 -0.399563,-0.166465 -0.716898,-0.0671535 -1.09356,-0.0426339l0.0563386 -0.061185z"/>
  <path class="fil4" d="M4.03692 4.31297c0.0198031,0.0179646 0.0393622,0.0370827 0.0586496,0.0575157 0.096815,0.102567 0.126398,0.12 0.201559,0.245374l-0.000826772 -0.00135039c0.025563,0.0539567 0.0281575,0.0790472 0.0411929,0.134425 -0.0202126,-0.041622 -0.00731102,-0.0114016 -0.0256063,-0.0639764 -0.0440709,-0.126606 -0.142713,-0.204461 -0.234575,-0.296433 -0.0201811,-0.0202047 -0.0404921,-0.0389843 -0.060937,-0.0564843 0.00902756,-0.00349213 0.0163819,-0.0103504 0.0205433,-0.0190709z"/>
  <path class="fil4" d="M3.71716 4.24731c0.00105118,0.00110236 0.0021063,0.0021811 0.00315748,0.00329528 0.114594,0.121406 0.14961,0.142039 0.238571,0.290437l-0.000980315 -0.00160236c0.0302638,0.0638661 0.0333307,0.0935669 0.0487598,0.159114 -0.0239252,-0.0492677 -0.00865354,-0.0134961 -0.0303071,-0.0757244 -0.0521654,-0.149858 -0.168921,-0.242012 -0.277654,-0.35087l-0.00235433 -0.00232677c0.00929134,-0.00476772 0.0167008,-0.0127126 0.0208071,-0.0223228z"/>
  <path class="fil4" d="M4.1868 4.39781c0.0177835,-0.0017126 0.0354016,-0.00419685 0.0528386,-0.00755118 0.0875315,-0.0168583 0.113713,-0.0140079 0.183531,-0.0534094l-0.000767717 0.00042126c0.0242126,-0.0199094 0.0274646,-0.0332126 0.0409488,-0.0593898 -0.0190984,0.0151417 -0.00675984,0.00337402 -0.0246575,0.0256496 -0.0431024,0.0536417 -0.131201,0.0554882 -0.214035,0.0684055 -0.0182008,0.00283465 -0.0364528,0.00479528 -0.0547638,0.00596457 0.00762992,0.00593701 0.0136811,0.0130827 0.0169055,0.0199094z"/>
  <path class="fil4" d="M3.80645 4.28181c0.00112992,-0.000216535 0.00226378,-0.000413386 0.0033937,-0.000633858 0.123567,-0.0242126 0.158094,-0.0211299 0.264646,-0.0744016l-0.00116535 0.000566929c0.0388701,-0.0266417 0.0473622,-0.0441299 0.0736535,-0.0787165 -0.0304921,0.0202874 -0.0101811,0.00458661 -0.0412362,0.0341732 -0.0748031,0.0712441 -0.194516,0.0758307 -0.310516,0.0947717l-0.00250787 0.000389764c0.00715354,0.00733858 0.0120433,0.0158307 0.0137323,0.0238504z"/>
  <path class="fil3" d="M1.9098 3.49383c0.17502,0.151362 0.259488,0.374965 0.367035,0.503587 0.682299,0.816039 1.29531,-0.768894 -0.367035,-0.503587z"/>
  <path class="fil4" d="M3.01051 4.26946c-0.136295,-0.203551 -0.244713,-0.419256 -0.505437,-0.555594 -0.10565,-0.0552402 -0.126618,-0.075311 -0.24585,-0.107709l0.00129134 0.000362205c-0.0497598,-0.00842913 -0.0707677,-0.00477953 -0.118811,-0.00268898 0.0385,0.00689764 0.0109528,0.00333071 0.0579213,0.00616535 0.11311,0.0068189 0.199067,0.0692165 0.294957,0.122858 0.269764,0.150913 0.354008,0.372917 0.506429,0.59524l0.0095 -0.0586339z"/>
  <path class="fil4" d="M2.58415 3.76312c-0.0188228,-0.00319685 -0.038189,-0.00574409 -0.0581693,-0.00755906 -0.100311,-0.0091063 -0.123154,-0.0180276 -0.226713,-0.00491339l0.00112598 -0.000133858c-0.0415787,0.00945276 -0.056811,0.0190669 -0.0936575,0.0361811 0.0322913,-0.00701575 0.00962598,-0.000925197 0.0472205,-0.0138504 0.0905354,-0.0311142 0.177776,-0.0100748 0.269949,0.000929134 0.020248,0.00241732 0.039752,0.00553543 0.0585984,0.00929528 -0.00201969,-0.00661024 -0.00141339,-0.0137677 0.00164567,-0.0199488z"/>
  <path class="fil4" d="M2.7621 3.9137c-0.00108268,-0.000102362 -0.00215748,-0.000224409 -0.00324409,-0.000318898 -0.118732,-0.0107835 -0.145768,-0.0213386 -0.268346,-0.0058189l0.00133465 -0.00015748c-0.0492126,0.011189 -0.0672441,0.0225669 -0.110858,0.0428228 0.0382205,-0.00830315 0.0113976,-0.00109449 0.0558937,-0.0163898 0.107161,-0.0368268 0.210421,-0.0119252 0.31952,0.00109449l0.00234646 0.000299213c-0.0014252,-0.00732283 -0.000232283,-0.0149882 0.00335433,-0.0215315z"/>
  <path class="fil4" d="M2.47039 3.71639c-0.00688583,-0.0107402 -0.0132638,-0.0217283 -0.0190709,-0.033 -0.0291575,-0.0565866 -0.0423071,-0.0700315 -0.0509882,-0.126618l0.000102362 0.000614173c0.000496063,-0.022378 0.0065315,-0.0300748 0.0152835,-0.0491969 -7.87402e-005,0.0174055 0.00108268,0.00528346 -0.00352756,0.0251614 -0.0111024,0.047874 0.0267323,0.0981535 0.0560276,0.150366 0.00643701,0.0114724 0.0133858,0.0225827 0.020811,0.0333819 -0.00670079,-0.00166535 -0.0133819,-0.00190945 -0.0186378,-0.000708661z"/>
  <path class="fil4" d="M2.70333 3.87878c-0.000377953,-0.000732283 -0.000767717,-0.00145669 -0.00114173,-0.00218898 -0.0409213,-0.0800669 -0.0578858,-0.0980945 -0.0749882,-0.181429l0.000200787 0.000905512c-0.00219291,-0.0335787 0.00387795,-0.0460669 0.0117008,-0.0760866 0.00206299,0.0260709 0.00191732,0.00774016 -0.000996063,0.0382323 -0.007,0.073437 0.0432441,0.142681 0.0837874,0.216173l0.000889764 0.00157874c-0.00727953,-0.000779528 -0.0142047,0.000220472 -0.0194528,0.00281496z"/>
  <path class="fil5" d="M3.47879 3.43746c0.00934252,-0.0440748 -0.018811,-0.0873819 -0.0628858,-0.0967244 -0.0440748,-0.00934252 -0.0873858,0.018811 -0.0967283,0.0628898 -0.0710354,0.331441 -0.197161,0.641102 -0.378114,0.929059 -0.181622,0.289028 -0.418835,0.556839 -0.711362,0.803512 -0.034378,0.0290906 -0.0386654,0.0805472 -0.0095748,0.114925 0.0290906,0.0343819 0.0805433,0.0386693 0.114925,0.00957874 0.305114,-0.257287 0.553181,-0.537657 0.743921,-0.841189 0.191413,-0.304602 0.32478,-0.631925 0.399819,-0.982051z"/>
  <path class="fil6" d="M4.20599 3.19051c0.212854,0.0545748 0.430835,-0.0716063 0.488787,-0.284335 0.0579528,-0.212768 -0.0659055,-0.432055 -0.277047,-0.492949 0.153705,-0.157043 0.153421,-0.408913 -0.00183858,-0.565469 -0.155272,-0.156575 -0.407134,-0.158961 -0.565433,-0.00654724 -0.0591496,-0.211661 -0.277402,-0.337339 -0.490661,-0.281138 -0.213205,0.0561693 -0.341197,0.273102 -0.288354,0.486406 -0.212874,-0.0545984 -0.430854,0.0715748 -0.488807,0.284343 -0.0579724,0.212748 0.0659213,0.432035 0.277067,0.492929 -0.153744,0.157043 -0.153461,0.408925 0.00183071,0.565476 0.155276,0.156575 0.407138,0.158953 0.565437,0.00653937 0.0591378,0.211642 0.277402,0.337343 0.490626,0.281146 0.213244,-0.0561811 0.341228,-0.273098 0.288394,-0.486402z"/>
  <path class="fil7" d="M4.09124 2.66728c0.126701,-0.0550984 0.186157,-0.201878 0.132783,-0.329827 -0.0533937,-0.127957 -0.199524,-0.188965 -0.327811,-0.137657 0.0156417,-0.13728 -0.0817441,-0.262161 -0.21924,-0.279909 -0.137504,-0.017748 -0.263417,0.078311 -0.283126,0.215067 -0.111075,-0.0821969 -0.267906,-0.0603071 -0.352039,0.0499252 -0.0841181,0.110193 -0.063874,0.267264 0.0447047,0.352713 -0.12672,0.0550945 -0.186181,0.20187 -0.132787,0.329835 0.0533701,0.127961 0.19952,0.188945 0.327811,0.137642 -0.0156614,0.137295 0.0817283,0.262185 0.21924,0.279917 0.137508,0.0177441 0.263413,-0.0783189 0.283122,-0.215075 0.111067,0.0822008 0.267909,0.0603071 0.352028,-0.0499055 0.084126,-0.110217 0.0638937,-0.267276 -0.044685,-0.352724z"/>
  <path class="fil8" d="M3.89878 2.68804c0.0845433,-0.023315 0.135012,-0.110248 0.112894,-0.195417 -0.0221299,-0.0851772 -0.108516,-0.136563 -0.193717,-0.115772 0.0220866,-0.084878 -0.0279646,-0.172051 -0.112783,-0.195476 -0.0848268,-0.0234291 -0.172531,0.0256969 -0.197126,0.109874 -0.0624646,-0.0615709 -0.162976,-0.061815 -0.225689,-5.51181e-005 -0.0626969,0.0617402 -0.064,0.162252 -0.00339764,0.225646 -0.0845512,0.023311 -0.13502,0.11024 -0.11289,0.195421 0.0221142,0.0851811 0.108512,0.136551 0.193717,0.115764 -0.0221024,0.0848819 0.0279528,0.172063 0.112783,0.19548 0.0848307,0.0234291 0.172528,-0.0257008 0.197122,-0.109882 0.0624567,0.0615748 0.16298,0.0618189 0.225681,6.69291e-005 0.0627047,-0.061752 0.0640118,-0.16226 0.00340551,-0.22565z"/>
  <path class="fil9" d="M3.68987 2.63034c0.0275512,-0.00759843 0.044,-0.0359331 0.0367913,-0.063689 -0.0072126,-0.0277598 -0.0353661,-0.0445039 -0.0631339,-0.0377323 0.00720079,-0.0276575 -0.00911417,-0.0560709 -0.0367559,-0.0637047 -0.0276457,-0.00763386 -0.0562283,0.00837402 -0.0642441,0.035811 -0.0203583,-0.0200669 -0.0531142,-0.0201496 -0.0735512,-1.9685e-005 -0.0204331,0.020122 -0.0208583,0.052878 -0.0011063,0.0735394 -0.0275591,0.00759449 -0.0440039,0.0359252 -0.0367953,0.063689 0.00720866,0.0277598 0.0353661,0.0445 0.0631339,0.0377283 -0.00720079,0.0276614 0.00911024,0.0560748 0.0367559,0.0637047 0.0276496,0.0076378 0.0562283,-0.00837402 0.0642441,-0.035811 0.0203543,0.0200669 0.0531142,0.0201496 0.0735512,2.3622e-005 0.020437,-0.020126 0.0208622,-0.0528819 0.00111024,-0.0735394z"/>
 </g>
</svg>
