<svg xmlns="http://www.w3.org/2000/svg" viewBox="0 0 64 64"><title>17-Aromatic</title><g id="_17-Aromatic" data-name="17-Aromatic"><circle cx="16" cy="19" r="2.25" style="fill:#fad17f"/><circle cx="32" cy="9" r="3" style="fill:#fad17f"/><circle cx="48" cy="19" r="2.25" style="fill:#fad17f"/><path d="M43.21,17.02a2.237,2.237,0,0,1,2.81-2.81,2.225,2.225,0,0,1,3.96,0,2.237,2.237,0,0,1,2.81,2.81,2.225,2.225,0,0,1,0,3.96,2.237,2.237,0,0,1-2.81,2.81,2.225,2.225,0,0,1-3.96,0,2.237,2.237,0,0,1-2.81-2.81,2.225,2.225,0,0,1,0-3.96ZM48,16.75A2.25,2.25,0,1,0,50.25,19,2.253,2.253,0,0,0,48,16.75Z" style="fill:#ffb9d5"/><path d="M11.21,17.02a2.237,2.237,0,0,1,2.81-2.81,2.225,2.225,0,0,1,3.96,0,2.237,2.237,0,0,1,2.81,2.81,2.225,2.225,0,0,1,0,3.96,2.237,2.237,0,0,1-2.81,2.81,2.225,2.225,0,0,1-3.96,0,2.237,2.237,0,0,1-2.81-2.81,2.225,2.225,0,0,1,0-3.96ZM16,16.75A2.25,2.25,0,1,0,18.25,19,2.253,2.253,0,0,0,16,16.75Z" style="fill:#ffb9d5"/><path d="M38.39,6.35a2.986,2.986,0,0,1,0,5.3,2.975,2.975,0,0,1-3.74,3.74,2.986,2.986,0,0,1-5.3,0,2.975,2.975,0,0,1-3.74-3.74,2.986,2.986,0,0,1,0-5.3,2.975,2.975,0,0,1,3.74-3.74,2.986,2.986,0,0,1,5.3,0,2.975,2.975,0,0,1,3.74,3.74ZM35,9a3,3,0,1,0-3,3A3,3,0,0,0,35,9Z" style="fill:#ffb9d5"/><rect x="22" y="37" width="20" height="4" style="fill:#bec3d2"/><polygon points="15 63 15 59 16 59 48 59 49 59 49 63 46 63 18 63 15 63" style="fill:#bec3d2"/><path d="M16,59V47a6,6,0,0,1,6-6H42a6,6,0,0,1,6,6V59Z" style="fill:#f2f6fc"/><path d="M20,59V47a6,6,0,0,1,6-6H22a6,6,0,0,0-6,6V59Z" style="fill:#e9edf5"/><rect x="16" y="56" width="32" height="3" style="fill:#e9edf5"/><path d="M36,9a4,4,0,1,0-4,4A4,4,0,0,0,36,9ZM30,9a2,2,0,1,1,2,2A2,2,0,0,1,30,9Z"/><path d="M53.886,16.561a3.229,3.229,0,0,0-3.446-3.446,3.227,3.227,0,0,0-4.88,0,3.229,3.229,0,0,0-3.446,3.446,3.227,3.227,0,0,0,0,4.878,3.229,3.229,0,0,0,3.446,3.446,3.2,3.2,0,0,0,1.211.861A10.241,10.241,0,0,1,43.5,28.37c-2.675,1.683-5.948,3.751-6.435,7.63H33V33.414l5.707-5.707-1.414-1.414L33,30.586V25.414l3.707-3.707-1.414-1.414L33,22.586V17.86A4.013,4.013,0,0,0,35.107,16.5a3.964,3.964,0,0,0,4.4-4.395,3.971,3.971,0,0,0,0-6.214,3.964,3.964,0,0,0-4.4-4.395,3.971,3.971,0,0,0-6.214,0A3.964,3.964,0,0,0,24.5,5.893a3.971,3.971,0,0,0,0,6.214A3.964,3.964,0,0,0,28.893,16.5,4.013,4.013,0,0,0,31,17.86v4.726l-2.293-2.293-1.414,1.414L31,25.414v5.172l-4.293-4.293-1.414,1.414L31,33.414V36H26.932c-.487-3.879-3.76-5.947-6.435-7.63a10.241,10.241,0,0,1-3.268-2.624,3.2,3.2,0,0,0,1.211-.861,3.229,3.229,0,0,0,3.446-3.446,3.227,3.227,0,0,0,0-4.878,3.229,3.229,0,0,0-3.446-3.446,3.227,3.227,0,0,0-4.88,0,3.229,3.229,0,0,0-3.446,3.446,3.227,3.227,0,0,0,0,4.878,3.229,3.229,0,0,0,3.446,3.446,3.2,3.2,0,0,0,1.556.977c.466,1.773,2.341,2.958,4.316,4.2,2.457,1.546,4.983,3.144,5.475,5.938H22a1,1,0,0,0-1,1v3.08A7.006,7.006,0,0,0,15,47V58a1,1,0,0,0-1,1v4a1,1,0,0,0,1,1H49a1,1,0,0,0,1-1V59a1,1,0,0,0-1-1V47a7.006,7.006,0,0,0-6-6.92V37a1,1,0,0,0-1-1H39.093c.492-2.794,3.018-4.392,5.475-5.938,1.975-1.242,3.85-2.427,4.316-4.2a3.2,3.2,0,0,0,1.556-.977,3.229,3.229,0,0,0,3.446-3.446,3.227,3.227,0,0,0,0-4.878ZM30.23,14.917a1,1,0,0,0-.88-.527,1.014,1.014,0,0,0-.3.045,1.975,1.975,0,0,1-2.488-2.488,1,1,0,0,0-.482-1.178,1.986,1.986,0,0,1,0-3.538,1,1,0,0,0,.482-1.178,1.975,1.975,0,0,1,2.488-2.488,1,1,0,0,0,1.177-.482,1.988,1.988,0,0,1,3.54,0,1,1,0,0,0,1.177.482,1.975,1.975,0,0,1,2.488,2.488,1,1,0,0,0,.482,1.178,1.986,1.986,0,0,1,0,3.538,1,1,0,0,0-.482,1.178,1.975,1.975,0,0,1-2.488,2.488,1,1,0,0,0-1.177.482,1.988,1.988,0,0,1-3.54,0ZM14.02,22.79a.993.993,0,0,0-.294.044,1.237,1.237,0,0,1-1.56-1.56,1,1,0,0,0-.5-1.183,1.226,1.226,0,0,1,0-2.182,1,1,0,0,0,.5-1.183,1.237,1.237,0,0,1,1.56-1.56,1,1,0,0,0,1.183-.5,1.226,1.226,0,0,1,2.182,0,1,1,0,0,0,1.183.5,1.237,1.237,0,0,1,1.56,1.56,1,1,0,0,0,.5,1.183,1.226,1.226,0,0,1,0,2.182,1,1,0,0,0-.5,1.183,1.237,1.237,0,0,1-1.56,1.56,1,1,0,0,0-1.183.5,1.226,1.226,0,0,1-2.182,0A1,1,0,0,0,14.02,22.79ZM48,62H16V60H48ZM47,47V58H17V47a5.006,5.006,0,0,1,5-5H42A5.006,5.006,0,0,1,47,47Zm-6-7H23V38H41ZM52.333,20.091a1,1,0,0,0-.5,1.183,1.237,1.237,0,0,1-1.56,1.56,1,1,0,0,0-1.183.5,1.226,1.226,0,0,1-2.182,0,1,1,0,0,0-1.183-.5,1.237,1.237,0,0,1-1.56-1.56,1,1,0,0,0-.5-1.183,1.226,1.226,0,0,1,0-2.182,1,1,0,0,0,.5-1.183,1.237,1.237,0,0,1,1.56-1.56,1,1,0,0,0,1.183-.5,1.226,1.226,0,0,1,2.182,0,1,1,0,0,0,1.183.5,1.237,1.237,0,0,1,1.56,1.56,1,1,0,0,0,.5,1.183,1.226,1.226,0,0,1,0,2.182Z"/><path d="M48,15.75A3.25,3.25,0,1,0,51.25,19,3.254,3.254,0,0,0,48,15.75Zm0,4.5A1.25,1.25,0,1,1,49.25,19,1.252,1.252,0,0,1,48,20.25Z"/><path d="M19.25,19A3.25,3.25,0,1,0,16,22.25,3.254,3.254,0,0,0,19.25,19Zm-4.5,0A1.25,1.25,0,1,1,16,20.25,1.252,1.252,0,0,1,14.75,19Z"/><rect x="19" y="54" width="2" height="2"/><rect x="23" y="54" width="22" height="2"/></g></svg>