<?xml version="1.0" encoding="utf-8"?>
<!-- Generator: Adobe Illustrator 21.1.0, SVG Export Plug-In . SVG Version: 6.00 Build 0)  -->
<svg version="1.1" id="Icon_Set" xmlns="http://www.w3.org/2000/svg" xmlns:xlink="http://www.w3.org/1999/xlink" x="0px" y="0px"
	 viewBox="0 0 512 512" style="enable-background:new 0 0 512 512;" xml:space="preserve">
<style type="text/css">
	.st0{fill:#FFFFFF;}
	.st1{fill:#7DAC51;}
	.st2{fill:#5B7C31;}
	.st3{fill:#463218;}
	.st4{fill:#FEFE71;}
	.st5{fill:#D6CD1E;}
	.st6{fill:#E56823;}
	.st7{fill:#FE8E46;}
	.st8{fill:none;stroke:#FFFFFF;stroke-width:10;stroke-miterlimit:10;}
	.st9{fill:none;stroke:#463218;stroke-width:14;stroke-linecap:round;stroke-linejoin:round;stroke-miterlimit:10;}
	.st10{fill:#FE8D47;}
	.st11{fill:#E56724;}
</style>
<g id="FLOWER_POT">
	<g>
		<g>
			<g>
				<path class="st7" d="M335.3,399.1H176.7c-16.3,0-30.6-10.9-35-26.6l-20.9-75.8h270.3l-20.9,75.8
					C365.9,388.2,351.6,399.1,335.3,399.1z"/>
			</g>
		</g>
		<g>
			<g>
				<path class="st6" d="M215.4,372.4l-20.9-75.8h-73.7l20.9,75.8c4.3,15.7,18.6,26.6,35,26.6h73.7
					C234.1,399.1,219.8,388.2,215.4,372.4z"/>
			</g>
		</g>
		<g>
			<g>
				<path class="st3" d="M335.3,406.1H176.7c-19.4,0-36.5-13.1-41.7-31.8l-20.9-75.8c-0.6-2.1-0.1-4.4,1.2-6.1
					c1.3-1.7,3.4-2.8,5.6-2.8h270.3c2.2,0,4.2,1,5.6,2.8c1.3,1.7,1.8,4,1.2,6.1L377,374.3C371.8,393,354.7,406.1,335.3,406.1z
					 M130,303.7l18.5,66.9c3.5,12.6,15.1,21.5,28.2,21.5h158.6c13.1,0,24.7-8.8,28.2-21.5l18.5-66.9H130z"/>
			</g>
		</g>
		<g>
			<g>
				
					<rect x="333.5" y="355.1" transform="matrix(0.2887 -0.9574 0.9574 0.2887 -98.4381 587.6658)" class="st0" width="25.5" height="10"/>
			</g>
		</g>
		<g>
			<g>
				<g>
					<g>
						<path class="st3" d="M187,303.7c-3.9,0-7-3.1-7-7v-97c0-3.9,3.1-7,7-7s7,3.1,7,7v97C194,300.5,190.8,303.7,187,303.7z"/>
					</g>
				</g>
				<g>
					<g>
						<g>
							<g>
								<path class="st1" d="M236.9,217.7c-13.2-4.4-28.3-1.4-38.8,9.1c-10.5,10.5-13.5,25.6-9.1,38.8c13.2,4.4,28.3,1.4,38.8-9.1
									C238.2,246,241.3,230.9,236.9,217.7z"/>
							</g>
						</g>
						<g>
							<g>
								<path class="st1" d="M137.1,217.7c13.2-4.4,28.3-1.4,38.8,9.1c10.5,10.5,13.5,25.6,9.1,38.8c-13.2,4.4-28.3,1.4-38.8-9.1
									C135.7,246,132.7,230.9,137.1,217.7z"/>
							</g>
						</g>
					</g>
					<g>
						<g>
							<g>
								<path class="st3" d="M201.1,274.6c-4.8,0-9.6-0.8-14.4-2.4c-2.1-0.7-3.7-2.3-4.4-4.4c-5.4-16.3-1.3-33.9,10.8-46
									c12.1-12.1,29.7-16.3,46-10.8c2.1,0.7,3.7,2.3,4.4,4.4c5.4,16.3,1.3,33.9-10.8,46C224.1,270,212.7,274.6,201.1,274.6z
									 M194.6,259.9c10.2,2.2,20.7-0.9,28.2-8.4c7.5-7.5,10.5-18,8.4-28.2c-10.2-2.2-20.7,0.9-28.2,8.4S192.5,249.7,194.6,259.9z"
									/>
							</g>
						</g>
						<g>
							<g>
								<path class="st3" d="M172.9,274.6c-11.7,0-23-4.6-31.6-13.2c-12.1-12.1-16.3-29.7-10.8-46c0.7-2.1,2.3-3.7,4.4-4.4
									c16.3-5.4,33.9-1.3,46,10.8c12.1,12.1,16.3,29.7,10.8,46c-0.7,2.1-2.3,3.7-4.4,4.4C182.5,273.8,177.7,274.6,172.9,274.6z
									 M142.8,223.4c-2.2,10.2,0.9,20.7,8.4,28.2c7.5,7.5,18,10.5,28.2,8.4c2.2-10.2-0.9-20.7-8.4-28.2
									C163.5,224.3,152.9,221.2,142.8,223.4z"/>
							</g>
						</g>
					</g>
				</g>
				<g>
					<g>
						<g>
							<circle class="st7" cx="187" cy="157" r="21.2"/>
						</g>
					</g>
					<g>
						<g>
							<circle class="st4" cx="187" cy="124.3" r="11.4"/>
						</g>
					</g>
					<g>
						<g>
							<circle class="st4" cx="187" cy="189.6" r="11.4"/>
						</g>
					</g>
					<g>
						<g>
							<circle class="st4" cx="219.6" cy="157" r="11.4"/>
						</g>
					</g>
					<g>
						<g>
							<circle class="st4" cx="154.3" cy="157" r="11.4"/>
						</g>
					</g>
					<g>
						<g>
							
								<ellipse transform="matrix(0.7071 -0.7071 0.7071 0.7071 -79.2959 168.6178)" class="st4" cx="163.9" cy="180" rx="11.4" ry="11.4"/>
						</g>
					</g>
					<g>
						<g>
							
								<ellipse transform="matrix(0.9124 -0.4094 0.4094 0.9124 -36.4066 97.7107)" class="st4" cx="210" cy="133.9" rx="11.4" ry="11.4"/>
						</g>
					</g>
					<g>
						<g>
							
								<ellipse transform="matrix(0.7071 -0.7071 0.7071 0.7071 -46.6737 155.1053)" class="st4" cx="163.9" cy="133.9" rx="11.4" ry="11.4"/>
						</g>
					</g>
					<g>
						<g>
							
								<ellipse transform="matrix(0.7071 -0.7071 0.7071 0.7071 -65.7833 201.2399)" class="st4" cx="210" cy="180" rx="11.4" ry="11.4"/>
						</g>
					</g>
					<g>
						<g>
							<path class="st3" d="M187,185.2c-15.6,0-28.2-12.7-28.2-28.2c0-15.6,12.7-28.2,28.2-28.2s28.2,12.7,28.2,28.2
								C215.2,172.5,202.5,185.2,187,185.2z M187,142.7c-7.8,0-14.2,6.4-14.2,14.2s6.4,14.2,14.2,14.2c7.8,0,14.2-6.4,14.2-14.2
								S194.8,142.7,187,142.7z"/>
						</g>
					</g>
					<g>
						<g>
							<path class="st3" d="M187,185.2c-15.6,0-28.2-12.7-28.2-28.2c0-15.6,12.7-28.2,28.2-28.2s28.2,12.7,28.2,28.2
								C215.2,172.5,202.5,185.2,187,185.2z M187,142.7c-7.8,0-14.2,6.4-14.2,14.2s6.4,14.2,14.2,14.2c7.8,0,14.2-6.4,14.2-14.2
								S194.8,142.7,187,142.7z"/>
						</g>
					</g>
					<g>
						<g>
							<path class="st3" d="M187,142.7c-10.1,0-18.4-8.2-18.4-18.4c0-10.1,8.2-18.4,18.4-18.4c10.1,0,18.4,8.2,18.4,18.4
								C205.3,134.5,197.1,142.7,187,142.7z M187,119.9c-2.4,0-4.4,2-4.4,4.4s2,4.4,4.4,4.4s4.4-2,4.4-4.4S189.4,119.9,187,119.9z"
								/>
						</g>
					</g>
					<g>
						<g>
							<path class="st3" d="M187,208c-10.1,0-18.4-8.2-18.4-18.4c0-10.1,8.2-18.4,18.4-18.4c10.1,0,18.4,8.2,18.4,18.4
								C205.3,199.7,197.1,208,187,208z M187,185.2c-2.4,0-4.4,2-4.4,4.4s2,4.4,4.4,4.4s4.4-2,4.4-4.4S189.4,185.2,187,185.2z"/>
						</g>
					</g>
					<g>
						<g>
							<path class="st3" d="M219.6,175.4c-10.1,0-18.4-8.2-18.4-18.4c0-10.1,8.2-18.4,18.4-18.4c10.1,0,18.4,8.2,18.4,18.4
								C238,167.1,229.7,175.4,219.6,175.4z M219.6,152.6c-2.4,0-4.4,2-4.4,4.4s2,4.4,4.4,4.4s4.4-2,4.4-4.4S222,152.6,219.6,152.6z
								"/>
						</g>
					</g>
					<g>
						<g>
							<path class="st3" d="M154.3,175.4c-10.1,0-18.4-8.2-18.4-18.4c0-10.1,8.2-18.4,18.4-18.4c10.1,0,18.4,8.2,18.4,18.4
								C172.7,167.1,164.5,175.4,154.3,175.4z M154.3,152.6c-2.4,0-4.4,2-4.4,4.4s2,4.4,4.4,4.4s4.4-2,4.4-4.4
								S156.8,152.6,154.3,152.6z"/>
						</g>
					</g>
					<g>
						<g>
							<path class="st3" d="M163.9,198.4c-4.7,0-9.4-1.8-13-5.4c-7.2-7.2-7.2-18.8,0-26c7.2-7.2,18.8-7.2,26,0
								c7.2,7.2,7.2,18.8,0,26C173.3,196.6,168.6,198.4,163.9,198.4z M163.9,175.6c-1.1,0-2.2,0.4-3.1,1.3c-1.7,1.7-1.7,4.5,0,6.2
								c1.7,1.7,4.5,1.7,6.2,0c1.7-1.7,1.7-4.5,0-6.2C166.1,176.1,165,175.6,163.9,175.6z"/>
						</g>
					</g>
					<g>
						<g>
							<path class="st3" d="M210,152.3c-2.2,0-4.4-0.4-6.5-1.2c-4.6-1.7-8.2-5.2-10.2-9.7c-2-4.5-2.2-9.5-0.4-14.1s5.2-8.2,9.7-10.2
								c4.5-2,9.5-2.2,14.1-0.4c4.6,1.7,8.2,5.2,10.2,9.7c4.2,9.3,0,20.2-9.2,24.3C215.1,151.8,212.6,152.3,210,152.3z M210,129.5
								c-0.6,0-1.2,0.1-1.8,0.4c-1.1,0.5-1.9,1.3-2.3,2.4c-0.4,1.1-0.4,2.3,0.1,3.4l0,0c0.5,1.1,1.3,1.9,2.4,2.3
								c1.1,0.4,2.3,0.4,3.4-0.1c1.1-0.5,1.9-1.3,2.3-2.4c0.4-1.1,0.4-2.3-0.1-3.4C213.3,130.5,211.7,129.5,210,129.5z"/>
						</g>
					</g>
					<g>
						<g>
							<path class="st3" d="M163.9,152.3c-4.7,0-9.4-1.8-13-5.4c-7.2-7.2-7.2-18.8,0-26c7.2-7.2,18.8-7.2,26,0
								c7.2,7.2,7.2,18.8,0,26C173.3,150.5,168.6,152.3,163.9,152.3z M163.9,129.5c-1.1,0-2.2,0.4-3.1,1.3c-1.7,1.7-1.7,4.5,0,6.2
								c1.7,1.7,4.5,1.7,6.2,0c1.7-1.7,1.7-4.5,0-6.2C166.1,129.9,165,129.5,163.9,129.5z"/>
						</g>
					</g>
					<g>
						<g>
							<path class="st3" d="M210,198.4c-4.7,0-9.4-1.8-13-5.4c-7.2-7.2-7.2-18.8,0-26c7.2-7.2,18.8-7.2,26,0c7.2,7.2,7.2,18.8,0,26
								C219.4,196.6,214.7,198.4,210,198.4z M210,175.6c-1.1,0-2.2,0.4-3.1,1.3c-1.7,1.7-1.7,4.5,0,6.2c1.7,1.7,4.5,1.7,6.2,0
								c1.7-1.7,1.7-4.5,0-6.2C212.3,176.1,211.2,175.6,210,175.6z"/>
						</g>
					</g>
				</g>
			</g>
			<g>
				<g>
					<g>
						<path class="st3" d="M325,303.7c-3.9,0-7-3.1-7-7v-97c0-3.9,3.1-7,7-7s7,3.1,7,7v97C332,300.5,328.9,303.7,325,303.7z"/>
					</g>
				</g>
				<g>
					<g>
						<g>
							<g>
								<path class="st1" d="M374.9,217.7c-13.2-4.4-28.3-1.4-38.8,9.1c-10.5,10.5-13.5,25.6-9.1,38.8c13.2,4.4,28.3,1.4,38.8-9.1
									C376.3,246,379.3,230.9,374.9,217.7z"/>
							</g>
						</g>
						<g>
							<g>
								<path class="st1" d="M275.1,217.7c13.2-4.4,28.3-1.4,38.8,9.1c10.5,10.5,13.5,25.6,9.1,38.8c-13.2,4.4-28.3,1.4-38.8-9.1
									C273.8,246,270.7,230.9,275.1,217.7z"/>
							</g>
						</g>
					</g>
					<g>
						<g>
							<g>
								<path class="st3" d="M339.1,274.6c-4.8,0-9.6-0.8-14.4-2.4c-2.1-0.7-3.7-2.3-4.4-4.4c-5.4-16.3-1.3-33.9,10.8-46
									c12.1-12.1,29.7-16.3,46-10.8c2.1,0.7,3.7,2.3,4.4,4.4c5.4,16.3,1.3,33.9-10.8,46C362.2,270,350.8,274.6,339.1,274.6z
									 M332.7,259.9c10.2,2.2,20.7-0.9,28.2-8.4c7.5-7.5,10.5-18,8.4-28.2c-10.2-2.2-20.7,0.9-28.2,8.4
									C333.6,239.2,330.5,249.7,332.7,259.9z"/>
							</g>
						</g>
						<g>
							<g>
								<path class="st3" d="M310.9,274.6c-11.7,0-23-4.6-31.6-13.2c-12.1-12.1-16.3-29.7-10.8-46c0.7-2.1,2.3-3.7,4.4-4.4
									c16.3-5.4,33.9-1.3,46,10.8c12.1,12.1,16.3,29.7,10.8,46c-0.7,2.1-2.3,3.7-4.4,4.4C320.6,273.8,315.7,274.6,310.9,274.6z
									 M280.8,223.4c-2.2,10.2,0.9,20.7,8.4,28.2c7.5,7.5,18,10.5,28.2,8.4c2.2-10.2-0.9-20.7-8.4-28.2
									C301.5,224.3,291,221.2,280.8,223.4z"/>
							</g>
						</g>
					</g>
				</g>
				<g>
					<g>
						<g>
							<circle class="st7" cx="325" cy="157" r="21.2"/>
						</g>
					</g>
					<g>
						<g>
							<circle class="st4" cx="325" cy="124.3" r="11.4"/>
						</g>
					</g>
					<g>
						<g>
							<circle class="st4" cx="325" cy="189.6" r="11.4"/>
						</g>
					</g>
					<g>
						<g>
							<circle class="st4" cx="357.7" cy="157" r="11.4"/>
						</g>
					</g>
					<g>
						<g>
							<circle class="st4" cx="292.4" cy="157" r="11.4"/>
						</g>
					</g>
					<g>
						<g>
							
								<ellipse transform="matrix(0.7071 -0.7071 0.7071 0.7071 -38.8526 266.2564)" class="st4" cx="302" cy="180" rx="11.4" ry="11.4"/>
						</g>
					</g>
					<g>
						<g>
							
								<ellipse transform="matrix(0.9124 -0.4094 0.4094 0.9124 -24.3065 154.2368)" class="st4" cx="348.1" cy="133.9" rx="11.4" ry="11.4"/>
						</g>
					</g>
					<g>
						<g>
							
								<ellipse transform="matrix(0.7071 -0.7071 0.7071 0.7071 -6.2305 252.7439)" class="st4" cx="302" cy="133.9" rx="11.4" ry="11.4"/>
						</g>
					</g>
					<g>
						<g>
							
								<ellipse transform="matrix(0.7071 -0.7071 0.7071 0.7071 -25.3401 298.8785)" class="st4" cx="348.1" cy="180" rx="11.4" ry="11.4"/>
						</g>
					</g>
					<g>
						<g>
							<path class="st3" d="M325,185.2c-15.6,0-28.2-12.7-28.2-28.2c0-15.6,12.7-28.2,28.2-28.2s28.2,12.7,28.2,28.2
								C353.3,172.5,340.6,185.2,325,185.2z M325,142.7c-7.8,0-14.2,6.4-14.2,14.2s6.4,14.2,14.2,14.2c7.8,0,14.2-6.4,14.2-14.2
								S332.9,142.7,325,142.7z"/>
						</g>
					</g>
					<g>
						<g>
							<path class="st3" d="M325,185.2c-15.6,0-28.2-12.7-28.2-28.2c0-15.6,12.7-28.2,28.2-28.2s28.2,12.7,28.2,28.2
								C353.3,172.5,340.6,185.2,325,185.2z M325,142.7c-7.8,0-14.2,6.4-14.2,14.2s6.4,14.2,14.2,14.2c7.8,0,14.2-6.4,14.2-14.2
								S332.9,142.7,325,142.7z"/>
						</g>
					</g>
					<g>
						<g>
							<path class="st3" d="M325,142.7c-10.1,0-18.4-8.2-18.4-18.4c0-10.1,8.2-18.4,18.4-18.4c10.1,0,18.4,8.2,18.4,18.4
								C343.4,134.5,335.2,142.7,325,142.7z M325,119.9c-2.4,0-4.4,2-4.4,4.4s2,4.4,4.4,4.4s4.4-2,4.4-4.4S327.5,119.9,325,119.9z"
								/>
						</g>
					</g>
					<g>
						<g>
							<path class="st3" d="M325,208c-10.1,0-18.4-8.2-18.4-18.4c0-10.1,8.2-18.4,18.4-18.4c10.1,0,18.4,8.2,18.4,18.4
								C343.4,199.7,335.2,208,325,208z M325,185.2c-2.4,0-4.4,2-4.4,4.4s2,4.4,4.4,4.4s4.4-2,4.4-4.4S327.5,185.2,325,185.2z"/>
						</g>
					</g>
					<g>
						<g>
							<path class="st3" d="M357.7,175.4c-10.1,0-18.4-8.2-18.4-18.4c0-10.1,8.2-18.4,18.4-18.4c10.1,0,18.4,8.2,18.4,18.4
								C376.1,167.1,367.8,175.4,357.7,175.4z M357.7,152.6c-2.4,0-4.4,2-4.4,4.4s2,4.4,4.4,4.4s4.4-2,4.4-4.4
								S360.1,152.6,357.7,152.6z"/>
						</g>
					</g>
					<g>
						<g>
							<path class="st3" d="M292.4,175.4c-10.1,0-18.4-8.2-18.4-18.4c0-10.1,8.2-18.4,18.4-18.4c10.1,0,18.4,8.2,18.4,18.4
								C310.8,167.1,302.6,175.4,292.4,175.4z M292.4,152.6c-2.4,0-4.4,2-4.4,4.4s2,4.4,4.4,4.4s4.4-2,4.4-4.4
								S294.8,152.6,292.4,152.6z"/>
						</g>
					</g>
					<g>
						<g>
							<path class="st3" d="M302,198.4c-4.7,0-9.4-1.8-13-5.4c-7.2-7.2-7.2-18.8,0-26c7.2-7.2,18.8-7.2,26,0c7.2,7.2,7.2,18.8,0,26
								C311.4,196.6,306.7,198.4,302,198.4z M302,175.6c-1.1,0-2.2,0.4-3.1,1.3c-1.7,1.7-1.7,4.5,0,6.2c1.7,1.7,4.5,1.7,6.2,0
								c1.7-1.7,1.7-4.5,0-6.2C304.2,176.1,303.1,175.6,302,175.6z"/>
						</g>
					</g>
					<g>
						<g>
							<path class="st3" d="M348.1,152.3c-2.2,0-4.4-0.4-6.5-1.2c-4.6-1.7-8.2-5.2-10.2-9.7l0,0c-4.2-9.3,0-20.2,9.3-24.3
								c9.3-4.1,20.2,0,24.3,9.3c2,4.5,2.2,9.5,0.4,14.1c-1.7,4.6-5.2,8.2-9.7,10.2C353.2,151.8,350.7,152.3,348.1,152.3z
								 M348.1,129.5c-0.6,0-1.2,0.1-1.8,0.4c-2.2,1-3.2,3.6-2.2,5.8l0,0c0.5,1.1,1.3,1.9,2.4,2.3c1.1,0.4,2.3,0.4,3.4-0.1
								c1.1-0.5,1.9-1.3,2.3-2.4c0.4-1.1,0.4-2.3-0.1-3.4C351.4,130.5,349.8,129.5,348.1,129.5z"/>
						</g>
					</g>
					<g>
						<g>
							<path class="st3" d="M302,152.3c-4.7,0-9.4-1.8-13-5.4c-7.2-7.2-7.2-18.8,0-26c7.2-7.2,18.8-7.2,26,0c7.2,7.2,7.2,18.8,0,26
								C311.4,150.5,306.7,152.3,302,152.3z M302,129.5c-1.1,0-2.2,0.4-3.1,1.3c-1.7,1.7-1.7,4.5,0,6.2c1.7,1.7,4.5,1.7,6.2,0
								c1.7-1.7,1.7-4.5,0-6.2C304.2,129.9,303.1,129.5,302,129.5z"/>
						</g>
					</g>
					<g>
						<g>
							<path class="st3" d="M348.1,198.4c-4.7,0-9.4-1.8-13-5.4c-7.2-7.2-7.2-18.8,0-26c7.2-7.2,18.8-7.2,26,0
								c7.2,7.2,7.2,18.8,0,26C357.5,196.6,352.8,198.4,348.1,198.4z M348.1,175.6c-1.1,0-2.2,0.4-3.1,1.3c-1.7,1.7-1.7,4.5,0,6.2
								c1.7,1.7,4.5,1.7,6.2,0c1.7-1.7,1.7-4.5,0-6.2C350.4,176.1,349.2,175.6,348.1,175.6z"/>
						</g>
					</g>
				</g>
			</g>
		</g>
	</g>
	<g>
		<g>
			<path class="st3" d="M256,336.7H130c-3.9,0-7-3.1-7-7s3.1-7,7-7h126c3.9,0,7,3.1,7,7S259.9,336.7,256,336.7z"/>
		</g>
	</g>
	<g>
		<g>
			<path class="st3" d="M382,336.7h-94.1c-3.9,0-7-3.1-7-7s3.1-7,7-7H382c3.9,0,7,3.1,7,7S385.9,336.7,382,336.7z"/>
		</g>
	</g>
</g>
</svg>
