<svg xmlns="http://www.w3.org/2000/svg" viewBox="0 0 64 64"><title>07-Scent</title><g id="_07-Scent" data-name="07-Scent"><path d="M35,45a3,3,0,0,1-6,0c0-1.66,3-5,3-5S35,43.34,35,45Z" style="fill:#fad17f"/><path d="M32,46a2.99,2.99,0,0,1-2.788-1.907A2.611,2.611,0,0,0,29,45a3,3,0,0,0,6,0,2.611,2.611,0,0,0-.212-.907A2.99,2.99,0,0,1,32,46Z" style="fill:#e3a76f"/><polygon points="38 52 38 58 26 58 26 52 32 52 38 52" style="fill:#fad17f"/><path d="M32,52H26v6H20s-4-11-4-16,5-6,5-6H43s5,1,5,6-4,16-4,16H38V52Zm0-4a3,3,0,0,0,3-3c0-1.66-3-5-3-5s-3,3.34-3,5A3,3,0,0,0,32,48Z" style="fill:#bec3d2"/><path d="M49,19v6a2.006,2.006,0,0,1-2,2H17a2.006,2.006,0,0,1-2-2V19Z" style="fill:#d18a56"/><path d="M47,23H17a2.006,2.006,0,0,1-2-2v4a2.006,2.006,0,0,0,2,2H47a2.006,2.006,0,0,0,2-2V21A2.006,2.006,0,0,1,47,23Z" style="fill:#b56d3c"/><path d="M47,32a12.274,12.274,0,0,1,7,11c0,8-7,20-7,20H17s-7-12-7-20a12.274,12.274,0,0,1,7-11V27H47ZM44,58s4-11,4-16-5-6-5-6H21s-5,1-5,6,4,16,4,16H44Z" style="fill:#f2f6fc"/><rect x="17" y="27" width="30" height="3" style="fill:#dce1eb"/><path d="M48,31.38V27.816A3,3,0,0,0,50,25V19a1,1,0,0,0-1-1H15a1,1,0,0,0-1,1v6a3,3,0,0,0,2,2.816V31.38A13.084,13.084,0,0,0,9,43c0,8.176,6.845,20,7.136,20.5A1,1,0,0,0,17,64H47a1,1,0,0,0,.864-.5C48.155,63,55,51.176,55,43A13.084,13.084,0,0,0,48,31.38ZM48,20v5a1,1,0,0,1-1,1H17a1,1,0,0,1-1-1V24H46V22H16V20ZM46.417,62H17.583C16.294,59.68,11,49.745,11,43a11.176,11.176,0,0,1,6.394-10.081A1,1,0,0,0,18,32V28H46v4a1,1,0,0,0,.6.918A11.177,11.177,0,0,1,53,43C53,49.739,47.706,59.68,46.417,62Z"/><path d="M43.2,35.02A.925.925,0,0,0,43,35H21a.925.925,0,0,0-.2.02A7.155,7.155,0,0,0,15,42c0,5.117,3.895,15.886,4.06,16.342A1,1,0,0,0,20,59H44a1,1,0,0,0,.94-.658C45.105,57.886,49,47.117,49,42A7.155,7.155,0,0,0,43.2,35.02ZM37,57H27V53H37ZM32,47a2,2,0,0,1-2-2c0-.639.939-2.127,2-3.452,1.062,1.332,2,2.831,2,3.452A2,2,0,0,1,32,47ZM43.293,57H39V52a1,1,0,0,0-1-1H33V48.858A4,4,0,0,0,36,45c0-1.945-2.712-5.063-3.256-5.668a1.033,1.033,0,0,0-1.488,0C30.712,39.937,28,43.055,28,45a4,4,0,0,0,3,3.858V51H26a1,1,0,0,0-1,1v5H20.707C19.86,54.575,17,46.082,17,42a5.19,5.19,0,0,1,4.112-5H42.891A5.147,5.147,0,0,1,47,42C47,46.082,44.14,54.575,43.293,57Z"/><path d="M23,9a3.563,3.563,0,0,0,1.293,2.707c.49.49.707.731.707,1.293h2a3.563,3.563,0,0,0-1.293-2.707C25.217,9.8,25,9.562,25,9s.217-.8.707-1.293A3.563,3.563,0,0,0,27,5a3.563,3.563,0,0,0-1.293-2.707C25.217,1.8,25,1.562,25,1H23a3.563,3.563,0,0,0,1.293,2.707C24.783,4.2,25,4.438,25,5s-.217.8-.707,1.293A3.563,3.563,0,0,0,23,9Z"/><path d="M30,9a3.563,3.563,0,0,0,1.293,2.707c.49.49.707.731.707,1.293h2a3.563,3.563,0,0,0-1.293-2.707C32.217,9.8,32,9.562,32,9s.217-.8.707-1.293A3.563,3.563,0,0,0,34,5a3.563,3.563,0,0,0-1.293-2.707C32.217,1.8,32,1.562,32,1H30a3.563,3.563,0,0,0,1.293,2.707C31.783,4.2,32,4.438,32,5s-.217.8-.707,1.293A3.563,3.563,0,0,0,30,9Z"/><path d="M37,9a3.563,3.563,0,0,0,1.293,2.707c.49.49.707.731.707,1.293h2a3.563,3.563,0,0,0-1.293-2.707C39.217,9.8,39,9.562,39,9s.217-.8.707-1.293A3.563,3.563,0,0,0,41,5a3.563,3.563,0,0,0-1.293-2.707C39.217,1.8,39,1.562,39,1H37a3.563,3.563,0,0,0,1.293,2.707C38.783,4.2,39,4.438,39,5s-.217.8-.707,1.293A3.563,3.563,0,0,0,37,9Z"/></g></svg>