<?xml version="1.0" encoding="utf-8"?>
<!-- Generator: Adobe Illustrator 22.0.0, SVG Export Plug-In . SVG Version: 6.00 Build 0)  -->
<svg version="1.1" id="Layer_1" xmlns="http://www.w3.org/2000/svg" xmlns:xlink="http://www.w3.org/1999/xlink" x="0px" y="0px"
	 viewBox="0 0 500 500" style="enable-background:new 0 0 500 500;" xml:space="preserve">
<style type="text/css">
	.st0{fill:#83E1E5;}
	.st1{fill:#AAB1BA;}
	.st2{fill:#ECF4F7;}
	.st3{fill:#FDDF7F;}
	.st4{fill:#1C1D21;}
</style>
<g>
	<path class="st0" d="M365.185,122.13c0-49.41-40.054-89.464-89.464-89.464s-89.464,40.054-89.464,89.464
		c0,34.774,19.84,64.913,48.818,79.718h59.202h18.636c0.959,0,1.887,0.123,2.781,0.334
		C345.036,187.502,365.185,157.172,365.185,122.13z"/>
</g>
<g>
	<path class="st1" d="M373.508,435.479v-28.848H178.989v28.848c0,21.395,17.344,38.739,38.739,38.739h-20.32
		c-5.739,0-10.391,4.652-10.391,10.391c0,5.739,4.652,10.391,10.391,10.391h157.681c5.739,0,10.391-4.652,10.391-10.391
		c0-5.739-4.652-10.391-10.391-10.391h-20.32C356.164,474.218,373.508,456.874,373.508,435.479z"/>
</g>
<g>
	<path class="st2" d="M312.913,201.848h-18.636h-74.674c-6.676,0-12.088,5.412-12.088,12.088v64.227
		c0,9.913,8.036,17.949,17.949,17.949c0.33,0,0.652-0.032,0.977-0.049v110.568H325V213.936
		C325.001,207.26,319.589,201.848,312.913,201.848z"/>
</g>
<g>
	<path class="st3" d="M275.721,74.702l-25.646,54.42c-5.736,12.172-2.126,26.699,8.64,34.77l0,0c10.079,7.556,23.934,7.556,34.012,0
		l0,0c10.766-8.071,14.376-22.598,8.64-34.77L275.721,74.702z"/>
</g>
<path class="st4" d="M179.279,343.591h5.975v-5.975c0-2.762,2.239-5,5-5s5,2.238,5,5v5.975h5.975c2.761,0,5,2.238,5,5s-2.239,5-5,5
	h-5.975v5.975c0,2.762-2.239,5-5,5s-5-2.238-5-5v-5.975h-5.975c-2.761,0-5-2.238-5-5S176.518,343.591,179.279,343.591z
	 M361.188,364.565c2.762,0,5-2.238,5-5v-5.975h5.975c2.762,0,5-2.238,5-5s-2.238-5-5-5h-5.975v-5.975c0-2.762-2.238-5-5-5
	s-5,2.238-5,5v5.975h-5.975c-2.762,0-5,2.238-5,5s2.238,5,5,5h5.975v5.975C356.188,362.327,358.427,364.565,361.188,364.565z
	 M212.569,190.498c1.282,0,2.565-0.49,3.542-1.471c1.949-1.955,1.944-5.121-0.012-7.07c-16.02-15.967-24.842-37.214-24.842-59.827
	c0-46.573,37.89-84.464,84.464-84.464c46.573,0,84.464,37.891,84.464,84.464c0,22.614-8.822,43.861-24.842,59.827
	c-1.956,1.949-1.962,5.114-0.012,7.07c1.949,1.957,5.115,1.962,7.07,0.012c17.916-17.855,27.783-41.617,27.783-66.909
	c0-52.088-42.376-94.464-94.464-94.464c-52.087,0-94.464,42.376-94.464,94.464c0,25.291,9.867,49.054,27.783,66.909
	C210.016,190.012,211.292,190.498,212.569,190.498z M320,391.611V213.936c0-3.908-3.179-7.088-7.087-7.088h-13.636v32.489
	c0,11.021-8.967,19.988-19.989,19.988c-11.021,0-19.988-8.967-19.988-19.988v-5.746c0-0.278-0.226-0.504-0.504-0.504h-9.879
	c-0.278,0-0.504,0.226-0.504,0.504v44.572c0,12.653-10.295,22.948-22.949,22.948s-22.949-10.295-22.949-22.949v-64.227
	c0-9.422,7.666-17.088,17.087-17.088h51.118v-22.714c-5.336-0.798-10.51-2.872-15.005-6.241
	c-12.605-9.45-16.88-26.651-10.164-40.903l25.646-54.419c0.825-1.751,2.587-2.868,4.522-2.868s3.697,1.117,4.522,2.868
	l25.646,54.419c6.716,14.251,2.441,31.453-10.163,40.903c-4.494,3.368-9.67,5.442-15.006,6.241v22.714h13.557h18.636
	c9.422,0,17.087,7.666,17.087,17.088v177.676c0,2.762-2.238,5-5,5S320,394.373,320,391.611z M270.721,163.979v-21.237
	c0-2.762,2.238-5,5-5s5,2.238,5,5v21.238c3.202-0.693,6.284-2.046,9.008-4.088c8.824-6.616,11.817-18.66,7.115-28.639
	l-21.123-44.821l-21.123,44.822c-4.702,9.978-1.709,22.021,7.116,28.638C264.437,161.933,267.52,163.285,270.721,163.979z
	 M289.277,206.848h-69.675c-3.908,0-7.087,3.18-7.087,7.088v64.227c0,7.141,5.809,12.949,12.949,12.949s12.949-5.809,12.949-12.948
	v-44.572c0-5.792,4.712-10.504,10.504-10.504h9.879c5.792,0,10.504,4.712,10.504,10.504v5.746c0,5.508,4.48,9.988,9.988,9.988
	s9.989-4.48,9.989-9.988L289.277,206.848L289.277,206.848z M226.441,324.717c-2.761,0-5,2.238-5,5v61.895c0,2.762,2.239,5,5,5
	s5-2.238,5-5v-61.895C231.441,326.955,229.203,324.717,226.441,324.717z M231.441,312.681c0-2.762-2.239-5-5-5s-5,2.238-5,5v2.175
	c0,2.762,2.239,5,5,5s5-2.238,5-5V312.681z M298.072,308.178c0,10.357-8.427,18.784-18.784,18.784s-18.784-8.427-18.784-18.784
	v-16.193c0-10.357,8.427-18.784,18.784-18.784s18.784,8.427,18.784,18.784V308.178z M288.072,291.984
	c0-4.844-3.94-8.784-8.784-8.784s-8.784,3.94-8.784,8.784v16.193c0,4.844,3.94,8.784,8.784,8.784s8.784-3.94,8.784-8.784V291.984z
	 M298.072,353.5v1.204c0,10.357-8.427,18.784-18.784,18.784s-18.784-8.427-18.784-18.784V353.5c0-10.358,8.427-18.785,18.784-18.785
	S298.072,343.142,298.072,353.5z M288.072,353.5c0-4.844-3.94-8.785-8.784-8.785s-8.784,3.941-8.784,8.785v1.204
	c0,4.844,3.94,8.784,8.784,8.784s8.784-3.94,8.784-8.784V353.5z M378.508,406.631v28.849c0,14.263-6.865,26.95-17.461,34.939
	c5.536,2.333,9.433,7.814,9.433,14.19c0,8.486-6.904,15.391-15.391,15.391H197.408h-42.516c-2.761,0-5-2.238-5-5s2.239-5,5-5h28.118
	c-0.632-1.681-0.993-3.492-0.993-5.391c0-6.376,3.897-11.857,9.433-14.19c-10.596-7.989-17.461-20.677-17.461-34.939v-23.849H150.86
	c-2.317,11.181-12.242,19.611-24.1,19.611c-13.571,0-24.611-11.041-24.611-24.611s11.041-24.611,24.611-24.611
	c11.858,0,21.783,8.43,24.1,19.611h28.129h194.519C376.27,401.631,378.508,403.869,378.508,406.631z M141.372,406.631
	c0-8.057-6.555-14.611-14.611-14.611s-14.611,6.555-14.611,14.611s6.555,14.611,14.611,14.611S141.372,414.688,141.372,406.631z
	 M334.769,479.218H217.728h-20.32c-2.973,0-5.391,2.419-5.391,5.392s2.418,5.391,5.391,5.391h157.681
	c2.973,0,5.391-2.418,5.391-5.391s-2.418-5.392-5.391-5.392H334.769z M368.508,411.631H183.989v23.849
	c0,18.604,15.135,33.738,33.739,33.738h117.041c18.604,0,33.739-15.135,33.739-33.738V411.631z M275.721,24.383c2.762,0,5-2.238,5-5
	V5c0-2.762-2.238-5-5-5s-5,2.238-5,5v14.383C270.721,22.145,272.959,24.383,275.721,24.383z M348.374,54.477
	c1.279,0,2.56-0.488,3.535-1.465l10.17-10.17c1.953-1.952,1.953-5.118,0-7.07c-1.951-1.953-5.119-1.953-7.07,0l-10.17,10.17
	c-1.953,1.952-1.953,5.118,0,7.07C345.814,53.988,347.095,54.477,348.374,54.477z M392.851,117.13h-14.382c-2.762,0-5,2.238-5,5
	s2.238,5,5,5h14.382c2.762,0,5-2.238,5-5S395.612,117.13,392.851,117.13z M158.591,127.13h14.382c2.761,0,5-2.238,5-5s-2.239-5-5-5
	h-14.382c-2.761,0-5,2.238-5,5S155.83,127.13,158.591,127.13z M199.532,53.012c0.977,0.977,2.256,1.465,3.536,1.465
	s2.559-0.488,3.536-1.465c1.953-1.952,1.953-5.118,0-7.07l-10.17-10.17c-1.953-1.953-5.118-1.953-7.071,0
	c-1.953,1.952-1.953,5.118,0,7.07L199.532,53.012z M136.249,490h-5.603c-2.761,0-5,2.238-5,5s2.239,5,5,5h5.603c2.761,0,5-2.238,5-5
	S139.01,490,136.249,490z"/>
</svg>
