<?xml version="1.0" encoding="utf-8"?>
<!-- Generator: Adobe Illustrator 21.1.0, SVG Export Plug-In . SVG Version: 6.00 Build 0)  -->
<svg version="1.1" id="Icon_Set" xmlns="http://www.w3.org/2000/svg" xmlns:xlink="http://www.w3.org/1999/xlink" x="0px" y="0px"
	 viewBox="0 0 512 512" style="enable-background:new 0 0 512 512;" xml:space="preserve">
<style type="text/css">
	.st0{fill:#FFFFFF;}
	.st1{fill:#7DAC51;}
	.st2{fill:#5B7C31;}
	.st3{fill:#463218;}
	.st4{fill:#FEFE71;}
	.st5{fill:#D6CD1E;}
	.st6{fill:#E56823;}
	.st7{fill:#FE8E46;}
	.st8{fill:none;stroke:#FFFFFF;stroke-width:10;stroke-miterlimit:10;}
	.st9{fill:none;stroke:#463218;stroke-width:14;stroke-linecap:round;stroke-linejoin:round;stroke-miterlimit:10;}
	.st10{fill:#FE8D47;}
	.st11{fill:#E56724;}
</style>
<g id="ZANTEDESCHIA">
	<g>
		<g>
			<g>
				<path class="st4" d="M216.4,310.6L216.4,310.6c-12.1,4.2-25.5-1.3-31.1-12.9l-57.6-115.6l78.3-27.3l26.7,126.3
					C235.5,293.7,228.5,306.4,216.4,310.6z"/>
			</g>
		</g>
		<g>
			<g>
				<path class="st5" d="M232.2,287.5c-12.1,4.2-25.5-1.3-31.1-12.9L151,174l-23.3,8.1l57.6,115.6c5.5,11.6,18.9,17.2,31.1,12.9l0,0
					c10.2-3.6,16.8-13.1,16.9-23.5C232.9,287.3,232.6,287.4,232.2,287.5z"/>
			</g>
		</g>
		<g>
			<g>
				<path class="st3" d="M208,319c-12.1,0-23.5-6.8-29-18.3l-57.6-115.5c-0.9-1.8-1-3.9-0.2-5.8c0.8-1.9,2.3-3.3,4.2-4l78.3-27.3
					c1.9-0.7,4-0.5,5.7,0.5c1.8,1,3,2.7,3.4,4.6l26.7,126.3c3.6,16-5.3,32.1-20.8,37.6C215.2,318.5,211.6,319,208,319z M137.5,186.1
					l54.1,108.4c0,0,0,0.1,0.1,0.1c4,8.4,13.7,12.4,22.4,9.3c8.8-3.1,13.8-12.2,11.8-21.3c0,0,0-0.1,0-0.1l-25.1-118.6L137.5,186.1z
					"/>
			</g>
		</g>
		<g>
			<g>
				<path class="st7" d="M121.2,143.3c-22.6,7.9-34.5,32.6-26.6,55.1s33.5,36.8,55.1,26.6l20-7c17.5-6.1,31.9-19,40-35.7l0,0
					c5.5-11.5,12.9-21.9,21.9-31l25.6-25.9l-6.4-2.6c-21.1-8.6-44.6-9.3-66.1-1.8L121.2,143.3z"/>
			</g>
		</g>
		<g>
			<g>
				<path class="st6" d="M141.3,159.8c-15.8,5.5-24.2,22.9-18.7,38.7s23.5,25.8,38.7,18.7l14-4.9c12.3-4.3,22.4-13.3,28.1-25l0,0
					c3.9-8,9.1-15.4,15.3-21.7l17.9-18.2l-4.5-1.9c-14.8-6.1-31.3-6.5-46.4-1.2L141.3,159.8z"/>
			</g>
		</g>
		<g>
			<g>
				<path class="st3" d="M134.8,235.5c-5.9,0-11.9-1.2-17.7-3.7c-13.4-5.6-24.2-17.2-29-31c-9.1-26.2,4.7-54.9,30.9-64.1l0,0
					l63.4-22.1c23.1-8.1,48.4-7.4,71.1,1.9l6.4,2.6c2.2,0.9,3.7,2.8,4.2,5.1c0.5,2.3-0.2,4.7-1.9,6.3l-25.6,25.9
					c-8.4,8.5-15.3,18.3-20.5,29.1c-8.9,18.5-24.6,32.5-44,39.2l-19.6,6.9C146.8,234.2,140.8,235.5,134.8,235.5z M123.5,150
					c-18.9,6.6-28.9,27.3-22.3,46.2c3.5,10.1,11.5,18.6,21.2,22.7c8.2,3.4,16.8,3.4,24.3-0.1c0.2-0.1,0.4-0.2,0.7-0.3l20-7
					c15.9-5.5,28.7-17,36-32.1c5.9-12.2,13.7-23.2,23.2-32.8l18.2-18.4c-18.6-6.8-39.1-6.9-57.9-0.4L123.5,150z"/>
			</g>
		</g>
		<g>
			<g>
				<g>
					<path class="st4" d="M182.5,174.5L149,186.2l-19.7-56.6c-3.2-9.2,1.7-19.3,10.9-22.5l0,0c9.2-3.2,19.3,1.7,22.5,10.9
						L182.5,174.5z"/>
				</g>
			</g>
			<g>
				<g>
					<path class="st3" d="M149,193.2c-2.9,0-5.6-1.8-6.6-4.7l-19.7-56.6c-2.2-6.2-1.8-12.9,1.1-18.9s7.9-10.4,14.1-12.6
						c6.2-2.2,12.9-1.8,18.9,1.1s10.4,7.9,12.6,14.1l19.7,56.6c1.3,3.7-0.7,7.6-4.3,8.9l-33.4,11.7
						C150.6,193.1,149.8,193.2,149,193.2z M146,113c-1.2,0-2.4,0.2-3.5,0.6c-5.6,1.9-8.5,8.1-6.6,13.6l17.4,50l20.2-7l-17.4-50
						c-0.9-2.7-2.9-4.9-5.4-6.1C149.2,113.4,147.6,113,146,113z"/>
				</g>
			</g>
		</g>
	</g>
	<g>
		<g>
			<path class="st3" d="M242.7,413c-3.9,0-7-3.1-7-7v-0.9c0-32-8.8-63.4-25.4-90.8c-2-3.3-0.9-7.6,2.4-9.6s7.6-0.9,9.6,2.4
				c17.9,29.6,27.4,63.5,27.4,98.1v0.9C249.7,409.8,246.6,413,242.7,413z"/>
		</g>
	</g>
	<g>
		<g>
			<path class="st3" d="M236.7,365.6c-1.1,0-2.2-0.3-3.3-0.8c-3.4-1.8-4.7-6-2.9-9.5l6.3-12c18-34.2,48-59.8,84.7-72l9.8-3.3
				c3.7-1.2,7.6,0.8,8.9,4.4c1.2,3.7-0.8,7.6-4.4,8.9l-9.8,3.3c-33.2,11.1-60.4,34.3-76.7,65.2l-6.3,12
				C241.7,364.2,239.2,365.6,236.7,365.6z"/>
		</g>
	</g>
	<g>
		<g>
			<g>
				<path class="st4" d="M278.1,302.8L278.1,302.8c-4.8-8.2-2.6-18.6,5-24.3l75.4-57.9l30.7,52.7l-87.5,37.1
					C293,314.2,282.9,310.9,278.1,302.8z"/>
			</g>
		</g>
		<g>
			<g>
				<path class="st5" d="M297,311c-4.8-8.2-2.6-18.6,5-24.3l65.6-50.4l-9.2-15.7l-75.4,57.9c-7.6,5.6-9.7,16.1-5,24.3l0,0
					c4,6.9,11.8,10.3,19.3,8.9C297.3,311.5,297.2,311.2,297,311z"/>
			</g>
		</g>
		<g>
			<g>
				<path class="st3" d="M294.1,319c-8.8,0-17.4-4.6-22.1-12.7v0c-6.6-11.3-3.6-25.6,6.8-33.4l75.3-57.9c1.6-1.2,3.6-1.7,5.6-1.3
					c2,0.4,3.7,1.6,4.7,3.3l30.7,52.7c1,1.7,1.2,3.8,0.6,5.7c-0.6,1.9-2.1,3.5-3.9,4.2l-87.5,37C301.1,318.3,297.6,319,294.1,319z
					 M284.2,299.2c3,5.1,9.3,7.1,14.7,4.7c0,0,0.1,0,0.1,0l80.2-34l-22.7-39l-69.1,53c0,0-0.1,0-0.1,0.1
					C282.5,287.6,281.2,294.1,284.2,299.2L284.2,299.2z"/>
			</g>
		</g>
		<g>
			<g>
				<path class="st7" d="M385.6,210.5c-8.9-15.2-28.4-20.3-43.6-11.5c-15.2,8.9-21.9,29.4-11.5,43.6l7.8,13.4
					c6.9,11.8,18.2,20.4,31.4,23.9h0c9.1,2.4,17.6,6.2,25.4,11.4l22.3,14.8l1-5c3.3-16.4,0.4-33.5-8-48L385.6,210.5z"/>
			</g>
		</g>
		<g>
			<g>
				<path class="st6" d="M376.5,227.4c-6.2-10.7-19.9-14.3-30.6-8.1c-10.7,6.2-15.4,20.6-8.1,30.6l5.5,9.4
					c4.8,8.3,12.8,14.3,22,16.8h0c6.4,1.7,12.4,4.4,17.9,8l15.6,10.4l0.7-3.5c2.3-11.5,0.3-23.5-5.6-33.7L376.5,227.4z"/>
			</g>
		</g>
		<g>
			<g>
				<path class="st3" d="M417.5,313.2c-1.4,0-2.7-0.4-3.9-1.2l-22.3-14.8c-7.2-4.8-15-8.3-23.3-10.5c-15.1-4-27.8-13.6-35.7-27.1
					l-7.7-13.2c-5.5-7.7-7.4-17.2-5.4-26.9c2.3-11,9.5-20.9,19.2-26.6c18.5-10.8,42.4-4.5,53.2,14l24.9,42.7
					c9.3,16,12.5,34.8,8.8,52.9l-1,5c-0.5,2.3-2,4.2-4.2,5.1C419.3,313.1,418.4,313.2,417.5,313.2z M358,201.7
					c-4.2,0-8.6,1.1-12.5,3.4c-6.4,3.7-11.1,10.2-12.5,17.3c-1.2,5.9-0.1,11.6,3.2,16.1c0.1,0.2,0.3,0.4,0.4,0.6l7.8,13.4
					c6,10.3,15.6,17.6,27.1,20.6c9.8,2.6,19.1,6.7,27.5,12.4l13.4,8.9c1.4-13.1-1.4-26.3-8-37.7l-24.9-42.7
					C374.9,206.1,366.6,201.7,358,201.7z"/>
			</g>
		</g>
		<g>
			<g>
				<g>
					<path class="st4" d="M371.7,259.1l-13.1-22.5l38.1-22.2c6.2-3.6,14.2-1.5,17.8,4.7l0,0c3.6,6.2,1.5,14.2-4.7,17.8L371.7,259.1z
						"/>
				</g>
			</g>
			<g>
				<g>
					<path class="st3" d="M371.7,266.1c-0.6,0-1.2-0.1-1.8-0.2c-1.8-0.5-3.3-1.6-4.3-3.2l-13.1-22.5c-1.9-3.3-0.8-7.6,2.5-9.6
						l38.1-22.2c4.6-2.7,10-3.4,15.2-2.1c5.2,1.4,9.5,4.7,12.2,9.3c2.7,4.6,3.4,10,2.1,15.2s-4.7,9.5-9.3,12.2l-38.1,22.2
						C374.1,265.8,372.9,266.1,371.7,266.1z M368.1,239.2l6.1,10.4l32.1-18.7c1.4-0.8,2.4-2.1,2.8-3.7c0.4-1.6,0.2-3.2-0.6-4.6
						c-0.8-1.4-2.1-2.4-3.7-2.8c-1.6-0.4-3.2-0.2-4.6,0.6L368.1,239.2z"/>
				</g>
			</g>
		</g>
	</g>
</g>
</svg>
