<?xml version="1.0" encoding="utf-8"?>
<!-- Generator: Adobe Illustrator 22.0.1, SVG Export Plug-In . SVG Version: 6.00 Build 0)  -->
<svg version="1.1" xmlns="http://www.w3.org/2000/svg" xmlns:xlink="http://www.w3.org/1999/xlink" x="0px" y="0px"
	 viewBox="0 0 512 512" style="enable-background:new 0 0 512 512;" xml:space="preserve">
<style type="text/css">
	.st0{fill:#A5CDBC;}
	.st1{fill:#453D80;}
	.st2{fill:#E9D178;}
	.st3{fill:#918BC6;}
	.st4{fill:#E2A2AB;}
	.st5{fill:#EECAC4;}
	.st6{fill:#7CB59C;}
	.st7{fill:#BDB9DC;}
	.st8{fill:#E2A66F;}
	.st9{fill:#DAAB5C;}
	.st10{fill:#74A0FB;}
	.st11{fill:#EDBB87;}
	.st12{fill:#EFCBC5;}
	.st13{fill:#CB9E56;}
	.st14{fill:#F8EF6C;}
	.st15{fill:#BBD9CC;}
	.st16{fill:#673528;}
	.st17{fill:#532B22;}
	.st18{fill:#7A3F2C;}
	.st19{fill:#B9865D;}
	.st20{fill:#A1ACA5;}
	.st21{fill:#B7C7BE;}
	.st22{fill:#D3E8DF;}
	.st23{fill:#AA583E;}
	.st24{fill:#944937;}
	.st25{fill:#E9A497;}
	.st26{fill:#C15E48;}
	.st27{fill:#D29289;}
	.st28{fill:#E4CAC8;}
	.st29{fill:#BFE6D5;}
	.st30{fill:#A2D6BD;}
	.st31{fill:#D5EBE2;}
	.st32{fill:#EBF3EF;}
	.st33{fill:#5F55AB;}
	.st34{fill:#2A284C;}
	.st35{fill:#D69C6C;}
	.st36{fill:#CE9567;}
	.st37{fill:#EAE7D6;}
	.st38{fill:#E1C978;}
	.st39{fill:#544C4A;}
	.st40{fill:#ACABB4;}
	.st41{fill:#BC8B63;}
	.st42{fill:#B9D7CA;}
	.st43{fill:#C9B26B;}
	.st44{fill:#817EB1;}
	.st45{fill:#3C3B4D;}
	.st46{fill:#2B2A36;}
	.st47{fill:#CC9567;}
	.st48{fill:#AF7C59;}
	.st49{fill:#A27855;}
	.st50{fill:#B4825B;}
	.st51{fill:#806045;}
	.st52{fill:#CB8694;}
	.st53{fill:#AE6E7E;}
	.st54{fill:#DDC3CB;}
	.st55{fill:#DEE8E3;}
	.st56{fill:#9B3A52;}
	.st57{fill:#C43C50;}
	.st58{fill:#538872;}
	.st59{fill:#67A78A;}
	.st60{fill:none;stroke:#E2A66F;stroke-width:6;stroke-linecap:round;stroke-miterlimit:10;}
	.st61{fill:none;stroke:#B9865D;stroke-width:6;stroke-linecap:round;stroke-miterlimit:10;}
	.st62{fill:#C4D6CD;}
	.st63{fill:#BCE9F2;}
	.st64{fill:#E2B9C1;}
	.st65{fill:#D19AA6;}
	.st66{fill:#D8ACB7;}
	.st67{fill:#C4929F;}
	.st68{fill:#CA6F63;}
	.st69{fill:#E07B67;}
	.st70{fill:#DF9589;}
	.st71{fill:#BE6761;}
	.st72{fill:#9B7380;}
	.st73{fill:#C48D99;}
	.st74{fill:#A97A86;}
	.st75{fill:#886672;}
	.st76{fill:#EEE8D6;}
	.st77{fill:#DCD7C8;}
	.st78{fill:#DB95A3;}
	.st79{fill:#E3CCD3;}
	.st80{fill:#CFBEC3;}
	.st81{fill:#EDE5E7;}
	.st82{fill:#39356B;}
	.st83{fill:#D8E8E1;}
	.st84{fill:none;stroke:#E2A66F;stroke-width:10;stroke-linecap:round;stroke-miterlimit:10;}
	.st85{fill:#C0A2A1;}
	.st86{fill:#ABAAD4;}
	.st87{fill:#514C96;}
	.st88{fill:#C1C1DF;}
	.st89{fill:#807CAE;}
	.st90{fill:#40715B;}
	.st91{fill:#DB9E6B;}
	.st92{fill:#E3C8B0;}
	.st93{fill:#653528;}
	.st94{fill:#D0C5C2;}
	.st95{fill:#EBE4E2;}
	.st96{fill:#F2F0DE;}
	.st97{fill:#668C7B;}
	.st98{fill:#65937D;}
	.st99{fill:#AD617E;}
	.st100{fill:#C97793;}
	.st101{fill:#E28DA3;}
	.st102{fill:#F9A2B3;}
	.st103{fill:#F2D7DC;}
	.st104{fill:#963346;}
	.st105{fill:#AA394E;}
	.st106{fill:#C8C8D5;}
	.st107{fill:#D5D4E8;}
	.st108{fill:#A2A1AF;}
	.st109{fill:#BABACB;}
	.st110{fill:#CCE0D7;}
	.st111{fill:#E0A0A9;}
	.st112{fill:#943346;}
	.st113{fill:#8F89C4;}
	.st114{fill:#BBB7DA;}
	.st115{fill:#C23C50;}
	.st116{fill:#A8394E;}
	.st117{fill:#EBB985;}
	.st118{fill:#DFA36F;}
	.st119{fill:#E1D3CF;}
	.st120{fill:#A59B98;}
	.st121{fill:#3E221C;}
	.st122{fill:none;stroke:#B7845D;stroke-width:8;stroke-linecap:round;stroke-miterlimit:10;}
	.st123{fill:none;stroke:#743A2F;stroke-width:7;stroke-linecap:round;stroke-miterlimit:10;}
	.st124{fill:#EEEBDA;}
	.st125{fill:#E5CD78;}
	.st126{fill:#69342A;}
	.st127{fill:#8C8482;}
	.st128{fill:#BA9D6F;}
	.st129{fill:#EFEFEF;}
	.st130{fill:none;stroke:#E2A66F;stroke-width:8;stroke-linecap:round;stroke-miterlimit:10;}
	.st131{fill:#6A9982;}
	.st132{fill:#638DCA;}
	.st133{fill:#6B96E1;}
	.st134{fill:#90B6F3;}
	.st135{fill:#6796EB;}
	.st136{fill:#C8A7A5;}
	.st137{fill:#817EAE;}
	.st138{fill:#DF9387;}
	.st139{fill:#B99151;}
	.st140{fill:#EFE8D0;}
	.st141{fill:#CC8D84;}
	.st142{fill:#304B78;}
	.st143{fill:#283F65;}
	.st144{fill:#365780;}
	.st145{fill:#CC94A0;}
	.st146{fill:#C0C6CC;}
	.st147{fill:#EBD5DA;}
	.st148{fill:#668ED4;}
	.st149{fill:#D4C3C7;}
	.st150{fill:#ACB0B4;}
	.st151{fill:#B6BDC3;}
	.st152{fill:#CE9668;}
	.st153{fill:#9C9FA0;}
	.st154{fill:#893248;}
	.st155{fill:#E7EBF0;}
	.st156{fill:#673628;}
	.st157{fill:#ECE9D8;}
	.st158{fill:#E3CB78;}
	.st159{fill:#6D9E86;}
	.st160{fill:#BE9573;}
	.st161{fill:#D1A37A;}
	.st162{fill:#D5C6B8;}
	.st163{fill:#E7D4C3;}
	.st164{fill:#B4A69A;}
	.st165{fill:#C79064;}
	.st166{fill:#BEC4C9;}
	.st167{fill:#AAADB2;}
	.st168{fill:#B4BBC1;}
	.st169{fill:#CC9468;}
	.st170{fill:#9A9D9E;}
	.st171{fill:#873248;}
	.st172{fill:#E5E9EE;}
	.st173{fill:#DBBBB8;}
	.st174{fill:#D3CAC3;}
	.st175{fill:#E4DAD1;}
	.st176{fill:#979492;}
	.st177{fill:#BAB5B0;}
	.st178{fill:#D1996C;}
	.st179{fill:#58504B;}
	.st180{fill:#E3DBDB;}
	.st181{fill:#855151;}
	.st182{fill:#BD8F9B;}
	.st183{fill:#CFC45A;}
	.st184{fill:#599178;}
	.st185{fill:#C3EDDE;}
	.st186{fill:#A2D4BF;}
	.st187{fill:#CA6F62;}
	.st188{fill:#EBDDE0;}
	.st189{fill:#D7CCCF;}
	.st190{fill:#CBC8C9;}
	.st191{fill:#A39EA0;}
	.st192{fill:#BAB2B4;}
	.st193{fill:#AA818B;}
	.st194{fill:#BF8D97;}
	.st195{fill:#C8939E;}
	.st196{fill:#E4C0C7;}
	.st197{fill:#A5BAD3;}
	.st198{fill:#B3CAEC;}
	.st199{fill:#6C95DC;}
	.st200{fill:#6E9AE6;}
	.st201{fill:#D4A67D;}
	.st202{fill:#D3D1C2;}
	.st203{fill:#827FB3;}
	.st204{fill:#646386;}
	.st205{fill:#6F6D97;}
	.st206{fill:#5A597A;}
	.st207{fill:#B6B4DA;}
	.st208{fill:#D0CEC0;}
	.st209{fill:#DAB9B6;}
	.st210{fill:#7E7AAB;}
	.st211{fill:#DBC5C5;}
	.st212{fill:#E0C18D;}
	.st213{fill:#7D9DC8;}
	.st214{fill:#9EBEEF;}
	.st215{fill:#C3D6F0;}
	.st216{fill:#B79872;}
	.st217{fill:#A68962;}
	.st218{fill:#70665E;}
	.st219{fill:#8E9791;}
	.st220{fill:#535399;}
	.st221{fill:#E0EBE4;}
	.st222{fill:#C08B96;}
	.st223{fill:#DDEDE7;}
	.st224{fill:#A68048;}
	.st225{fill:#474085;}
	.st226{fill:#7C7C9C;}
	.st227{fill:#9E9DCD;}
	.st228{fill:#4D291F;}
	.st229{fill:#854735;}
	.st230{fill:#9C533F;}
	.st231{fill:#D15F2E;}
	.st232{fill:#C26862;}
	.st233{fill:#464648;}
	.st234{fill:#3A3A3C;}
	.st235{fill:#5E5E63;}
	.st236{fill:#4F4F55;}
	.st237{fill:#7F7F86;}
	.st238{fill:#686871;}
	.st239{fill:#548A72;}
	.st240{fill:#67A98C;}
	.st241{fill:#CC9366;}
	.st242{fill:#CEB76E;}
	.st243{fill:#E1D4AB;}
	.st244{fill:#A87958;}
	.st245{fill:#92B5A5;}
	.st246{fill:#B68B4F;}
	.st247{fill:#D5B788;}
	.st248{fill:#CDE0D8;}
	.st249{fill:#6F6D95;}
	.st250{fill:#DAE1E6;}
	.st251{fill:#E0B7BF;}
	.st252{fill:#C2909D;}
	.st253{fill:#D6AAB5;}
	.st254{fill:#807FB1;}
	.st255{fill:#646384;}
	.st256{fill:#B4B2D8;}
	.st257{fill:#E8E5D4;}
	.st258{fill:#DFC778;}
	.st259{fill:#CF98A4;}
	.st260{fill:#99737F;}
	.st261{fill:none;stroke:#538872;stroke-width:10;stroke-linecap:round;stroke-miterlimit:10;}
	.st262{fill:#87485A;}
	.st263{fill:#A25365;}
	.st264{fill:#A4BDB1;}
	.st265{fill:#C7A23A;}
	.st266{fill:#E6BE3F;}
	.st267{fill:#A77D5A;}
	.st268{fill:#DDD9D5;}
	.st269{fill:#9F7654;}
	.st270{fill:#8B6A4D;}
	.st271{fill:#CACCCB;}
	.st272{fill:#C7C7D3;}
	.st273{fill:#D7D6E8;}
	.st274{fill:#E9DBDE;}
	.st275{fill:#D5CACD;}
	.st276{fill:#C9C6C7;}
	.st277{fill:#A19C9E;}
	.st278{fill:#B8AFB2;}
	.st279{fill:#6C9C84;}
	.st280{fill:#8481B6;}
	.st281{fill:#82653B;}
	.st282{fill:#D1CFC0;}
	.st283{fill:#C6919C;}
	.st284{fill:#A88089;}
	.st285{fill:#CECCBE;}
	.st286{fill:#739EF9;}
	.st287{fill:#A3B8D1;}
	.st288{fill:#B1C8EA;}
	.st289{fill:#6B93DA;}
	.st290{fill:#6D98E4;}
	.st291{fill:#BCC2C7;}
	.st292{fill:#A8ABB0;}
	.st293{fill:#B2B9BF;}
	.st294{fill:#CA9268;}
	.st295{fill:#DDA16E;}
	.st296{fill:#989B9C;}
	.st297{fill:#C03C50;}
	.st298{fill:#853248;}
	.st299{fill:#E3E7EC;}
	.st300{fill:#AC844B;}
	.st301{fill:#C6BB5A;}
	.st302{fill:#94B5A6;}
	.st303{fill:#C7E0D5;}
	.st304{fill:#6892DC;}
	.st305{fill:#B7D5C8;}
	.st306{fill:#A2BBAF;}
	.st307{fill:#528672;}
	.st308{fill:#67A588;}
	.st309{fill:#C5A03A;}
	.st310{fill:#E4BC3F;}
	.st311{fill:#DCE6E1;}
	.st312{fill:#993A52;}
	.st313{fill:#983347;}
</style>
<g id="BULINE">
	<g>
		<g>
			<path class="st3" d="M512,256c0,3.3-0.1,6.5-0.2,9.8c-1.6,41.6-13.1,80.7-32.2,115c-2.3,4.1-4.7,8.1-7.2,12
				c-9.3,14.7-20.1,28.4-32.1,40.9c-3.1,3.3-6.4,6.5-9.7,9.6c-5.4,5-10.9,9.8-16.7,14.3c-9,7.1-18.4,13.5-28.3,19.3
				c-0.5,0.3-1,0.6-1.5,0.9c-0.2,0.1-0.4,0.2-0.5,0.3c-4.6,2.7-9.4,5.2-14.2,7.6c-1.6,0.8-3.1,1.5-4.7,2.3c-0.1,0-0.2,0.1-0.3,0.1
				c-17.6,8.2-36.2,14.5-55.7,18.6c-5.9,1.2-11.8,2.3-17.9,3.1c-3.4,0.5-6.9,0.9-10.3,1.2c-8.1,0.8-16.2,1.2-24.5,1.2h-0.3
				c-0.7,0-1.4,0-2.1,0c-6.5-0.1-13-0.4-19.5-0.9c-0.9-0.1-1.8-0.2-2.7-0.2c-3.6-0.3-7.1-0.7-10.6-1.2c-27.8-3.8-54.1-12.1-78.3-24
				c0,0,0,0-0.1,0c-2.8-1.4-5.6-2.8-8.4-4.3c-0.3-0.2-0.7-0.3-1-0.5c-12.3-6.8-24.1-14.5-35.1-23.2c-5.8-4.5-11.3-9.3-16.7-14.3
				c-3.3-3.1-6.6-6.3-9.7-9.6c-10.7-11.1-20.4-23.2-29-36c-1.1-1.6-2.1-3.2-3.1-4.8c-0.4-0.7-0.8-1.3-1.2-2c-2.1-3.3-4-6.6-5.9-10
				c-16.1-28.9-26.9-61.2-30.8-95.6c-0.7-6.4-1.2-12.8-1.5-19.4C0.1,262.5,0,259.3,0,256C0,114.6,114.6,0,256,0S512,114.6,512,256z"
				/>
		</g>
	</g>
</g>
<g id="ICON_1_">
	<g id="XMLID_1491_">
		<path id="XMLID_1897_" class="st8" d="M322.8,327.6c0,0-94.7,20.9-113.6,10.4l-3.7,17.9l62.1,24.7h72l25.3-16l-21.5-32
			L322.8,327.6z"/>
		<path id="XMLID_1896_" class="st8" d="M359.7,369.2l-25-29l45.4-39.2c8-6.9,20.1-6,27,2l0,0c6.9,8,6,20.1-2,27L359.7,369.2z"/>
		<path id="XMLID_1895_" class="st128" d="M333.1,343.8l-19.3-22.3l35-30.2c6.2-5.3,15.5-4.6,20.8,1.5l0,0
			c5.3,6.2,4.6,15.5-1.5,20.8L333.1,343.8z"/>
		<g id="XMLID_1462_">
			<ellipse id="XMLID_1478_" class="st97" cx="289.4" cy="294.6" rx="142.7" ry="54.7"/>
			<path id="XMLID_1477_" class="st6" d="M205,264.7c23.3,0,42.3,14.5,42.3,32.4c0,17.9-18.9,32.5-42.2,32.5s-52.8-32.4-52.8-32.4
				S181.7,264.7,205,264.7z"/>
			<path id="XMLID_1476_" class="st6" d="M371.9,329.6c-23.3,0-42.3-14.5-42.3-32.4c0-17.9,18.9-32.5,42.2-32.5s52.8,32.4,52.8,32.4
				S395.2,329.6,371.9,329.6z"/>
			<path id="XMLID_1475_" class="st6" d="M249,324.9c0-27.8,17.3-50.4,38.7-50.4s38.7,22.5,38.7,50.4c0,27.8-38.7,62.9-38.7,62.9
				S249,352.7,249,324.9z"/>
			<path id="XMLID_1474_" class="st98" d="M326.4,324.9c0,27.8-38.7,62.9-38.7,62.9s-3-2.7-7.2-7.2c11.2-11.7,31.5-35.6,31.5-55.7
				c0-24.6-13.5-45.1-31.5-49.5c2.3-0.6,4.8-0.9,7.2-0.9C309.1,274.5,326.4,297.1,326.4,324.9z"/>
			<path id="XMLID_1473_" class="st98" d="M372,264.7c23.4,0,52.8,32.5,52.8,32.5s-2.3,2.5-6,6.1c-9.8-9.4-29.9-26.4-46.8-26.4
				c-20.6,0-37.8,11.4-41.5,26.4c-0.5-2-0.7-4-0.7-6.1C329.7,279.2,348.7,264.7,372,264.7z"/>
			<path id="XMLID_1472_" class="st98" d="M206,329.6c-23.4,0-52.8-32.5-52.8-32.5s2.3-2.5,6-6.1c9.8,9.4,29.9,26.4,46.8,26.4
				c20.6,0,37.8-11.4,41.5-26.4c0.5,2,0.7,4,0.7,6.1C248.3,315,229.4,329.6,206,329.6z"/>
			<path id="XMLID_1471_" class="st99" d="M412.9,224.1c-28.6,50.2-102.6,62.1-102.6,62.1s-27.5-69.7,1.1-119.9
				s102.6-62.1,102.6-62.1S441.6,173.9,412.9,224.1z"/>
			<path id="XMLID_1470_" class="st99" d="M158.9,225.4c28.6,50.2,102.6,62.1,102.6,62.1s27.5-69.7-1.1-119.9
				s-102.6-62.1-102.6-62.1S130.2,175.2,158.9,225.4z"/>
			<path id="XMLID_1469_" class="st100" d="M173.8,270.8c45,36.3,118.2,20.3,118.2,20.3s0.2-74.9-44.8-111.2S129,159.6,129,159.6
				S128.8,234.5,173.8,270.8z"/>
			<path id="XMLID_1468_" class="st100" d="M404.9,271.2c-45,36.3-118.2,20.3-118.2,20.3s-0.2-74.9,44.8-111.2S449.7,160,449.7,160
				S449.9,234.9,404.9,271.2z"/>
			<path id="XMLID_1467_" class="st101" d="M382.1,217.4c-21.8,53.6-93.6,75-93.6,75s-36.4-65.4-14.7-119s93.6-75,93.6-75
				S403.9,163.8,382.1,217.4z"/>
			<path id="XMLID_1466_" class="st101" d="M193.2,217.2c21.8,53.6,93.6,75,93.6,75s36.4-65.4,14.7-119s-93.6-75-93.6-75
				S171.4,163.6,193.2,217.2z"/>
			<path id="XMLID_1465_" class="st102" d="M346.1,187.7c0,57.8-58.4,104.7-58.4,104.7s-58.4-46.9-58.4-104.7S287.7,83,287.7,83
				S346.1,129.9,346.1,187.7z"/>
			<ellipse id="XMLID_1464_" class="st103" cx="317.1" cy="171.6" rx="8.4" ry="31.5"/>
			<circle id="XMLID_1463_" class="st103" cx="317.1" cy="216.5" r="7.7"/>
		</g>
		<path id="XMLID_1871_" class="st11" d="M303,341.3l-116.6-18.6l9.1-56.8L312,284.5c14.7,2.3,24.6,16.1,22.3,30.8l-0.6,3.8
			C331.4,333.7,317.6,343.7,303,341.3z"/>
		<ellipse id="XMLID_1869_" class="st11" cx="156.7" cy="302.9" rx="61.6" ry="53.3"/>
		<ellipse id="XMLID_1868_" class="st11" cx="350.8" cy="403.4" rx="28.1" ry="29.3"/>
		<ellipse id="XMLID_1867_" class="st11" cx="113.2" cy="374.1" rx="67.4" ry="58.3"/>
		<polygon id="XMLID_1866_" class="st11" points="352.7,432.7 107,432.7 107,364.8 368.4,364.8 		"/>
		<path id="XMLID_1865_" class="st11" d="M488.9,325.2c0,1.8-0.2,3.6-0.5,5.3c-1.3,6.7-5,12.9-11,17.2l-14.9,10.7l-97.2,69.8
			L333,383.1l112-80.4c12.4-9,29.8-6.1,38.7,6.3C487.2,313.9,488.9,319.6,488.9,325.2z"/>
		<polygon id="XMLID_1864_" class="st11" points="276.1,364.8 205.4,356 194.9,396.6 268.2,396.6 		"/>
		<path id="XMLID_1863_" class="st129" d="M480.2,333c-1.3,6.7-7.1,10.4-13.1,14.7l-14.9,10.7l-1.8-2.1c-5-5.9-4.3-14.8,1.6-19.8
			l18.1-15.3L480.2,333z"/>
		<path class="st11" d="M209.2,338.1v59.5H42.7c-1.1-1.6-2.1-3.2-3.1-4.8c-0.4-0.7-0.8-1.3-1.2-2c-2.1-3.3-4-6.6-5.9-10
			c-16.1-28.9-26.9-61.2-30.8-95.6h36.7l80.1-25.7l5.6-1.8l0.1,0c2.1,0,4.1,0.1,6.2,0.2h0c25,1.7,47,13.7,61.4,31.4
			c8.6,10.5,14.4,23.2,16.5,36.9c0,0,0,0,0,0c0.3,1.7,0.5,3.3,0.6,5v0c0.1,1.2,0.2,2.3,0.2,3.5c0,0,0,0,0,0
			C209.2,335.8,209.2,336.9,209.2,338.1z"/>
		<line id="XMLID_1861_" class="st130" x1="247" y1="287.7" x2="241.3" y2="315.7"/>
		<line id="XMLID_3372_" class="st130" x1="233.5" y1="285.1" x2="227.9" y2="313.2"/>
		<path id="XMLID_1870_" class="st129" d="M313.7,332.8l-19.4-3.1c-9.3-1.5-15.6-10.2-14.1-19.4l0.4-2.6
			c1.5-9.3,10.2-15.6,19.4-14.1l19.4,3.1L313.7,332.8z"/>
	</g>
</g>
</svg>
