<svg xmlns="http://www.w3.org/2000/svg" width="128" height="128" viewBox="0 0 128 128">
  <title>CANDLE</title>
  <g>
    <rect x="52.167" y="42.667" width="23.667" height="53.667" fill="#f93e55"/>
    <path d="M75.835,42.667v11.86a3.945,3.945,0,1,1-7.89,0v-1.39A3.961,3.961,0,0,0,64,49.187a3.95,3.95,0,0,0-3.94,3.95v5.98a3.945,3.945,0,1,1-7.89,0V42.667Z" fill="#ffc82c"/>
    <path d="M40.128,96.333H87.872a0,0,0,0,1,0,0v0a9.483,9.483,0,0,1-9.483,9.483H49.611a9.483,9.483,0,0,1-9.483-9.483v0a0,0,0,0,1,0,0Z" fill="#5097ff"/>
    <path d="M70.818,30.643a6.818,6.818,0,1,1-13.636,0C57.182,26.878,64,16.712,64,16.712S70.818,26.878,70.818,30.643Z" fill="#ff8955"/>
  </g>
</svg>
