<?xml version="1.0" encoding="utf-8"?>
<!-- Generator: Adobe Illustrator 24.0.0, SVG Export Plug-In . SVG Version: 6.00 Build 0)  -->
<svg version="1.1" xmlns="http://www.w3.org/2000/svg" xmlns:xlink="http://www.w3.org/1999/xlink" x="0px" y="0px"
	 viewBox="0 0 256 256" style="enable-background:new 0 0 256 256;" xml:space="preserve">
<style type="text/css">
	.st0{fill:#F98FA6;}
	.st1{fill:#FC657E;}
	.st2{fill:#DAE6F1;}
	.st3{fill:#5290DB;}
	.st4{fill:#FCDD86;}
	.st5{fill:#F5C84C;}
	.st6{fill:#87D147;}
	.st7{fill:#70D6F9;}
	.st8{fill:#EDF4FC;}
	.st9{fill:#9BE5F9;}
	.st10{fill:#B2E26D;}
	.st11{fill:#F9C1A8;}
	.st12{fill:#414344;}
	.st13{fill:#E1FBFF;}
	.st14{fill:#FFE3EC;}
	.st15{fill:#FCBECF;}
	.st16{fill:#EF4460;}
	.st17{fill:#80C2F9;}
	.st18{fill:#3A70BF;}
	.st19{fill:#FCA265;}
	.st20{fill:#5B5D60;}
	.st21{fill:#818182;}
	.st22{fill:#C7D7E5;}
	.st23{fill:#F9D0B4;}
	.st24{fill:#AA6F59;}
	.st25{fill:#D1856D;}
	.st26{fill:#FCC29A;}
	.st27{fill:#29589F;}
	.st28{fill:#F7B386;}
	.st29{fill:#FC8C48;}
	.st30{fill:#FFF0CC;}
	.st31{fill:#57AF12;}
	.st32{fill:#3CAADC;}
	.st33{fill:#EDB311;}
	.st34{fill:#231F20;}
</style>
<g id="Layer_1">
</g>
<g id="Layer_2">
</g>
<g id="Layer_3">
</g>
<g id="Layer_4">
</g>
<g id="Layer_5">
</g>
<g id="Layer_6">
</g>
<g id="Layer_7">
</g>
<g id="Layer_8">
</g>
<g id="Layer_9">
</g>
<g id="Layer_10">
</g>
<g id="Layer_11">
</g>
<g id="Layer_12">
</g>
<g id="Layer_13">
</g>
<g id="Layer_14">
</g>
<g id="Layer_15">
</g>
<g id="Layer_16">
</g>
<g id="Layer_17">
</g>
<g id="Layer_18">
</g>
<g id="Layer_19">
</g>
<g id="Layer_20">
</g>
<g id="Layer_21">
</g>
<g id="Layer_22">
</g>
<g id="Layer_23">
	<g>
		<g>
			<g>
				<path class="st24" d="M182.393,16.479H75.434c-6.627,0-12,5.372-12,12v91.609l130.959,68.881V28.479
					C194.393,21.852,189.02,16.479,182.393,16.479z"/>
			</g>
		</g>
		<g>
			<g>
				<path class="st25" d="M101.055,26.011H75.849c-1.525,0-2.762,1.236-2.762,2.762V53.98c0,1.525,1.236,2.762,2.762,2.762h25.207
					c1.525,0,2.762-1.236,2.762-2.762V28.773C103.817,27.248,102.58,26.011,101.055,26.011z"/>
			</g>
		</g>
		<g>
			<g>
				<path class="st25" d="M141.517,26.011H116.31c-1.525,0-2.762,1.236-2.762,2.762V53.98c0,1.525,1.236,2.762,2.762,2.762h25.207
					c1.525,0,2.762-1.236,2.762-2.762V28.773C144.278,27.248,143.042,26.011,141.517,26.011z"/>
			</g>
		</g>
		<g>
			<g>
				<path class="st25" d="M181.978,26.011h-25.207c-1.525,0-2.762,1.236-2.762,2.762V53.98c0,1.525,1.236,2.762,2.762,2.762h25.207
					c1.525,0,2.762-1.236,2.762-2.762V28.773C184.74,27.248,183.503,26.011,181.978,26.011z"/>
			</g>
		</g>
		<g>
			<g>
				<path class="st25" d="M101.055,66.096H75.849c-1.525,0-2.762,1.236-2.762,2.762v25.207c0,1.525,1.236,2.762,2.762,2.762h25.207
					c1.525,0,2.762-1.237,2.762-2.762V68.858C103.817,67.332,102.58,66.096,101.055,66.096z"/>
			</g>
		</g>
		<g>
			<g>
				<path class="st25" d="M141.517,66.096H116.31c-1.525,0-2.762,1.236-2.762,2.762v25.207c0,1.525,1.236,2.762,2.762,2.762h25.207
					c1.525,0,2.762-1.237,2.762-2.762V68.858C144.278,67.332,143.042,66.096,141.517,66.096z"/>
			</g>
		</g>
		<g>
			<g>
				<path class="st25" d="M181.978,66.096h-25.207c-1.525,0-2.762,1.236-2.762,2.762v25.207c0,1.525,1.236,2.762,2.762,2.762h25.207
					c1.525,0,2.762-1.237,2.762-2.762V68.858C184.74,67.332,183.503,66.096,181.978,66.096z"/>
			</g>
		</g>
		<g>
			<g>
				<path class="st25" d="M141.517,106.18H116.31c-1.525,0-2.762,1.236-2.762,2.762v25.207c0,1.525,1.236,2.762,2.762,2.762h25.207
					c1.525,0,2.762-1.236,2.762-2.762v-25.207C144.278,107.417,143.042,106.18,141.517,106.18z"/>
			</g>
		</g>
		<g>
			<g>
				<path class="st25" d="M181.978,106.18h-25.207c-1.525,0-2.762,1.236-2.762,2.762v25.207c0,1.525,1.236,2.762,2.762,2.762h25.207
					c1.525,0,2.762-1.236,2.762-2.762v-25.207C184.74,107.417,183.503,106.18,181.978,106.18z"/>
			</g>
		</g>
		<g>
			<g>
				<path class="st25" d="M141.517,146.265H116.31c-0.693,0-1.319,0.264-1.804,0.686l29.772,15.659v-13.584
					C144.278,147.501,143.042,146.265,141.517,146.265z"/>
			</g>
		</g>
		<g>
			<g>
				<path class="st25" d="M181.978,146.265h-25.207c-1.525,0-2.762,1.236-2.762,2.762v18.702l17.617,9.266h10.351
					c1.525,0,2.762-1.236,2.762-2.762v-25.207C184.74,147.501,183.503,146.265,181.978,146.265z"/>
			</g>
		</g>
		<g>
			<g>
				<path class="st25" d="M101.055,106.18H75.849c-1.525,0-2.762,1.236-2.762,2.762v16.223l22.331,11.745h5.638
					c1.525,0,2.762-1.236,2.762-2.762v-25.207C103.817,107.417,102.58,106.18,101.055,106.18z"/>
			</g>
		</g>
		<g>
			<g>
				<path class="st8" d="M63.434,120.088l-12.114,30.204c-1.308,3.262,0.503,6.938,3.887,7.888l139.186,39.053v-8.264
					L63.434,120.088z"/>
			</g>
		</g>
		<g>
			<g>
				<path class="st17" d="M63.434,160.488V241.5c0,6.627,5.372,12,12,12h106.959c6.627,0,12-5.372,12-12v-44.268L63.434,160.488z"/>
			</g>
		</g>
		<g>
			<g>
				<path class="st3" d="M73.434,163.294V241.5c0,1.103,0.897,2,2,2h106.959c1.103,0,2-0.897,2-2v-47.074L73.434,163.294z"/>
			</g>
		</g>
		<g>
			<g>
				<path class="st17" d="M93.435,168.906c7.206,19.536,20.277,32.594,35.207,32.594c9.926,0,19.031-5.772,26.137-15.382
					L93.435,168.906z"/>
			</g>
		</g>
		<g>
			<g>
				<path d="M182.393,13.979H75.434c-7.995,0-14.5,6.504-14.5,14.5v91.609c0,1.381,1.119,2.5,2.5,2.5s2.5-1.119,2.5-2.5V28.479
					c0-5.238,4.262-9.5,9.5-9.5h106.959c5.238,0,9.5,4.261,9.5,9.5v160.49c0,1.381,1.119,2.5,2.5,2.5s2.5-1.119,2.5-2.5V28.479
					C196.893,20.484,190.388,13.979,182.393,13.979z"/>
			</g>
		</g>
		<g>
			<g>
				<g>
					<path d="M101.055,23.511H75.849c-2.901,0-5.262,2.36-5.262,5.262V53.98c0,2.901,2.36,5.262,5.262,5.262h25.207
						c2.901,0,5.262-2.36,5.262-5.262V28.773C106.317,25.872,103.957,23.511,101.055,23.511z M101.317,53.98
						c0,0.145-0.117,0.262-0.262,0.262H75.849c-0.145,0-0.262-0.117-0.262-0.262V28.773c0-0.145,0.117-0.262,0.262-0.262h25.207
						c0.145,0,0.262,0.117,0.262,0.262V53.98z"/>
				</g>
			</g>
		</g>
		<g>
			<g>
				<g>
					<path d="M141.517,23.511H116.31c-2.901,0-5.262,2.36-5.262,5.262V53.98c0,2.901,2.36,5.262,5.262,5.262h25.207
						c2.901,0,5.262-2.36,5.262-5.262V28.773C146.778,25.872,144.418,23.511,141.517,23.511z M141.778,53.98
						c0,0.145-0.117,0.262-0.262,0.262H116.31c-0.145,0-0.262-0.117-0.262-0.262V28.773c0-0.145,0.117-0.262,0.262-0.262h25.207
						c0.145,0,0.262,0.117,0.262,0.262V53.98z"/>
				</g>
			</g>
		</g>
		<g>
			<g>
				<g>
					<path d="M181.978,23.511h-25.206c-2.901,0-5.262,2.36-5.262,5.262V53.98c0,2.901,2.36,5.262,5.262,5.262h25.206
						c2.901,0,5.262-2.36,5.262-5.262V28.773C187.239,25.872,184.879,23.511,181.978,23.511z M182.239,53.98
						c0,0.145-0.117,0.262-0.262,0.262h-25.206c-0.145,0-0.262-0.117-0.262-0.262V28.773c0-0.145,0.117-0.262,0.262-0.262h25.206
						c0.145,0,0.262,0.117,0.262,0.262V53.98z"/>
				</g>
			</g>
		</g>
		<g>
			<g>
				<g>
					<path d="M101.055,63.596H75.849c-2.901,0-5.262,2.36-5.262,5.262v25.207c0,2.901,2.36,5.262,5.262,5.262h25.207
						c2.901,0,5.262-2.36,5.262-5.262V68.857C106.317,65.956,103.957,63.596,101.055,63.596z M101.317,94.064
						c0,0.145-0.117,0.262-0.262,0.262H75.849c-0.145,0-0.262-0.117-0.262-0.262V68.857c0-0.145,0.117-0.262,0.262-0.262h25.207
						c0.145,0,0.262,0.117,0.262,0.262V94.064z"/>
				</g>
			</g>
		</g>
		<g>
			<g>
				<g>
					<path d="M141.517,63.596H116.31c-2.901,0-5.262,2.36-5.262,5.262v25.207c0,2.901,2.36,5.262,5.262,5.262h25.207
						c2.901,0,5.262-2.36,5.262-5.262V68.857C146.778,65.956,144.418,63.596,141.517,63.596z M141.778,94.064
						c0,0.145-0.117,0.262-0.262,0.262H116.31c-0.145,0-0.262-0.117-0.262-0.262V68.857c0-0.145,0.117-0.262,0.262-0.262h25.207
						c0.145,0,0.262,0.117,0.262,0.262V94.064z"/>
				</g>
			</g>
		</g>
		<g>
			<g>
				<g>
					<path d="M181.978,63.596h-25.206c-2.901,0-5.262,2.36-5.262,5.262v25.207c0,2.901,2.36,5.262,5.262,5.262h25.206
						c2.901,0,5.262-2.36,5.262-5.262V68.857C187.239,65.956,184.879,63.596,181.978,63.596z M182.239,94.064
						c0,0.145-0.117,0.262-0.262,0.262h-25.206c-0.145,0-0.262-0.117-0.262-0.262V68.857c0-0.145,0.117-0.262,0.262-0.262h25.206
						c0.145,0,0.262,0.117,0.262,0.262V94.064z"/>
				</g>
			</g>
		</g>
		<g>
			<g>
				<g>
					<path d="M141.517,103.68H116.31c-2.901,0-5.262,2.36-5.262,5.262v25.207c0,2.901,2.36,5.262,5.262,5.262h25.207
						c2.901,0,5.262-2.36,5.262-5.262v-25.207C146.778,106.041,144.418,103.68,141.517,103.68z M141.778,134.148
						c0,0.145-0.117,0.262-0.262,0.262H116.31c-0.145,0-0.262-0.117-0.262-0.262v-25.207c0-0.145,0.117-0.262,0.262-0.262h25.207
						c0.145,0,0.262,0.117,0.262,0.262V134.148z"/>
				</g>
			</g>
		</g>
		<g>
			<g>
				<g>
					<path d="M181.978,103.68h-25.206c-2.901,0-5.262,2.36-5.262,5.262v25.207c0,2.901,2.36,5.262,5.262,5.262h25.206
						c2.901,0,5.262-2.36,5.262-5.262v-25.207C187.239,106.041,184.879,103.68,181.978,103.68z M182.239,134.148
						c0,0.145-0.117,0.262-0.262,0.262h-25.206c-0.145,0-0.262-0.117-0.262-0.262v-25.207c0-0.145,0.117-0.262,0.262-0.262h25.206
						c0.145,0,0.262,0.117,0.262,0.262V134.148z"/>
				</g>
			</g>
		</g>
		<g>
			<g>
				<path d="M141.517,143.765H116.31c-1.076,0-2.115,0.33-3.004,0.955c-1.13,0.793-1.403,2.352-0.61,3.482
					c0.793,1.13,2.353,1.404,3.482,0.61c0.067-0.047,0.113-0.047,0.132-0.047h25.207c0.145,0,0.262,0.117,0.262,0.262v13.12
					c0,1.381,1.119,2.5,2.5,2.5s2.5-1.119,2.5-2.5v-13.12C146.778,146.125,144.418,143.765,141.517,143.765z"/>
			</g>
		</g>
		<g>
			<g>
				<path d="M181.978,143.765h-25.206c-2.901,0-5.262,2.36-5.262,5.262V167c0,1.381,1.119,2.5,2.5,2.5s2.5-1.119,2.5-2.5v-17.974
					c0-0.145,0.117-0.262,0.262-0.262h25.206c0.145,0,0.262,0.117,0.262,0.262v25.207c0,0.145-0.117,0.262-0.262,0.262h-9.52
					c-1.381,0-2.5,1.119-2.5,2.5s1.119,2.5,2.5,2.5h9.52c2.901,0,5.262-2.36,5.262-5.262v-25.207
					C187.239,146.125,184.879,143.765,181.978,143.765z"/>
			</g>
		</g>
		<g>
			<g>
				<path d="M101.055,103.68H75.849c-2.901,0-5.262,2.36-5.262,5.262v15.85c0,1.381,1.119,2.5,2.5,2.5s2.5-1.119,2.5-2.5v-15.85
					c0-0.145,0.117-0.262,0.262-0.262h25.207c0.145,0,0.262,0.117,0.262,0.262v25.207c0,0.145-0.117,0.262-0.262,0.262h-5.258
					c-1.381,0-2.5,1.119-2.5,2.5s1.119,2.5,2.5,2.5h5.258c2.901,0,5.262-2.36,5.262-5.262v-25.207
					C106.317,106.041,103.957,103.68,101.055,103.68z"/>
			</g>
		</g>
		<g>
			<g>
				<path d="M142.783,215.125h-27.74c-1.381,0-2.5,1.119-2.5,2.5s1.119,2.5,2.5,2.5h27.74c1.381,0,2.5-1.119,2.5-2.5
					S144.164,215.125,142.783,215.125z"/>
			</g>
		</g>
		<g>
			<g>
				<path d="M134.808,224.563h-11.789c-1.381,0-2.5,1.119-2.5,2.5s1.119,2.5,2.5,2.5h11.789c1.381,0,2.5-1.119,2.5-2.5
					S136.188,224.563,134.808,224.563z"/>
			</g>
		</g>
		<g>
			<g>
				<g>
					<path d="M195.557,186.756L64.597,117.875c-0.627-0.33-1.364-0.379-2.027-0.134c-0.664,0.244-1.194,0.759-1.457,1.416
						l-12.114,30.204c-0.887,2.213-0.792,4.708,0.262,6.847c1.054,2.139,2.975,3.734,5.27,4.379l139.186,39.053
						c0.223,0.062,0.45,0.093,0.676,0.093c0.539,0,1.07-0.175,1.51-0.508c0.624-0.473,0.99-1.21,0.99-1.992v-8.264
						C196.893,188.041,196.378,187.188,195.557,186.756z M191.893,193.935l-136.01-38.162c-0.944-0.265-1.703-0.895-2.136-1.775
						c-0.434-0.879-0.471-1.865-0.106-2.775l11.083-27.632l127.17,66.888V193.935z"/>
				</g>
			</g>
		</g>
		<g>
			<g>
				<path d="M194.393,195.281c-1.381,0-2.5,1.119-2.5,2.5V241.5c0,5.238-4.262,9.5-9.5,9.5H75.434c-5.238,0-9.5-4.261-9.5-9.5
					v-80.25c0-1.381-1.119-2.5-2.5-2.5s-2.5,1.119-2.5,2.5v80.25c0,7.995,6.505,14.5,14.5,14.5h106.959
					c7.995,0,14.5-6.504,14.5-14.5v-43.719C196.893,196.4,195.773,195.281,194.393,195.281z"/>
			</g>
		</g>
		<g>
			<g>
				<path d="M184.393,192.375c-1.381,0-2.5,1.119-2.5,2.5V241H75.934v-76.917c0-1.381-1.119-2.5-2.5-2.5s-2.5,1.119-2.5,2.5V241.5
					c0,2.481,2.019,4.5,4.5,4.5h106.959c2.481,0,4.5-2.019,4.5-4.5v-46.626C186.893,193.494,185.773,192.375,184.393,192.375z"/>
			</g>
		</g>
		<g>
			<g>
				<path d="M156.052,184.424c-1.104-0.83-2.671-0.605-3.5,0.499C145.643,194.132,137.375,199,128.643,199
					c-13.247,0-25.445-11.341-32.629-30.337c-0.489-1.292-1.932-1.941-3.223-1.454c-1.292,0.488-1.942,1.931-1.454,3.223
					c7.95,21.02,21.896,33.568,37.306,33.568c10.22,0,20.131-5.709,27.909-16.076C157.38,186.82,157.156,185.253,156.052,184.424z"
					/>
			</g>
		</g>
		<g>
			<g>
				<path class="st5" d="M218.625,18.697c-4.498-0.838-8.043-4.31-8.898-8.716c-0.043-0.221-0.352-0.221-0.395,0
					c-0.855,4.406-4.4,7.879-8.898,8.716c-0.226,0.042-0.226,0.345,0,0.387c4.498,0.838,8.043,4.31,8.898,8.717
					c0.043,0.221,0.352,0.221,0.395,0c0.855-4.406,4.4-7.879,8.898-8.717C218.851,19.042,218.851,18.739,218.625,18.697z"/>
			</g>
		</g>
		<g>
			<g>
				<path class="st1" d="M214.538,124.772c-2.762-0.514-4.938-2.647-5.463-5.352c-0.026-0.136-0.216-0.136-0.242,0
					c-0.525,2.705-2.702,4.838-5.463,5.352c-0.139,0.026-0.139,0.212,0,0.237c2.762,0.514,4.938,2.647,5.463,5.352
					c0.026,0.136,0.216,0.136,0.242,0c0.525-2.705,2.702-4.838,5.463-5.352C214.677,124.984,214.677,124.798,214.538,124.772z"/>
			</g>
		</g>
		<g>
			<g>
				<path class="st7" d="M51.336,174.302h-2.329v-2.33c0-1.744-1.413-3.157-3.157-3.157s-3.157,1.413-3.157,3.157v2.33h-2.33
					c-1.744,0-3.157,1.413-3.157,3.157s1.413,3.157,3.157,3.157h2.33v2.33c0,1.744,1.413,3.157,3.157,3.157s3.157-1.413,3.157-3.157
					v-2.33h2.329c1.744,0,3.157-1.413,3.157-3.157S53.08,174.302,51.336,174.302z"/>
			</g>
		</g>
		<g>
			<g>
				<path class="st6" d="M190.642,0c-1.865,0-3.377,1.512-3.377,3.377s1.512,3.377,3.377,3.377c1.865,0,3.377-1.512,3.377-3.377
					S192.507,0,190.642,0z"/>
			</g>
		</g>
		<g>
			<g>
				<path class="st5" d="M50.642,198c-1.865,0-3.377,1.512-3.377,3.377s1.512,3.377,3.377,3.377c1.865,0,3.377-1.512,3.377-3.377
					S52.507,198,50.642,198z"/>
			</g>
		</g>
		<g>
			<g>
				<path class="st1" d="M50.642,48c-1.865,0-3.377,1.512-3.377,3.377s1.512,3.377,3.377,3.377c1.865,0,3.377-1.512,3.377-3.377
					S52.507,48,50.642,48z"/>
			</g>
		</g>
	</g>
</g>
<g id="Layer_24">
</g>
<g id="Layer_25">
</g>
<g id="Layer_26">
</g>
<g id="Layer_27">
</g>
<g id="Layer_28">
</g>
<g id="Layer_29">
</g>
<g id="Layer_30">
</g>
<g id="Layer_31">
</g>
<g id="Layer_32">
</g>
<g id="Layer_33">
</g>
<g id="Layer_34">
</g>
<g id="Layer_35">
</g>
<g id="Layer_36">
</g>
<g id="Layer_37">
</g>
<g id="Layer_38">
</g>
<g id="Layer_39">
</g>
<g id="Layer_40">
</g>
<g id="Layer_41">
</g>
<g id="Layer_42">
</g>
<g id="Layer_43">
</g>
<g id="Layer_44">
</g>
<g id="Layer_45">
</g>
<g id="Layer_46">
</g>
<g id="Layer_47">
</g>
<g id="Layer_48">
</g>
<g id="Layer_49">
</g>
<g id="Layer_50">
</g>
<g id="Layer_51">
</g>
<g id="Layer_52">
</g>
<g id="Layer_53">
</g>
<g id="Layer_54">
</g>
<g id="Layer_55">
</g>
<g id="Layer_56">
</g>
<g id="Layer_57">
</g>
<g id="Layer_58">
</g>
<g id="Layer_59">
</g>
<g id="Layer_60">
</g>
<g id="Layer_61">
</g>
<g id="Layer_62">
</g>
<g id="Layer_63">
</g>
<g id="Layer_64">
</g>
<g id="Layer_65">
</g>
<g id="Layer_66">
</g>
<g id="Layer_67">
</g>
<g id="Layer_68">
</g>
<g id="Layer_69">
</g>
<g id="Layer_70">
</g>
<g id="Layer_71">
</g>
<g id="Layer_72">
</g>
<g id="Layer_73">
</g>
<g id="Layer_74">
</g>
<g id="Layer_75">
</g>
<g id="Layer_76">
</g>
<g id="Layer_77">
</g>
<g id="Layer_78">
</g>
<g id="Layer_79">
</g>
<g id="Layer_80">
</g>
<g id="Layer_81">
</g>
<g id="Layer_82">
</g>
<g id="Layer_83">
</g>
<g id="Layer_84">
</g>
<g id="Layer_85">
</g>
</svg>
