<?xml version="1.0" encoding="utf-8"?>
<!-- Generator: Adobe Illustrator 21.1.0, SVG Export Plug-In . SVG Version: 6.00 Build 0)  -->
<svg version="1.1" id="Layer_1" xmlns="http://www.w3.org/2000/svg" xmlns:xlink="http://www.w3.org/1999/xlink" x="0px" y="0px"
	 viewBox="0 0 64 64" style="enable-background:new 0 0 64 64;" xml:space="preserve">
<style type="text/css">
	.st0{fill-rule:evenodd;clip-rule:evenodd;fill:#FFF200;}
	.st1{fill:#57CEF3;}
	.st2{fill:#0779E4;}
	.st3{fill-rule:evenodd;clip-rule:evenodd;fill:#FACC2E;}
	.st4{fill-rule:evenodd;clip-rule:evenodd;fill:#314A52;}
</style>
<g id="Ring">
	<path class="st0" d="M4,36C4,20.5,16.5,8,32,8c15.5,0,26,13.5,26,29c0,7.8-1.2,13.9-6.4,19c-5,4.9-12,8-19.6,8C16.5,64,4,51.5,4,36
		z M32,13C18.7,13,9,22.7,9,36c0,13.3,9.7,23,23,23c13.3,0,23-9.7,23-23C55,22.7,45.3,13,32,13z"/>
	<polygon class="st1" points="24,0 40,0 40,4 32,16 20,4 	"/>
	<polygon class="st2" points="40,0 44,4 32,16 36,4 	"/>
	<path class="st3" d="M8,36c0-13.3,10.7-24,24-24c13.3,0,24,10.7,24,24c0,13.3-10.7,24-24,24C18.7,60,8,49.3,8,36z M32,16
		c-11,0-20,9-20,20c0,11,9,20,20,20c11,0,20-9,20-20C52,25,43,16,32,16z"/>
	<path class="st4" d="M36,9.2l4.6-4.6l2.8,2.8l-2.2,2.2c6.1,2.1,11.5,6.4,15,12.4C64,35.4,59.4,52.5,46,60.2l-2-3.5
		c11.5-6.6,15.4-21.3,8.8-32.8c-3.5-6.1-9.4-10.1-15.8-11.5L36,9.2z M23.4,4.6L28,9.2l-1,3.4c-2.4,0.5-4.7,1.4-7,2.7l-2-3.5
		c1.5-0.9,3.1-1.6,4.7-2.2l-2.2-2.2L23.4,4.6z"/>
</g>
</svg>
