<?xml version="1.0" encoding="utf-8"?>
<!-- Generator: Adobe Illustrator 21.1.0, SVG Export Plug-In . SVG Version: 6.00 Build 0)  -->
<svg version="1.1" id="Icon_Set" xmlns="http://www.w3.org/2000/svg" xmlns:xlink="http://www.w3.org/1999/xlink" x="0px" y="0px"
	 viewBox="0 0 512 512" style="enable-background:new 0 0 512 512;" xml:space="preserve">
<style type="text/css">
	.st0{fill:#FFFFFF;}
	.st1{fill:#7DAC51;}
	.st2{fill:#5B7C31;}
	.st3{fill:#463218;}
	.st4{fill:#FEFE71;}
	.st5{fill:#D6CD1E;}
	.st6{fill:#E56823;}
	.st7{fill:#FE8E46;}
	.st8{fill:none;stroke:#FFFFFF;stroke-width:10;stroke-miterlimit:10;}
	.st9{fill:none;stroke:#463218;stroke-width:14;stroke-linecap:round;stroke-linejoin:round;stroke-miterlimit:10;}
	.st10{fill:#FE8D47;}
	.st11{fill:#E56724;}
</style>
<g id="TULIP">
	<g>
		<g>
			<path class="st1" d="M125.7,193.3c0,0,81.5,17.5,150.7,188.2C276.4,381.5,161.6,348.7,125.7,193.3z"/>
		</g>
	</g>
	<g>
		<g>
			<path class="st1" d="M386.3,248.6c0,0-57.5,12.3-106.5,132.9C279.9,381.5,360.9,358.3,386.3,248.6z"/>
		</g>
	</g>
	<g>
		<g>
			<g>
				<path class="st6" d="M308.4,236.5h-62.5V132.9c0-11.4,12.6-18.3,22.2-12.1l0,0c4.5,2.9,10.4,3.1,15.1,0.4l3.7-2.1
					c9.6-5.6,21.6,1.3,21.6,12.4V236.5z"/>
			</g>
		</g>
		<g>
			<g>
				<path class="st3" d="M308.4,243.5h-62.5c-3.9,0-7-3.1-7-7V132.9c0-7.8,4.3-15,11.2-18.8c6.9-3.7,15.2-3.4,21.8,0.8
					c2.3,1.5,5.3,1.6,7.7,0.2l3.7-2.1c6.7-3.9,14.7-3.9,21.4-0.1c6.7,3.9,10.7,10.8,10.7,18.5v105
					C315.4,240.3,312.3,243.5,308.4,243.5z M252.9,229.5h48.5v-98c0-3.8-2.6-5.8-3.7-6.4c-1.1-0.6-4.1-1.9-7.4,0l-3.7,2.1
					c-7,4.1-15.6,3.9-22.4-0.5c-3.3-2.2-6.4-0.9-7.5-0.3c-1.2,0.6-3.8,2.5-3.8,6.5V229.5z"/>
			</g>
		</g>
		<g>
			<g>
				<path class="st4" d="M275.5,294.6v-42.8c0-31.6-14.8-61.3-40.1-80.2l-34.9-26.2v74.3C200.6,261.1,234.1,294.6,275.5,294.6
					L275.5,294.6"/>
			</g>
		</g>
		<g>
			<g>
				<path class="st5" d="M227.1,200.9v-35.7l-26.5-19.9v74.3c0,41.4,33.5,74.9,74.9,74.9V271C247.2,260.4,227.1,233,227.1,200.9z"/>
			</g>
		</g>
		<g>
			<g>
				<path class="st4" d="M276.4,294.6v-42.8c0-31.6,14.8-61.3,40.1-80.2l34.9-26.2v74.3C351.3,261.1,317.8,294.6,276.4,294.6
					L276.4,294.6"/>
			</g>
		</g>
		<g>
			<g>
				<path class="st5" d="M323.8,166.1v37c0,31.6-19.6,58.7-47.4,69.7v21.8c41.4,0,74.9-33.5,74.9-74.9v-74.3L323.8,166.1z"/>
			</g>
		</g>
		<g>
			<g>
				<path class="st0" d="M323,233l-9.3-3.7c3.4-8.3,5.1-17.1,5.1-26.1h10C328.8,213.5,326.8,223.5,323,233z"/>
			</g>
		</g>
		<g>
			<g>
				<path class="st0" d="M305.6,259.5l-7.1-7c4.1-4.1,7.7-8.8,10.6-13.8l8.6,5.1C314.3,249.4,310.2,254.7,305.6,259.5z"/>
			</g>
		</g>
		<g>
			<g>
				<path class="st3" d="M275.5,301.6c-45.2,0-81.9-36.8-81.9-81.9v-74.3c0-2.7,1.5-5.1,3.9-6.3c2.4-1.2,5.2-0.9,7.3,0.7l34.9,26.2
					c26.8,20.2,42.9,52.3,42.9,85.8v42.8C282.5,298.5,279.4,301.6,275.5,301.6z M207.6,159.4v60.3c0,35.1,26.7,64.1,60.9,67.6v-35.4
					c0-29.2-13.9-57.1-37.3-74.6L207.6,159.4z"/>
			</g>
		</g>
		<g>
			<g>
				<path class="st3" d="M276.4,301.6c-3.9,0-7-3.1-7-7v-42.8c0-33.6,16-65.7,42.9-85.8l34.9-26.2c2.1-1.6,5-1.9,7.3-0.7
					c2.4,1.2,3.9,3.6,3.9,6.3v74.3C358.3,264.9,321.6,301.6,276.4,301.6z M344.3,159.4l-23.7,17.8c-23.3,17.5-37.3,45.4-37.3,74.6
					v35.4c34.2-3.5,60.9-32.5,60.9-67.6V159.4z"/>
			</g>
		</g>
		<g>
			<g>
				<path class="st3" d="M275.5,301.6c-45.2,0-81.9-36.8-81.9-81.9v-74.3c0-2.7,1.5-5.1,3.9-6.3c2.4-1.2,5.2-0.9,7.3,0.7l34.9,26.2
					c26.8,20.2,42.9,52.3,42.9,85.8v42.8C282.5,298.5,279.4,301.6,275.5,301.6z M207.6,159.4v60.3c0,35.1,26.7,64.1,60.9,67.6v-35.4
					c0-29.2-13.9-57.1-37.3-74.6L207.6,159.4z"/>
			</g>
		</g>
		<g>
			<g>
				<path class="st3" d="M276.4,301.6c-3.9,0-7-3.1-7-7v-42.8c0-33.6,16-65.7,42.9-85.8l34.9-26.2c2.1-1.6,5-1.9,7.3-0.7
					c2.4,1.2,3.9,3.6,3.9,6.3v74.3C358.3,264.9,321.6,301.6,276.4,301.6z M344.3,159.4l-23.7,17.8c-23.3,17.5-37.3,45.4-37.3,74.6
					v35.4c34.2-3.5,60.9-32.5,60.9-67.6V159.4z"/>
			</g>
		</g>
		<g>
			<g>
				<path class="st3" d="M275.9,402c-3.9,0-7-3.1-7-7V294.7c0-3.9,3.1-7,7-7s7,3.1,7,7V395C282.9,398.8,279.8,402,275.9,402z"/>
			</g>
		</g>
	</g>
	<g>
		<g>
			<path class="st3" d="M276.4,388.5c-0.6,0-1.3-0.1-1.9-0.3c-1.2-0.4-30.5-8.9-64.4-37.2c-31.1-25.9-72.2-74-91.2-156.2
				c-0.5-2.3,0.2-4.8,1.8-6.5s4.1-2.4,6.5-1.9c0.9,0.2,22.5,5.1,52.6,31.7c49,43.4,83.2,111.4,103.2,160.7c1,2.5,0.5,5.3-1.3,7.3
				C280.3,387.7,278.4,388.5,276.4,388.5z M135.8,204.7c19.1,70.2,55.1,112,82.7,135.1c17.5,14.7,33.9,23.8,45.1,29
				c-19.8-45.5-50.4-101.9-92-139.2C156.7,216.3,144.2,208.8,135.8,204.7z"/>
		</g>
	</g>
	<g>
		<g>
			<path class="st3" d="M279.9,388.5c-2,0-3.9-0.8-5.2-2.3c-1.8-2-2.3-4.8-1.3-7.3c49.7-122.6,109-136.6,111.5-137.1
				c2.3-0.5,4.8,0.2,6.5,1.9s2.4,4.2,1.8,6.5c-13.6,58.6-42.9,92.9-65.1,111.4c-24.3,20.2-45.4,26.4-46.3,26.6
				C281.2,388.4,280.5,388.5,279.9,388.5z M375.9,260.6c-5.5,3.1-12.7,8-20.9,15.4c-16.2,14.6-39.4,42.2-61.8,92.2
				c7.3-3.8,16.6-9.6,26.5-17.8C338.2,334.7,362.3,306.8,375.9,260.6z"/>
		</g>
	</g>
</g>
</svg>
