<svg xmlns="http://www.w3.org/2000/svg" viewBox="0 0 128 128"><title>icon19.2g</title><g id="rose"><path d="M32.54,27.47c.22.3.763.943,2.06,2.47a26.161,26.161,0,0,0,2.45,2.4c4.12,3.71,4.17,9.59,4.21,14.32.01.9.02,1.78.05,2.58l5.35-1.05a7,7,0,0,0,5.51-5.67L54.8,27.06C50.14,20.73,38.77,15.01,33.98,12.8a2.089,2.089,0,0,0-2.67.8,12.437,12.437,0,0,0-1.34,2.88,11.087,11.087,0,0,0-.09,5.71A16.448,16.448,0,0,0,32.54,27.47Z"/><path d="M37.26,46.69c-.03-4.14-.07-8.85-2.88-11.37a45.876,45.876,0,0,1-3.76-3.84,34.858,34.858,0,0,1-3.42-5.15A20.328,20.328,0,0,1,25.97,23l-.01.01V23c-3.8,1.965-8.22,4.49-9.06,5.01a2.106,2.106,0,0,0-.81,2.68c2.2,4.74,7.86,16.01,14.15,20.73l7.11-1.4C37.28,48.97,37.27,47.85,37.26,46.69Z"/><path d="M25.55,18.78c.01-.35.11-1.36.14-1.52a6.5,6.5,0,0,0-2.96-.79,3.014,3.014,0,0,0-2.19.78c-.9.9-1.01,2.54-.39,4.25C22.307,20.363,25.35,18.87,25.55,18.78Z"/><path d="M58.76,27.66,56.11,43.2a11,11,0,0,1-8.68,8.91l-9.48,1.87-7.09,1.4c7.77,6.52,19.926,6.272,26.96-1.41l.02-.02a19.561,19.561,0,0,0,5.49-13.66A19.576,19.576,0,0,0,58.76,27.66Z"/><path d="M115.21,119.07a2.02,2.02,0,0,1-1.1.33,1.988,1.988,0,0,1-1.67-.89l-5.87-8.85c-.01-.02-.03-.04-.04-.06L96.22,94.06l-8.13-2.61a2,2,0,1,1,1.22-3.81l3.36,1.08A69.4,69.4,0,0,0,78.63,73.63l-.12-.1L59.18,58.16c.4-.35.81-.7,1.19-1.08A23.019,23.019,0,0,0,62,55.28L77.62,67.71l-.16-2.75a2,2,0,1,1,3.99-.23l.38,6.34A72.978,72.978,0,0,1,96.55,87.32l2.56,3.85a.435.435,0,0,0,.04.07l7.71,11.62.26-2.43a2,2,0,0,1,3.98.43l-.78,7.22,5.45,8.22A2,2,0,0,1,115.21,119.07Z"/></g></svg>